{"header":{"formatType":1,"trackCount":2,"ticksPerBeat":15360},"tracks":[[{"deltaTime":0,"type":"meta","subtype":"trackName","text":"Transport"},{"deltaTime":0,"type":"meta","subtype":"instrumentName","text":"Hardware Interface II"},{"deltaTime":0,"type":"meta","subtype":"unknown","data":"\u0000"},{"deltaTime":0,"type":"meta","subtype":"setTempo","microsecondsPerBeat":468750},{"deltaTime":0,"type":"meta","subtype":"timeSignature","numerator":4,"denominator":4,"metronome":24,"thirtyseconds":8},{"deltaTime":6144000,"type":"meta","subtype":"endOfTrack"}],[{"deltaTime":0,"type":"meta","subtype":"trackName","text":"NN-XT 1"},{"deltaTime":0,"type":"meta","subtype":"instrumentName","text":"NN-XT 1"},{"deltaTime":0,"type":"meta","subtype":"unknown","data":"\u0001"},{"deltaTime":0,"channel":0,"type":"channel","subtype":"controller","controllerType":64,"value":127},{"deltaTime":719,"channel":0,"type":"channel","subtype":"controller","controllerType":64,"value":120},{"deltaTime":154,"channel":0,"type":"channel","subtype":"controller","controllerType":64,"value":56},{"deltaTime":92,"channel":0,"type":"channel","subtype":"controller","controllerType":64,"value":0},{"deltaTime":2995,"channel":0,"type":"channel","subtype":"controller","controllerType":64,"value":56},{"deltaTime":153,"channel":0,"type":"channel","subtype":"controller","controllerType":64,"value":120},{"deltaTime":31,"channel":0,"type":"channel","subtype":"controller","controllerType":64,"value":127},{"deltaTime":14623,"channel":0,"type":"channel","subtype":"controller","controllerType":64,"value":120},{"deltaTime":141,"channel":0,"type":"channel","subtype":"controller","controllerType":64,"value":56},{"deltaTime":93,"channel":0,"type":"channel","subtype":"controller","controllerType":64,"value":0},{"deltaTime":4606,"channel":0,"type":"channel","subtype":"controller","controllerType":64,"value":56},{"deltaTime":122,"channel":0,"type":"channel","subtype":"controller","controllerType":64,"value":120},{"deltaTime":31,"channel":0,"type":"channel","subtype":"controller","controllerType":64,"value":127},{"deltaTime":22704,"channel":0,"type":"channel","noteNumber":42,"velocity":59,"subtype":"noteOn"},{"deltaTime":2404,"channel":0,"type":"channel","subtype":"controller","controllerType":64,"value":120},{"deltaTime":154,"channel":0,"type":"channel","subtype":"controller","controllerType":64,"value":56},{"deltaTime":91,"channel":0,"type":"channel","subtype":"controller","controllerType":64,"value":0},{"deltaTime":1458,"channel":0,"type":"channel","subtype":"noteOff","noteNumber":42,"velocity":0},{"deltaTime":1925,"channel":0,"type":"channel","subtype":"controller","controllerType":64,"value":56},{"deltaTime":31,"channel":0,"type":"channel","noteNumber":54,"velocity":45,"subtype":"noteOn"},{"deltaTime":264,"channel":0,"type":"channel","subtype":"controller","controllerType":64,"value":120},{"deltaTime":31,"channel":0,"type":"channel","subtype":"controller","controllerType":64,"value":127},{"deltaTime":3892,"channel":0,"type":"channel","subtype":"noteOff","noteNumber":54,"velocity":0},{"deltaTime":2466,"channel":0,"type":"channel","noteNumber":58,"velocity":63,"subtype":"noteOn"},{"deltaTime":837,"channel":0,"type":"channel","noteNumber":66,"velocity":48,"subtype":"noteOn"},{"deltaTime":1967,"channel":0,"type":"channel","subtype":"noteOff","noteNumber":58,"velocity":0},{"deltaTime":1507,"channel":0,"type":"channel","subtype":"noteOff","noteNumber":66,"velocity":0},{"deltaTime":1488,"channel":0,"type":"channel","noteNumber":54,"velocity":37,"subtype":"noteOn"},{"deltaTime":3597,"channel":0,"type":"channel","subtype":"noteOff","noteNumber":54,"velocity":0},{"deltaTime":1814,"channel":0,"type":"channel","noteNumber":56,"velocity":45,"subtype":"noteOn"},{"deltaTime":4545,"channel":0,"type":"channel","subtype":"noteOff","noteNumber":56,"velocity":0},{"deltaTime":3394,"channel":0,"type":"channel","noteNumber":52,"velocity":22,"subtype":"noteOn"},{"deltaTime":173,"channel":0,"type":"channel","noteNumber":53,"velocity":22,"subtype":"noteOn"},{"deltaTime":1549,"channel":0,"type":"channel","subtype":"noteOff","noteNumber":52,"velocity":0},{"deltaTime":2466,"channel":0,"type":"channel","subtype":"noteOff","noteNumber":53,"velocity":0},{"deltaTime":295,"channel":0,"type":"channel","noteNumber":57,"velocity":52,"subtype":"noteOn"},{"deltaTime":4403,"channel":0,"type":"channel","subtype":"noteOff","noteNumber":57,"velocity":0},{"deltaTime":234,"channel":0,"type":"channel","noteNumber":61,"velocity":43,"subtype":"noteOn"},{"deltaTime":5288,"channel":0,"type":"channel","noteNumber":54,"velocity":39,"subtype":"noteOn"},{"deltaTime":1937,"channel":0,"type":"channel","subtype":"noteOff","noteNumber":61,"velocity":0},{"deltaTime":2466,"channel":0,"type":"channel","subtype":"noteOff","noteNumber":54,"velocity":0},{"deltaTime":2619,"channel":0,"type":"channel","noteNumber":59,"velocity":51,"subtype":"noteOn"},{"deltaTime":5055,"channel":0,"type":"channel","subtype":"noteOff","noteNumber":59,"velocity":0},{"deltaTime":1507,"channel":0,"type":"channel","noteNumber":68,"velocity":66,"subtype":"noteOn"},{"deltaTime":4993,"channel":0,"type":"channel","subtype":"noteOff","noteNumber":68,"velocity":0},{"deltaTime":651,"channel":0,"type":"channel","noteNumber":52,"velocity":48,"subtype":"noteOn"},{"deltaTime":6340,"channel":0,"type":"channel","noteNumber":54,"velocity":63,"subtype":"noteOn"},{"deltaTime":1458,"channel":0,"type":"channel","subtype":"noteOff","noteNumber":52,"velocity":0},{"deltaTime":3770,"channel":0,"type":"channel","noteNumber":56,"velocity":66,"subtype":"noteOn"},{"deltaTime":897,"channel":0,"type":"channel","noteNumber":59,"velocity":68,"subtype":"noteOn"},{"deltaTime":4748,"channel":0,"type":"channel","subtype":"noteOff","noteNumber":59,"velocity":0},{"deltaTime":744,"channel":0,"type":"channel","noteNumber":61,"velocity":70,"subtype":"noteOn"},{"deltaTime":387,"channel":0,"type":"channel","noteNumber":66,"velocity":61,"subtype":"noteOn"},{"deltaTime":184,"channel":0,"type":"channel","subtype":"noteOff","noteNumber":56,"velocity":0},{"deltaTime":49,"channel":0,"type":"channel","noteNumber":52,"velocity":69,"subtype":"noteOn"},{"deltaTime":2060,"channel":0,"type":"channel","subtype":"noteOff","noteNumber":54,"velocity":0},{"deltaTime":2405,"channel":0,"type":"channel","subtype":"noteOff","noteNumber":66,"velocity":0},{"deltaTime":203,"channel":0,"type":"channel","subtype":"noteOff","noteNumber":61,"velocity":0},{"deltaTime":449,"channel":0,"type":"channel","noteNumber":58,"velocity":68,"subtype":"noteOn"},{"deltaTime":1457,"channel":0,"type":"channel","subtype":"noteOff","noteNumber":52,"velocity":0},{"deltaTime":3769,"channel":0,"type":"channel","noteNumber":54,"velocity":59,"subtype":"noteOn"},{"deltaTime":185,"channel":0,"type":"channel","subtype":"noteOff","noteNumber":58,"velocity":0},{"deltaTime":4249,"channel":0,"type":"channel","subtype":"controller","controllerType":64,"value":120},{"deltaTime":154,"channel":0,"type":"channel","subtype":"controller","controllerType":64,"value":56},{"deltaTime":80,"channel":0,"type":"channel","subtype":"controller","controllerType":64,"value":0},{"deltaTime":2324,"channel":0,"type":"channel","noteNumber":58,"velocity":45,"subtype":"noteOn"},{"deltaTime":1162,"channel":0,"type":"channel","subtype":"controller","controllerType":64,"value":56},{"deltaTime":81,"channel":0,"type":"channel","subtype":"controller","controllerType":64,"value":120},{"deltaTime":31,"channel":0,"type":"channel","subtype":"controller","controllerType":64,"value":127},{"deltaTime":2649,"channel":0,"type":"channel","subtype":"noteOff","noteNumber":58,"velocity":0},{"deltaTime":2374,"channel":0,"type":"channel","subtype":"noteOff","noteNumber":54,"velocity":0},{"deltaTime":154,"channel":0,"type":"channel","noteNumber":53,"velocity":52,"subtype":"noteOn"},{"deltaTime":4993,"channel":0,"type":"channel","subtype":"noteOff","noteNumber":53,"velocity":0},{"deltaTime":947,"channel":0,"type":"channel","noteNumber":56,"velocity":36,"subtype":"noteOn"},{"deltaTime":3475,"channel":0,"type":"channel","subtype":"noteOff","noteNumber":56,"velocity":0},{"deltaTime":1906,"channel":0,"type":"channel","noteNumber":54,"velocity":39,"subtype":"noteOn"},{"deltaTime":203,"channel":0,"type":"channel","subtype":"controller","controllerType":64,"value":120},{"deltaTime":154,"channel":0,"type":"channel","subtype":"controller","controllerType":64,"value":56},{"deltaTime":61,"channel":0,"type":"channel","subtype":"controller","controllerType":64,"value":0},{"deltaTime":4126,"channel":0,"type":"channel","subtype":"controller","controllerType":64,"value":56},{"deltaTime":123,"channel":0,"type":"channel","subtype":"controller","controllerType":64,"value":120},{"deltaTime":31,"channel":0,"type":"channel","subtype":"controller","controllerType":64,"value":127},{"deltaTime":1273,"channel":0,"type":"channel","noteNumber":55,"velocity":42,"subtype":"noteOn"},{"deltaTime":897,"channel":0,"type":"channel","subtype":"noteOff","noteNumber":54,"velocity":0},{"deltaTime":3954,"channel":0,"type":"channel","subtype":"noteOff","noteNumber":55,"velocity":0},{"deltaTime":917,"channel":0,"type":"channel","noteNumber":58,"velocity":68,"subtype":"noteOn"},{"deltaTime":479,"channel":0,"type":"channel","noteNumber":61,"velocity":45,"subtype":"noteOn"},{"deltaTime":2018,"channel":0,"type":"channel","subtype":"noteOff","noteNumber":61,"velocity":0},{"deltaTime":2342,"channel":0,"type":"channel","subtype":"noteOff","noteNumber":58,"velocity":0},{"deltaTime":541,"channel":0,"type":"channel","noteNumber":51,"velocity":70,"subtype":"noteOn"},{"deltaTime":4576,"channel":0,"type":"channel","subtype":"noteOff","noteNumber":51,"velocity":0},{"deltaTime":1008,"channel":0,"type":"channel","noteNumber":52,"velocity":73,"subtype":"noteOn"},{"deltaTime":1193,"channel":0,"type":"channel","subtype":"controller","controllerType":64,"value":120},{"deltaTime":172,"channel":0,"type":"channel","subtype":"controller","controllerType":64,"value":56},{"deltaTime":93,"channel":0,"type":"channel","subtype":"controller","controllerType":64,"value":0},{"deltaTime":4137,"channel":0,"type":"channel","subtype":"controller","controllerType":64,"value":56},{"deltaTime":112,"channel":0,"type":"channel","subtype":"controller","controllerType":64,"value":120},{"deltaTime":31,"channel":0,"type":"channel","subtype":"controller","controllerType":64,"value":127},{"deltaTime":92,"channel":0,"type":"channel","noteNumber":56,"velocity":48,"subtype":"noteOn"},{"deltaTime":2557,"channel":0,"type":"channel","subtype":"noteOff","noteNumber":52,"velocity":0},{"deltaTime":714,"channel":0,"type":"channel","subtype":"noteOff","noteNumber":56,"velocity":0},{"deltaTime":3271,"channel":0,"type":"channel","noteNumber":51,"velocity":51,"subtype":"noteOn"},{"deltaTime":5645,"channel":0,"type":"channel","subtype":"noteOff","noteNumber":51,"velocity":0},{"deltaTime":1458,"channel":0,"type":"channel","noteNumber":55,"velocity":19,"subtype":"noteOn"},{"deltaTime":4218,"channel":0,"type":"channel","subtype":"noteOff","noteNumber":55,"velocity":0},{"deltaTime":1131,"channel":0,"type":"channel","noteNumber":51,"velocity":39,"subtype":"noteOn"},{"deltaTime":5381,"channel":0,"type":"channel","noteNumber":53,"velocity":36,"subtype":"noteOn"},{"deltaTime":1009,"channel":0,"type":"channel","subtype":"noteOff","noteNumber":51,"velocity":0},{"deltaTime":4575,"channel":0,"type":"channel","subtype":"noteOff","noteNumber":53,"velocity":0},{"deltaTime":387,"channel":0,"type":"channel","noteNumber":56,"velocity":46,"subtype":"noteOn"},{"deltaTime":5941,"channel":0,"type":"channel","noteNumber":50,"velocity":68,"subtype":"noteOn"},{"deltaTime":5288,"channel":0,"type":"channel","noteNumber":53,"velocity":66,"subtype":"noteOn"},{"deltaTime":295,"channel":0,"type":"channel","noteNumber":63,"velocity":65,"subtype":"noteOn"},{"deltaTime":123,"channel":0,"type":"channel","noteNumber":48,"velocity":61,"subtype":"noteOn"},{"deltaTime":449,"channel":0,"type":"channel","subtype":"noteOff","noteNumber":50,"velocity":0},{"deltaTime":1101,"channel":0,"type":"channel","subtype":"noteOff","noteNumber":56,"velocity":0},{"deltaTime":3056,"channel":0,"type":"channel","subtype":"noteOff","noteNumber":53,"velocity":0},{"deltaTime":449,"channel":0,"type":"channel","subtype":"noteOff","noteNumber":63,"velocity":0},{"deltaTime":122,"channel":0,"type":"channel","noteNumber":49,"velocity":70,"subtype":"noteOn"},{"deltaTime":652,"channel":0,"type":"channel","subtype":"noteOff","noteNumber":48,"velocity":0},{"deltaTime":5135,"channel":0,"type":"channel","noteNumber":53,"velocity":68,"subtype":"noteOn"},{"deltaTime":185,"channel":0,"type":"channel","noteNumber":61,"velocity":66,"subtype":"noteOn"},{"deltaTime":448,"channel":0,"type":"channel","subtype":"controller","controllerType":64,"value":120},{"deltaTime":142,"channel":0,"type":"channel","subtype":"controller","controllerType":64,"value":56},{"deltaTime":92,"channel":0,"type":"channel","subtype":"controller","controllerType":64,"value":0},{"deltaTime":2263,"channel":0,"type":"channel","subtype":"noteOff","noteNumber":53,"velocity":0},{"deltaTime":1131,"channel":0,"type":"channel","subtype":"controller","controllerType":64,"value":56},{"deltaTime":112,"channel":0,"type":"channel","subtype":"controller","controllerType":64,"value":120},{"deltaTime":30,"channel":0,"type":"channel","subtype":"controller","controllerType":64,"value":127},{"deltaTime":571,"channel":0,"type":"channel","noteNumber":51,"velocity":73,"subtype":"noteOn"},{"deltaTime":376,"channel":0,"type":"channel","subtype":"noteOff","noteNumber":61,"velocity":0},{"deltaTime":713,"channel":0,"type":"channel","subtype":"noteOff","noteNumber":49,"velocity":0},{"deltaTime":4883,"channel":0,"type":"channel","noteNumber":49,"velocity":70,"subtype":"noteOn"},{"deltaTime":1365,"channel":0,"type":"channel","subtype":"noteOff","noteNumber":51,"velocity":0},{"deltaTime":4249,"channel":0,"type":"channel","noteNumber":47,"velocity":73,"subtype":"noteOn"},{"deltaTime":265,"channel":0,"type":"channel","noteNumber":63,"velocity":54,"subtype":"noteOn"},{"deltaTime":357,"channel":0,"type":"channel","noteNumber":54,"velocity":48,"subtype":"noteOn"},{"deltaTime":602,"channel":0,"type":"channel","subtype":"noteOff","noteNumber":49,"velocity":0},{"deltaTime":3474,"channel":0,"type":"channel","subtype":"noteOff","noteNumber":54,"velocity":0},{"deltaTime":775,"channel":0,"type":"channel","subtype":"noteOff","noteNumber":63,"velocity":0},{"deltaTime":142,"channel":0,"type":"channel","subtype":"controller","controllerType":64,"value":120},{"deltaTime":153,"channel":0,"type":"channel","subtype":"controller","controllerType":64,"value":56},{"deltaTime":92,"channel":0,"type":"channel","subtype":"controller","controllerType":64,"value":0},{"deltaTime":50,"channel":0,"type":"channel","noteNumber":49,"velocity":64,"subtype":"noteOn"},{"deltaTime":276,"channel":0,"type":"channel","subtype":"noteOff","noteNumber":47,"velocity":0},{"deltaTime":3179,"channel":0,"type":"channel","subtype":"controller","controllerType":64,"value":56},{"deltaTime":111,"channel":0,"type":"channel","subtype":"controller","controllerType":64,"value":120},{"deltaTime":31,"channel":0,"type":"channel","subtype":"controller","controllerType":64,"value":127},{"deltaTime":1937,"channel":0,"type":"channel","noteNumber":51,"velocity":68,"subtype":"noteOn"},{"deltaTime":449,"channel":0,"type":"channel","noteNumber":56,"velocity":64,"subtype":"noteOn"},{"deltaTime":436,"channel":0,"type":"channel","noteNumber":61,"velocity":59,"subtype":"noteOn"},{"deltaTime":4078,"channel":0,"type":"channel","subtype":"noteOff","noteNumber":56,"velocity":0},{"deltaTime":1272,"channel":0,"type":"channel","noteNumber":46,"velocity":63,"subtype":"noteOn"},{"deltaTime":542,"channel":0,"type":"channel","subtype":"noteOff","noteNumber":51,"velocity":0},{"deltaTime":61,"channel":0,"type":"channel","noteNumber":63,"velocity":66,"subtype":"noteOn"},{"deltaTime":203,"channel":0,"type":"channel","subtype":"noteOff","noteNumber":49,"velocity":0},{"deltaTime":31,"channel":0,"type":"channel","subtype":"noteOff","noteNumber":61,"velocity":0},{"deltaTime":61,"channel":0,"type":"channel","noteNumber":55,"velocity":66,"subtype":"noteOn"},{"deltaTime":4932,"channel":0,"type":"channel","subtype":"noteOff","noteNumber":55,"velocity":0},{"deltaTime":357,"channel":0,"type":"channel","noteNumber":49,"velocity":57,"subtype":"noteOn"},{"deltaTime":977,"channel":0,"type":"channel","subtype":"noteOff","noteNumber":46,"velocity":0},{"deltaTime":62,"channel":0,"type":"channel","subtype":"noteOff","noteNumber":63,"velocity":0},{"deltaTime":4882,"channel":0,"type":"channel","noteNumber":61,"velocity":61,"subtype":"noteOn"},{"deltaTime":499,"channel":0,"type":"channel","noteNumber":57,"velocity":41,"subtype":"noteOn"},{"deltaTime":1549,"channel":0,"type":"channel","subtype":"controller","controllerType":64,"value":120},{"deltaTime":173,"channel":0,"type":"channel","subtype":"controller","controllerType":64,"value":56},{"deltaTime":92,"channel":0,"type":"channel","subtype":"controller","controllerType":64,"value":0},{"deltaTime":2048,"channel":0,"type":"channel","subtype":"noteOff","noteNumber":57,"velocity":0},{"deltaTime":1038,"channel":0,"type":"channel","noteNumber":51,"velocity":68,"subtype":"noteOn"},{"deltaTime":1519,"channel":0,"type":"channel","subtype":"controller","controllerType":64,"value":56},{"deltaTime":31,"channel":0,"type":"channel","subtype":"noteOff","noteNumber":61,"velocity":0},{"deltaTime":123,"channel":0,"type":"channel","subtype":"controller","controllerType":64,"value":120},{"deltaTime":30,"channel":0,"type":"channel","subtype":"controller","controllerType":64,"value":127},{"deltaTime":4453,"channel":0,"type":"channel","noteNumber":46,"velocity":59,"subtype":"noteOn"},{"deltaTime":184,"channel":0,"type":"channel","subtype":"noteOff","noteNumber":49,"velocity":0},{"deltaTime":80,"channel":0,"type":"channel","noteNumber":63,"velocity":66,"subtype":"noteOn"},{"deltaTime":185,"channel":0,"type":"channel","noteNumber":57,"velocity":68,"subtype":"noteOn"},{"deltaTime":836,"channel":0,"type":"channel","subtype":"noteOff","noteNumber":51,"velocity":0},{"deltaTime":1832,"channel":0,"type":"channel","subtype":"noteOff","noteNumber":57,"velocity":0},{"deltaTime":1968,"channel":0,"type":"channel","subtype":"noteOff","noteNumber":63,"velocity":0},{"deltaTime":92,"channel":0,"type":"channel","noteNumber":49,"velocity":60,"subtype":"noteOn"},{"deltaTime":1070,"channel":0,"type":"channel","subtype":"noteOff","noteNumber":46,"velocity":0},{"deltaTime":5073,"channel":0,"type":"channel","noteNumber":42,"velocity":66,"subtype":"noteOn"},{"deltaTime":246,"channel":0,"type":"channel","noteNumber":55,"velocity":66,"subtype":"noteOn"},{"deltaTime":142,"channel":0,"type":"channel","noteNumber":61,"velocity":67,"subtype":"noteOn"},{"deltaTime":1488,"channel":0,"type":"channel","subtype":"noteOff","noteNumber":49,"velocity":0},{"deltaTime":1040,"channel":0,"type":"channel","subtype":"controller","controllerType":64,"value":120},{"deltaTime":30,"channel":0,"type":"channel","subtype":"noteOff","noteNumber":55,"velocity":0},{"deltaTime":123,"channel":0,"type":"channel","subtype":"controller","controllerType":64,"value":56},{"deltaTime":111,"channel":0,"type":"channel","subtype":"controller","controllerType":64,"value":0},{"deltaTime":2416,"channel":0,"type":"channel","noteNumber":49,"velocity":48,"subtype":"noteOn"},{"deltaTime":296,"channel":0,"type":"channel","subtype":"noteOff","noteNumber":61,"velocity":0},{"deltaTime":590,"channel":0,"type":"channel","noteNumber":63,"velocity":61,"subtype":"noteOn"},{"deltaTime":510,"channel":0,"type":"channel","noteNumber":56,"velocity":60,"subtype":"noteOn"},{"deltaTime":296,"channel":0,"type":"channel","subtype":"noteOff","noteNumber":42,"velocity":0},{"deltaTime":418,"channel":0,"type":"channel","subtype":"controller","controllerType":64,"value":56},{"deltaTime":110,"channel":0,"type":"channel","subtype":"controller","controllerType":64,"value":120},{"deltaTime":31,"channel":0,"type":"channel","subtype":"controller","controllerType":64,"value":127},{"deltaTime":2681,"channel":0,"type":"channel","subtype":"noteOff","noteNumber":56,"velocity":0},{"deltaTime":1396,"channel":0,"type":"channel","noteNumber":54,"velocity":56,"subtype":"noteOn"},{"deltaTime":775,"channel":0,"type":"channel","subtype":"noteOff","noteNumber":49,"velocity":0},{"deltaTime":30,"channel":0,"type":"channel","subtype":"noteOff","noteNumber":63,"velocity":0},{"deltaTime":3210,"channel":0,"type":"channel","subtype":"noteOff","noteNumber":54,"velocity":0},{"deltaTime":234,"channel":0,"type":"channel","noteNumber":49,"velocity":38,"subtype":"noteOn"},{"deltaTime":2171,"channel":0,"type":"channel","noteNumber":61,"velocity":60,"subtype":"noteOn"},{"deltaTime":621,"channel":0,"type":"channel","noteNumber":57,"velocity":66,"subtype":"noteOn"},{"deltaTime":3038,"channel":0,"type":"channel","subtype":"noteOff","noteNumber":57,"velocity":0},{"deltaTime":1863,"channel":0,"type":"channel","subtype":"noteOff","noteNumber":49,"velocity":0},{"deltaTime":31,"channel":0,"type":"channel","noteNumber":53,"velocity":66,"subtype":"noteOn"},{"deltaTime":215,"channel":0,"type":"channel","noteNumber":57,"velocity":64,"subtype":"noteOn"},{"deltaTime":141,"channel":0,"type":"channel","noteNumber":63,"velocity":75,"subtype":"noteOn"},{"deltaTime":1396,"channel":0,"type":"channel","subtype":"controller","controllerType":64,"value":120},{"deltaTime":124,"channel":0,"type":"channel","subtype":"controller","controllerType":64,"value":56},{"deltaTime":30,"channel":0,"type":"channel","subtype":"noteOff","noteNumber":61,"velocity":0},{"deltaTime":92,"channel":0,"type":"channel","subtype":"controller","controllerType":64,"value":0},{"deltaTime":2017,"channel":0,"type":"channel","subtype":"noteOff","noteNumber":57,"velocity":0},{"deltaTime":1162,"channel":0,"type":"channel","subtype":"noteOff","noteNumber":53,"velocity":0},{"deltaTime":418,"channel":0,"type":"channel","noteNumber":49,"velocity":51,"subtype":"noteOn"},{"deltaTime":560,"channel":0,"type":"channel","subtype":"controller","controllerType":64,"value":56},{"deltaTime":92,"channel":0,"type":"channel","subtype":"controller","controllerType":64,"value":120},{"deltaTime":31,"channel":0,"type":"channel","subtype":"controller","controllerType":64,"value":127},{"deltaTime":234,"channel":0,"type":"channel","subtype":"noteOff","noteNumber":63,"velocity":0},{"deltaTime":5055,"channel":0,"type":"channel","noteNumber":61,"velocity":73,"subtype":"noteOn"},{"deltaTime":202,"channel":0,"type":"channel","noteNumber":57,"velocity":69,"subtype":"noteOn"},{"deltaTime":185,"channel":0,"type":"channel","noteNumber":66,"velocity":66,"subtype":"noteOn"},{"deltaTime":172,"channel":0,"type":"channel","subtype":"noteOff","noteNumber":49,"velocity":0},{"deltaTime":123,"channel":0,"type":"channel","noteNumber":54,"velocity":60,"subtype":"noteOn"},{"deltaTime":2232,"channel":0,"type":"channel","subtype":"noteOff","noteNumber":57,"velocity":0},{"deltaTime":2527,"channel":0,"type":"channel","subtype":"noteOff","noteNumber":66,"velocity":0},{"deltaTime":111,"channel":0,"type":"channel","subtype":"noteOff","noteNumber":54,"velocity":0},{"deltaTime":296,"channel":0,"type":"channel","noteNumber":49,"velocity":60,"subtype":"noteOn"},{"deltaTime":215,"channel":0,"type":"channel","noteNumber":63,"velocity":66,"subtype":"noteOn"},{"deltaTime":2048,"channel":0,"type":"channel","subtype":"noteOff","noteNumber":61,"velocity":0},{"deltaTime":4187,"channel":0,"type":"channel","noteNumber":53,"velocity":74,"subtype":"noteOn"},{"deltaTime":1224,"channel":0,"type":"channel","subtype":"noteOff","noteNumber":63,"velocity":0},{"deltaTime":916,"channel":0,"type":"channel","subtype":"noteOff","noteNumber":49,"velocity":0},{"deltaTime":2834,"channel":0,"type":"channel","noteNumber":58,"velocity":65,"subtype":"noteOn"},{"deltaTime":763,"channel":0,"type":"channel","noteNumber":61,"velocity":55,"subtype":"noteOn"},{"deltaTime":124,"channel":0,"type":"channel","noteNumber":66,"velocity":60,"subtype":"noteOn"},{"deltaTime":295,"channel":0,"type":"channel","subtype":"noteOff","noteNumber":53,"velocity":0},{"deltaTime":571,"channel":0,"type":"channel","noteNumber":42,"velocity":73,"subtype":"noteOn"},{"deltaTime":2282,"channel":0,"type":"channel","subtype":"noteOff","noteNumber":58,"velocity":0},{"deltaTime":928,"channel":0,"type":"channel","subtype":"noteOff","noteNumber":61,"velocity":0},{"deltaTime":1243,"channel":0,"type":"channel","noteNumber":63,"velocity":70,"subtype":"noteOn"},{"deltaTime":184,"channel":0,"type":"channel","noteNumber":57,"velocity":74,"subtype":"noteOn"},{"deltaTime":203,"channel":0,"type":"channel","subtype":"noteOff","noteNumber":66,"velocity":0},{"deltaTime":184,"channel":0,"type":"channel","noteNumber":49,"velocity":66,"subtype":"noteOn"},{"deltaTime":886,"channel":0,"type":"channel","subtype":"noteOff","noteNumber":42,"velocity":0},{"deltaTime":2976,"channel":0,"type":"channel","subtype":"noteOff","noteNumber":57,"velocity":0},{"deltaTime":1783,"channel":0,"type":"channel","subtype":"noteOff","noteNumber":49,"velocity":0},{"deltaTime":234,"channel":0,"type":"channel","subtype":"noteOff","noteNumber":63,"velocity":0},{"deltaTime":92,"channel":0,"type":"channel","noteNumber":54,"velocity":67,"subtype":"noteOn"},{"deltaTime":5104,"channel":0,"type":"channel","noteNumber":61,"velocity":75,"subtype":"noteOn"},{"deltaTime":123,"channel":0,"type":"channel","noteNumber":66,"velocity":66,"subtype":"noteOn"},{"deltaTime":449,"channel":0,"type":"channel","subtype":"noteOff","noteNumber":54,"velocity":0},{"deltaTime":123,"channel":0,"type":"channel","subtype":"controller","controllerType":64,"value":120},{"deltaTime":142,"channel":0,"type":"channel","subtype":"controller","controllerType":64,"value":56},{"deltaTime":61,"channel":0,"type":"channel","subtype":"controller","controllerType":64,"value":0},{"deltaTime":947,"channel":0,"type":"channel","noteNumber":49,"velocity":45,"subtype":"noteOn"},{"deltaTime":1427,"channel":0,"type":"channel","subtype":"noteOff","noteNumber":49,"velocity":0},{"deltaTime":1254,"channel":0,"type":"channel","subtype":"controller","controllerType":64,"value":56},{"deltaTime":111,"channel":0,"type":"channel","subtype":"controller","controllerType":64,"value":120},{"deltaTime":30,"channel":0,"type":"channel","subtype":"controller","controllerType":64,"value":127},{"deltaTime":308,"channel":0,"type":"channel","subtype":"noteOff","noteNumber":66,"velocity":0},{"deltaTime":855,"channel":0,"type":"channel","subtype":"noteOff","noteNumber":61,"velocity":0},{"deltaTime":61,"channel":0,"type":"channel","noteNumber":57,"velocity":70,"subtype":"noteOn"},{"deltaTime":172,"channel":0,"type":"channel","noteNumber":63,"velocity":69,"subtype":"noteOn"},{"deltaTime":124,"channel":0,"type":"channel","noteNumber":49,"velocity":60,"subtype":"noteOn"},{"deltaTime":3566,"channel":0,"type":"channel","subtype":"noteOff","noteNumber":57,"velocity":0},{"deltaTime":2589,"channel":0,"type":"channel","subtype":"noteOff","noteNumber":49,"velocity":0},{"deltaTime":621,"channel":0,"type":"channel","noteNumber":53,"velocity":66,"subtype":"noteOn"},{"deltaTime":2730,"channel":0,"type":"channel","subtype":"noteOff","noteNumber":63,"velocity":0},{"deltaTime":572,"channel":0,"type":"channel","noteNumber":66,"velocity":68,"subtype":"noteOn"},{"deltaTime":172,"channel":0,"type":"channel","noteNumber":61,"velocity":68,"subtype":"noteOn"},{"deltaTime":2202,"channel":0,"type":"channel","subtype":"noteOff","noteNumber":53,"velocity":0},{"deltaTime":3179,"channel":0,"type":"channel","subtype":"noteOff","noteNumber":66,"velocity":0},{"deltaTime":714,"channel":0,"type":"channel","noteNumber":49,"velocity":61,"subtype":"noteOn"},{"deltaTime":571,"channel":0,"type":"channel","noteNumber":58,"velocity":64,"subtype":"noteOn"},{"deltaTime":1396,"channel":0,"type":"channel","subtype":"noteOff","noteNumber":61,"velocity":0},{"deltaTime":3118,"channel":0,"type":"channel","noteNumber":42,"velocity":64,"subtype":"noteOn"},{"deltaTime":387,"channel":0,"type":"channel","subtype":"noteOff","noteNumber":58,"velocity":0},{"deltaTime":449,"channel":0,"type":"channel","subtype":"noteOff","noteNumber":49,"velocity":0},{"deltaTime":467,"channel":0,"type":"channel","noteNumber":61,"velocity":57,"subtype":"noteOn"},{"deltaTime":326,"channel":0,"type":"channel","noteNumber":66,"velocity":51,"subtype":"noteOn"},{"deltaTime":3425,"channel":0,"type":"channel","subtype":"noteOff","noteNumber":61,"velocity":0},{"deltaTime":652,"channel":0,"type":"channel","subtype":"noteOff","noteNumber":42,"velocity":0},{"deltaTime":388,"channel":0,"type":"channel","noteNumber":57,"velocity":68,"subtype":"noteOn"},{"deltaTime":234,"channel":0,"type":"channel","noteNumber":52,"velocity":68,"subtype":"noteOn"},{"deltaTime":3535,"channel":0,"type":"channel","subtype":"noteOff","noteNumber":66,"velocity":0},{"deltaTime":357,"channel":0,"type":"channel","subtype":"noteOff","noteNumber":57,"velocity":0},{"deltaTime":1519,"channel":0,"type":"channel","noteNumber":61,"velocity":70,"subtype":"noteOn"},{"deltaTime":233,"channel":0,"type":"channel","noteNumber":68,"velocity":72,"subtype":"noteOn"},{"deltaTime":185,"channel":0,"type":"channel","subtype":"noteOff","noteNumber":52,"velocity":0},{"deltaTime":122,"channel":0,"type":"channel","noteNumber":49,"velocity":36,"subtype":"noteOn"},{"deltaTime":499,"channel":0,"type":"channel","noteNumber":42,"velocity":71,"subtype":"noteOn"},{"deltaTime":1070,"channel":0,"type":"channel","subtype":"noteOff","noteNumber":49,"velocity":0},{"deltaTime":2823,"channel":0,"type":"channel","subtype":"noteOff","noteNumber":68,"velocity":0},{"deltaTime":479,"channel":0,"type":"channel","subtype":"controller","controllerType":64,"value":120},{"deltaTime":172,"channel":0,"type":"channel","subtype":"controller","controllerType":64,"value":56},{"deltaTime":62,"channel":0,"type":"channel","subtype":"controller","controllerType":64,"value":0},{"deltaTime":276,"channel":0,"type":"channel","subtype":"noteOff","noteNumber":61,"velocity":0},{"deltaTime":81,"channel":0,"type":"channel","noteNumber":58,"velocity":73,"subtype":"noteOn"},{"deltaTime":245,"channel":0,"type":"channel","noteNumber":66,"velocity":61,"subtype":"noteOn"},{"deltaTime":173,"channel":0,"type":"channel","noteNumber":49,"velocity":61,"subtype":"noteOn"},{"deltaTime":682,"channel":0,"type":"channel","subtype":"noteOff","noteNumber":42,"velocity":0},{"deltaTime":2946,"channel":0,"type":"channel","subtype":"controller","controllerType":64,"value":56},{"deltaTime":92,"channel":0,"type":"channel","subtype":"controller","controllerType":64,"value":120},{"deltaTime":30,"channel":0,"type":"channel","subtype":"controller","controllerType":64,"value":127},{"deltaTime":326,"channel":0,"type":"channel","subtype":"noteOff","noteNumber":58,"velocity":0},{"deltaTime":296,"channel":0,"type":"channel","subtype":"noteOff","noteNumber":66,"velocity":0},{"deltaTime":713,"channel":0,"type":"channel","subtype":"noteOff","noteNumber":49,"velocity":0},{"deltaTime":123,"channel":0,"type":"channel","noteNumber":54,"velocity":64,"subtype":"noteOn"},{"deltaTime":5104,"channel":0,"type":"channel","subtype":"noteOff","noteNumber":54,"velocity":0},{"deltaTime":978,"channel":0,"type":"channel","noteNumber":57,"velocity":71,"subtype":"noteOn"},{"deltaTime":184,"channel":0,"type":"channel","noteNumber":66,"velocity":67,"subtype":"noteOn"},{"deltaTime":172,"channel":0,"type":"channel","noteNumber":61,"velocity":74,"subtype":"noteOn"},{"deltaTime":185,"channel":0,"type":"channel","noteNumber":49,"velocity":61,"subtype":"noteOn"},{"deltaTime":1396,"channel":0,"type":"channel","subtype":"controller","controllerType":64,"value":120},{"deltaTime":92,"channel":0,"type":"channel","subtype":"controller","controllerType":64,"value":56},{"deltaTime":92,"channel":0,"type":"channel","subtype":"controller","controllerType":64,"value":0},{"deltaTime":560,"channel":0,"type":"channel","subtype":"noteOff","noteNumber":57,"velocity":0},{"deltaTime":978,"channel":0,"type":"channel","subtype":"controller","controllerType":64,"value":56},{"deltaTime":122,"channel":0,"type":"channel","subtype":"controller","controllerType":64,"value":120},{"deltaTime":31,"channel":0,"type":"channel","subtype":"controller","controllerType":64,"value":127},{"deltaTime":1753,"channel":0,"type":"channel","subtype":"noteOff","noteNumber":66,"velocity":0},{"deltaTime":1070,"channel":0,"type":"channel","subtype":"noteOff","noteNumber":49,"velocity":0},{"deltaTime":590,"channel":0,"type":"channel","subtype":"noteOff","noteNumber":61,"velocity":0},{"deltaTime":4188,"channel":0,"type":"channel","noteNumber":58,"velocity":73,"subtype":"noteOn"},{"deltaTime":633,"channel":0,"type":"channel","noteNumber":66,"velocity":59,"subtype":"noteOn"},{"deltaTime":173,"channel":0,"type":"channel","noteNumber":61,"velocity":62,"subtype":"noteOn"},{"deltaTime":183,"channel":0,"type":"channel","noteNumber":53,"velocity":41,"subtype":"noteOn"},{"deltaTime":2884,"channel":0,"type":"channel","subtype":"noteOff","noteNumber":58,"velocity":0},{"deltaTime":1243,"channel":0,"type":"channel","subtype":"noteOff","noteNumber":53,"velocity":0},{"deltaTime":683,"channel":0,"type":"channel","noteNumber":63,"velocity":64,"subtype":"noteOn"},{"deltaTime":264,"channel":0,"type":"channel","noteNumber":49,"velocity":61,"subtype":"noteOn"},{"deltaTime":184,"channel":0,"type":"channel","subtype":"noteOff","noteNumber":66,"velocity":0},{"deltaTime":62,"channel":0,"type":"channel","noteNumber":57,"velocity":51,"subtype":"noteOn"},{"deltaTime":326,"channel":0,"type":"channel","subtype":"noteOff","noteNumber":61,"velocity":0},{"deltaTime":3382,"channel":0,"type":"channel","subtype":"noteOff","noteNumber":57,"velocity":0},{"deltaTime":326,"channel":0,"type":"channel","subtype":"controller","controllerType":64,"value":120},{"deltaTime":123,"channel":0,"type":"channel","subtype":"controller","controllerType":64,"value":56},{"deltaTime":92,"channel":0,"type":"channel","subtype":"controller","controllerType":64,"value":0},{"deltaTime":449,"channel":0,"type":"channel","subtype":"noteOff","noteNumber":49,"velocity":0},{"deltaTime":762,"channel":0,"type":"channel","noteNumber":54,"velocity":48,"subtype":"noteOn"},{"deltaTime":2091,"channel":0,"type":"channel","subtype":"controller","controllerType":64,"value":56},{"deltaTime":142,"channel":0,"type":"channel","subtype":"controller","controllerType":64,"value":120},{"deltaTime":31,"channel":0,"type":"channel","subtype":"controller","controllerType":64,"value":127},{"deltaTime":2496,"channel":0,"type":"channel","subtype":"noteOff","noteNumber":54,"velocity":0},{"deltaTime":571,"channel":0,"type":"channel","subtype":"noteOff","noteNumber":63,"velocity":0},{"deltaTime":19,"channel":0,"type":"channel","noteNumber":49,"velocity":63,"subtype":"noteOn"},{"deltaTime":541,"channel":0,"type":"channel","noteNumber":61,"velocity":73,"subtype":"noteOn"},{"deltaTime":357,"channel":0,"type":"channel","noteNumber":66,"velocity":66,"subtype":"noteOn"},{"deltaTime":4545,"channel":0,"type":"channel","subtype":"noteOff","noteNumber":49,"velocity":0},{"deltaTime":356,"channel":0,"type":"channel","noteNumber":53,"velocity":66,"subtype":"noteOn"},{"deltaTime":480,"channel":0,"type":"channel","noteNumber":58,"velocity":66,"subtype":"noteOn"},{"deltaTime":172,"channel":0,"type":"channel","noteNumber":63,"velocity":68,"subtype":"noteOn"},{"deltaTime":510,"channel":0,"type":"channel","subtype":"noteOff","noteNumber":66,"velocity":0},{"deltaTime":265,"channel":0,"type":"channel","subtype":"noteOff","noteNumber":61,"velocity":0},{"deltaTime":1937,"channel":0,"type":"channel","subtype":"controller","controllerType":64,"value":64},{"deltaTime":92,"channel":0,"type":"channel","subtype":"controller","controllerType":64,"value":0},{"deltaTime":1925,"channel":0,"type":"channel","subtype":"noteOff","noteNumber":58,"velocity":0},{"deltaTime":92,"channel":0,"type":"channel","subtype":"noteOff","noteNumber":53,"velocity":0},{"deltaTime":326,"channel":0,"type":"channel","noteNumber":49,"velocity":66,"subtype":"noteOn"},{"deltaTime":1273,"channel":0,"type":"channel","subtype":"controller","controllerType":64,"value":56},{"deltaTime":92,"channel":0,"type":"channel","subtype":"controller","controllerType":64,"value":120},{"deltaTime":31,"channel":0,"type":"channel","subtype":"controller","controllerType":64,"value":127},{"deltaTime":2079,"channel":0,"type":"channel","subtype":"noteOff","noteNumber":63,"velocity":0},{"deltaTime":2139,"channel":0,"type":"channel","subtype":"noteOff","noteNumber":49,"velocity":0},{"deltaTime":123,"channel":0,"type":"channel","noteNumber":42,"velocity":65,"subtype":"noteOn"},{"deltaTime":123,"channel":0,"type":"channel","noteNumber":61,"velocity":73,"subtype":"noteOn"},{"deltaTime":203,"channel":0,"type":"channel","noteNumber":66,"velocity":63,"subtype":"noteOn"},{"deltaTime":142,"channel":0,"type":"channel","noteNumber":57,"velocity":69,"subtype":"noteOn"},{"deltaTime":774,"channel":0,"type":"channel","subtype":"noteOff","noteNumber":57,"velocity":0},{"deltaTime":3751,"channel":0,"type":"channel","subtype":"noteOff","noteNumber":66,"velocity":0},{"deltaTime":622,"channel":0,"type":"channel","noteNumber":49,"velocity":57,"subtype":"noteOn"},{"deltaTime":356,"channel":0,"type":"channel","subtype":"noteOff","noteNumber":42,"velocity":0},{"deltaTime":62,"channel":0,"type":"channel","noteNumber":63,"velocity":66,"subtype":"noteOn"},{"deltaTime":1008,"channel":0,"type":"channel","noteNumber":58,"velocity":63,"subtype":"noteOn"},{"deltaTime":264,"channel":0,"type":"channel","subtype":"noteOff","noteNumber":61,"velocity":0},{"deltaTime":2559,"channel":0,"type":"channel","subtype":"noteOff","noteNumber":63,"velocity":0},{"deltaTime":1549,"channel":0,"type":"channel","noteNumber":52,"velocity":69,"subtype":"noteOn"},{"deltaTime":142,"channel":0,"type":"channel","subtype":"noteOff","noteNumber":49,"velocity":0},{"deltaTime":1315,"channel":0,"type":"channel","subtype":"noteOff","noteNumber":58,"velocity":0},{"deltaTime":4840,"channel":0,"type":"channel","noteNumber":42,"velocity":60,"subtype":"noteOn"},{"deltaTime":184,"channel":0,"type":"channel","noteNumber":66,"velocity":64,"subtype":"noteOn"},{"deltaTime":142,"channel":0,"type":"channel","noteNumber":58,"velocity":56,"subtype":"noteOn"},{"deltaTime":184,"channel":0,"type":"channel","subtype":"noteOff","noteNumber":52,"velocity":0},{"deltaTime":3740,"channel":0,"type":"channel","subtype":"noteOff","noteNumber":58,"velocity":0},{"deltaTime":836,"channel":0,"type":"channel","subtype":"noteOff","noteNumber":66,"velocity":0},{"deltaTime":590,"channel":0,"type":"channel","noteNumber":49,"velocity":65,"subtype":"noteOn"},{"deltaTime":295,"channel":0,"type":"channel","subtype":"noteOff","noteNumber":42,"velocity":0},{"deltaTime":277,"channel":0,"type":"channel","noteNumber":61,"velocity":63,"subtype":"noteOn"},{"deltaTime":682,"channel":0,"type":"channel","subtype":"controller","controllerType":64,"value":120},{"deltaTime":111,"channel":0,"type":"channel","subtype":"controller","controllerType":64,"value":56},{"deltaTime":93,"channel":0,"type":"channel","subtype":"controller","controllerType":64,"value":0},{"deltaTime":4045,"channel":0,"type":"channel","subtype":"noteOff","noteNumber":49,"velocity":0},{"deltaTime":591,"channel":0,"type":"channel","noteNumber":58,"velocity":72,"subtype":"noteOn"},{"deltaTime":92,"channel":0,"type":"channel","noteNumber":53,"velocity":61,"subtype":"noteOn"},{"deltaTime":234,"channel":0,"type":"channel","noteNumber":68,"velocity":70,"subtype":"noteOn"},{"deltaTime":602,"channel":0,"type":"channel","subtype":"controller","controllerType":64,"value":56},{"deltaTime":80,"channel":0,"type":"channel","subtype":"controller","controllerType":64,"value":120},{"deltaTime":31,"channel":0,"type":"channel","subtype":"controller","controllerType":64,"value":127},{"deltaTime":633,"channel":0,"type":"channel","subtype":"noteOff","noteNumber":61,"velocity":0},{"deltaTime":2731,"channel":0,"type":"channel","subtype":"noteOff","noteNumber":53,"velocity":0},{"deltaTime":141,"channel":0,"type":"channel","subtype":"noteOff","noteNumber":68,"velocity":0},{"deltaTime":990,"channel":0,"type":"channel","noteNumber":66,"velocity":64,"subtype":"noteOn"},{"deltaTime":173,"channel":0,"type":"channel","noteNumber":49,"velocity":65,"subtype":"noteOn"},{"deltaTime":3006,"channel":0,"type":"channel","subtype":"noteOff","noteNumber":58,"velocity":0},{"deltaTime":2110,"channel":0,"type":"channel","subtype":"noteOff","noteNumber":66,"velocity":0},{"deltaTime":590,"channel":0,"type":"channel","noteNumber":52,"velocity":69,"subtype":"noteOn"},{"deltaTime":215,"channel":0,"type":"channel","noteNumber":58,"velocity":75,"subtype":"noteOn"},{"deltaTime":203,"channel":0,"type":"channel","noteNumber":63,"velocity":74,"subtype":"noteOn"},{"deltaTime":172,"channel":0,"type":"channel","subtype":"noteOff","noteNumber":49,"velocity":0},{"deltaTime":4465,"channel":0,"type":"channel","subtype":"noteOff","noteNumber":58,"velocity":0},{"deltaTime":1488,"channel":0,"type":"channel","noteNumber":48,"velocity":60,"subtype":"noteOn"},{"deltaTime":203,"channel":0,"type":"channel","subtype":"noteOff","noteNumber":63,"velocity":0},{"deltaTime":928,"channel":0,"type":"channel","subtype":"noteOff","noteNumber":52,"velocity":0},{"deltaTime":467,"channel":0,"type":"channel","noteNumber":61,"velocity":54,"subtype":"noteOn"},{"deltaTime":2060,"channel":0,"type":"channel","subtype":"noteOff","noteNumber":48,"velocity":0},{"deltaTime":2608,"channel":0,"type":"channel","noteNumber":57,"velocity":70,"subtype":"noteOn"},{"deltaTime":388,"channel":0,"type":"channel","subtype":"noteOff","noteNumber":61,"velocity":0},{"deltaTime":3240,"channel":0,"type":"channel","subtype":"noteOff","noteNumber":57,"velocity":0},{"deltaTime":1691,"channel":0,"type":"channel","noteNumber":61,"velocity":66,"subtype":"noteOn"},{"deltaTime":307,"channel":0,"type":"channel","noteNumber":68,"velocity":78,"subtype":"noteOn"},{"deltaTime":142,"channel":0,"type":"channel","noteNumber":41,"velocity":70,"subtype":"noteOn"},{"deltaTime":2884,"channel":0,"type":"channel","subtype":"controller","controllerType":64,"value":120},{"deltaTime":123,"channel":0,"type":"channel","subtype":"controller","controllerType":64,"value":56},{"deltaTime":80,"channel":0,"type":"channel","subtype":"controller","controllerType":64,"value":0},{"deltaTime":1814,"channel":0,"type":"channel","subtype":"noteOff","noteNumber":68,"velocity":0},{"deltaTime":184,"channel":0,"type":"channel","noteNumber":49,"velocity":67,"subtype":"noteOn"},{"deltaTime":498,"channel":0,"type":"channel","subtype":"noteOff","noteNumber":41,"velocity":0},{"deltaTime":2325,"channel":0,"type":"channel","subtype":"noteOff","noteNumber":61,"velocity":0},{"deltaTime":2761,"channel":0,"type":"channel","noteNumber":56,"velocity":78,"subtype":"noteOn"},{"deltaTime":184,"channel":0,"type":"channel","subtype":"noteOff","noteNumber":49,"velocity":0},{"deltaTime":61,"channel":0,"type":"channel","noteNumber":53,"velocity":68,"subtype":"noteOn"},{"deltaTime":204,"channel":0,"type":"channel","noteNumber":66,"velocity":63,"subtype":"noteOn"},{"deltaTime":978,"channel":0,"type":"channel","subtype":"controller","controllerType":64,"value":48},{"deltaTime":122,"channel":0,"type":"channel","subtype":"controller","controllerType":64,"value":112},{"deltaTime":92,"channel":0,"type":"channel","subtype":"controller","controllerType":64,"value":127},{"deltaTime":2639,"channel":0,"type":"channel","subtype":"noteOff","noteNumber":53,"velocity":0},{"deltaTime":387,"channel":0,"type":"channel","subtype":"noteOff","noteNumber":66,"velocity":0},{"deltaTime":621,"channel":0,"type":"channel","subtype":"noteOff","noteNumber":56,"velocity":0},{"deltaTime":326,"channel":0,"type":"channel","noteNumber":49,"velocity":62,"subtype":"noteOn"},{"deltaTime":185,"channel":0,"type":"channel","noteNumber":63,"velocity":57,"subtype":"noteOn"},{"deltaTime":866,"channel":0,"type":"channel","noteNumber":57,"velocity":50,"subtype":"noteOn"},{"deltaTime":1784,"channel":0,"type":"channel","subtype":"noteOff","noteNumber":57,"velocity":0},{"deltaTime":1832,"channel":0,"type":"channel","subtype":"noteOff","noteNumber":63,"velocity":0},{"deltaTime":450,"channel":0,"type":"channel","subtype":"noteOff","noteNumber":49,"velocity":0},{"deltaTime":233,"channel":0,"type":"channel","subtype":"controller","controllerType":64,"value":120},{"deltaTime":154,"channel":0,"type":"channel","subtype":"controller","controllerType":64,"value":56},{"deltaTime":92,"channel":0,"type":"channel","subtype":"controller","controllerType":64,"value":0},{"deltaTime":448,"channel":0,"type":"channel","noteNumber":61,"velocity":74,"subtype":"noteOn"},{"deltaTime":173,"channel":0,"type":"channel","noteNumber":52,"velocity":64,"subtype":"noteOn"},{"deltaTime":203,"channel":0,"type":"channel","noteNumber":66,"velocity":63,"subtype":"noteOn"},{"deltaTime":2620,"channel":0,"type":"channel","subtype":"controller","controllerType":64,"value":56},{"deltaTime":122,"channel":0,"type":"channel","subtype":"controller","controllerType":64,"value":120},{"deltaTime":31,"channel":0,"type":"channel","subtype":"controller","controllerType":64,"value":127},{"deltaTime":794,"channel":0,"type":"channel","subtype":"noteOff","noteNumber":66,"velocity":0},{"deltaTime":1285,"channel":0,"type":"channel","noteNumber":49,"velocity":59,"subtype":"noteOn"},{"deltaTime":295,"channel":0,"type":"channel","subtype":"noteOff","noteNumber":61,"velocity":0},{"deltaTime":713,"channel":0,"type":"channel","subtype":"noteOff","noteNumber":52,"velocity":0},{"deltaTime":4046,"channel":0,"type":"channel","subtype":"noteOff","noteNumber":49,"velocity":0},{"deltaTime":714,"channel":0,"type":"channel","noteNumber":56,"velocity":68,"subtype":"noteOn"},{"deltaTime":203,"channel":0,"type":"channel","noteNumber":52,"velocity":66,"subtype":"noteOn"},{"deltaTime":3985,"channel":0,"type":"channel","subtype":"noteOff","noteNumber":52,"velocity":0},{"deltaTime":621,"channel":0,"type":"channel","subtype":"noteOff","noteNumber":56,"velocity":0},{"deltaTime":683,"channel":0,"type":"channel","noteNumber":49,"velocity":66,"subtype":"noteOn"},{"deltaTime":418,"channel":0,"type":"channel","noteNumber":63,"velocity":64,"subtype":"noteOn"},{"deltaTime":3750,"channel":0,"type":"channel","subtype":"noteOff","noteNumber":63,"velocity":0},{"deltaTime":173,"channel":0,"type":"channel","subtype":"noteOff","noteNumber":49,"velocity":0},{"deltaTime":1162,"channel":0,"type":"channel","noteNumber":51,"velocity":61,"subtype":"noteOn"},{"deltaTime":1955,"channel":0,"type":"channel","noteNumber":39,"velocity":46,"subtype":"noteOn"},{"deltaTime":1581,"channel":0,"type":"channel","subtype":"noteOff","noteNumber":39,"velocity":0},{"deltaTime":621,"channel":0,"type":"channel","subtype":"noteOff","noteNumber":51,"velocity":0},{"deltaTime":2109,"channel":0,"type":"channel","noteNumber":55,"velocity":74,"subtype":"noteOn"},{"deltaTime":184,"channel":0,"type":"channel","noteNumber":46,"velocity":62,"subtype":"noteOn"},{"deltaTime":3271,"channel":0,"type":"channel","subtype":"noteOff","noteNumber":55,"velocity":0},{"deltaTime":204,"channel":0,"type":"channel","subtype":"controller","controllerType":64,"value":120},{"deltaTime":153,"channel":0,"type":"channel","subtype":"controller","controllerType":64,"value":56},{"deltaTime":112,"channel":0,"type":"channel","subtype":"controller","controllerType":64,"value":0},{"deltaTime":1518,"channel":0,"type":"channel","noteNumber":59,"velocity":74,"subtype":"noteOn"},{"deltaTime":203,"channel":0,"type":"channel","subtype":"noteOff","noteNumber":46,"velocity":0},{"deltaTime":154,"channel":0,"type":"channel","noteNumber":52,"velocity":66,"subtype":"noteOn"},{"deltaTime":3179,"channel":0,"type":"channel","subtype":"controller","controllerType":64,"value":56},{"deltaTime":123,"channel":0,"type":"channel","subtype":"controller","controllerType":64,"value":120},{"deltaTime":30,"channel":0,"type":"channel","subtype":"controller","controllerType":64,"value":127},{"deltaTime":1101,"channel":0,"type":"channel","subtype":"noteOff","noteNumber":59,"velocity":0},{"deltaTime":529,"channel":0,"type":"channel","noteNumber":61,"velocity":70,"subtype":"noteOn"},{"deltaTime":184,"channel":0,"type":"channel","subtype":"noteOff","noteNumber":52,"velocity":0},{"deltaTime":265,"channel":0,"type":"channel","noteNumber":46,"velocity":69,"subtype":"noteOn"},{"deltaTime":1273,"channel":0,"type":"channel","noteNumber":55,"velocity":54,"subtype":"noteOn"},{"deltaTime":3782,"channel":0,"type":"channel","subtype":"noteOff","noteNumber":46,"velocity":0},{"deltaTime":30,"channel":0,"type":"channel","subtype":"noteOff","noteNumber":61,"velocity":0},{"deltaTime":713,"channel":0,"type":"channel","noteNumber":52,"velocity":70,"subtype":"noteOn"},{"deltaTime":499,"channel":0,"type":"channel","noteNumber":63,"velocity":73,"subtype":"noteOn"},{"deltaTime":3118,"channel":0,"type":"channel","subtype":"noteOff","noteNumber":55,"velocity":0},{"deltaTime":989,"channel":0,"type":"channel","subtype":"noteOff","noteNumber":52,"velocity":0},{"deltaTime":468,"channel":0,"type":"channel","subtype":"noteOff","noteNumber":63,"velocity":0},{"deltaTime":744,"channel":0,"type":"channel","noteNumber":47,"velocity":81,"subtype":"noteOn"},{"deltaTime":3536,"channel":0,"type":"channel","subtype":"noteOff","noteNumber":47,"velocity":0},{"deltaTime":1937,"channel":0,"type":"channel","noteNumber":61,"velocity":72,"subtype":"noteOn"},{"deltaTime":141,"channel":0,"type":"channel","noteNumber":55,"velocity":80,"subtype":"noteOn"},{"deltaTime":5983,"channel":0,"type":"channel","subtype":"noteOff","noteNumber":55,"velocity":0},{"deltaTime":4729,"channel":0,"type":"channel","noteNumber":36,"velocity":73,"subtype":"noteOn"},{"deltaTime":437,"channel":0,"type":"channel","noteNumber":24,"velocity":78,"subtype":"noteOn"},{"deltaTime":2466,"channel":0,"type":"channel","subtype":"controller","controllerType":64,"value":120},{"deltaTime":154,"channel":0,"type":"channel","subtype":"controller","controllerType":64,"value":56},{"deltaTime":92,"channel":0,"type":"channel","subtype":"controller","controllerType":64,"value":0},{"deltaTime":2312,"channel":0,"type":"channel","subtype":"noteOff","noteNumber":24,"velocity":0},{"deltaTime":326,"channel":0,"type":"channel","subtype":"noteOff","noteNumber":36,"velocity":0},{"deltaTime":215,"channel":0,"type":"channel","subtype":"noteOff","noteNumber":61,"velocity":0},{"deltaTime":111,"channel":0,"type":"channel","noteNumber":52,"velocity":68,"subtype":"noteOn"},{"deltaTime":3099,"channel":0,"type":"channel","subtype":"noteOff","noteNumber":52,"velocity":0},{"deltaTime":793,"channel":0,"type":"channel","subtype":"controller","controllerType":64,"value":56},{"deltaTime":123,"channel":0,"type":"channel","subtype":"controller","controllerType":64,"value":120},{"deltaTime":31,"channel":0,"type":"channel","subtype":"controller","controllerType":64,"value":127},{"deltaTime":1986,"channel":0,"type":"channel","noteNumber":63,"velocity":64,"subtype":"noteOn"},{"deltaTime":185,"channel":0,"type":"channel","noteNumber":56,"velocity":65,"subtype":"noteOn"},{"deltaTime":4310,"channel":0,"type":"channel","subtype":"noteOff","noteNumber":63,"velocity":0},{"deltaTime":498,"channel":0,"type":"channel","noteNumber":37,"velocity":65,"subtype":"noteOn"},{"deltaTime":216,"channel":0,"type":"channel","noteNumber":49,"velocity":68,"subtype":"noteOn"},{"deltaTime":528,"channel":0,"type":"channel","subtype":"noteOff","noteNumber":56,"velocity":0},{"deltaTime":3161,"channel":0,"type":"channel","subtype":"noteOff","noteNumber":49,"velocity":0},{"deltaTime":652,"channel":0,"type":"channel","subtype":"noteOff","noteNumber":37,"velocity":0},{"deltaTime":1304,"channel":0,"type":"channel","noteNumber":44,"velocity":70,"subtype":"noteOn"},{"deltaTime":590,"channel":0,"type":"channel","noteNumber":52,"velocity":70,"subtype":"noteOn"},{"deltaTime":123,"channel":0,"type":"channel","noteNumber":56,"velocity":64,"subtype":"noteOn"},{"deltaTime":560,"channel":0,"type":"channel","noteNumber":61,"velocity":43,"subtype":"noteOn"},{"deltaTime":928,"channel":0,"type":"channel","subtype":"noteOff","noteNumber":52,"velocity":0},{"deltaTime":947,"channel":0,"type":"channel","subtype":"noteOff","noteNumber":61,"velocity":0},{"deltaTime":388,"channel":0,"type":"channel","subtype":"noteOff","noteNumber":56,"velocity":0},{"deltaTime":774,"channel":0,"type":"channel","subtype":"noteOff","noteNumber":44,"velocity":0},{"deltaTime":1273,"channel":0,"type":"channel","noteNumber":36,"velocity":74,"subtype":"noteOn"},{"deltaTime":277,"channel":0,"type":"channel","noteNumber":48,"velocity":71,"subtype":"noteOn"},{"deltaTime":234,"channel":0,"type":"channel","noteNumber":52,"velocity":70,"subtype":"noteOn"},{"deltaTime":172,"channel":0,"type":"channel","noteNumber":63,"velocity":77,"subtype":"noteOn"},{"deltaTime":123,"channel":0,"type":"channel","subtype":"controller","controllerType":64,"value":120},{"deltaTime":123,"channel":0,"type":"channel","subtype":"controller","controllerType":64,"value":56},{"deltaTime":80,"channel":0,"type":"channel","subtype":"controller","controllerType":64,"value":0},{"deltaTime":2946,"channel":0,"type":"channel","subtype":"noteOff","noteNumber":52,"velocity":0},{"deltaTime":153,"channel":0,"type":"channel","subtype":"noteOff","noteNumber":36,"velocity":0},{"deltaTime":449,"channel":0,"type":"channel","subtype":"noteOff","noteNumber":48,"velocity":0},{"deltaTime":234,"channel":0,"type":"channel","subtype":"noteOff","noteNumber":63,"velocity":0},{"deltaTime":1426,"channel":0,"type":"channel","noteNumber":44,"velocity":66,"subtype":"noteOn"},{"deltaTime":203,"channel":0,"type":"channel","subtype":"controller","controllerType":64,"value":56},{"deltaTime":154,"channel":0,"type":"channel","subtype":"controller","controllerType":64,"value":120},{"deltaTime":31,"channel":0,"type":"channel","subtype":"controller","controllerType":64,"value":127},{"deltaTime":3566,"channel":0,"type":"channel","subtype":"noteOff","noteNumber":44,"velocity":0},{"deltaTime":1661,"channel":0,"type":"channel","noteNumber":37,"velocity":48,"subtype":"noteOn"},{"deltaTime":184,"channel":0,"type":"channel","noteNumber":63,"velocity":73,"subtype":"noteOn"},{"deltaTime":203,"channel":0,"type":"channel","noteNumber":52,"velocity":78,"subtype":"noteOn"},{"deltaTime":184,"channel":0,"type":"channel","noteNumber":49,"velocity":53,"subtype":"noteOn"},{"deltaTime":173,"channel":0,"type":"channel","noteNumber":56,"velocity":69,"subtype":"noteOn"},{"deltaTime":448,"channel":0,"type":"channel","subtype":"controller","controllerType":64,"value":120},{"deltaTime":142,"channel":0,"type":"channel","subtype":"controller","controllerType":64,"value":56},{"deltaTime":92,"channel":0,"type":"channel","subtype":"controller","controllerType":64,"value":0},{"deltaTime":2650,"channel":0,"type":"channel","subtype":"noteOff","noteNumber":49,"velocity":0},{"deltaTime":204,"channel":0,"type":"channel","subtype":"noteOff","noteNumber":52,"velocity":0},{"deltaTime":774,"channel":0,"type":"channel","subtype":"controller","controllerType":64,"value":56},{"deltaTime":31,"channel":0,"type":"channel","subtype":"noteOff","noteNumber":37,"velocity":0},{"deltaTime":31,"channel":0,"type":"channel","subtype":"noteOff","noteNumber":63,"velocity":0},{"deltaTime":122,"channel":0,"type":"channel","subtype":"controller","controllerType":64,"value":120},{"deltaTime":50,"channel":0,"type":"channel","subtype":"controller","controllerType":64,"value":127},{"deltaTime":92,"channel":0,"type":"channel","subtype":"noteOff","noteNumber":56,"velocity":0},{"deltaTime":652,"channel":0,"type":"channel","noteNumber":44,"velocity":61,"subtype":"noteOn"},{"deltaTime":4668,"channel":0,"type":"channel","subtype":"noteOff","noteNumber":44,"velocity":0},{"deltaTime":418,"channel":0,"type":"channel","noteNumber":63,"velocity":70,"subtype":"noteOn"},{"deltaTime":122,"channel":0,"type":"channel","noteNumber":36,"velocity":70,"subtype":"noteOn"},{"deltaTime":234,"channel":0,"type":"channel","noteNumber":48,"velocity":68,"subtype":"noteOn"},{"deltaTime":184,"channel":0,"type":"channel","noteNumber":52,"velocity":75,"subtype":"noteOn"},{"deltaTime":203,"channel":0,"type":"channel","noteNumber":56,"velocity":68,"subtype":"noteOn"},{"deltaTime":1784,"channel":0,"type":"channel","subtype":"controller","controllerType":64,"value":120},{"deltaTime":122,"channel":0,"type":"channel","subtype":"controller","controllerType":64,"value":56},{"deltaTime":80,"channel":0,"type":"channel","subtype":"controller","controllerType":64,"value":0},{"deltaTime":603,"channel":0,"type":"channel","subtype":"noteOff","noteNumber":52,"velocity":0},{"deltaTime":295,"channel":0,"type":"channel","subtype":"noteOff","noteNumber":56,"velocity":0},{"deltaTime":92,"channel":0,"type":"channel","subtype":"noteOff","noteNumber":63,"velocity":0},{"deltaTime":683,"channel":0,"type":"channel","subtype":"noteOff","noteNumber":48,"velocity":0},{"deltaTime":111,"channel":0,"type":"channel","subtype":"noteOff","noteNumber":36,"velocity":0},{"deltaTime":1132,"channel":0,"type":"channel","noteNumber":44,"velocity":66,"subtype":"noteOn"},{"deltaTime":602,"channel":0,"type":"channel","noteNumber":61,"velocity":70,"subtype":"noteOn"},{"deltaTime":172,"channel":0,"type":"channel","noteNumber":52,"velocity":69,"subtype":"noteOn"},{"deltaTime":2202,"channel":0,"type":"channel","subtype":"controller","controllerType":64,"value":56},{"deltaTime":122,"channel":0,"type":"channel","subtype":"controller","controllerType":64,"value":120},{"deltaTime":19,"channel":0,"type":"channel","subtype":"controller","controllerType":64,"value":127},{"deltaTime":775,"channel":0,"type":"channel","subtype":"noteOff","noteNumber":52,"velocity":0},{"deltaTime":31,"channel":0,"type":"channel","subtype":"noteOff","noteNumber":61,"velocity":0},{"deltaTime":1131,"channel":0,"type":"channel","subtype":"noteOff","noteNumber":44,"velocity":0},{"deltaTime":1009,"channel":0,"type":"channel","noteNumber":49,"velocity":64,"subtype":"noteOn"},{"deltaTime":3954,"channel":0,"type":"channel","subtype":"noteOff","noteNumber":49,"velocity":0},{"deltaTime":1254,"channel":0,"type":"channel","subtype":"controller","controllerType":64,"value":120},{"deltaTime":142,"channel":0,"type":"channel","subtype":"controller","controllerType":64,"value":56},{"deltaTime":92,"channel":0,"type":"channel","subtype":"controller","controllerType":64,"value":0},{"deltaTime":61,"channel":0,"type":"channel","noteNumber":44,"velocity":71,"subtype":"noteOn"},{"deltaTime":683,"channel":0,"type":"channel","noteNumber":52,"velocity":75,"subtype":"noteOn"},{"deltaTime":172,"channel":0,"type":"channel","noteNumber":61,"velocity":66,"subtype":"noteOn"},{"deltaTime":123,"channel":0,"type":"channel","noteNumber":56,"velocity":75,"subtype":"noteOn"},{"deltaTime":2650,"channel":0,"type":"channel","subtype":"controller","controllerType":64,"value":56},{"deltaTime":80,"channel":0,"type":"channel","subtype":"controller","controllerType":64,"value":120},{"deltaTime":31,"channel":0,"type":"channel","subtype":"controller","controllerType":64,"value":127},{"deltaTime":1488,"channel":0,"type":"channel","subtype":"noteOff","noteNumber":52,"velocity":0},{"deltaTime":1162,"channel":0,"type":"channel","subtype":"noteOff","noteNumber":56,"velocity":0},{"deltaTime":123,"channel":0,"type":"channel","noteNumber":48,"velocity":68,"subtype":"noteOn"},{"deltaTime":203,"channel":0,"type":"channel","subtype":"noteOff","noteNumber":61,"velocity":0},{"deltaTime":154,"channel":0,"type":"channel","subtype":"noteOff","noteNumber":44,"velocity":0},{"deltaTime":3352,"channel":0,"type":"channel","subtype":"noteOff","noteNumber":48,"velocity":0},{"deltaTime":1303,"channel":0,"type":"channel","noteNumber":44,"velocity":63,"subtype":"noteOn"},{"deltaTime":387,"channel":0,"type":"channel","noteNumber":58,"velocity":75,"subtype":"noteOn"},{"deltaTime":185,"channel":0,"type":"channel","noteNumber":56,"velocity":69,"subtype":"noteOn"},{"deltaTime":203,"channel":0,"type":"channel","noteNumber":52,"velocity":72,"subtype":"noteOn"},{"deltaTime":3210,"channel":0,"type":"channel","subtype":"noteOff","noteNumber":52,"velocity":0},{"deltaTime":184,"channel":0,"type":"channel","subtype":"noteOff","noteNumber":56,"velocity":0},{"deltaTime":173,"channel":0,"type":"channel","subtype":"noteOff","noteNumber":58,"velocity":0},{"deltaTime":958,"channel":0,"type":"channel","subtype":"noteOff","noteNumber":44,"velocity":0},{"deltaTime":437,"channel":0,"type":"channel","noteNumber":48,"velocity":64,"subtype":"noteOn"},{"deltaTime":388,"channel":0,"type":"channel","noteNumber":61,"velocity":65,"subtype":"noteOn"},{"deltaTime":215,"channel":0,"type":"channel","noteNumber":52,"velocity":62,"subtype":"noteOn"},{"deltaTime":1814,"channel":0,"type":"channel","noteNumber":56,"velocity":30,"subtype":"noteOn"},{"deltaTime":1150,"channel":0,"type":"channel","subtype":"noteOff","noteNumber":48,"velocity":0},{"deltaTime":836,"channel":0,"type":"channel","subtype":"noteOff","noteNumber":56,"velocity":0},{"deltaTime":714,"channel":0,"type":"channel","noteNumber":44,"velocity":41,"subtype":"noteOn"},{"deltaTime":356,"channel":0,"type":"channel","subtype":"controller","controllerType":64,"value":120},{"deltaTime":123,"channel":0,"type":"channel","subtype":"controller","controllerType":64,"value":56},{"deltaTime":61,"channel":0,"type":"channel","subtype":"controller","controllerType":64,"value":0},{"deltaTime":50,"channel":0,"type":"channel","subtype":"noteOff","noteNumber":52,"velocity":0},{"deltaTime":307,"channel":0,"type":"channel","noteNumber":43,"velocity":66,"subtype":"noteOn"},{"deltaTime":173,"channel":0,"type":"channel","subtype":"noteOff","noteNumber":61,"velocity":0},{"deltaTime":2527,"channel":0,"type":"channel","subtype":"noteOff","noteNumber":44,"velocity":0},{"deltaTime":1549,"channel":0,"type":"channel","subtype":"noteOff","noteNumber":43,"velocity":0},{"deltaTime":1273,"channel":0,"type":"channel","noteNumber":52,"velocity":66,"subtype":"noteOn"},{"deltaTime":1304,"channel":0,"type":"channel","noteNumber":36,"velocity":25,"subtype":"noteOn"},{"deltaTime":1224,"channel":0,"type":"channel","subtype":"controller","controllerType":64,"value":8},{"deltaTime":122,"channel":0,"type":"channel","subtype":"controller","controllerType":64,"value":72},{"deltaTime":142,"channel":0,"type":"channel","subtype":"controller","controllerType":64,"value":127},{"deltaTime":215,"channel":0,"type":"channel","subtype":"noteOff","noteNumber":36,"velocity":0},{"deltaTime":499,"channel":0,"type":"channel","subtype":"noteOff","noteNumber":52,"velocity":0},{"deltaTime":1936,"channel":0,"type":"channel","noteNumber":52,"velocity":53,"subtype":"noteOn"},{"deltaTime":418,"channel":0,"type":"channel","noteNumber":56,"velocity":71,"subtype":"noteOn"},{"deltaTime":173,"channel":0,"type":"channel","noteNumber":63,"velocity":70,"subtype":"noteOn"},{"deltaTime":184,"channel":0,"type":"channel","noteNumber":36,"velocity":66,"subtype":"noteOn"},{"deltaTime":142,"channel":0,"type":"channel","noteNumber":48,"velocity":71,"subtype":"noteOn"},{"deltaTime":2915,"channel":0,"type":"channel","subtype":"noteOff","noteNumber":52,"velocity":0},{"deltaTime":387,"channel":0,"type":"channel","subtype":"noteOff","noteNumber":36,"velocity":0},{"deltaTime":621,"channel":0,"type":"channel","subtype":"noteOff","noteNumber":48,"velocity":0},{"deltaTime":92,"channel":0,"type":"channel","subtype":"noteOff","noteNumber":63,"velocity":0},{"deltaTime":357,"channel":0,"type":"channel","subtype":"noteOff","noteNumber":56,"velocity":0},{"deltaTime":713,"channel":0,"type":"channel","noteNumber":43,"velocity":64,"subtype":"noteOn"},{"deltaTime":2619,"channel":0,"type":"channel","subtype":"controller","controllerType":64,"value":120},{"deltaTime":143,"channel":0,"type":"channel","subtype":"controller","controllerType":64,"value":56},{"deltaTime":91,"channel":0,"type":"channel","subtype":"controller","controllerType":64,"value":0},{"deltaTime":591,"channel":0,"type":"channel","subtype":"noteOff","noteNumber":43,"velocity":0},{"deltaTime":1906,"channel":0,"type":"channel","noteNumber":36,"velocity":75,"subtype":"noteOn"},{"deltaTime":172,"channel":0,"type":"channel","noteNumber":63,"velocity":81,"subtype":"noteOn"},{"deltaTime":154,"channel":0,"type":"channel","noteNumber":52,"velocity":81,"subtype":"noteOn"},{"deltaTime":203,"channel":0,"type":"channel","noteNumber":48,"velocity":77,"subtype":"noteOn"},{"deltaTime":1814,"channel":0,"type":"channel","subtype":"controller","controllerType":64,"value":56},{"deltaTime":123,"channel":0,"type":"channel","subtype":"controller","controllerType":64,"value":120},{"deltaTime":31,"channel":0,"type":"channel","subtype":"controller","controllerType":64,"value":127},{"deltaTime":2048,"channel":0,"type":"channel","subtype":"noteOff","noteNumber":36,"velocity":0},{"deltaTime":294,"channel":0,"type":"channel","subtype":"noteOff","noteNumber":48,"velocity":0},{"deltaTime":277,"channel":0,"type":"channel","noteNumber":43,"velocity":70,"subtype":"noteOn"},{"deltaTime":437,"channel":0,"type":"channel","subtype":"noteOff","noteNumber":63,"velocity":0},{"deltaTime":1070,"channel":0,"type":"channel","noteNumber":61,"velocity":55,"subtype":"noteOn"},{"deltaTime":1550,"channel":0,"type":"channel","noteNumber":56,"velocity":43,"subtype":"noteOn"},{"deltaTime":1070,"channel":0,"type":"channel","subtype":"noteOff","noteNumber":52,"velocity":0},{"deltaTime":233,"channel":0,"type":"channel","subtype":"controller","controllerType":64,"value":120},{"deltaTime":154,"channel":0,"type":"channel","subtype":"controller","controllerType":64,"value":56},{"deltaTime":92,"channel":0,"type":"channel","subtype":"controller","controllerType":64,"value":0},{"deltaTime":499,"channel":0,"type":"channel","subtype":"noteOff","noteNumber":56,"velocity":0},{"deltaTime":61,"channel":0,"type":"channel","subtype":"noteOff","noteNumber":43,"velocity":0},{"deltaTime":184,"channel":0,"type":"channel","subtype":"noteOff","noteNumber":61,"velocity":0},{"deltaTime":1008,"channel":0,"type":"channel","noteNumber":49,"velocity":63,"subtype":"noteOn"},{"deltaTime":2018,"channel":0,"type":"channel","noteNumber":37,"velocity":19,"subtype":"noteOn"},{"deltaTime":1722,"channel":0,"type":"channel","subtype":"noteOff","noteNumber":37,"velocity":0},{"deltaTime":1100,"channel":0,"type":"channel","subtype":"noteOff","noteNumber":49,"velocity":0},{"deltaTime":541,"channel":0,"type":"channel","noteNumber":44,"velocity":73,"subtype":"noteOn"},{"deltaTime":744,"channel":0,"type":"channel","noteNumber":61,"velocity":70,"subtype":"noteOn"},{"deltaTime":203,"channel":0,"type":"channel","noteNumber":52,"velocity":76,"subtype":"noteOn"},{"deltaTime":123,"channel":0,"type":"channel","noteNumber":56,"velocity":71,"subtype":"noteOn"},{"deltaTime":3383,"channel":0,"type":"channel","subtype":"controller","controllerType":64,"value":56},{"deltaTime":92,"channel":0,"type":"channel","subtype":"controller","controllerType":64,"value":120},{"deltaTime":30,"channel":0,"type":"channel","subtype":"controller","controllerType":64,"value":127},{"deltaTime":388,"channel":0,"type":"channel","subtype":"noteOff","noteNumber":52,"velocity":0},{"deltaTime":387,"channel":0,"type":"channel","subtype":"noteOff","noteNumber":44,"velocity":0},{"deltaTime":591,"channel":0,"type":"channel","noteNumber":49,"velocity":53,"subtype":"noteOn"},{"deltaTime":183,"channel":0,"type":"channel","subtype":"noteOff","noteNumber":61,"velocity":0},{"deltaTime":112,"channel":0,"type":"channel","noteNumber":37,"velocity":46,"subtype":"noteOn"},{"deltaTime":326,"channel":0,"type":"channel","subtype":"noteOff","noteNumber":56,"velocity":0},{"deltaTime":1998,"channel":0,"type":"channel","subtype":"noteOff","noteNumber":37,"velocity":0},{"deltaTime":560,"channel":0,"type":"channel","subtype":"noteOff","noteNumber":49,"velocity":0},{"deltaTime":1814,"channel":0,"type":"channel","noteNumber":58,"velocity":69,"subtype":"noteOn"},{"deltaTime":153,"channel":0,"type":"channel","noteNumber":44,"velocity":66,"subtype":"noteOn"},{"deltaTime":203,"channel":0,"type":"channel","noteNumber":52,"velocity":75,"subtype":"noteOn"},{"deltaTime":2976,"channel":0,"type":"channel","subtype":"controller","controllerType":64,"value":120},{"deltaTime":142,"channel":0,"type":"channel","subtype":"controller","controllerType":64,"value":56},{"deltaTime":92,"channel":0,"type":"channel","subtype":"controller","controllerType":64,"value":0},{"deltaTime":744,"channel":0,"type":"channel","subtype":"noteOff","noteNumber":52,"velocity":0},{"deltaTime":172,"channel":0,"type":"channel","subtype":"noteOff","noteNumber":58,"velocity":0},{"deltaTime":124,"channel":0,"type":"channel","subtype":"noteOff","noteNumber":44,"velocity":0},{"deltaTime":946,"channel":0,"type":"channel","noteNumber":37,"velocity":64,"subtype":"noteOn"},{"deltaTime":216,"channel":0,"type":"channel","noteNumber":49,"velocity":69,"subtype":"noteOn"},{"deltaTime":387,"channel":0,"type":"channel","noteNumber":52,"velocity":48,"subtype":"noteOn"},{"deltaTime":387,"channel":0,"type":"channel","noteNumber":56,"velocity":66,"subtype":"noteOn"},{"deltaTime":173,"channel":0,"type":"channel","noteNumber":61,"velocity":48,"subtype":"noteOn"},{"deltaTime":1396,"channel":0,"type":"channel","subtype":"controller","controllerType":64,"value":56},{"deltaTime":92,"channel":0,"type":"channel","subtype":"controller","controllerType":64,"value":120},{"deltaTime":31,"channel":0,"type":"channel","subtype":"noteOff","noteNumber":61,"velocity":0},{"deltaTime":30,"channel":0,"type":"channel","subtype":"controller","controllerType":64,"value":127},{"deltaTime":449,"channel":0,"type":"channel","subtype":"noteOff","noteNumber":52,"velocity":0},{"deltaTime":1212,"channel":0,"type":"channel","subtype":"noteOff","noteNumber":37,"velocity":0},{"deltaTime":123,"channel":0,"type":"channel","subtype":"noteOff","noteNumber":49,"velocity":0},{"deltaTime":1161,"channel":0,"type":"channel","noteNumber":44,"velocity":61,"subtype":"noteOn"},{"deltaTime":112,"channel":0,"type":"channel","subtype":"noteOff","noteNumber":56,"velocity":0},{"deltaTime":387,"channel":0,"type":"channel","noteNumber":61,"velocity":66,"subtype":"noteOn"},{"deltaTime":184,"channel":0,"type":"channel","noteNumber":52,"velocity":66,"subtype":"noteOn"},{"deltaTime":3210,"channel":0,"type":"channel","subtype":"noteOff","noteNumber":52,"velocity":0},{"deltaTime":437,"channel":0,"type":"channel","subtype":"noteOff","noteNumber":61,"velocity":0},{"deltaTime":928,"channel":0,"type":"channel","subtype":"controller","controllerType":64,"value":72},{"deltaTime":92,"channel":0,"type":"channel","subtype":"controller","controllerType":64,"value":8},{"deltaTime":112,"channel":0,"type":"channel","subtype":"controller","controllerType":64,"value":0},{"deltaTime":30,"channel":0,"type":"channel","subtype":"noteOff","noteNumber":44,"velocity":0},{"deltaTime":5645,"channel":0,"type":"channel","noteNumber":52,"velocity":72,"subtype":"noteOn"},{"deltaTime":93,"channel":0,"type":"channel","noteNumber":61,"velocity":67,"subtype":"noteOn"},{"deltaTime":214,"channel":0,"type":"channel","noteNumber":49,"velocity":61,"subtype":"noteOn"},{"deltaTime":173,"channel":0,"type":"channel","noteNumber":56,"velocity":71,"subtype":"noteOn"},{"deltaTime":203,"channel":0,"type":"channel","noteNumber":37,"velocity":63,"subtype":"noteOn"},{"deltaTime":1377,"channel":0,"type":"channel","subtype":"controller","controllerType":64,"value":56},{"deltaTime":80,"channel":0,"type":"channel","subtype":"controller","controllerType":64,"value":120},{"deltaTime":31,"channel":0,"type":"channel","subtype":"controller","controllerType":64,"value":127},{"deltaTime":1254,"channel":0,"type":"channel","subtype":"noteOff","noteNumber":52,"velocity":0},{"deltaTime":1274,"channel":0,"type":"channel","subtype":"noteOff","noteNumber":37,"velocity":0},{"deltaTime":620,"channel":0,"type":"channel","subtype":"noteOff","noteNumber":49,"velocity":0},{"deltaTime":31,"channel":0,"type":"channel","subtype":"noteOff","noteNumber":61,"velocity":0},{"deltaTime":154,"channel":0,"type":"channel","noteNumber":44,"velocity":66,"subtype":"noteOn"},{"deltaTime":265,"channel":0,"type":"channel","noteNumber":58,"velocity":64,"subtype":"noteOn"},{"deltaTime":214,"channel":0,"type":"channel","noteNumber":52,"velocity":36,"subtype":"noteOn"},{"deltaTime":1039,"channel":0,"type":"channel","subtype":"noteOff","noteNumber":56,"velocity":0},{"deltaTime":530,"channel":0,"type":"channel","subtype":"noteOff","noteNumber":52,"velocity":0},{"deltaTime":1610,"channel":0,"type":"channel","subtype":"noteOff","noteNumber":58,"velocity":0},{"deltaTime":560,"channel":0,"type":"channel","subtype":"controller","controllerType":64,"value":88},{"deltaTime":92,"channel":0,"type":"channel","subtype":"controller","controllerType":64,"value":24},{"deltaTime":92,"channel":0,"type":"channel","subtype":"controller","controllerType":64,"value":0},{"deltaTime":265,"channel":0,"type":"channel","subtype":"noteOff","noteNumber":44,"velocity":0},{"deltaTime":775,"channel":0,"type":"channel","noteNumber":56,"velocity":74,"subtype":"noteOn"},{"deltaTime":172,"channel":0,"type":"channel","noteNumber":52,"velocity":67,"subtype":"noteOn"},{"deltaTime":123,"channel":0,"type":"channel","noteNumber":49,"velocity":69,"subtype":"noteOn"},{"deltaTime":203,"channel":0,"type":"channel","noteNumber":61,"velocity":64,"subtype":"noteOn"},{"deltaTime":184,"channel":0,"type":"channel","noteNumber":37,"velocity":66,"subtype":"noteOn"},{"deltaTime":1243,"channel":0,"type":"channel","subtype":"controller","controllerType":64,"value":56},{"deltaTime":92,"channel":0,"type":"channel","subtype":"controller","controllerType":64,"value":120},{"deltaTime":31,"channel":0,"type":"channel","subtype":"controller","controllerType":64,"value":127},{"deltaTime":2017,"channel":0,"type":"channel","subtype":"noteOff","noteNumber":37,"velocity":0},{"deltaTime":215,"channel":0,"type":"channel","subtype":"noteOff","noteNumber":52,"velocity":0},{"deltaTime":234,"channel":0,"type":"channel","subtype":"noteOff","noteNumber":49,"velocity":0},{"deltaTime":1272,"channel":0,"type":"channel","subtype":"noteOff","noteNumber":56,"velocity":0},{"deltaTime":31,"channel":0,"type":"channel","noteNumber":44,"velocity":54,"subtype":"noteOn"},{"deltaTime":326,"channel":0,"type":"channel","subtype":"noteOff","noteNumber":61,"velocity":0},{"deltaTime":3517,"channel":0,"type":"channel","subtype":"controller","controllerType":64,"value":120},{"deltaTime":173,"channel":0,"type":"channel","subtype":"controller","controllerType":64,"value":56},{"deltaTime":92,"channel":0,"type":"channel","subtype":"controller","controllerType":64,"value":0},{"deltaTime":295,"channel":0,"type":"channel","noteNumber":52,"velocity":73,"subtype":"noteOn"},{"deltaTime":744,"channel":0,"type":"channel","subtype":"noteOff","noteNumber":44,"velocity":0},{"deltaTime":3801,"channel":0,"type":"channel","noteNumber":49,"velocity":31,"subtype":"noteOn"},{"deltaTime":836,"channel":0,"type":"channel","subtype":"controller","controllerType":64,"value":56},{"deltaTime":30,"channel":0,"type":"channel","noteNumber":37,"velocity":66,"subtype":"noteOn"},{"deltaTime":172,"channel":0,"type":"channel","noteNumber":56,"velocity":73,"subtype":"noteOn"},{"deltaTime":185,"channel":0,"type":"channel","noteNumber":63,"velocity":70,"subtype":"noteOn"},{"deltaTime":203,"channel":0,"type":"channel","subtype":"controller","controllerType":64,"value":120},{"deltaTime":62,"channel":0,"type":"channel","subtype":"controller","controllerType":64,"value":127},{"deltaTime":2016,"channel":0,"type":"channel","subtype":"noteOff","noteNumber":52,"velocity":0},{"deltaTime":1255,"channel":0,"type":"channel","subtype":"noteOff","noteNumber":49,"velocity":0},{"deltaTime":172,"channel":0,"type":"channel","subtype":"noteOff","noteNumber":37,"velocity":0},{"deltaTime":277,"channel":0,"type":"channel","subtype":"noteOff","noteNumber":63,"velocity":0},{"deltaTime":30,"channel":0,"type":"channel","subtype":"noteOff","noteNumber":56,"velocity":0},{"deltaTime":978,"channel":0,"type":"channel","noteNumber":44,"velocity":66,"subtype":"noteOn"},{"deltaTime":4606,"channel":0,"type":"channel","subtype":"noteOff","noteNumber":44,"velocity":0},{"deltaTime":867,"channel":0,"type":"channel","noteNumber":49,"velocity":69,"subtype":"noteOn"},{"deltaTime":172,"channel":0,"type":"channel","noteNumber":37,"velocity":66,"subtype":"noteOn"},{"deltaTime":184,"channel":0,"type":"channel","noteNumber":63,"velocity":78,"subtype":"noteOn"},{"deltaTime":112,"channel":0,"type":"channel","noteNumber":52,"velocity":78,"subtype":"noteOn"},{"deltaTime":214,"channel":0,"type":"channel","noteNumber":56,"velocity":72,"subtype":"noteOn"},{"deltaTime":3862,"channel":0,"type":"channel","subtype":"noteOff","noteNumber":49,"velocity":0},{"deltaTime":111,"channel":0,"type":"channel","subtype":"noteOff","noteNumber":63,"velocity":0},{"deltaTime":215,"channel":0,"type":"channel","noteNumber":44,"velocity":66,"subtype":"noteOn"},{"deltaTime":142,"channel":0,"type":"channel","subtype":"noteOff","noteNumber":37,"velocity":0},{"deltaTime":480,"channel":0,"type":"channel","noteNumber":61,"velocity":48,"subtype":"noteOn"},{"deltaTime":214,"channel":0,"type":"channel","subtype":"noteOff","noteNumber":56,"velocity":0},{"deltaTime":1722,"channel":0,"type":"channel","subtype":"noteOff","noteNumber":52,"velocity":0},{"deltaTime":2109,"channel":0,"type":"channel","subtype":"noteOff","noteNumber":61,"velocity":0},{"deltaTime":173,"channel":0,"type":"channel","subtype":"noteOff","noteNumber":44,"velocity":0},{"deltaTime":1641,"channel":0,"type":"channel","noteNumber":49,"velocity":66,"subtype":"noteOn"},{"deltaTime":173,"channel":0,"type":"channel","noteNumber":37,"velocity":61,"subtype":"noteOn"},{"deltaTime":3302,"channel":0,"type":"channel","subtype":"noteOff","noteNumber":49,"velocity":0},{"deltaTime":295,"channel":0,"type":"channel","subtype":"noteOff","noteNumber":37,"velocity":0},{"deltaTime":1304,"channel":0,"type":"channel","noteNumber":44,"velocity":62,"subtype":"noteOn"},{"deltaTime":1020,"channel":0,"type":"channel","noteNumber":61,"velocity":69,"subtype":"noteOn"},{"deltaTime":173,"channel":0,"type":"channel","noteNumber":56,"velocity":69,"subtype":"noteOn"},{"deltaTime":153,"channel":0,"type":"channel","noteNumber":52,"velocity":73,"subtype":"noteOn"},{"deltaTime":1243,"channel":0,"type":"channel","subtype":"controller","controllerType":64,"value":120},{"deltaTime":123,"channel":0,"type":"channel","subtype":"controller","controllerType":64,"value":56},{"deltaTime":92,"channel":0,"type":"channel","subtype":"controller","controllerType":64,"value":0},{"deltaTime":1814,"channel":0,"type":"channel","subtype":"noteOff","noteNumber":52,"velocity":0},{"deltaTime":1119,"channel":0,"type":"channel","subtype":"noteOff","noteNumber":56,"velocity":0},{"deltaTime":449,"channel":0,"type":"channel","subtype":"noteOff","noteNumber":61,"velocity":0},{"deltaTime":1040,"channel":0,"type":"channel","noteNumber":48,"velocity":58,"subtype":"noteOn"},{"deltaTime":540,"channel":0,"type":"channel","subtype":"noteOff","noteNumber":44,"velocity":0},{"deltaTime":794,"channel":0,"type":"channel","subtype":"noteOff","noteNumber":48,"velocity":0},{"deltaTime":3099,"channel":0,"type":"channel","noteNumber":61,"velocity":64,"subtype":"noteOn"},{"deltaTime":203,"channel":0,"type":"channel","noteNumber":52,"velocity":68,"subtype":"noteOn"},{"deltaTime":184,"channel":0,"type":"channel","noteNumber":56,"velocity":66,"subtype":"noteOn"},{"deltaTime":713,"channel":0,"type":"channel","noteNumber":36,"velocity":63,"subtype":"noteOn"},{"deltaTime":1814,"channel":0,"type":"channel","subtype":"controller","controllerType":64,"value":56},{"deltaTime":112,"channel":0,"type":"channel","subtype":"controller","controllerType":64,"value":120},{"deltaTime":30,"channel":0,"type":"channel","subtype":"controller","controllerType":64,"value":127},{"deltaTime":357,"channel":0,"type":"channel","subtype":"noteOff","noteNumber":52,"velocity":0},{"deltaTime":449,"channel":0,"type":"channel","subtype":"noteOff","noteNumber":61,"velocity":0},{"deltaTime":264,"channel":0,"type":"channel","subtype":"noteOff","noteNumber":36,"velocity":0},{"deltaTime":62,"channel":0,"type":"channel","subtype":"noteOff","noteNumber":56,"velocity":0},{"deltaTime":1457,"channel":0,"type":"channel","noteNumber":43,"velocity":63,"subtype":"noteOn"},{"deltaTime":683,"channel":0,"type":"channel","noteNumber":58,"velocity":64,"subtype":"noteOn"},{"deltaTime":387,"channel":0,"type":"channel","noteNumber":52,"velocity":56,"subtype":"noteOn"},{"deltaTime":1427,"channel":0,"type":"channel","subtype":"noteOff","noteNumber":52,"velocity":0},{"deltaTime":1722,"channel":0,"type":"channel","subtype":"noteOff","noteNumber":43,"velocity":0},{"deltaTime":183,"channel":0,"type":"channel","subtype":"noteOff","noteNumber":58,"velocity":0},{"deltaTime":1427,"channel":0,"type":"channel","noteNumber":36,"velocity":71,"subtype":"noteOn"},{"deltaTime":142,"channel":0,"type":"channel","noteNumber":48,"velocity":69,"subtype":"noteOn"},{"deltaTime":184,"channel":0,"type":"channel","noteNumber":56,"velocity":61,"subtype":"noteOn"},{"deltaTime":499,"channel":0,"type":"channel","noteNumber":52,"velocity":48,"subtype":"noteOn"},{"deltaTime":184,"channel":0,"type":"channel","noteNumber":61,"velocity":39,"subtype":"noteOn"},{"deltaTime":978,"channel":0,"type":"channel","subtype":"noteOff","noteNumber":52,"velocity":0},{"deltaTime":203,"channel":0,"type":"channel","subtype":"noteOff","noteNumber":61,"velocity":0},{"deltaTime":989,"channel":0,"type":"channel","subtype":"noteOff","noteNumber":48,"velocity":0},{"deltaTime":142,"channel":0,"type":"channel","subtype":"noteOff","noteNumber":36,"velocity":0},{"deltaTime":62,"channel":0,"type":"channel","subtype":"noteOff","noteNumber":56,"velocity":0},{"deltaTime":2262,"channel":0,"type":"channel","noteNumber":58,"velocity":75,"subtype":"noteOn"},{"deltaTime":142,"channel":0,"type":"channel","noteNumber":56,"velocity":68,"subtype":"noteOn"},{"deltaTime":184,"channel":0,"type":"channel","noteNumber":43,"velocity":76,"subtype":"noteOn"},{"deltaTime":123,"channel":0,"type":"channel","noteNumber":52,"velocity":64,"subtype":"noteOn"},{"deltaTime":437,"channel":0,"type":"channel","subtype":"controller","controllerType":64,"value":64},{"deltaTime":92,"channel":0,"type":"channel","subtype":"controller","controllerType":64,"value":8},{"deltaTime":92,"channel":0,"type":"channel","subtype":"controller","controllerType":64,"value":0},{"deltaTime":2202,"channel":0,"type":"channel","subtype":"noteOff","noteNumber":56,"velocity":0},{"deltaTime":855,"channel":0,"type":"channel","subtype":"noteOff","noteNumber":52,"velocity":0},{"deltaTime":449,"channel":0,"type":"channel","subtype":"noteOff","noteNumber":43,"velocity":0},{"deltaTime":234,"channel":0,"type":"channel","subtype":"noteOff","noteNumber":58,"velocity":0},{"deltaTime":510,"channel":0,"type":"channel","subtype":"controller","controllerType":64,"value":56},{"deltaTime":30,"channel":0,"type":"channel","noteNumber":36,"velocity":72,"subtype":"noteOn"},{"deltaTime":234,"channel":0,"type":"channel","subtype":"controller","controllerType":64,"value":120},{"deltaTime":31,"channel":0,"type":"channel","subtype":"controller","controllerType":64,"value":127},{"deltaTime":61,"channel":0,"type":"channel","noteNumber":48,"velocity":64,"subtype":"noteOn"},{"deltaTime":326,"channel":0,"type":"channel","noteNumber":56,"velocity":65,"subtype":"noteOn"},{"deltaTime":591,"channel":0,"type":"channel","noteNumber":61,"velocity":58,"subtype":"noteOn"},{"deltaTime":215,"channel":0,"type":"channel","noteNumber":52,"velocity":74,"subtype":"noteOn"},{"deltaTime":2220,"channel":0,"type":"channel","subtype":"noteOff","noteNumber":36,"velocity":0},{"deltaTime":30,"channel":0,"type":"channel","subtype":"noteOff","noteNumber":48,"velocity":0},{"deltaTime":419,"channel":0,"type":"channel","subtype":"noteOff","noteNumber":52,"velocity":0},{"deltaTime":1162,"channel":0,"type":"channel","subtype":"noteOff","noteNumber":61,"velocity":0},{"deltaTime":203,"channel":0,"type":"channel","subtype":"noteOff","noteNumber":56,"velocity":0},{"deltaTime":3843,"channel":0,"type":"channel","subtype":"controller","controllerType":64,"value":120},{"deltaTime":172,"channel":0,"type":"channel","subtype":"controller","controllerType":64,"value":56},{"deltaTime":92,"channel":0,"type":"channel","subtype":"controller","controllerType":64,"value":0},{"deltaTime":2140,"channel":0,"type":"channel","noteNumber":56,"velocity":75,"subtype":"noteOn"},{"deltaTime":172,"channel":0,"type":"channel","noteNumber":52,"velocity":78,"subtype":"noteOn"},{"deltaTime":185,"channel":0,"type":"channel","noteNumber":36,"velocity":76,"subtype":"noteOn"},{"deltaTime":203,"channel":0,"type":"channel","noteNumber":61,"velocity":70,"subtype":"noteOn"},{"deltaTime":184,"channel":0,"type":"channel","noteNumber":48,"velocity":75,"subtype":"noteOn"},{"deltaTime":1845,"channel":0,"type":"channel","subtype":"controller","controllerType":64,"value":56},{"deltaTime":111,"channel":0,"type":"channel","subtype":"controller","controllerType":64,"value":120},{"deltaTime":31,"channel":0,"type":"channel","subtype":"controller","controllerType":64,"value":127},{"deltaTime":1875,"channel":0,"type":"channel","subtype":"noteOff","noteNumber":36,"velocity":0},{"deltaTime":62,"channel":0,"type":"channel","subtype":"noteOff","noteNumber":52,"velocity":0},{"deltaTime":805,"channel":0,"type":"channel","subtype":"noteOff","noteNumber":56,"velocity":0},{"deltaTime":234,"channel":0,"type":"channel","subtype":"noteOff","noteNumber":61,"velocity":0},{"deltaTime":122,"channel":0,"type":"channel","subtype":"noteOff","noteNumber":48,"velocity":0},{"deltaTime":5676,"channel":0,"type":"channel","noteNumber":61,"velocity":64,"subtype":"noteOn"},{"deltaTime":204,"channel":0,"type":"channel","noteNumber":56,"velocity":66,"subtype":"noteOn"},{"deltaTime":184,"channel":0,"type":"channel","noteNumber":52,"velocity":69,"subtype":"noteOn"},{"deltaTime":498,"channel":0,"type":"channel","noteNumber":43,"velocity":21,"subtype":"noteOn"},{"deltaTime":775,"channel":0,"type":"channel","noteNumber":37,"velocity":60,"subtype":"noteOn"},{"deltaTime":805,"channel":0,"type":"channel","subtype":"noteOff","noteNumber":43,"velocity":0},{"deltaTime":1427,"channel":0,"type":"channel","subtype":"controller","controllerType":64,"value":120},{"deltaTime":111,"channel":0,"type":"channel","subtype":"controller","controllerType":64,"value":56},{"deltaTime":92,"channel":0,"type":"channel","subtype":"controller","controllerType":64,"value":0},{"deltaTime":31,"channel":0,"type":"channel","subtype":"noteOff","noteNumber":52,"velocity":0},{"deltaTime":357,"channel":0,"type":"channel","subtype":"noteOff","noteNumber":56,"velocity":0},{"deltaTime":540,"channel":0,"type":"channel","subtype":"noteOff","noteNumber":61,"velocity":0},{"deltaTime":1182,"channel":0,"type":"channel","noteNumber":49,"velocity":43,"subtype":"noteOn"},{"deltaTime":2170,"channel":0,"type":"channel","subtype":"controller","controllerType":64,"value":56},{"deltaTime":123,"channel":0,"type":"channel","subtype":"controller","controllerType":64,"value":120},{"deltaTime":30,"channel":0,"type":"channel","subtype":"controller","controllerType":64,"value":127},{"deltaTime":530,"channel":0,"type":"channel","subtype":"noteOff","noteNumber":37,"velocity":0},{"deltaTime":683,"channel":0,"type":"channel","subtype":"noteOff","noteNumber":49,"velocity":0},{"deltaTime":1905,"channel":0,"type":"channel","noteNumber":44,"velocity":66,"subtype":"noteOn"},{"deltaTime":652,"channel":0,"type":"channel","noteNumber":52,"velocity":48,"subtype":"noteOn"},{"deltaTime":2171,"channel":0,"type":"channel","subtype":"noteOff","noteNumber":52,"velocity":0},{"deltaTime":2232,"channel":0,"type":"channel","subtype":"noteOff","noteNumber":44,"velocity":0},{"deltaTime":234,"channel":0,"type":"channel","noteNumber":56,"velocity":75,"subtype":"noteOn"},{"deltaTime":264,"channel":0,"type":"channel","noteNumber":63,"velocity":66,"subtype":"noteOn"},{"deltaTime":185,"channel":0,"type":"channel","noteNumber":37,"velocity":60,"subtype":"noteOn"},{"deltaTime":203,"channel":0,"type":"channel","noteNumber":49,"velocity":66,"subtype":"noteOn"},{"deltaTime":123,"channel":0,"type":"channel","noteNumber":52,"velocity":60,"subtype":"noteOn"},{"deltaTime":234,"channel":0,"type":"channel","subtype":"controller","controllerType":64,"value":120},{"deltaTime":122,"channel":0,"type":"channel","subtype":"controller","controllerType":64,"value":56},{"deltaTime":62,"channel":0,"type":"channel","subtype":"controller","controllerType":64,"value":0},{"deltaTime":448,"channel":0,"type":"channel","subtype":"noteOff","noteNumber":52,"velocity":0},{"deltaTime":1833,"channel":0,"type":"channel","subtype":"noteOff","noteNumber":56,"velocity":0},{"deltaTime":1316,"channel":0,"type":"channel","subtype":"controller","controllerType":64,"value":56},{"deltaTime":111,"channel":0,"type":"channel","subtype":"controller","controllerType":64,"value":120},{"deltaTime":31,"channel":0,"type":"channel","subtype":"noteOff","noteNumber":63,"velocity":0},{"deltaTime":31,"channel":0,"type":"channel","subtype":"noteOff","noteNumber":49,"velocity":0},{"deltaTime":30,"channel":0,"type":"channel","subtype":"controller","controllerType":64,"value":127},{"deltaTime":62,"channel":0,"type":"channel","subtype":"noteOff","noteNumber":37,"velocity":0},{"deltaTime":885,"channel":0,"type":"channel","noteNumber":44,"velocity":63,"subtype":"noteOn"},{"deltaTime":4016,"channel":0,"type":"channel","subtype":"noteOff","noteNumber":44,"velocity":0},{"deltaTime":1334,"channel":0,"type":"channel","noteNumber":52,"velocity":77,"subtype":"noteOn"},{"deltaTime":184,"channel":0,"type":"channel","noteNumber":61,"velocity":67,"subtype":"noteOn"},{"deltaTime":154,"channel":0,"type":"channel","noteNumber":56,"velocity":72,"subtype":"noteOn"},{"deltaTime":142,"channel":0,"type":"channel","noteNumber":49,"velocity":65,"subtype":"noteOn"},{"deltaTime":184,"channel":0,"type":"channel","noteNumber":37,"velocity":57,"subtype":"noteOn"},{"deltaTime":2884,"channel":0,"type":"channel","subtype":"controller","controllerType":64,"value":120},{"deltaTime":111,"channel":0,"type":"channel","subtype":"controller","controllerType":64,"value":56},{"deltaTime":61,"channel":0,"type":"channel","subtype":"controller","controllerType":64,"value":0},{"deltaTime":510,"channel":0,"type":"channel","subtype":"noteOff","noteNumber":52,"velocity":0},{"deltaTime":142,"channel":0,"type":"channel","subtype":"noteOff","noteNumber":37,"velocity":0},{"deltaTime":92,"channel":0,"type":"channel","subtype":"noteOff","noteNumber":61,"velocity":0},{"deltaTime":172,"channel":0,"type":"channel","noteNumber":44,"velocity":65,"subtype":"noteOn"},{"deltaTime":634,"channel":0,"type":"channel","subtype":"noteOff","noteNumber":49,"velocity":0},{"deltaTime":61,"channel":0,"type":"channel","noteNumber":58,"velocity":66,"subtype":"noteOn"},{"deltaTime":1783,"channel":0,"type":"channel","subtype":"noteOff","noteNumber":56,"velocity":0},{"deltaTime":1446,"channel":0,"type":"channel","subtype":"controller","controllerType":64,"value":56},{"deltaTime":92,"channel":0,"type":"channel","subtype":"controller","controllerType":64,"value":120},{"deltaTime":31,"channel":0,"type":"channel","subtype":"controller","controllerType":64,"value":127},{"deltaTime":295,"channel":0,"type":"channel","subtype":"noteOff","noteNumber":44,"velocity":0},{"deltaTime":31,"channel":0,"type":"channel","subtype":"noteOff","noteNumber":58,"velocity":0},{"deltaTime":1457,"channel":0,"type":"channel","noteNumber":61,"velocity":58,"subtype":"noteOn"},{"deltaTime":184,"channel":0,"type":"channel","noteNumber":52,"velocity":59,"subtype":"noteOn"},{"deltaTime":173,"channel":0,"type":"channel","noteNumber":37,"velocity":61,"subtype":"noteOn"},{"deltaTime":184,"channel":0,"type":"channel","noteNumber":49,"velocity":60,"subtype":"noteOn"},{"deltaTime":142,"channel":0,"type":"channel","noteNumber":56,"velocity":49,"subtype":"noteOn"},{"deltaTime":2170,"channel":0,"type":"channel","subtype":"noteOff","noteNumber":52,"velocity":0},{"deltaTime":1273,"channel":0,"type":"channel","subtype":"noteOff","noteNumber":56,"velocity":0},{"deltaTime":61,"channel":0,"type":"channel","subtype":"noteOff","noteNumber":49,"velocity":0},{"deltaTime":357,"channel":0,"type":"channel","subtype":"noteOff","noteNumber":61,"velocity":0},{"deltaTime":277,"channel":0,"type":"channel","subtype":"noteOff","noteNumber":37,"velocity":0},{"deltaTime":886,"channel":0,"type":"channel","noteNumber":44,"velocity":66,"subtype":"noteOn"},{"deltaTime":122,"channel":0,"type":"channel","noteNumber":56,"velocity":38,"subtype":"noteOn"},{"deltaTime":234,"channel":0,"type":"channel","noteNumber":52,"velocity":58,"subtype":"noteOn"},{"deltaTime":510,"channel":0,"type":"channel","noteNumber":63,"velocity":70,"subtype":"noteOn"},{"deltaTime":1692,"channel":0,"type":"channel","subtype":"noteOff","noteNumber":52,"velocity":0},{"deltaTime":479,"channel":0,"type":"channel","subtype":"noteOff","noteNumber":56,"velocity":0},{"deltaTime":111,"channel":0,"type":"channel","subtype":"controller","controllerType":64,"value":120},{"deltaTime":154,"channel":0,"type":"channel","subtype":"controller","controllerType":64,"value":56},{"deltaTime":92,"channel":0,"type":"channel","subtype":"controller","controllerType":64,"value":0},{"deltaTime":652,"channel":0,"type":"channel","subtype":"noteOff","noteNumber":63,"velocity":0},{"deltaTime":387,"channel":0,"type":"channel","subtype":"noteOff","noteNumber":44,"velocity":0},{"deltaTime":1844,"channel":0,"type":"channel","noteNumber":49,"velocity":63,"subtype":"noteOn"},{"deltaTime":112,"channel":0,"type":"channel","noteNumber":37,"velocity":59,"subtype":"noteOn"},{"deltaTime":214,"channel":0,"type":"channel","noteNumber":56,"velocity":69,"subtype":"noteOn"},{"deltaTime":204,"channel":0,"type":"channel","noteNumber":63,"velocity":69,"subtype":"noteOn"},{"deltaTime":184,"channel":0,"type":"channel","noteNumber":52,"velocity":63,"subtype":"noteOn"},{"deltaTime":947,"channel":0,"type":"channel","subtype":"noteOff","noteNumber":52,"velocity":0},{"deltaTime":265,"channel":0,"type":"channel","subtype":"controller","controllerType":64,"value":48},{"deltaTime":122,"channel":0,"type":"channel","subtype":"controller","controllerType":64,"value":112},{"deltaTime":92,"channel":0,"type":"channel","subtype":"controller","controllerType":64,"value":127},{"deltaTime":1569,"channel":0,"type":"channel","subtype":"noteOff","noteNumber":49,"velocity":0},{"deltaTime":61,"channel":0,"type":"channel","subtype":"noteOff","noteNumber":56,"velocity":0},{"deltaTime":560,"channel":0,"type":"channel","subtype":"noteOff","noteNumber":63,"velocity":0},{"deltaTime":215,"channel":0,"type":"channel","subtype":"noteOff","noteNumber":37,"velocity":0},{"deltaTime":265,"channel":0,"type":"channel","noteNumber":44,"velocity":66,"subtype":"noteOn"},{"deltaTime":4728,"channel":0,"type":"channel","subtype":"noteOff","noteNumber":44,"velocity":0},{"deltaTime":1568,"channel":0,"type":"channel","noteNumber":54,"velocity":79,"subtype":"noteOn"},{"deltaTime":326,"channel":0,"type":"channel","noteNumber":49,"velocity":73,"subtype":"noteOn"},{"deltaTime":185,"channel":0,"type":"channel","noteNumber":37,"velocity":57,"subtype":"noteOn"},{"deltaTime":123,"channel":0,"type":"channel","noteNumber":63,"velocity":59,"subtype":"noteOn"},{"deltaTime":3953,"channel":0,"type":"channel","subtype":"noteOff","noteNumber":54,"velocity":0},{"deltaTime":81,"channel":0,"type":"channel","subtype":"noteOff","noteNumber":49,"velocity":0},{"deltaTime":184,"channel":0,"type":"channel","subtype":"noteOff","noteNumber":63,"velocity":0},{"deltaTime":713,"channel":0,"type":"channel","noteNumber":44,"velocity":68,"subtype":"noteOn"},{"deltaTime":561,"channel":0,"type":"channel","subtype":"noteOff","noteNumber":37,"velocity":0},{"deltaTime":5207,"channel":0,"type":"channel","noteNumber":61,"velocity":81,"subtype":"noteOn"},{"deltaTime":204,"channel":0,"type":"channel","noteNumber":54,"velocity":82,"subtype":"noteOn"},{"deltaTime":805,"channel":0,"type":"channel","subtype":"noteOff","noteNumber":44,"velocity":0},{"deltaTime":4575,"channel":0,"type":"channel","noteNumber":63,"velocity":66,"subtype":"noteOn"},{"deltaTime":683,"channel":0,"type":"channel","noteNumber":58,"velocity":63,"subtype":"noteOn"},{"deltaTime":978,"channel":0,"type":"channel","subtype":"noteOff","noteNumber":54,"velocity":0},{"deltaTime":2680,"channel":0,"type":"channel","subtype":"noteOff","noteNumber":61,"velocity":0},{"deltaTime":591,"channel":0,"type":"channel","noteNumber":56,"velocity":75,"subtype":"noteOn"},{"deltaTime":215,"channel":0,"type":"channel","noteNumber":66,"velocity":72,"subtype":"noteOn"},{"deltaTime":203,"channel":0,"type":"channel","subtype":"controller","controllerType":64,"value":120},{"deltaTime":92,"channel":0,"type":"channel","subtype":"controller","controllerType":64,"value":56},{"deltaTime":80,"channel":0,"type":"channel","subtype":"controller","controllerType":64,"value":0},{"deltaTime":31,"channel":0,"type":"channel","noteNumber":35,"velocity":70,"subtype":"noteOn"},{"deltaTime":123,"channel":0,"type":"channel","noteNumber":47,"velocity":70,"subtype":"noteOn"},{"deltaTime":744,"channel":0,"type":"channel","subtype":"noteOff","noteNumber":63,"velocity":0},{"deltaTime":295,"channel":0,"type":"channel","subtype":"noteOff","noteNumber":58,"velocity":0},{"deltaTime":2202,"channel":0,"type":"channel","subtype":"noteOff","noteNumber":47,"velocity":0},{"deltaTime":356,"channel":0,"type":"channel","subtype":"noteOff","noteNumber":35,"velocity":0},{"deltaTime":154,"channel":0,"type":"channel","subtype":"noteOff","noteNumber":56,"velocity":0},{"deltaTime":406,"channel":0,"type":"channel","noteNumber":42,"velocity":57,"subtype":"noteOn"},{"deltaTime":246,"channel":0,"type":"channel","subtype":"noteOff","noteNumber":66,"velocity":0},{"deltaTime":3444,"channel":0,"type":"channel","subtype":"noteOff","noteNumber":42,"velocity":0},{"deltaTime":3037,"channel":0,"type":"channel","noteNumber":47,"velocity":73,"subtype":"noteOn"},{"deltaTime":173,"channel":0,"type":"channel","noteNumber":35,"velocity":73,"subtype":"noteOn"},{"deltaTime":183,"channel":0,"type":"channel","noteNumber":54,"velocity":79,"subtype":"noteOn"},{"deltaTime":112,"channel":0,"type":"channel","noteNumber":66,"velocity":77,"subtype":"noteOn"},{"deltaTime":184,"channel":0,"type":"channel","noteNumber":58,"velocity":70,"subtype":"noteOn"},{"deltaTime":3290,"channel":0,"type":"channel","subtype":"noteOff","noteNumber":47,"velocity":0},{"deltaTime":246,"channel":0,"type":"channel","subtype":"noteOff","noteNumber":54,"velocity":0},{"deltaTime":448,"channel":0,"type":"channel","subtype":"noteOff","noteNumber":66,"velocity":0},{"deltaTime":234,"channel":0,"type":"channel","subtype":"noteOff","noteNumber":35,"velocity":0},{"deltaTime":388,"channel":0,"type":"channel","noteNumber":42,"velocity":61,"subtype":"noteOn"},{"deltaTime":774,"channel":0,"type":"channel","subtype":"noteOff","noteNumber":58,"velocity":0},{"deltaTime":2965,"channel":0,"type":"channel","subtype":"noteOff","noteNumber":42,"velocity":0},{"deltaTime":2711,"channel":0,"type":"channel","noteNumber":54,"velocity":76,"subtype":"noteOn"},{"deltaTime":265,"channel":0,"type":"channel","noteNumber":47,"velocity":71,"subtype":"noteOn"},{"deltaTime":92,"channel":0,"type":"channel","noteNumber":35,"velocity":66,"subtype":"noteOn"},{"deltaTime":203,"channel":0,"type":"channel","noteNumber":63,"velocity":73,"subtype":"noteOn"},{"deltaTime":541,"channel":0,"type":"channel","noteNumber":58,"velocity":58,"subtype":"noteOn"},{"deltaTime":1070,"channel":0,"type":"channel","subtype":"controller","controllerType":64,"value":56},{"deltaTime":80,"channel":0,"type":"channel","subtype":"controller","controllerType":64,"value":120},{"deltaTime":31,"channel":0,"type":"channel","subtype":"controller","controllerType":64,"value":127},{"deltaTime":1998,"channel":0,"type":"channel","subtype":"noteOff","noteNumber":47,"velocity":0},{"deltaTime":683,"channel":0,"type":"channel","subtype":"noteOff","noteNumber":35,"velocity":0},{"deltaTime":173,"channel":0,"type":"channel","subtype":"noteOff","noteNumber":63,"velocity":0},{"deltaTime":61,"channel":0,"type":"channel","subtype":"noteOff","noteNumber":54,"velocity":0},{"deltaTime":295,"channel":0,"type":"channel","noteNumber":42,"velocity":61,"subtype":"noteOn"},{"deltaTime":1070,"channel":0,"type":"channel","noteNumber":61,"velocity":62,"subtype":"noteOn"},{"deltaTime":836,"channel":0,"type":"channel","noteNumber":54,"velocity":22,"subtype":"noteOn"},{"deltaTime":1906,"channel":0,"type":"channel","subtype":"noteOff","noteNumber":54,"velocity":0},{"deltaTime":142,"channel":0,"type":"channel","subtype":"noteOff","noteNumber":58,"velocity":0},{"deltaTime":571,"channel":0,"type":"channel","subtype":"noteOff","noteNumber":61,"velocity":0},{"deltaTime":50,"channel":0,"type":"channel","subtype":"noteOff","noteNumber":42,"velocity":0},{"deltaTime":1814,"channel":0,"type":"channel","noteNumber":35,"velocity":66,"subtype":"noteOn"},{"deltaTime":184,"channel":0,"type":"channel","noteNumber":47,"velocity":70,"subtype":"noteOn"},{"deltaTime":2638,"channel":0,"type":"channel","subtype":"noteOff","noteNumber":35,"velocity":0},{"deltaTime":357,"channel":0,"type":"channel","subtype":"noteOff","noteNumber":47,"velocity":0},{"deltaTime":1845,"channel":0,"type":"channel","noteNumber":42,"velocity":67,"subtype":"noteOn"},{"deltaTime":418,"channel":0,"type":"channel","noteNumber":54,"velocity":75,"subtype":"noteOn"},{"deltaTime":215,"channel":0,"type":"channel","noteNumber":63,"velocity":69,"subtype":"noteOn"},{"deltaTime":111,"channel":0,"type":"channel","noteNumber":58,"velocity":75,"subtype":"noteOn"},{"deltaTime":836,"channel":0,"type":"channel","subtype":"controller","controllerType":64,"value":64},{"deltaTime":92,"channel":0,"type":"channel","subtype":"controller","controllerType":64,"value":0},{"deltaTime":2761,"channel":0,"type":"channel","subtype":"controller","controllerType":64,"value":56},{"deltaTime":92,"channel":0,"type":"channel","subtype":"controller","controllerType":64,"value":120},{"deltaTime":31,"channel":0,"type":"channel","subtype":"controller","controllerType":64,"value":127},{"deltaTime":406,"channel":0,"type":"channel","subtype":"noteOff","noteNumber":63,"velocity":0},{"deltaTime":62,"channel":0,"type":"channel","subtype":"noteOff","noteNumber":54,"velocity":0},{"deltaTime":387,"channel":0,"type":"channel","subtype":"noteOff","noteNumber":42,"velocity":0},{"deltaTime":62,"channel":0,"type":"channel","subtype":"noteOff","noteNumber":58,"velocity":0},{"deltaTime":885,"channel":0,"type":"channel","noteNumber":47,"velocity":64,"subtype":"noteOn"},{"deltaTime":123,"channel":0,"type":"channel","noteNumber":35,"velocity":58,"subtype":"noteOn"},{"deltaTime":3444,"channel":0,"type":"channel","subtype":"noteOff","noteNumber":47,"velocity":0},{"deltaTime":744,"channel":0,"type":"channel","subtype":"noteOff","noteNumber":35,"velocity":0},{"deltaTime":356,"channel":0,"type":"channel","noteNumber":42,"velocity":66,"subtype":"noteOn"},{"deltaTime":1489,"channel":0,"type":"channel","noteNumber":53,"velocity":58,"subtype":"noteOn"},{"deltaTime":3474,"channel":0,"type":"channel","subtype":"noteOff","noteNumber":53,"velocity":0},{"deltaTime":387,"channel":0,"type":"channel","subtype":"noteOff","noteNumber":42,"velocity":0},{"deltaTime":1193,"channel":0,"type":"channel","noteNumber":37,"velocity":57,"subtype":"noteOn"},{"deltaTime":123,"channel":0,"type":"channel","noteNumber":49,"velocity":71,"subtype":"noteOn"},{"deltaTime":683,"channel":0,"type":"channel","noteNumber":63,"velocity":73,"subtype":"noteOn"},{"deltaTime":173,"channel":0,"type":"channel","noteNumber":56,"velocity":78,"subtype":"noteOn"},{"deltaTime":1875,"channel":0,"type":"channel","subtype":"controller","controllerType":64,"value":120},{"deltaTime":122,"channel":0,"type":"channel","subtype":"controller","controllerType":64,"value":56},{"deltaTime":111,"channel":0,"type":"channel","subtype":"controller","controllerType":64,"value":0},{"deltaTime":2466,"channel":0,"type":"channel","noteNumber":44,"velocity":70,"subtype":"noteOn"},{"deltaTime":744,"channel":0,"type":"channel","subtype":"controller","controllerType":64,"value":56},{"deltaTime":93,"channel":0,"type":"channel","subtype":"controller","controllerType":64,"value":120},{"deltaTime":30,"channel":0,"type":"channel","subtype":"controller","controllerType":64,"value":127},{"deltaTime":31,"channel":0,"type":"channel","subtype":"noteOff","noteNumber":49,"velocity":0},{"deltaTime":61,"channel":0,"type":"channel","subtype":"noteOff","noteNumber":37,"velocity":0},{"deltaTime":111,"channel":0,"type":"channel","subtype":"noteOff","noteNumber":63,"velocity":0},{"deltaTime":307,"channel":0,"type":"channel","subtype":"noteOff","noteNumber":56,"velocity":0},{"deltaTime":3475,"channel":0,"type":"channel","subtype":"noteOff","noteNumber":44,"velocity":0},{"deltaTime":621,"channel":0,"type":"channel","noteNumber":37,"velocity":63,"subtype":"noteOn"},{"deltaTime":326,"channel":0,"type":"channel","noteNumber":49,"velocity":64,"subtype":"noteOn"},{"deltaTime":418,"channel":0,"type":"channel","noteNumber":53,"velocity":75,"subtype":"noteOn"},{"deltaTime":123,"channel":0,"type":"channel","noteNumber":56,"velocity":74,"subtype":"noteOn"},{"deltaTime":234,"channel":0,"type":"channel","noteNumber":61,"velocity":64,"subtype":"noteOn"},{"deltaTime":2373,"channel":0,"type":"channel","subtype":"noteOff","noteNumber":49,"velocity":0},{"deltaTime":683,"channel":0,"type":"channel","subtype":"noteOff","noteNumber":53,"velocity":0},{"deltaTime":449,"channel":0,"type":"channel","subtype":"noteOff","noteNumber":37,"velocity":0},{"deltaTime":541,"channel":0,"type":"channel","subtype":"noteOff","noteNumber":61,"velocity":0},{"deltaTime":713,"channel":0,"type":"channel","subtype":"noteOff","noteNumber":56,"velocity":0},{"deltaTime":6297,"channel":0,"type":"channel","noteNumber":56,"velocity":69,"subtype":"noteOn"},{"deltaTime":184,"channel":0,"type":"channel","noteNumber":63,"velocity":66,"subtype":"noteOn"},{"deltaTime":406,"channel":0,"type":"channel","noteNumber":61,"velocity":61,"subtype":"noteOn"},{"deltaTime":4434,"channel":0,"type":"channel","noteNumber":32,"velocity":69,"subtype":"noteOn"},{"deltaTime":123,"channel":0,"type":"channel","noteNumber":44,"velocity":73,"subtype":"noteOn"},{"deltaTime":947,"channel":0,"type":"channel","subtype":"noteOff","noteNumber":56,"velocity":0},{"deltaTime":153,"channel":0,"type":"channel","subtype":"noteOff","noteNumber":63,"velocity":0},{"deltaTime":917,"channel":0,"type":"channel","subtype":"noteOff","noteNumber":61,"velocity":0},{"deltaTime":2048,"channel":0,"type":"channel","subtype":"noteOff","noteNumber":44,"velocity":0},{"deltaTime":123,"channel":0,"type":"channel","subtype":"controller","controllerType":64,"value":120},{"deltaTime":141,"channel":0,"type":"channel","subtype":"controller","controllerType":64,"value":56},{"deltaTime":93,"channel":0,"type":"channel","subtype":"controller","controllerType":64,"value":0},{"deltaTime":774,"channel":0,"type":"channel","subtype":"noteOff","noteNumber":32,"velocity":0},{"deltaTime":203,"channel":0,"type":"channel","noteNumber":39,"velocity":64,"subtype":"noteOn"},{"deltaTime":3069,"channel":0,"type":"channel","subtype":"controller","controllerType":64,"value":64},{"deltaTime":141,"channel":0,"type":"channel","subtype":"controller","controllerType":64,"value":127},{"deltaTime":1783,"channel":0,"type":"channel","noteNumber":43,"velocity":70,"subtype":"noteOn"},{"deltaTime":124,"channel":0,"type":"channel","noteNumber":31,"velocity":66,"subtype":"noteOn"},{"deltaTime":326,"channel":0,"type":"channel","subtype":"noteOff","noteNumber":39,"velocity":0},{"deltaTime":5207,"channel":0,"type":"channel","noteNumber":38,"velocity":76,"subtype":"noteOn"},{"deltaTime":388,"channel":0,"type":"channel","subtype":"noteOff","noteNumber":43,"velocity":0},{"deltaTime":19,"channel":0,"type":"channel","subtype":"noteOff","noteNumber":31,"velocity":0},{"deltaTime":387,"channel":0,"type":"channel","subtype":"controller","controllerType":64,"value":120},{"deltaTime":154,"channel":0,"type":"channel","subtype":"controller","controllerType":64,"value":56},{"deltaTime":92,"channel":0,"type":"channel","subtype":"controller","controllerType":64,"value":0},{"deltaTime":3118,"channel":0,"type":"channel","subtype":"noteOff","noteNumber":38,"velocity":0},{"deltaTime":1426,"channel":0,"type":"channel","subtype":"controller","controllerType":64,"value":56},{"deltaTime":31,"channel":0,"type":"channel","noteNumber":55,"velocity":80,"subtype":"noteOn"},{"deltaTime":141,"channel":0,"type":"channel","noteNumber":61,"velocity":69,"subtype":"noteOn"},{"deltaTime":277,"channel":0,"type":"channel","subtype":"controller","controllerType":64,"value":112},{"deltaTime":31,"channel":0,"type":"channel","noteNumber":58,"velocity":71,"subtype":"noteOn"},{"deltaTime":264,"channel":0,"type":"channel","subtype":"controller","controllerType":64,"value":127},{"deltaTime":1661,"channel":0,"type":"channel","subtype":"noteOff","noteNumber":55,"velocity":0},{"deltaTime":3394,"channel":0,"type":"channel","noteNumber":34,"velocity":75,"subtype":"noteOn"},{"deltaTime":111,"channel":0,"type":"channel","noteNumber":46,"velocity":78,"subtype":"noteOn"},{"deltaTime":215,"channel":0,"type":"channel","subtype":"noteOff","noteNumber":58,"velocity":0},{"deltaTime":387,"channel":0,"type":"channel","subtype":"noteOff","noteNumber":61,"velocity":0},{"deltaTime":4637,"channel":0,"type":"channel","subtype":"noteOff","noteNumber":46,"velocity":0},{"deltaTime":110,"channel":0,"type":"channel","subtype":"noteOff","noteNumber":34,"velocity":0},{"deltaTime":62,"channel":0,"type":"channel","noteNumber":41,"velocity":66,"subtype":"noteOn"},{"deltaTime":1845,"channel":0,"type":"channel","subtype":"controller","controllerType":64,"value":120},{"deltaTime":153,"channel":0,"type":"channel","subtype":"controller","controllerType":64,"value":56},{"deltaTime":112,"channel":0,"type":"channel","subtype":"controller","controllerType":64,"value":0},{"deltaTime":2324,"channel":0,"type":"channel","subtype":"noteOff","noteNumber":41,"velocity":0},{"deltaTime":1273,"channel":0,"type":"channel","subtype":"controller","controllerType":64,"value":56},{"deltaTime":123,"channel":0,"type":"channel","subtype":"controller","controllerType":64,"value":120},{"deltaTime":30,"channel":0,"type":"channel","noteNumber":53,"velocity":75,"subtype":"noteOn"},{"deltaTime":111,"channel":0,"type":"channel","subtype":"controller","controllerType":64,"value":127},{"deltaTime":2743,"channel":0,"type":"channel","subtype":"noteOff","noteNumber":53,"velocity":0},{"deltaTime":2557,"channel":0,"type":"channel","noteNumber":62,"velocity":66,"subtype":"noteOn"},{"deltaTime":204,"channel":0,"type":"channel","noteNumber":55,"velocity":75,"subtype":"noteOn"},{"deltaTime":122,"channel":0,"type":"channel","noteNumber":58,"velocity":68,"subtype":"noteOn"},{"deltaTime":3598,"channel":0,"type":"channel","subtype":"noteOff","noteNumber":62,"velocity":0},{"deltaTime":468,"channel":0,"type":"channel","subtype":"noteOff","noteNumber":55,"velocity":0},{"deltaTime":682,"channel":0,"type":"channel","noteNumber":40,"velocity":78,"subtype":"noteOn"},{"deltaTime":184,"channel":0,"type":"channel","noteNumber":28,"velocity":75,"subtype":"noteOn"},{"deltaTime":775,"channel":0,"type":"channel","subtype":"controller","controllerType":64,"value":120},{"deltaTime":31,"channel":0,"type":"channel","subtype":"noteOff","noteNumber":58,"velocity":0},{"deltaTime":111,"channel":0,"type":"channel","subtype":"controller","controllerType":64,"value":56},{"deltaTime":92,"channel":0,"type":"channel","subtype":"controller","controllerType":64,"value":0},{"deltaTime":3302,"channel":0,"type":"channel","subtype":"controller","controllerType":64,"value":56},{"deltaTime":111,"channel":0,"type":"channel","subtype":"controller","controllerType":64,"value":120},{"deltaTime":30,"channel":0,"type":"channel","subtype":"controller","controllerType":64,"value":127},{"deltaTime":326,"channel":0,"type":"channel","subtype":"noteOff","noteNumber":40,"velocity":0},{"deltaTime":480,"channel":0,"type":"channel","subtype":"noteOff","noteNumber":28,"velocity":0},{"deltaTime":264,"channel":0,"type":"channel","noteNumber":35,"velocity":73,"subtype":"noteOn"},{"deltaTime":3487,"channel":0,"type":"channel","subtype":"noteOff","noteNumber":35,"velocity":0},{"deltaTime":2761,"channel":0,"type":"channel","noteNumber":63,"velocity":74,"subtype":"noteOn"},{"deltaTime":172,"channel":0,"type":"channel","noteNumber":52,"velocity":76,"subtype":"noteOn"},{"deltaTime":185,"channel":0,"type":"channel","noteNumber":56,"velocity":73,"subtype":"noteOn"},{"deltaTime":2792,"channel":0,"type":"channel","subtype":"noteOff","noteNumber":52,"velocity":0},{"deltaTime":2435,"channel":0,"type":"channel","subtype":"noteOff","noteNumber":56,"velocity":0},{"deltaTime":61,"channel":0,"type":"channel","noteNumber":27,"velocity":66,"subtype":"noteOn"},{"deltaTime":154,"channel":0,"type":"channel","subtype":"noteOff","noteNumber":63,"velocity":0},{"deltaTime":80,"channel":0,"type":"channel","noteNumber":39,"velocity":78,"subtype":"noteOn"},{"deltaTime":1876,"channel":0,"type":"channel","subtype":"controller","controllerType":64,"value":120},{"deltaTime":153,"channel":0,"type":"channel","subtype":"controller","controllerType":64,"value":56},{"deltaTime":80,"channel":0,"type":"channel","subtype":"controller","controllerType":64,"value":0},{"deltaTime":3721,"channel":0,"type":"channel","subtype":"noteOff","noteNumber":27,"velocity":0},{"deltaTime":91,"channel":0,"type":"channel","subtype":"noteOff","noteNumber":39,"velocity":0},{"deltaTime":714,"channel":0,"type":"channel","subtype":"controller","controllerType":64,"value":56},{"deltaTime":111,"channel":0,"type":"channel","subtype":"controller","controllerType":64,"value":120},{"deltaTime":30,"channel":0,"type":"channel","subtype":"controller","controllerType":64,"value":127},{"deltaTime":929,"channel":0,"type":"channel","noteNumber":33,"velocity":33,"subtype":"noteOn"},{"deltaTime":1457,"channel":0,"type":"channel","subtype":"noteOff","noteNumber":33,"velocity":0},{"deltaTime":2048,"channel":0,"type":"channel","noteNumber":53,"velocity":73,"subtype":"noteOn"},{"deltaTime":234,"channel":0,"type":"channel","noteNumber":55,"velocity":73,"subtype":"noteOn"},{"deltaTime":153,"channel":0,"type":"channel","noteNumber":62,"velocity":66,"subtype":"noteOn"},{"deltaTime":142,"channel":0,"type":"channel","noteNumber":58,"velocity":65,"subtype":"noteOn"},{"deltaTime":2478,"channel":0,"type":"channel","subtype":"noteOff","noteNumber":53,"velocity":0},{"deltaTime":1008,"channel":0,"type":"channel","subtype":"noteOff","noteNumber":55,"velocity":0},{"deltaTime":468,"channel":0,"type":"channel","subtype":"noteOff","noteNumber":62,"velocity":0},{"deltaTime":449,"channel":0,"type":"channel","subtype":"noteOff","noteNumber":58,"velocity":0},{"deltaTime":867,"channel":0,"type":"channel","noteNumber":39,"velocity":78,"subtype":"noteOn"},{"deltaTime":3831,"channel":0,"type":"channel","subtype":"noteOff","noteNumber":39,"velocity":0},{"deltaTime":2201,"channel":0,"type":"channel","noteNumber":53,"velocity":64,"subtype":"noteOn"},{"deltaTime":4219,"channel":0,"type":"channel","subtype":"noteOff","noteNumber":53,"velocity":0},{"deltaTime":1488,"channel":0,"type":"channel","noteNumber":61,"velocity":71,"subtype":"noteOn"},{"deltaTime":110,"channel":0,"type":"channel","noteNumber":63,"velocity":70,"subtype":"noteOn"},{"deltaTime":4311,"channel":0,"type":"channel","noteNumber":46,"velocity":76,"subtype":"noteOn"},{"deltaTime":185,"channel":0,"type":"channel","subtype":"noteOff","noteNumber":63,"velocity":0},{"deltaTime":122,"channel":0,"type":"channel","subtype":"noteOff","noteNumber":61,"velocity":0},{"deltaTime":947,"channel":0,"type":"channel","subtype":"controller","controllerType":64,"value":56},{"deltaTime":92,"channel":0,"type":"channel","subtype":"controller","controllerType":64,"value":0},{"deltaTime":1120,"channel":0,"type":"channel","subtype":"noteOff","noteNumber":46,"velocity":0},{"deltaTime":2558,"channel":0,"type":"channel","subtype":"controller","controllerType":64,"value":56},{"deltaTime":123,"channel":0,"type":"channel","subtype":"controller","controllerType":64,"value":120},{"deltaTime":31,"channel":0,"type":"channel","subtype":"controller","controllerType":64,"value":127},{"deltaTime":387,"channel":0,"type":"channel","noteNumber":57,"velocity":60,"subtype":"noteOn"},{"deltaTime":5553,"channel":0,"type":"channel","noteNumber":68,"velocity":71,"subtype":"noteOn"},{"deltaTime":184,"channel":0,"type":"channel","noteNumber":61,"velocity":66,"subtype":"noteOn"},{"deltaTime":1040,"channel":0,"type":"channel","subtype":"noteOff","noteNumber":57,"velocity":0},{"deltaTime":4015,"channel":0,"type":"channel","noteNumber":54,"velocity":71,"subtype":"noteOn"},{"deltaTime":621,"channel":0,"type":"channel","subtype":"noteOff","noteNumber":68,"velocity":0},{"deltaTime":142,"channel":0,"type":"channel","subtype":"noteOff","noteNumber":61,"velocity":0},{"deltaTime":1672,"channel":0,"type":"channel","subtype":"noteOff","noteNumber":54,"velocity":0},{"deltaTime":2497,"channel":0,"type":"channel","noteNumber":57,"velocity":63,"subtype":"noteOn"},{"deltaTime":3474,"channel":0,"type":"channel","subtype":"noteOff","noteNumber":57,"velocity":0},{"deltaTime":2018,"channel":0,"type":"channel","noteNumber":53,"velocity":68,"subtype":"noteOn"},{"deltaTime":245,"channel":0,"type":"channel","noteNumber":68,"velocity":71,"subtype":"noteOn"},{"deltaTime":203,"channel":0,"type":"channel","noteNumber":61,"velocity":72,"subtype":"noteOn"},{"deltaTime":184,"channel":0,"type":"channel","subtype":"controller","controllerType":64,"value":120},{"deltaTime":81,"channel":0,"type":"channel","subtype":"controller","controllerType":64,"value":56},{"deltaTime":92,"channel":0,"type":"channel","subtype":"controller","controllerType":64,"value":0},{"deltaTime":2761,"channel":0,"type":"channel","subtype":"noteOff","noteNumber":53,"velocity":0},{"deltaTime":1967,"channel":0,"type":"channel","noteNumber":54,"velocity":59,"subtype":"noteOn"},{"deltaTime":142,"channel":0,"type":"channel","subtype":"noteOff","noteNumber":68,"velocity":0},{"deltaTime":326,"channel":0,"type":"channel","noteNumber":58,"velocity":63,"subtype":"noteOn"},{"deltaTime":664,"channel":0,"type":"channel","subtype":"noteOff","noteNumber":61,"velocity":0},{"deltaTime":468,"channel":0,"type":"channel","subtype":"controller","controllerType":64,"value":56},{"deltaTime":92,"channel":0,"type":"channel","subtype":"controller","controllerType":64,"value":120},{"deltaTime":30,"channel":0,"type":"channel","subtype":"controller","controllerType":64,"value":127},{"deltaTime":1427,"channel":0,"type":"channel","subtype":"noteOff","noteNumber":54,"velocity":0},{"deltaTime":1488,"channel":0,"type":"channel","subtype":"noteOff","noteNumber":58,"velocity":0},{"deltaTime":1273,"channel":0,"type":"channel","noteNumber":53,"velocity":55,"subtype":"noteOn"},{"deltaTime":123,"channel":0,"type":"channel","noteNumber":66,"velocity":60,"subtype":"noteOn"},{"deltaTime":172,"channel":0,"type":"channel","noteNumber":61,"velocity":60,"subtype":"noteOn"},{"deltaTime":3751,"channel":0,"type":"channel","subtype":"controller","controllerType":64,"value":120},{"deltaTime":123,"channel":0,"type":"channel","subtype":"controller","controllerType":64,"value":56},{"deltaTime":81,"channel":0,"type":"channel","subtype":"controller","controllerType":64,"value":0},{"deltaTime":122,"channel":0,"type":"channel","subtype":"noteOff","noteNumber":61,"velocity":0},{"deltaTime":510,"channel":0,"type":"channel","subtype":"noteOff","noteNumber":53,"velocity":0},{"deltaTime":560,"channel":0,"type":"channel","noteNumber":48,"velocity":65,"subtype":"noteOn"},{"deltaTime":123,"channel":0,"type":"channel","noteNumber":57,"velocity":72,"subtype":"noteOn"},{"deltaTime":682,"channel":0,"type":"channel","subtype":"noteOff","noteNumber":66,"velocity":0},{"deltaTime":2466,"channel":0,"type":"channel","subtype":"noteOff","noteNumber":57,"velocity":0},{"deltaTime":449,"channel":0,"type":"channel","subtype":"noteOff","noteNumber":48,"velocity":0},{"deltaTime":1119,"channel":0,"type":"channel","noteNumber":54,"velocity":67,"subtype":"noteOn"},{"deltaTime":2202,"channel":0,"type":"channel","subtype":"noteOff","noteNumber":54,"velocity":0},{"deltaTime":2854,"channel":0,"type":"channel","noteNumber":57,"velocity":70,"subtype":"noteOn"},{"deltaTime":1131,"channel":0,"type":"channel","noteNumber":54,"velocity":62,"subtype":"noteOn"},{"deltaTime":2558,"channel":0,"type":"channel","subtype":"noteOff","noteNumber":54,"velocity":0},{"deltaTime":1009,"channel":0,"type":"channel","subtype":"noteOff","noteNumber":57,"velocity":0},{"deltaTime":387,"channel":0,"type":"channel","noteNumber":68,"velocity":68,"subtype":"noteOn"},{"deltaTime":61,"channel":0,"type":"channel","noteNumber":61,"velocity":66,"subtype":"noteOn"},{"deltaTime":204,"channel":0,"type":"channel","noteNumber":53,"velocity":65,"subtype":"noteOn"},{"deltaTime":4187,"channel":0,"type":"channel","subtype":"noteOff","noteNumber":68,"velocity":0},{"deltaTime":184,"channel":0,"type":"channel","subtype":"noteOff","noteNumber":53,"velocity":0},{"deltaTime":357,"channel":0,"type":"channel","noteNumber":54,"velocity":78,"subtype":"noteOn"},{"deltaTime":31,"channel":0,"type":"channel","subtype":"noteOff","noteNumber":61,"velocity":0},{"deltaTime":590,"channel":0,"type":"channel","noteNumber":57,"velocity":61,"subtype":"noteOn"},{"deltaTime":1611,"channel":0,"type":"channel","subtype":"noteOff","noteNumber":57,"velocity":0},{"deltaTime":621,"channel":0,"type":"channel","subtype":"noteOff","noteNumber":54,"velocity":0},{"deltaTime":3149,"channel":0,"type":"channel","noteNumber":53,"velocity":75,"subtype":"noteOn"},{"deltaTime":61,"channel":0,"type":"channel","noteNumber":68,"velocity":75,"subtype":"noteOn"},{"deltaTime":172,"channel":0,"type":"channel","noteNumber":61,"velocity":70,"subtype":"noteOn"},{"deltaTime":4944,"channel":0,"type":"channel","subtype":"noteOff","noteNumber":53,"velocity":0},{"deltaTime":80,"channel":0,"type":"channel","noteNumber":54,"velocity":66,"subtype":"noteOn"},{"deltaTime":246,"channel":0,"type":"channel","subtype":"noteOff","noteNumber":61,"velocity":0},{"deltaTime":499,"channel":0,"type":"channel","noteNumber":57,"velocity":66,"subtype":"noteOn"},{"deltaTime":153,"channel":0,"type":"channel","subtype":"noteOff","noteNumber":68,"velocity":0},{"deltaTime":234,"channel":0,"type":"channel","subtype":"controller","controllerType":64,"value":56},{"deltaTime":123,"channel":0,"type":"channel","subtype":"controller","controllerType":64,"value":120},{"deltaTime":30,"channel":0,"type":"channel","subtype":"controller","controllerType":64,"value":127},{"deltaTime":2964,"channel":0,"type":"channel","subtype":"noteOff","noteNumber":57,"velocity":0},{"deltaTime":62,"channel":0,"type":"channel","subtype":"noteOff","noteNumber":54,"velocity":0},{"deltaTime":1642,"channel":0,"type":"channel","noteNumber":53,"velocity":48,"subtype":"noteOn"},{"deltaTime":234,"channel":0,"type":"channel","noteNumber":61,"velocity":66,"subtype":"noteOn"},{"deltaTime":233,"channel":0,"type":"channel","noteNumber":66,"velocity":68,"subtype":"noteOn"},{"deltaTime":1039,"channel":0,"type":"channel","subtype":"controller","controllerType":64,"value":120},{"deltaTime":124,"channel":0,"type":"channel","subtype":"controller","controllerType":64,"value":56},{"deltaTime":92,"channel":0,"type":"channel","subtype":"controller","controllerType":64,"value":0},{"deltaTime":2945,"channel":0,"type":"channel","subtype":"noteOff","noteNumber":61,"velocity":0},{"deltaTime":713,"channel":0,"type":"channel","subtype":"noteOff","noteNumber":66,"velocity":0},{"deltaTime":234,"channel":0,"type":"channel","noteNumber":57,"velocity":58,"subtype":"noteOn"},{"deltaTime":714,"channel":0,"type":"channel","noteNumber":48,"velocity":64,"subtype":"noteOn"},{"deltaTime":509,"channel":0,"type":"channel","subtype":"noteOff","noteNumber":53,"velocity":0},{"deltaTime":2140,"channel":0,"type":"channel","subtype":"noteOff","noteNumber":57,"velocity":0},{"deltaTime":1476,"channel":0,"type":"channel","subtype":"noteOff","noteNumber":48,"velocity":0},{"deltaTime":714,"channel":0,"type":"channel","noteNumber":53,"velocity":52,"subtype":"noteOn"},{"deltaTime":246,"channel":0,"type":"channel","noteNumber":61,"velocity":66,"subtype":"noteOn"},{"deltaTime":110,"channel":0,"type":"channel","noteNumber":66,"velocity":63,"subtype":"noteOn"},{"deltaTime":2528,"channel":0,"type":"channel","subtype":"noteOff","noteNumber":53,"velocity":0},{"deltaTime":714,"channel":0,"type":"channel","subtype":"noteOff","noteNumber":66,"velocity":0},{"deltaTime":30,"channel":0,"type":"channel","subtype":"noteOff","noteNumber":61,"velocity":0},{"deltaTime":867,"channel":0,"type":"channel","noteNumber":54,"velocity":65,"subtype":"noteOn"},{"deltaTime":917,"channel":0,"type":"channel","noteNumber":57,"velocity":58,"subtype":"noteOn"},{"deltaTime":2466,"channel":0,"type":"channel","subtype":"noteOff","noteNumber":57,"velocity":0},{"deltaTime":30,"channel":0,"type":"channel","subtype":"noteOff","noteNumber":54,"velocity":0},{"deltaTime":2742,"channel":0,"type":"channel","noteNumber":53,"velocity":70,"subtype":"noteOn"},{"deltaTime":234,"channel":0,"type":"channel","noteNumber":61,"velocity":68,"subtype":"noteOn"},{"deltaTime":172,"channel":0,"type":"channel","noteNumber":68,"velocity":73,"subtype":"noteOn"},{"deltaTime":3364,"channel":0,"type":"channel","subtype":"noteOff","noteNumber":53,"velocity":0},{"deltaTime":591,"channel":0,"type":"channel","subtype":"noteOff","noteNumber":61,"velocity":0},{"deltaTime":387,"channel":0,"type":"channel","subtype":"noteOff","noteNumber":68,"velocity":0},{"deltaTime":1223,"channel":0,"type":"channel","noteNumber":54,"velocity":61,"subtype":"noteOn"},{"deltaTime":296,"channel":0,"type":"channel","subtype":"controller","controllerType":64,"value":56},{"deltaTime":122,"channel":0,"type":"channel","subtype":"controller","controllerType":64,"value":120},{"deltaTime":31,"channel":0,"type":"channel","subtype":"controller","controllerType":64,"value":127},{"deltaTime":2079,"channel":0,"type":"channel","subtype":"noteOff","noteNumber":54,"velocity":0},{"deltaTime":234,"channel":0,"type":"channel","subtype":"controller","controllerType":64,"value":120},{"deltaTime":153,"channel":0,"type":"channel","subtype":"controller","controllerType":64,"value":56},{"deltaTime":80,"channel":0,"type":"channel","subtype":"controller","controllerType":64,"value":0},{"deltaTime":2559,"channel":0,"type":"channel","noteNumber":68,"velocity":75,"subtype":"noteOn"},{"deltaTime":294,"channel":0,"type":"channel","noteNumber":61,"velocity":61,"subtype":"noteOn"},{"deltaTime":154,"channel":0,"type":"channel","noteNumber":53,"velocity":71,"subtype":"noteOn"},{"deltaTime":529,"channel":0,"type":"channel","subtype":"controller","controllerType":64,"value":56},{"deltaTime":93,"channel":0,"type":"channel","subtype":"controller","controllerType":64,"value":120},{"deltaTime":30,"channel":0,"type":"channel","subtype":"controller","controllerType":64,"value":127},{"deltaTime":3862,"channel":0,"type":"channel","subtype":"noteOff","noteNumber":61,"velocity":0},{"deltaTime":388,"channel":0,"type":"channel","subtype":"noteOff","noteNumber":53,"velocity":0},{"deltaTime":326,"channel":0,"type":"channel","noteNumber":57,"velocity":63,"subtype":"noteOn"},{"deltaTime":30,"channel":0,"type":"channel","noteNumber":54,"velocity":65,"subtype":"noteOn"},{"deltaTime":1937,"channel":0,"type":"channel","subtype":"noteOff","noteNumber":68,"velocity":0},{"deltaTime":2730,"channel":0,"type":"channel","subtype":"noteOff","noteNumber":57,"velocity":0},{"deltaTime":326,"channel":0,"type":"channel","subtype":"noteOff","noteNumber":54,"velocity":0},{"deltaTime":867,"channel":0,"type":"channel","noteNumber":53,"velocity":64,"subtype":"noteOn"},{"deltaTime":418,"channel":0,"type":"channel","noteNumber":61,"velocity":68,"subtype":"noteOn"},{"deltaTime":173,"channel":0,"type":"channel","noteNumber":66,"velocity":66,"subtype":"noteOn"},{"deltaTime":1162,"channel":0,"type":"channel","subtype":"controller","controllerType":64,"value":120},{"deltaTime":141,"channel":0,"type":"channel","subtype":"controller","controllerType":64,"value":56},{"deltaTime":93,"channel":0,"type":"channel","subtype":"controller","controllerType":64,"value":0},{"deltaTime":2945,"channel":0,"type":"channel","subtype":"noteOff","noteNumber":61,"velocity":0},{"deltaTime":122,"channel":0,"type":"channel","noteNumber":48,"velocity":68,"subtype":"noteOn"},{"deltaTime":173,"channel":0,"type":"channel","subtype":"noteOff","noteNumber":53,"velocity":0},{"deltaTime":215,"channel":0,"type":"channel","subtype":"noteOff","noteNumber":66,"velocity":0},{"deltaTime":356,"channel":0,"type":"channel","noteNumber":57,"velocity":68,"subtype":"noteOn"},{"deltaTime":2873,"channel":0,"type":"channel","subtype":"controller","controllerType":64,"value":56},{"deltaTime":123,"channel":0,"type":"channel","subtype":"controller","controllerType":64,"value":120},{"deltaTime":30,"channel":0,"type":"channel","subtype":"controller","controllerType":64,"value":127},{"deltaTime":806,"channel":0,"type":"channel","subtype":"noteOff","noteNumber":57,"velocity":0},{"deltaTime":1211,"channel":0,"type":"channel","noteNumber":53,"velocity":69,"subtype":"noteOn"},{"deltaTime":246,"channel":0,"type":"channel","subtype":"noteOff","noteNumber":48,"velocity":0},{"deltaTime":203,"channel":0,"type":"channel","noteNumber":61,"velocity":62,"subtype":"noteOn"},{"deltaTime":388,"channel":0,"type":"channel","noteNumber":66,"velocity":57,"subtype":"noteOn"},{"deltaTime":2293,"channel":0,"type":"channel","subtype":"noteOff","noteNumber":61,"velocity":0},{"deltaTime":173,"channel":0,"type":"channel","subtype":"noteOff","noteNumber":66,"velocity":0},{"deltaTime":1162,"channel":0,"type":"channel","subtype":"noteOff","noteNumber":53,"velocity":0},{"deltaTime":1039,"channel":0,"type":"channel","noteNumber":54,"velocity":60,"subtype":"noteOn"},{"deltaTime":203,"channel":0,"type":"channel","noteNumber":60,"velocity":73,"subtype":"noteOn"},{"deltaTime":5055,"channel":0,"type":"channel","subtype":"noteOff","noteNumber":60,"velocity":0},{"deltaTime":326,"channel":0,"type":"channel","noteNumber":68,"velocity":72,"subtype":"noteOn"},{"deltaTime":4667,"channel":0,"type":"channel","subtype":"noteOff","noteNumber":68,"velocity":0},{"deltaTime":571,"channel":0,"type":"channel","noteNumber":60,"velocity":65,"subtype":"noteOn"},{"deltaTime":357,"channel":0,"type":"channel","noteNumber":58,"velocity":66,"subtype":"noteOn"},{"deltaTime":793,"channel":0,"type":"channel","subtype":"noteOff","noteNumber":54,"velocity":0},{"deltaTime":2356,"channel":0,"type":"channel","subtype":"noteOff","noteNumber":60,"velocity":0},{"deltaTime":978,"channel":0,"type":"channel","subtype":"noteOff","noteNumber":58,"velocity":0},{"deltaTime":264,"channel":0,"type":"channel","noteNumber":54,"velocity":43,"subtype":"noteOn"},{"deltaTime":714,"channel":0,"type":"channel","noteNumber":70,"velocity":69,"subtype":"noteOn"},{"deltaTime":122,"channel":0,"type":"channel","noteNumber":66,"velocity":60,"subtype":"noteOn"},{"deltaTime":2405,"channel":0,"type":"channel","noteNumber":48,"velocity":51,"subtype":"noteOn"},{"deltaTime":1070,"channel":0,"type":"channel","subtype":"noteOff","noteNumber":54,"velocity":0},{"deltaTime":1814,"channel":0,"type":"channel","subtype":"noteOff","noteNumber":66,"velocity":0},{"deltaTime":326,"channel":0,"type":"channel","noteNumber":61,"velocity":49,"subtype":"noteOn"},{"deltaTime":184,"channel":0,"type":"channel","subtype":"noteOff","noteNumber":70,"velocity":0},{"deltaTime":3290,"channel":0,"type":"channel","noteNumber":54,"velocity":53,"subtype":"noteOn"},{"deltaTime":541,"channel":0,"type":"channel","subtype":"noteOff","noteNumber":48,"velocity":0},{"deltaTime":744,"channel":0,"type":"channel","subtype":"noteOff","noteNumber":61,"velocity":0},{"deltaTime":498,"channel":0,"type":"channel","noteNumber":66,"velocity":66,"subtype":"noteOn"},{"deltaTime":185,"channel":0,"type":"channel","noteNumber":68,"velocity":69,"subtype":"noteOn"},{"deltaTime":4636,"channel":0,"type":"channel","subtype":"noteOff","noteNumber":68,"velocity":0},{"deltaTime":123,"channel":0,"type":"channel","subtype":"noteOff","noteNumber":66,"velocity":0},{"deltaTime":80,"channel":0,"type":"channel","noteNumber":56,"velocity":66,"subtype":"noteOn"},{"deltaTime":276,"channel":0,"type":"channel","subtype":"noteOff","noteNumber":54,"velocity":0},{"deltaTime":388,"channel":0,"type":"channel","noteNumber":60,"velocity":59,"subtype":"noteOn"},{"deltaTime":5104,"channel":0,"type":"channel","subtype":"noteOff","noteNumber":56,"velocity":0},{"deltaTime":480,"channel":0,"type":"channel","subtype":"controller","controllerType":64,"value":64},{"deltaTime":92,"channel":0,"type":"channel","subtype":"controller","controllerType":64,"value":0},{"deltaTime":142,"channel":0,"type":"channel","subtype":"noteOff","noteNumber":60,"velocity":0},{"deltaTime":92,"channel":0,"type":"channel","noteNumber":48,"velocity":72,"subtype":"noteOn"},{"deltaTime":4993,"channel":0,"type":"channel","noteNumber":60,"velocity":66,"subtype":"noteOn"},{"deltaTime":295,"channel":0,"type":"channel","noteNumber":54,"velocity":63,"subtype":"noteOn"},{"deltaTime":590,"channel":0,"type":"channel","subtype":"noteOff","noteNumber":48,"velocity":0},{"deltaTime":2497,"channel":0,"type":"channel","subtype":"noteOff","noteNumber":60,"velocity":0},{"deltaTime":185,"channel":0,"type":"channel","subtype":"controller","controllerType":64,"value":56},{"deltaTime":141,"channel":0,"type":"channel","subtype":"controller","controllerType":64,"value":120},{"deltaTime":31,"channel":0,"type":"channel","subtype":"controller","controllerType":64,"value":127},{"deltaTime":1254,"channel":0,"type":"channel","noteNumber":66,"velocity":67,"subtype":"noteOn"},{"deltaTime":172,"channel":0,"type":"channel","subtype":"noteOff","noteNumber":54,"velocity":0},{"deltaTime":31,"channel":0,"type":"channel","noteNumber":70,"velocity":61,"subtype":"noteOn"},{"deltaTime":184,"channel":0,"type":"channel","noteNumber":58,"velocity":63,"subtype":"noteOn"},{"deltaTime":4403,"channel":0,"type":"channel","subtype":"noteOff","noteNumber":66,"velocity":0},{"deltaTime":529,"channel":0,"type":"channel","noteNumber":54,"velocity":60,"subtype":"noteOn"},{"deltaTime":234,"channel":0,"type":"channel","subtype":"noteOff","noteNumber":58,"velocity":0},{"deltaTime":418,"channel":0,"type":"channel","noteNumber":60,"velocity":59,"subtype":"noteOn"},{"deltaTime":123,"channel":0,"type":"channel","subtype":"noteOff","noteNumber":70,"velocity":0},{"deltaTime":3087,"channel":0,"type":"channel","subtype":"noteOff","noteNumber":60,"velocity":0},{"deltaTime":1224,"channel":0,"type":"channel","subtype":"noteOff","noteNumber":54,"velocity":0},{"deltaTime":61,"channel":0,"type":"channel","subtype":"controller","controllerType":64,"value":120},{"deltaTime":142,"channel":0,"type":"channel","subtype":"controller","controllerType":64,"value":56},{"deltaTime":92,"channel":0,"type":"channel","subtype":"controller","controllerType":64,"value":0},{"deltaTime":357,"channel":0,"type":"channel","noteNumber":70,"velocity":66,"subtype":"noteOn"},{"deltaTime":122,"channel":0,"type":"channel","noteNumber":58,"velocity":70,"subtype":"noteOn"},{"deltaTime":204,"channel":0,"type":"channel","noteNumber":66,"velocity":75,"subtype":"noteOn"},{"deltaTime":2527,"channel":0,"type":"channel","subtype":"controller","controllerType":64,"value":56},{"deltaTime":92,"channel":0,"type":"channel","subtype":"controller","controllerType":64,"value":120},{"deltaTime":30,"channel":0,"type":"channel","subtype":"controller","controllerType":64,"value":127},{"deltaTime":1477,"channel":0,"type":"channel","subtype":"noteOff","noteNumber":58,"velocity":0},{"deltaTime":836,"channel":0,"type":"channel","noteNumber":54,"velocity":63,"subtype":"noteOn"},{"deltaTime":479,"channel":0,"type":"channel","subtype":"noteOff","noteNumber":66,"velocity":0},{"deltaTime":234,"channel":0,"type":"channel","noteNumber":60,"velocity":66,"subtype":"noteOn"},{"deltaTime":775,"channel":0,"type":"channel","subtype":"noteOff","noteNumber":70,"velocity":0},{"deltaTime":4188,"channel":0,"type":"channel","noteNumber":68,"velocity":77,"subtype":"noteOn"},{"deltaTime":184,"channel":0,"type":"channel","subtype":"noteOff","noteNumber":54,"velocity":0},{"deltaTime":31,"channel":0,"type":"channel","noteNumber":66,"velocity":67,"subtype":"noteOn"},{"deltaTime":203,"channel":0,"type":"channel","noteNumber":48,"velocity":68,"subtype":"noteOn"},{"deltaTime":357,"channel":0,"type":"channel","subtype":"controller","controllerType":64,"value":120},{"deltaTime":122,"channel":0,"type":"channel","subtype":"controller","controllerType":64,"value":56},{"deltaTime":31,"channel":0,"type":"channel","subtype":"noteOff","noteNumber":60,"velocity":0},{"deltaTime":80,"channel":0,"type":"channel","subtype":"controller","controllerType":64,"value":0},{"deltaTime":3364,"channel":0,"type":"channel","subtype":"controller","controllerType":64,"value":40},{"deltaTime":92,"channel":0,"type":"channel","subtype":"controller","controllerType":64,"value":112},{"deltaTime":111,"channel":0,"type":"channel","subtype":"controller","controllerType":64,"value":127},{"deltaTime":572,"channel":0,"type":"channel","noteNumber":54,"velocity":58,"subtype":"noteOn"},{"deltaTime":448,"channel":0,"type":"channel","subtype":"noteOff","noteNumber":66,"velocity":0},{"deltaTime":326,"channel":0,"type":"channel","subtype":"noteOff","noteNumber":48,"velocity":0},{"deltaTime":80,"channel":0,"type":"channel","noteNumber":60,"velocity":61,"subtype":"noteOn"},{"deltaTime":246,"channel":0,"type":"channel","subtype":"noteOff","noteNumber":68,"velocity":0},{"deltaTime":2731,"channel":0,"type":"channel","subtype":"noteOff","noteNumber":60,"velocity":0},{"deltaTime":2170,"channel":0,"type":"channel","subtype":"noteOff","noteNumber":54,"velocity":0},{"deltaTime":326,"channel":0,"type":"channel","noteNumber":48,"velocity":66,"subtype":"noteOn"},{"deltaTime":1193,"channel":0,"type":"channel","subtype":"controller","controllerType":64,"value":120},{"deltaTime":173,"channel":0,"type":"channel","subtype":"controller","controllerType":64,"value":56},{"deltaTime":61,"channel":0,"type":"channel","subtype":"controller","controllerType":64,"value":0},{"deltaTime":2699,"channel":0,"type":"channel","noteNumber":54,"velocity":66,"subtype":"noteOn"},{"deltaTime":124,"channel":0,"type":"channel","noteNumber":60,"velocity":66,"subtype":"noteOn"},{"deltaTime":264,"channel":0,"type":"channel","subtype":"noteOff","noteNumber":48,"velocity":0},{"deltaTime":2386,"channel":0,"type":"channel","subtype":"controller","controllerType":64,"value":48},{"deltaTime":110,"channel":0,"type":"channel","subtype":"controller","controllerType":64,"value":112},{"deltaTime":93,"channel":0,"type":"channel","subtype":"controller","controllerType":64,"value":127},{"deltaTime":1722,"channel":0,"type":"channel","subtype":"noteOff","noteNumber":60,"velocity":0},{"deltaTime":866,"channel":0,"type":"channel","noteNumber":70,"velocity":70,"subtype":"noteOn"},{"deltaTime":31,"channel":0,"type":"channel","noteNumber":58,"velocity":66,"subtype":"noteOn"},{"deltaTime":173,"channel":0,"type":"channel","noteNumber":66,"velocity":71,"subtype":"noteOn"},{"deltaTime":214,"channel":0,"type":"channel","subtype":"noteOff","noteNumber":54,"velocity":0},{"deltaTime":4576,"channel":0,"type":"channel","subtype":"noteOff","noteNumber":70,"velocity":0},{"deltaTime":30,"channel":0,"type":"channel","subtype":"noteOff","noteNumber":58,"velocity":0},{"deltaTime":418,"channel":0,"type":"channel","subtype":"noteOff","noteNumber":66,"velocity":0},{"deltaTime":50,"channel":0,"type":"channel","noteNumber":54,"velocity":63,"subtype":"noteOn"},{"deltaTime":184,"channel":0,"type":"channel","noteNumber":60,"velocity":68,"subtype":"noteOn"},{"deltaTime":4046,"channel":0,"type":"channel","subtype":"noteOff","noteNumber":60,"velocity":0},{"deltaTime":978,"channel":0,"type":"channel","subtype":"noteOff","noteNumber":54,"velocity":0},{"deltaTime":775,"channel":0,"type":"channel","noteNumber":58,"velocity":75,"subtype":"noteOn"},{"deltaTime":142,"channel":0,"type":"channel","noteNumber":70,"velocity":74,"subtype":"noteOn"},{"deltaTime":215,"channel":0,"type":"channel","noteNumber":66,"velocity":73,"subtype":"noteOn"},{"deltaTime":4747,"channel":0,"type":"channel","noteNumber":54,"velocity":65,"subtype":"noteOn"},{"deltaTime":184,"channel":0,"type":"channel","subtype":"noteOff","noteNumber":58,"velocity":0},{"deltaTime":591,"channel":0,"type":"channel","noteNumber":60,"velocity":63,"subtype":"noteOn"},{"deltaTime":184,"channel":0,"type":"channel","subtype":"noteOff","noteNumber":70,"velocity":0},{"deltaTime":499,"channel":0,"type":"channel","subtype":"noteOff","noteNumber":66,"velocity":0},{"deltaTime":3148,"channel":0,"type":"channel","subtype":"noteOff","noteNumber":60,"velocity":0},{"deltaTime":1346,"channel":0,"type":"channel","noteNumber":70,"velocity":66,"subtype":"noteOn"},{"deltaTime":173,"channel":0,"type":"channel","noteNumber":66,"velocity":65,"subtype":"noteOn"},{"deltaTime":326,"channel":0,"type":"channel","noteNumber":53,"velocity":61,"subtype":"noteOn"},{"deltaTime":1457,"channel":0,"type":"channel","subtype":"noteOff","noteNumber":54,"velocity":0},{"deltaTime":3007,"channel":0,"type":"channel","subtype":"noteOff","noteNumber":66,"velocity":0},{"deltaTime":61,"channel":0,"type":"channel","noteNumber":54,"velocity":57,"subtype":"noteOn"},{"deltaTime":406,"channel":0,"type":"channel","subtype":"noteOff","noteNumber":70,"velocity":0},{"deltaTime":93,"channel":0,"type":"channel","noteNumber":60,"velocity":72,"subtype":"noteOn"},{"deltaTime":387,"channel":0,"type":"channel","subtype":"noteOff","noteNumber":53,"velocity":0},{"deltaTime":3444,"channel":0,"type":"channel","subtype":"noteOff","noteNumber":60,"velocity":0},{"deltaTime":928,"channel":0,"type":"channel","noteNumber":58,"velocity":71,"subtype":"noteOn"},{"deltaTime":560,"channel":0,"type":"channel","noteNumber":66,"velocity":66,"subtype":"noteOn"},{"deltaTime":153,"channel":0,"type":"channel","noteNumber":72,"velocity":78,"subtype":"noteOn"},{"deltaTime":683,"channel":0,"type":"channel","subtype":"noteOff","noteNumber":54,"velocity":0},{"deltaTime":3689,"channel":0,"type":"channel","noteNumber":54,"velocity":53,"subtype":"noteOn"},{"deltaTime":948,"channel":0,"type":"channel","subtype":"noteOff","noteNumber":72,"velocity":0},{"deltaTime":234,"channel":0,"type":"channel","noteNumber":60,"velocity":70,"subtype":"noteOn"},{"deltaTime":325,"channel":0,"type":"channel","subtype":"noteOff","noteNumber":66,"velocity":0},{"deltaTime":31,"channel":0,"type":"channel","subtype":"noteOff","noteNumber":58,"velocity":0},{"deltaTime":3690,"channel":0,"type":"channel","subtype":"noteOff","noteNumber":60,"velocity":0},{"deltaTime":1487,"channel":0,"type":"channel","noteNumber":52,"velocity":67,"subtype":"noteOn"},{"deltaTime":173,"channel":0,"type":"channel","subtype":"noteOff","noteNumber":54,"velocity":0},{"deltaTime":62,"channel":0,"type":"channel","noteNumber":70,"velocity":74,"subtype":"noteOn"},{"deltaTime":214,"channel":0,"type":"channel","noteNumber":66,"velocity":68,"subtype":"noteOn"},{"deltaTime":4932,"channel":0,"type":"channel","noteNumber":54,"velocity":64,"subtype":"noteOn"},{"deltaTime":203,"channel":0,"type":"channel","noteNumber":60,"velocity":64,"subtype":"noteOn"},{"deltaTime":184,"channel":0,"type":"channel","subtype":"noteOff","noteNumber":52,"velocity":0},{"deltaTime":683,"channel":0,"type":"channel","subtype":"noteOff","noteNumber":70,"velocity":0},{"deltaTime":173,"channel":0,"type":"channel","subtype":"noteOff","noteNumber":66,"velocity":0},{"deltaTime":2619,"channel":0,"type":"channel","subtype":"noteOff","noteNumber":60,"velocity":0},{"deltaTime":1630,"channel":0,"type":"channel","noteNumber":58,"velocity":64,"subtype":"noteOn"},{"deltaTime":541,"channel":0,"type":"channel","noteNumber":68,"velocity":75,"subtype":"noteOn"},{"deltaTime":110,"channel":0,"type":"channel","noteNumber":66,"velocity":69,"subtype":"noteOn"},{"deltaTime":216,"channel":0,"type":"channel","subtype":"noteOff","noteNumber":54,"velocity":0},{"deltaTime":4157,"channel":0,"type":"channel","subtype":"noteOff","noteNumber":58,"velocity":0},{"deltaTime":214,"channel":0,"type":"channel","noteNumber":54,"velocity":67,"subtype":"noteOn"},{"deltaTime":1182,"channel":0,"type":"channel","subtype":"noteOff","noteNumber":68,"velocity":0},{"deltaTime":836,"channel":0,"type":"channel","subtype":"noteOff","noteNumber":66,"velocity":0},{"deltaTime":3769,"channel":0,"type":"channel","noteNumber":65,"velocity":75,"subtype":"noteOn"},{"deltaTime":388,"channel":0,"type":"channel","noteNumber":58,"velocity":78,"subtype":"noteOn"},{"deltaTime":357,"channel":0,"type":"channel","subtype":"noteOff","noteNumber":54,"velocity":0},{"deltaTime":4248,"channel":0,"type":"channel","subtype":"noteOff","noteNumber":65,"velocity":0},{"deltaTime":62,"channel":0,"type":"channel","noteNumber":54,"velocity":63,"subtype":"noteOn"},{"deltaTime":184,"channel":0,"type":"channel","noteNumber":68,"velocity":74,"subtype":"noteOn"},{"deltaTime":173,"channel":0,"type":"channel","noteNumber":66,"velocity":66,"subtype":"noteOn"},{"deltaTime":1192,"channel":0,"type":"channel","subtype":"noteOff","noteNumber":58,"velocity":0},{"deltaTime":3506,"channel":0,"type":"channel","subtype":"noteOff","noteNumber":66,"velocity":0},{"deltaTime":479,"channel":0,"type":"channel","noteNumber":49,"velocity":68,"subtype":"noteOn"},{"deltaTime":173,"channel":0,"type":"channel","subtype":"noteOff","noteNumber":68,"velocity":0},{"deltaTime":30,"channel":0,"type":"channel","subtype":"noteOff","noteNumber":54,"velocity":0},{"deltaTime":1162,"channel":0,"type":"channel","subtype":"controller","controllerType":64,"value":120},{"deltaTime":142,"channel":0,"type":"channel","subtype":"controller","controllerType":64,"value":56},{"deltaTime":92,"channel":0,"type":"channel","subtype":"controller","controllerType":64,"value":0},{"deltaTime":3862,"channel":0,"type":"channel","noteNumber":56,"velocity":65,"subtype":"noteOn"},{"deltaTime":246,"channel":0,"type":"channel","noteNumber":65,"velocity":66,"subtype":"noteOn"},{"deltaTime":436,"channel":0,"type":"channel","subtype":"noteOff","noteNumber":49,"velocity":0},{"deltaTime":419,"channel":0,"type":"channel","subtype":"controller","controllerType":64,"value":40},{"deltaTime":123,"channel":0,"type":"channel","subtype":"controller","controllerType":64,"value":112},{"deltaTime":122,"channel":0,"type":"channel","subtype":"controller","controllerType":64,"value":127},{"deltaTime":2344,"channel":0,"type":"channel","subtype":"noteOff","noteNumber":65,"velocity":0},{"deltaTime":1070,"channel":0,"type":"channel","subtype":"noteOff","noteNumber":56,"velocity":0},{"deltaTime":835,"channel":0,"type":"channel","noteNumber":61,"velocity":64,"subtype":"noteOn"},{"deltaTime":143,"channel":0,"type":"channel","noteNumber":73,"velocity":65,"subtype":"noteOn"},{"deltaTime":183,"channel":0,"type":"channel","noteNumber":66,"velocity":66,"subtype":"noteOn"},{"deltaTime":4065,"channel":0,"type":"channel","subtype":"noteOff","noteNumber":66,"velocity":0},{"deltaTime":867,"channel":0,"type":"channel","subtype":"noteOff","noteNumber":61,"velocity":0},{"deltaTime":172,"channel":0,"type":"channel","noteNumber":56,"velocity":66,"subtype":"noteOn"},{"deltaTime":357,"channel":0,"type":"channel","subtype":"noteOff","noteNumber":73,"velocity":0},{"deltaTime":387,"channel":0,"type":"channel","noteNumber":65,"velocity":62,"subtype":"noteOn"},{"deltaTime":3008,"channel":0,"type":"channel","subtype":"noteOff","noteNumber":65,"velocity":0},{"deltaTime":1629,"channel":0,"type":"channel","subtype":"noteOff","noteNumber":56,"velocity":0},{"deltaTime":419,"channel":0,"type":"channel","noteNumber":73,"velocity":74,"subtype":"noteOn"},{"deltaTime":184,"channel":0,"type":"channel","noteNumber":66,"velocity":73,"subtype":"noteOn"},{"deltaTime":172,"channel":0,"type":"channel","noteNumber":63,"velocity":75,"subtype":"noteOn"},{"deltaTime":4046,"channel":0,"type":"channel","subtype":"noteOff","noteNumber":63,"velocity":0},{"deltaTime":683,"channel":0,"type":"channel","subtype":"noteOff","noteNumber":66,"velocity":0},{"deltaTime":448,"channel":0,"type":"channel","noteNumber":56,"velocity":59,"subtype":"noteOn"},{"deltaTime":357,"channel":0,"type":"channel","noteNumber":65,"velocity":64,"subtype":"noteOn"},{"deltaTime":1009,"channel":0,"type":"channel","subtype":"noteOff","noteNumber":73,"velocity":0},{"deltaTime":1955,"channel":0,"type":"channel","subtype":"noteOff","noteNumber":65,"velocity":0},{"deltaTime":2140,"channel":0,"type":"channel","noteNumber":70,"velocity":70,"subtype":"noteOn"},{"deltaTime":185,"channel":0,"type":"channel","noteNumber":66,"velocity":75,"subtype":"noteOn"},{"deltaTime":326,"channel":0,"type":"channel","noteNumber":49,"velocity":69,"subtype":"noteOn"},{"deltaTime":202,"channel":0,"type":"channel","subtype":"noteOff","noteNumber":56,"velocity":0},{"deltaTime":93,"channel":0,"type":"channel","subtype":"controller","controllerType":64,"value":120},{"deltaTime":153,"channel":0,"type":"channel","subtype":"controller","controllerType":64,"value":56},{"deltaTime":80,"channel":0,"type":"channel","subtype":"controller","controllerType":64,"value":0},{"deltaTime":2774,"channel":0,"type":"channel","subtype":"controller","controllerType":64,"value":56},{"deltaTime":80,"channel":0,"type":"channel","subtype":"controller","controllerType":64,"value":120},{"deltaTime":30,"channel":0,"type":"channel","subtype":"controller","controllerType":64,"value":127},{"deltaTime":929,"channel":0,"type":"channel","subtype":"noteOff","noteNumber":66,"velocity":0},{"deltaTime":111,"channel":0,"type":"channel","noteNumber":56,"velocity":55,"subtype":"noteOn"},{"deltaTime":215,"channel":0,"type":"channel","noteNumber":65,"velocity":60,"subtype":"noteOn"},{"deltaTime":479,"channel":0,"type":"channel","subtype":"noteOff","noteNumber":49,"velocity":0},{"deltaTime":499,"channel":0,"type":"channel","subtype":"noteOff","noteNumber":70,"velocity":0},{"deltaTime":2711,"channel":0,"type":"channel","subtype":"noteOff","noteNumber":65,"velocity":0},{"deltaTime":1365,"channel":0,"type":"channel","subtype":"noteOff","noteNumber":56,"velocity":0},{"deltaTime":591,"channel":0,"type":"channel","noteNumber":60,"velocity":65,"subtype":"noteOn"},{"deltaTime":4667,"channel":0,"type":"channel","subtype":"controller","controllerType":64,"value":120},{"deltaTime":123,"channel":0,"type":"channel","subtype":"controller","controllerType":64,"value":56},{"deltaTime":80,"channel":0,"type":"channel","subtype":"controller","controllerType":64,"value":0},{"deltaTime":185,"channel":0,"type":"channel","noteNumber":56,"velocity":66,"subtype":"noteOn"},{"deltaTime":172,"channel":0,"type":"channel","noteNumber":65,"velocity":65,"subtype":"noteOn"},{"deltaTime":510,"channel":0,"type":"channel","subtype":"noteOff","noteNumber":60,"velocity":0},{"deltaTime":2823,"channel":0,"type":"channel","subtype":"controller","controllerType":64,"value":56},{"deltaTime":122,"channel":0,"type":"channel","subtype":"controller","controllerType":64,"value":120},{"deltaTime":31,"channel":0,"type":"channel","subtype":"controller","controllerType":64,"value":127},{"deltaTime":295,"channel":0,"type":"channel","subtype":"noteOff","noteNumber":65,"velocity":0},{"deltaTime":1396,"channel":0,"type":"channel","subtype":"noteOff","noteNumber":56,"velocity":0},{"deltaTime":235,"channel":0,"type":"channel","noteNumber":66,"velocity":68,"subtype":"noteOn"},{"deltaTime":183,"channel":0,"type":"channel","noteNumber":73,"velocity":68,"subtype":"noteOn"},{"deltaTime":1274,"channel":0,"type":"channel","noteNumber":63,"velocity":65,"subtype":"noteOn"},{"deltaTime":122,"channel":0,"type":"channel","noteNumber":61,"velocity":29,"subtype":"noteOn"},{"deltaTime":2638,"channel":0,"type":"channel","subtype":"noteOff","noteNumber":63,"velocity":0},{"deltaTime":542,"channel":0,"type":"channel","subtype":"noteOff","noteNumber":66,"velocity":0},{"deltaTime":1039,"channel":0,"type":"channel","noteNumber":56,"velocity":64,"subtype":"noteOn"},{"deltaTime":265,"channel":0,"type":"channel","noteNumber":65,"velocity":62,"subtype":"noteOn"},{"deltaTime":122,"channel":0,"type":"channel","subtype":"noteOff","noteNumber":61,"velocity":0},{"deltaTime":92,"channel":0,"type":"channel","subtype":"noteOff","noteNumber":73,"velocity":0},{"deltaTime":3616,"channel":0,"type":"channel","subtype":"noteOff","noteNumber":65,"velocity":0},{"deltaTime":1378,"channel":0,"type":"channel","noteNumber":66,"velocity":73,"subtype":"noteOn"},{"deltaTime":142,"channel":0,"type":"channel","subtype":"noteOff","noteNumber":56,"velocity":0},{"deltaTime":92,"channel":0,"type":"channel","noteNumber":73,"velocity":77,"subtype":"noteOn"},{"deltaTime":202,"channel":0,"type":"channel","noteNumber":61,"velocity":76,"subtype":"noteOn"},{"deltaTime":4883,"channel":0,"type":"channel","noteNumber":56,"velocity":63,"subtype":"noteOn"},{"deltaTime":326,"channel":0,"type":"channel","subtype":"noteOff","noteNumber":66,"velocity":0},{"deltaTime":234,"channel":0,"type":"channel","subtype":"noteOff","noteNumber":61,"velocity":0},{"deltaTime":233,"channel":0,"type":"channel","noteNumber":65,"velocity":65,"subtype":"noteOn"},{"deltaTime":929,"channel":0,"type":"channel","subtype":"noteOff","noteNumber":73,"velocity":0},{"deltaTime":2853,"channel":0,"type":"channel","subtype":"noteOff","noteNumber":65,"velocity":0},{"deltaTime":1131,"channel":0,"type":"channel","noteNumber":60,"velocity":76,"subtype":"noteOn"},{"deltaTime":234,"channel":0,"type":"channel","subtype":"noteOff","noteNumber":56,"velocity":0},{"deltaTime":31,"channel":0,"type":"channel","noteNumber":70,"velocity":74,"subtype":"noteOn"},{"deltaTime":203,"channel":0,"type":"channel","noteNumber":66,"velocity":75,"subtype":"noteOn"},{"deltaTime":1346,"channel":0,"type":"channel","subtype":"controller","controllerType":64,"value":120},{"deltaTime":142,"channel":0,"type":"channel","subtype":"controller","controllerType":64,"value":56},{"deltaTime":92,"channel":0,"type":"channel","subtype":"controller","controllerType":64,"value":0},{"deltaTime":2497,"channel":0,"type":"channel","subtype":"noteOff","noteNumber":66,"velocity":0},{"deltaTime":357,"channel":0,"type":"channel","subtype":"controller","controllerType":64,"value":56},{"deltaTime":91,"channel":0,"type":"channel","subtype":"controller","controllerType":64,"value":120},{"deltaTime":31,"channel":0,"type":"channel","subtype":"controller","controllerType":64,"value":127},{"deltaTime":530,"channel":0,"type":"channel","noteNumber":49,"velocity":75,"subtype":"noteOn"},{"deltaTime":326,"channel":0,"type":"channel","noteNumber":65,"velocity":69,"subtype":"noteOn"},{"deltaTime":744,"channel":0,"type":"channel","subtype":"noteOff","noteNumber":60,"velocity":0},{"deltaTime":479,"channel":0,"type":"channel","subtype":"noteOff","noteNumber":70,"velocity":0},{"deltaTime":3240,"channel":0,"type":"channel","noteNumber":56,"velocity":63,"subtype":"noteOn"},{"deltaTime":204,"channel":0,"type":"channel","subtype":"noteOff","noteNumber":65,"velocity":0},{"deltaTime":1426,"channel":0,"type":"channel","subtype":"noteOff","noteNumber":49,"velocity":0},{"deltaTime":1845,"channel":0,"type":"channel","subtype":"controller","controllerType":64,"value":120},{"deltaTime":123,"channel":0,"type":"channel","subtype":"controller","controllerType":64,"value":56},{"deltaTime":80,"channel":0,"type":"channel","subtype":"controller","controllerType":64,"value":0},{"deltaTime":1519,"channel":0,"type":"channel","subtype":"noteOff","noteNumber":56,"velocity":0},{"deltaTime":621,"channel":0,"type":"channel","noteNumber":65,"velocity":69,"subtype":"noteOn"},{"deltaTime":928,"channel":0,"type":"channel","noteNumber":63,"velocity":62,"subtype":"noteOn"},{"deltaTime":265,"channel":0,"type":"channel","subtype":"controller","controllerType":64,"value":56},{"deltaTime":92,"channel":0,"type":"channel","subtype":"controller","controllerType":64,"value":120},{"deltaTime":31,"channel":0,"type":"channel","subtype":"controller","controllerType":64,"value":127},{"deltaTime":3179,"channel":0,"type":"channel","subtype":"noteOff","noteNumber":65,"velocity":0},{"deltaTime":1100,"channel":0,"type":"channel","noteNumber":66,"velocity":70,"subtype":"noteOn"},{"deltaTime":173,"channel":0,"type":"channel","noteNumber":73,"velocity":70,"subtype":"noteOn"},{"deltaTime":418,"channel":0,"type":"channel","noteNumber":56,"velocity":69,"subtype":"noteOn"},{"deltaTime":622,"channel":0,"type":"channel","subtype":"noteOff","noteNumber":63,"velocity":0},{"deltaTime":3658,"channel":0,"type":"channel","subtype":"noteOff","noteNumber":66,"velocity":0},{"deltaTime":233,"channel":0,"type":"channel","subtype":"noteOff","noteNumber":73,"velocity":0},{"deltaTime":1070,"channel":0,"type":"channel","noteNumber":63,"velocity":66,"subtype":"noteOn"},{"deltaTime":124,"channel":0,"type":"channel","subtype":"noteOff","noteNumber":56,"velocity":0},{"deltaTime":92,"channel":0,"type":"channel","noteNumber":65,"velocity":69,"subtype":"noteOn"},{"deltaTime":3628,"channel":0,"type":"channel","subtype":"noteOff","noteNumber":63,"velocity":0},{"deltaTime":234,"channel":0,"type":"channel","subtype":"noteOff","noteNumber":65,"velocity":0},{"deltaTime":621,"channel":0,"type":"channel","noteNumber":56,"velocity":68,"subtype":"noteOn"},{"deltaTime":295,"channel":0,"type":"channel","noteNumber":73,"velocity":76,"subtype":"noteOn"},{"deltaTime":154,"channel":0,"type":"channel","noteNumber":66,"velocity":63,"subtype":"noteOn"},{"deltaTime":4636,"channel":0,"type":"channel","noteNumber":61,"velocity":71,"subtype":"noteOn"},{"deltaTime":387,"channel":0,"type":"channel","subtype":"noteOff","noteNumber":66,"velocity":0},{"deltaTime":172,"channel":0,"type":"channel","noteNumber":65,"velocity":61,"subtype":"noteOn"},{"deltaTime":898,"channel":0,"type":"channel","subtype":"noteOff","noteNumber":56,"velocity":0},{"deltaTime":62,"channel":0,"type":"channel","subtype":"noteOff","noteNumber":73,"velocity":0},{"deltaTime":2792,"channel":0,"type":"channel","subtype":"noteOff","noteNumber":65,"velocity":0},{"deltaTime":387,"channel":0,"type":"channel","subtype":"noteOff","noteNumber":61,"velocity":0},{"deltaTime":234,"channel":0,"type":"channel","noteNumber":56,"velocity":51,"subtype":"noteOn"},{"deltaTime":621,"channel":0,"type":"channel","noteNumber":66,"velocity":62,"subtype":"noteOn"},{"deltaTime":184,"channel":0,"type":"channel","noteNumber":70,"velocity":67,"subtype":"noteOn"},{"deltaTime":4484,"channel":0,"type":"channel","subtype":"noteOff","noteNumber":66,"velocity":0},{"deltaTime":294,"channel":0,"type":"channel","noteNumber":60,"velocity":63,"subtype":"noteOn"},{"deltaTime":450,"channel":0,"type":"channel","subtype":"noteOff","noteNumber":56,"velocity":0},{"deltaTime":30,"channel":0,"type":"channel","noteNumber":65,"velocity":70,"subtype":"noteOn"},{"deltaTime":978,"channel":0,"type":"channel","subtype":"noteOff","noteNumber":70,"velocity":0},{"deltaTime":2915,"channel":0,"type":"channel","subtype":"noteOff","noteNumber":60,"velocity":0},{"deltaTime":245,"channel":0,"type":"channel","subtype":"noteOff","noteNumber":65,"velocity":0},{"deltaTime":295,"channel":0,"type":"channel","noteNumber":56,"velocity":66,"subtype":"noteOn"},{"deltaTime":794,"channel":0,"type":"channel","noteNumber":70,"velocity":66,"subtype":"noteOn"},{"deltaTime":184,"channel":0,"type":"channel","noteNumber":66,"velocity":63,"subtype":"noteOn"},{"deltaTime":4483,"channel":0,"type":"channel","subtype":"noteOff","noteNumber":56,"velocity":0},{"deltaTime":215,"channel":0,"type":"channel","subtype":"noteOff","noteNumber":70,"velocity":0},{"deltaTime":142,"channel":0,"type":"channel","subtype":"noteOff","noteNumber":66,"velocity":0},{"deltaTime":184,"channel":0,"type":"channel","noteNumber":59,"velocity":64,"subtype":"noteOn"},{"deltaTime":529,"channel":0,"type":"channel","noteNumber":63,"velocity":64,"subtype":"noteOn"},{"deltaTime":3812,"channel":0,"type":"channel","subtype":"noteOff","noteNumber":63,"velocity":0},{"deltaTime":917,"channel":0,"type":"channel","noteNumber":66,"velocity":48,"subtype":"noteOn"},{"deltaTime":123,"channel":0,"type":"channel","noteNumber":54,"velocity":63,"subtype":"noteOn"},{"deltaTime":265,"channel":0,"type":"channel","subtype":"controller","controllerType":64,"value":120},{"deltaTime":122,"channel":0,"type":"channel","subtype":"controller","controllerType":64,"value":56},{"deltaTime":111,"channel":0,"type":"channel","subtype":"controller","controllerType":64,"value":0},{"deltaTime":215,"channel":0,"type":"channel","noteNumber":70,"velocity":57,"subtype":"noteOn"},{"deltaTime":173,"channel":0,"type":"channel","subtype":"noteOff","noteNumber":59,"velocity":0},{"deltaTime":3068,"channel":0,"type":"channel","subtype":"controller","controllerType":64,"value":56},{"deltaTime":110,"channel":0,"type":"channel","subtype":"controller","controllerType":64,"value":120},{"deltaTime":32,"channel":0,"type":"channel","subtype":"controller","controllerType":64,"value":127},{"deltaTime":245,"channel":0,"type":"channel","subtype":"noteOff","noteNumber":70,"velocity":0},{"deltaTime":142,"channel":0,"type":"channel","subtype":"noteOff","noteNumber":66,"velocity":0},{"deltaTime":295,"channel":0,"type":"channel","noteNumber":62,"velocity":65,"subtype":"noteOn"},{"deltaTime":123,"channel":0,"type":"channel","noteNumber":59,"velocity":55,"subtype":"noteOn"},{"deltaTime":541,"channel":0,"type":"channel","subtype":"noteOff","noteNumber":54,"velocity":0},{"deltaTime":4034,"channel":0,"type":"channel","subtype":"noteOff","noteNumber":62,"velocity":0},{"deltaTime":510,"channel":0,"type":"channel","subtype":"noteOff","noteNumber":59,"velocity":0},{"deltaTime":775,"channel":0,"type":"channel","noteNumber":54,"velocity":66,"subtype":"noteOn"},{"deltaTime":234,"channel":0,"type":"channel","noteNumber":66,"velocity":65,"subtype":"noteOn"},{"deltaTime":5227,"channel":0,"type":"channel","noteNumber":60,"velocity":70,"subtype":"noteOn"},{"deltaTime":245,"channel":0,"type":"channel","subtype":"noteOff","noteNumber":54,"velocity":0},{"deltaTime":112,"channel":0,"type":"channel","subtype":"noteOff","noteNumber":66,"velocity":0},{"deltaTime":3535,"channel":0,"type":"channel","subtype":"noteOff","noteNumber":60,"velocity":0},{"deltaTime":1458,"channel":0,"type":"channel","noteNumber":68,"velocity":66,"subtype":"noteOn"},{"deltaTime":184,"channel":0,"type":"channel","noteNumber":63,"velocity":67,"subtype":"noteOn"},{"deltaTime":5737,"channel":0,"type":"channel","noteNumber":59,"velocity":57,"subtype":"noteOn"},{"deltaTime":1150,"channel":0,"type":"channel","subtype":"noteOff","noteNumber":68,"velocity":0},{"deltaTime":1581,"channel":0,"type":"channel","subtype":"noteOff","noteNumber":59,"velocity":0},{"deltaTime":1610,"channel":0,"type":"channel","subtype":"noteOff","noteNumber":63,"velocity":0},{"deltaTime":468,"channel":0,"type":"channel","noteNumber":54,"velocity":80,"subtype":"noteOn"},{"deltaTime":123,"channel":0,"type":"channel","noteNumber":42,"velocity":70,"subtype":"noteOn"},{"deltaTime":1162,"channel":0,"type":"channel","subtype":"controller","controllerType":64,"value":120},{"deltaTime":173,"channel":0,"type":"channel","subtype":"controller","controllerType":64,"value":56},{"deltaTime":61,"channel":0,"type":"channel","subtype":"controller","controllerType":64,"value":0},{"deltaTime":2915,"channel":0,"type":"channel","subtype":"noteOff","noteNumber":54,"velocity":0},{"deltaTime":713,"channel":0,"type":"channel","subtype":"noteOff","noteNumber":42,"velocity":0},{"deltaTime":234,"channel":0,"type":"channel","noteNumber":49,"velocity":62,"subtype":"noteOn"},{"deltaTime":621,"channel":0,"type":"channel","subtype":"controller","controllerType":64,"value":56},{"deltaTime":92,"channel":0,"type":"channel","subtype":"controller","controllerType":64,"value":120},{"deltaTime":31,"channel":0,"type":"channel","subtype":"controller","controllerType":64,"value":127},{"deltaTime":3333,"channel":0,"type":"channel","subtype":"noteOff","noteNumber":49,"velocity":0},{"deltaTime":978,"channel":0,"type":"channel","noteNumber":58,"velocity":55,"subtype":"noteOn"},{"deltaTime":6063,"channel":0,"type":"channel","noteNumber":63,"velocity":75,"subtype":"noteOn"},{"deltaTime":1272,"channel":0,"type":"channel","subtype":"noteOff","noteNumber":58,"velocity":0},{"deltaTime":3813,"channel":0,"type":"channel","noteNumber":70,"velocity":77,"subtype":"noteOn"},{"deltaTime":1987,"channel":0,"type":"channel","subtype":"noteOff","noteNumber":63,"velocity":0},{"deltaTime":3474,"channel":0,"type":"channel","noteNumber":39,"velocity":37,"subtype":"noteOn"},{"deltaTime":184,"channel":0,"type":"channel","noteNumber":40,"velocity":84,"subtype":"noteOn"},{"deltaTime":172,"channel":0,"type":"channel","subtype":"noteOff","noteNumber":70,"velocity":0},{"deltaTime":1255,"channel":0,"type":"channel","subtype":"noteOff","noteNumber":39,"velocity":0},{"deltaTime":2884,"channel":0,"type":"channel","subtype":"noteOff","noteNumber":40,"velocity":0},{"deltaTime":234,"channel":0,"type":"channel","noteNumber":56,"velocity":78,"subtype":"noteOn"},{"deltaTime":4759,"channel":0,"type":"channel","noteNumber":63,"velocity":65,"subtype":"noteOn"},{"deltaTime":2405,"channel":0,"type":"channel","subtype":"noteOff","noteNumber":56,"velocity":0},{"deltaTime":2496,"channel":0,"type":"channel","noteNumber":39,"velocity":83,"subtype":"noteOn"},{"deltaTime":1875,"channel":0,"type":"channel","subtype":"controller","controllerType":64,"value":64},{"deltaTime":92,"channel":0,"type":"channel","subtype":"controller","controllerType":64,"value":0},{"deltaTime":1212,"channel":0,"type":"channel","subtype":"noteOff","noteNumber":63,"velocity":0},{"deltaTime":184,"channel":0,"type":"channel","subtype":"noteOff","noteNumber":39,"velocity":0},{"deltaTime":1987,"channel":0,"type":"channel","subtype":"controller","controllerType":64,"value":56},{"deltaTime":123,"channel":0,"type":"channel","subtype":"controller","controllerType":64,"value":120},{"deltaTime":30,"channel":0,"type":"channel","subtype":"controller","controllerType":64,"value":127},{"deltaTime":50,"channel":0,"type":"channel","noteNumber":55,"velocity":60,"subtype":"noteOn"},{"deltaTime":5687,"channel":0,"type":"channel","noteNumber":63,"velocity":75,"subtype":"noteOn"},{"deltaTime":204,"channel":0,"type":"channel","noteNumber":67,"velocity":72,"subtype":"noteOn"},{"deltaTime":1192,"channel":0,"type":"channel","subtype":"noteOff","noteNumber":55,"velocity":0},{"deltaTime":2466,"channel":0,"type":"channel","subtype":"noteOff","noteNumber":67,"velocity":0},{"deltaTime":499,"channel":0,"type":"channel","subtype":"noteOff","noteNumber":63,"velocity":0},{"deltaTime":92,"channel":0,"type":"channel","noteNumber":47,"velocity":82,"subtype":"noteOn"},{"deltaTime":4280,"channel":0,"type":"channel","subtype":"noteOff","noteNumber":47,"velocity":0},{"deltaTime":1254,"channel":0,"type":"channel","noteNumber":58,"velocity":80,"subtype":"noteOn"},{"deltaTime":4779,"channel":0,"type":"channel","noteNumber":42,"velocity":81,"subtype":"noteOn"},{"deltaTime":897,"channel":0,"type":"channel","subtype":"noteOff","noteNumber":58,"velocity":0},{"deltaTime":2189,"channel":0,"type":"channel","subtype":"noteOff","noteNumber":42,"velocity":0},{"deltaTime":3069,"channel":0,"type":"channel","noteNumber":68,"velocity":66,"subtype":"noteOn"},{"deltaTime":713,"channel":0,"type":"channel","noteNumber":66,"velocity":57,"subtype":"noteOn"},{"deltaTime":3057,"channel":0,"type":"channel","subtype":"noteOff","noteNumber":66,"velocity":0},{"deltaTime":1192,"channel":0,"type":"channel","noteNumber":39,"velocity":78,"subtype":"noteOn"},{"deltaTime":3985,"channel":0,"type":"channel","subtype":"noteOff","noteNumber":68,"velocity":0},{"deltaTime":621,"channel":0,"type":"channel","noteNumber":34,"velocity":66,"subtype":"noteOn"},{"deltaTime":897,"channel":0,"type":"channel","subtype":"noteOff","noteNumber":39,"velocity":0},{"deltaTime":2190,"channel":0,"type":"channel","noteNumber":40,"velocity":76,"subtype":"noteOn"},{"deltaTime":775,"channel":0,"type":"channel","subtype":"noteOff","noteNumber":34,"velocity":0},{"deltaTime":2976,"channel":0,"type":"channel","subtype":"controller","controllerType":64,"value":120},{"deltaTime":141,"channel":0,"type":"channel","subtype":"controller","controllerType":64,"value":56},{"deltaTime":93,"channel":0,"type":"channel","subtype":"controller","controllerType":64,"value":0},{"deltaTime":867,"channel":0,"type":"channel","noteNumber":55,"velocity":70,"subtype":"noteOn"},{"deltaTime":2527,"channel":0,"type":"channel","subtype":"noteOff","noteNumber":40,"velocity":0},{"deltaTime":142,"channel":0,"type":"channel","subtype":"controller","controllerType":64,"value":56},{"deltaTime":153,"channel":0,"type":"channel","subtype":"controller","controllerType":64,"value":120},{"deltaTime":31,"channel":0,"type":"channel","subtype":"controller","controllerType":64,"value":127},{"deltaTime":1537,"channel":0,"type":"channel","subtype":"noteOff","noteNumber":55,"velocity":0},{"deltaTime":960,"channel":0,"type":"channel","noteNumber":35,"velocity":80,"subtype":"noteOn"},{"deltaTime":4034,"channel":0,"type":"channel","subtype":"noteOff","noteNumber":35,"velocity":0},{"deltaTime":510,"channel":0,"type":"channel","noteNumber":63,"velocity":76,"subtype":"noteOn"},{"deltaTime":5503,"channel":0,"type":"channel","noteNumber":39,"velocity":82,"subtype":"noteOn"},{"deltaTime":234,"channel":0,"type":"channel","noteNumber":27,"velocity":75,"subtype":"noteOn"},{"deltaTime":1937,"channel":0,"type":"channel","subtype":"controller","controllerType":64,"value":120},{"deltaTime":111,"channel":0,"type":"channel","subtype":"controller","controllerType":64,"value":56},{"deltaTime":92,"channel":0,"type":"channel","subtype":"controller","controllerType":64,"value":0},{"deltaTime":123,"channel":0,"type":"channel","subtype":"noteOff","noteNumber":63,"velocity":0},{"deltaTime":2761,"channel":0,"type":"channel","noteNumber":66,"velocity":74,"subtype":"noteOn"},{"deltaTime":1070,"channel":0,"type":"channel","subtype":"controller","controllerType":64,"value":56},{"deltaTime":92,"channel":0,"type":"channel","subtype":"controller","controllerType":64,"value":120},{"deltaTime":31,"channel":0,"type":"channel","subtype":"controller","controllerType":64,"value":127},{"deltaTime":326,"channel":0,"type":"channel","subtype":"noteOff","noteNumber":39,"velocity":0},{"deltaTime":1783,"channel":0,"type":"channel","subtype":"noteOff","noteNumber":27,"velocity":0},{"deltaTime":1365,"channel":0,"type":"channel","noteNumber":34,"velocity":67,"subtype":"noteOn"},{"deltaTime":1212,"channel":0,"type":"channel","subtype":"noteOff","noteNumber":34,"velocity":0},{"deltaTime":5504,"channel":0,"type":"channel","noteNumber":58,"velocity":79,"subtype":"noteOn"},{"deltaTime":590,"channel":0,"type":"channel","subtype":"noteOff","noteNumber":66,"velocity":0},{"deltaTime":4790,"channel":0,"type":"channel","noteNumber":63,"velocity":68,"subtype":"noteOn"},{"deltaTime":529,"channel":0,"type":"channel","subtype":"noteOff","noteNumber":58,"velocity":0},{"deltaTime":4821,"channel":0,"type":"channel","noteNumber":46,"velocity":81,"subtype":"noteOn"},{"deltaTime":234,"channel":0,"type":"channel","noteNumber":34,"velocity":73,"subtype":"noteOn"},{"deltaTime":1845,"channel":0,"type":"channel","subtype":"noteOff","noteNumber":63,"velocity":0},{"deltaTime":2680,"channel":0,"type":"channel","subtype":"noteOff","noteNumber":46,"velocity":0},{"deltaTime":296,"channel":0,"type":"channel","noteNumber":58,"velocity":69,"subtype":"noteOn"},{"deltaTime":142,"channel":0,"type":"channel","subtype":"controller","controllerType":64,"value":120},{"deltaTime":153,"channel":0,"type":"channel","subtype":"controller","controllerType":64,"value":56},{"deltaTime":61,"channel":0,"type":"channel","subtype":"controller","controllerType":64,"value":0},{"deltaTime":437,"channel":0,"type":"channel","subtype":"noteOff","noteNumber":34,"velocity":0},{"deltaTime":4200,"channel":0,"type":"channel","noteNumber":47,"velocity":75,"subtype":"noteOn"},{"deltaTime":173,"channel":0,"type":"channel","subtype":"noteOff","noteNumber":58,"velocity":0},{"deltaTime":866,"channel":0,"type":"channel","noteNumber":33,"velocity":50,"subtype":"noteOn"},{"deltaTime":173,"channel":0,"type":"channel","noteNumber":35,"velocity":51,"subtype":"noteOn"},{"deltaTime":1967,"channel":0,"type":"channel","subtype":"noteOff","noteNumber":33,"velocity":0},{"deltaTime":683,"channel":0,"type":"channel","subtype":"controller","controllerType":64,"value":56},{"deltaTime":92,"channel":0,"type":"channel","subtype":"controller","controllerType":64,"value":120},{"deltaTime":30,"channel":0,"type":"channel","subtype":"controller","controllerType":64,"value":127},{"deltaTime":1722,"channel":0,"type":"channel","noteNumber":59,"velocity":69,"subtype":"noteOn"},{"deltaTime":2497,"channel":0,"type":"channel","subtype":"noteOff","noteNumber":35,"velocity":0},{"deltaTime":1212,"channel":0,"type":"channel","subtype":"noteOff","noteNumber":47,"velocity":0},{"deltaTime":276,"channel":0,"type":"channel","subtype":"noteOff","noteNumber":59,"velocity":0},{"deltaTime":1335,"channel":0,"type":"channel","noteNumber":70,"velocity":81,"subtype":"noteOn"},{"deltaTime":234,"channel":0,"type":"channel","noteNumber":63,"velocity":73,"subtype":"noteOn"},{"deltaTime":4728,"channel":0,"type":"channel","noteNumber":42,"velocity":69,"subtype":"noteOn"},{"deltaTime":203,"channel":0,"type":"channel","subtype":"noteOff","noteNumber":63,"velocity":0},{"deltaTime":246,"channel":0,"type":"channel","subtype":"noteOff","noteNumber":70,"velocity":0},{"deltaTime":2435,"channel":0,"type":"channel","subtype":"noteOff","noteNumber":42,"velocity":0},{"deltaTime":2792,"channel":0,"type":"channel","noteNumber":58,"velocity":81,"subtype":"noteOn"},{"deltaTime":5289,"channel":0,"type":"channel","noteNumber":70,"velocity":69,"subtype":"noteOn"},{"deltaTime":2711,"channel":0,"type":"channel","subtype":"noteOff","noteNumber":58,"velocity":0},{"deltaTime":1304,"channel":0,"type":"channel","subtype":"noteOff","noteNumber":70,"velocity":0},{"deltaTime":1396,"channel":0,"type":"channel","noteNumber":42,"velocity":81,"subtype":"noteOn"},{"deltaTime":172,"channel":0,"type":"channel","noteNumber":30,"velocity":76,"subtype":"noteOn"},{"deltaTime":1845,"channel":0,"type":"channel","subtype":"controller","controllerType":64,"value":120},{"deltaTime":153,"channel":0,"type":"channel","subtype":"controller","controllerType":64,"value":56},{"deltaTime":92,"channel":0,"type":"channel","subtype":"controller","controllerType":64,"value":0},{"deltaTime":2220,"channel":0,"type":"channel","subtype":"noteOff","noteNumber":42,"velocity":0},{"deltaTime":714,"channel":0,"type":"channel","noteNumber":54,"velocity":64,"subtype":"noteOn"},{"deltaTime":246,"channel":0,"type":"channel","subtype":"noteOff","noteNumber":30,"velocity":0},{"deltaTime":467,"channel":0,"type":"channel","subtype":"controller","controllerType":64,"value":56},{"deltaTime":93,"channel":0,"type":"channel","subtype":"controller","controllerType":64,"value":120},{"deltaTime":30,"channel":0,"type":"channel","subtype":"controller","controllerType":64,"value":127},{"deltaTime":2945,"channel":0,"type":"channel","subtype":"noteOff","noteNumber":54,"velocity":0},{"deltaTime":1845,"channel":0,"type":"channel","noteNumber":66,"velocity":66,"subtype":"noteOn"},{"deltaTime":173,"channel":0,"type":"channel","noteNumber":61,"velocity":66,"subtype":"noteOn"},{"deltaTime":4046,"channel":0,"type":"channel","noteNumber":28,"velocity":75,"subtype":"noteOn"},{"deltaTime":203,"channel":0,"type":"channel","noteNumber":40,"velocity":70,"subtype":"noteOn"},{"deltaTime":571,"channel":0,"type":"channel","subtype":"noteOff","noteNumber":66,"velocity":0},{"deltaTime":744,"channel":0,"type":"channel","subtype":"controller","controllerType":64,"value":120},{"deltaTime":142,"channel":0,"type":"channel","subtype":"controller","controllerType":64,"value":56},{"deltaTime":92,"channel":0,"type":"channel","subtype":"controller","controllerType":64,"value":0},{"deltaTime":388,"channel":0,"type":"channel","subtype":"noteOff","noteNumber":61,"velocity":0},{"deltaTime":2853,"channel":0,"type":"channel","subtype":"controller","controllerType":64,"value":56},{"deltaTime":92,"channel":0,"type":"channel","subtype":"controller","controllerType":64,"value":120},{"deltaTime":19,"channel":0,"type":"channel","subtype":"controller","controllerType":64,"value":127},{"deltaTime":959,"channel":0,"type":"channel","noteNumber":56,"velocity":66,"subtype":"noteOn"},{"deltaTime":2017,"channel":0,"type":"channel","subtype":"noteOff","noteNumber":40,"velocity":0},{"deltaTime":1040,"channel":0,"type":"channel","subtype":"noteOff","noteNumber":28,"velocity":0},{"deltaTime":1426,"channel":0,"type":"channel","subtype":"noteOff","noteNumber":56,"velocity":0},{"deltaTime":1457,"channel":0,"type":"channel","noteNumber":35,"velocity":72,"subtype":"noteOn"},{"deltaTime":1396,"channel":0,"type":"channel","subtype":"controller","controllerType":64,"value":120},{"deltaTime":154,"channel":0,"type":"channel","subtype":"controller","controllerType":64,"value":56},{"deltaTime":110,"channel":0,"type":"channel","subtype":"controller","controllerType":64,"value":0},{"deltaTime":1316,"channel":0,"type":"channel","subtype":"noteOff","noteNumber":35,"velocity":0},{"deltaTime":1845,"channel":0,"type":"channel","subtype":"controller","controllerType":64,"value":56},{"deltaTime":111,"channel":0,"type":"channel","subtype":"controller","controllerType":64,"value":120},{"deltaTime":31,"channel":0,"type":"channel","subtype":"controller","controllerType":64,"value":127},{"deltaTime":418,"channel":0,"type":"channel","noteNumber":68,"velocity":71,"subtype":"noteOn"},{"deltaTime":203,"channel":0,"type":"channel","noteNumber":61,"velocity":76,"subtype":"noteOn"},{"deltaTime":4230,"channel":0,"type":"channel","subtype":"noteOff","noteNumber":68,"velocity":0},{"deltaTime":326,"channel":0,"type":"channel","noteNumber":44,"velocity":78,"subtype":"noteOn"},{"deltaTime":1131,"channel":0,"type":"channel","noteNumber":32,"velocity":34,"subtype":"noteOn"},{"deltaTime":683,"channel":0,"type":"channel","subtype":"noteOff","noteNumber":61,"velocity":0},{"deltaTime":1182,"channel":0,"type":"channel","subtype":"noteOff","noteNumber":32,"velocity":0},{"deltaTime":1610,"channel":0,"type":"channel","noteNumber":56,"velocity":62,"subtype":"noteOn"},{"deltaTime":560,"channel":0,"type":"channel","subtype":"noteOff","noteNumber":44,"velocity":0},{"deltaTime":3505,"channel":0,"type":"channel","subtype":"noteOff","noteNumber":56,"velocity":0},{"deltaTime":276,"channel":0,"type":"channel","noteNumber":39,"velocity":66,"subtype":"noteOn"},{"deltaTime":4963,"channel":0,"type":"channel","subtype":"noteOff","noteNumber":39,"velocity":0},{"deltaTime":652,"channel":0,"type":"channel","noteNumber":45,"velocity":69,"subtype":"noteOn"},{"deltaTime":4127,"channel":0,"type":"channel","noteNumber":39,"velocity":63,"subtype":"noteOn"},{"deltaTime":651,"channel":0,"type":"channel","subtype":"noteOff","noteNumber":45,"velocity":0},{"deltaTime":2060,"channel":0,"type":"channel","subtype":"noteOff","noteNumber":39,"velocity":0},{"deltaTime":1722,"channel":0,"type":"channel","noteNumber":54,"velocity":64,"subtype":"noteOn"},{"deltaTime":3302,"channel":0,"type":"channel","subtype":"noteOff","noteNumber":54,"velocity":0},{"deltaTime":2048,"channel":0,"type":"channel","noteNumber":58,"velocity":81,"subtype":"noteOn"},{"deltaTime":4157,"channel":0,"type":"channel","subtype":"noteOff","noteNumber":58,"velocity":0},{"deltaTime":774,"channel":0,"type":"channel","noteNumber":39,"velocity":80,"subtype":"noteOn"},{"deltaTime":3598,"channel":0,"type":"channel","subtype":"noteOff","noteNumber":39,"velocity":0},{"deltaTime":885,"channel":0,"type":"channel","noteNumber":43,"velocity":82,"subtype":"noteOn"},{"deltaTime":4047,"channel":0,"type":"channel","subtype":"noteOff","noteNumber":43,"velocity":0},{"deltaTime":977,"channel":0,"type":"channel","noteNumber":37,"velocity":73,"subtype":"noteOn"},{"deltaTime":2620,"channel":0,"type":"channel","subtype":"noteOff","noteNumber":37,"velocity":0},{"deltaTime":2650,"channel":0,"type":"channel","noteNumber":43,"velocity":78,"subtype":"noteOn"},{"deltaTime":824,"channel":0,"type":"channel","subtype":"controller","controllerType":64,"value":120},{"deltaTime":154,"channel":0,"type":"channel","subtype":"controller","controllerType":64,"value":56},{"deltaTime":92,"channel":0,"type":"channel","subtype":"controller","controllerType":64,"value":0},{"deltaTime":1568,"channel":0,"type":"channel","subtype":"noteOff","noteNumber":43,"velocity":0},{"deltaTime":2589,"channel":0,"type":"channel","noteNumber":40,"velocity":75,"subtype":"noteOn"},{"deltaTime":123,"channel":0,"type":"channel","noteNumber":41,"velocity":74,"subtype":"noteOn"},{"deltaTime":2853,"channel":0,"type":"channel","subtype":"noteOff","noteNumber":41,"velocity":0},{"deltaTime":793,"channel":0,"type":"channel","subtype":"controller","controllerType":64,"value":40},{"deltaTime":32,"channel":0,"type":"channel","subtype":"noteOff","noteNumber":40,"velocity":0},{"deltaTime":122,"channel":0,"type":"channel","subtype":"controller","controllerType":64,"value":104},{"deltaTime":123,"channel":0,"type":"channel","subtype":"controller","controllerType":64,"value":127},{"deltaTime":1039,"channel":0,"type":"channel","noteNumber":43,"velocity":75,"subtype":"noteOn"},{"deltaTime":3505,"channel":0,"type":"channel","subtype":"noteOff","noteNumber":43,"velocity":0},{"deltaTime":1925,"channel":0,"type":"channel","noteNumber":39,"velocity":80,"subtype":"noteOn"},{"deltaTime":3905,"channel":0,"type":"channel","subtype":"noteOff","noteNumber":39,"velocity":0},{"deltaTime":1181,"channel":0,"type":"channel","noteNumber":51,"velocity":73,"subtype":"noteOn"},{"deltaTime":4820,"channel":0,"type":"channel","subtype":"noteOff","noteNumber":51,"velocity":0},{"deltaTime":561,"channel":0,"type":"channel","noteNumber":38,"velocity":83,"subtype":"noteOn"},{"deltaTime":4045,"channel":0,"type":"channel","noteNumber":37,"velocity":17,"subtype":"noteOn"},{"deltaTime":265,"channel":0,"type":"channel","subtype":"noteOff","noteNumber":38,"velocity":0},{"deltaTime":559,"channel":0,"type":"channel","noteNumber":46,"velocity":75,"subtype":"noteOn"},{"deltaTime":714,"channel":0,"type":"channel","subtype":"noteOff","noteNumber":37,"velocity":0},{"deltaTime":3517,"channel":0,"type":"channel","subtype":"noteOff","noteNumber":46,"velocity":0},{"deltaTime":1089,"channel":0,"type":"channel","noteNumber":49,"velocity":75,"subtype":"noteOn"},{"deltaTime":5086,"channel":0,"type":"channel","noteNumber":37,"velocity":78,"subtype":"noteOn"},{"deltaTime":387,"channel":0,"type":"channel","noteNumber":56,"velocity":75,"subtype":"noteOn"},{"deltaTime":1549,"channel":0,"type":"channel","noteNumber":57,"velocity":34,"subtype":"noteOn"},{"deltaTime":172,"channel":0,"type":"channel","subtype":"noteOff","noteNumber":49,"velocity":0},{"deltaTime":1285,"channel":0,"type":"channel","subtype":"noteOff","noteNumber":57,"velocity":0},{"deltaTime":1784,"channel":0,"type":"channel","noteNumber":46,"velocity":79,"subtype":"noteOn"},{"deltaTime":418,"channel":0,"type":"channel","noteNumber":39,"velocity":75,"subtype":"noteOn"},{"deltaTime":713,"channel":0,"type":"channel","subtype":"noteOff","noteNumber":56,"velocity":0},{"deltaTime":49,"channel":0,"type":"channel","subtype":"controller","controllerType":64,"value":120},{"deltaTime":154,"channel":0,"type":"channel","subtype":"controller","controllerType":64,"value":56},{"deltaTime":92,"channel":0,"type":"channel","subtype":"controller","controllerType":64,"value":0},{"deltaTime":2700,"channel":0,"type":"channel","subtype":"noteOff","noteNumber":37,"velocity":0},{"deltaTime":978,"channel":0,"type":"channel","subtype":"noteOff","noteNumber":39,"velocity":0},{"deltaTime":215,"channel":0,"type":"channel","noteNumber":49,"velocity":66,"subtype":"noteOn"},{"deltaTime":203,"channel":0,"type":"channel","subtype":"noteOff","noteNumber":46,"velocity":0},{"deltaTime":652,"channel":0,"type":"channel","noteNumber":36,"velocity":68,"subtype":"noteOn"},{"deltaTime":4729,"channel":0,"type":"channel","subtype":"noteOff","noteNumber":49,"velocity":0},{"deltaTime":122,"channel":0,"type":"channel","noteNumber":48,"velocity":60,"subtype":"noteOn"},{"deltaTime":265,"channel":0,"type":"channel","noteNumber":37,"velocity":66,"subtype":"noteOn"},{"deltaTime":264,"channel":0,"type":"channel","subtype":"controller","controllerType":64,"value":32},{"deltaTime":93,"channel":0,"type":"channel","subtype":"controller","controllerType":64,"value":96},{"deltaTime":122,"channel":0,"type":"channel","subtype":"controller","controllerType":64,"value":127},{"deltaTime":498,"channel":0,"type":"channel","subtype":"noteOff","noteNumber":36,"velocity":0},{"deltaTime":3456,"channel":0,"type":"channel","subtype":"noteOff","noteNumber":37,"velocity":0},{"deltaTime":744,"channel":0,"type":"channel","noteNumber":49,"velocity":69,"subtype":"noteOn"},{"deltaTime":499,"channel":0,"type":"channel","subtype":"noteOff","noteNumber":48,"velocity":0},{"deltaTime":4698,"channel":0,"type":"channel","noteNumber":36,"velocity":73,"subtype":"noteOn"},{"deltaTime":203,"channel":0,"type":"channel","noteNumber":56,"velocity":75,"subtype":"noteOn"},{"deltaTime":123,"channel":0,"type":"channel","noteNumber":48,"velocity":74,"subtype":"noteOn"},{"deltaTime":713,"channel":0,"type":"channel","subtype":"noteOff","noteNumber":49,"velocity":0},{"deltaTime":3333,"channel":0,"type":"channel","subtype":"noteOff","noteNumber":36,"velocity":0},{"deltaTime":111,"channel":0,"type":"channel","subtype":"controller","controllerType":64,"value":80},{"deltaTime":30,"channel":0,"type":"channel","subtype":"noteOff","noteNumber":48,"velocity":0},{"deltaTime":123,"channel":0,"type":"channel","subtype":"controller","controllerType":64,"value":16},{"deltaTime":92,"channel":0,"type":"channel","subtype":"controller","controllerType":64,"value":0},{"deltaTime":622,"channel":0,"type":"channel","noteNumber":31,"velocity":73,"subtype":"noteOn"},{"deltaTime":559,"channel":0,"type":"channel","subtype":"noteOff","noteNumber":56,"velocity":0},{"deltaTime":3721,"channel":0,"type":"channel","subtype":"noteOff","noteNumber":31,"velocity":0},{"deltaTime":540,"channel":0,"type":"channel","noteNumber":48,"velocity":75,"subtype":"noteOn"},{"deltaTime":468,"channel":0,"type":"channel","noteNumber":36,"velocity":73,"subtype":"noteOn"},{"deltaTime":3241,"channel":0,"type":"channel","subtype":"noteOff","noteNumber":48,"velocity":0},{"deltaTime":1660,"channel":0,"type":"channel","noteNumber":51,"velocity":76,"subtype":"noteOn"},{"deltaTime":123,"channel":0,"type":"channel","noteNumber":31,"velocity":72,"subtype":"noteOn"},{"deltaTime":234,"channel":0,"type":"channel","subtype":"noteOff","noteNumber":36,"velocity":0},{"deltaTime":4372,"channel":0,"type":"channel","subtype":"noteOff","noteNumber":31,"velocity":0},{"deltaTime":92,"channel":0,"type":"channel","subtype":"noteOff","noteNumber":51,"velocity":0},{"deltaTime":123,"channel":0,"type":"channel","noteNumber":48,"velocity":78,"subtype":"noteOn"},{"deltaTime":295,"channel":0,"type":"channel","noteNumber":24,"velocity":78,"subtype":"noteOn"},{"deltaTime":141,"channel":0,"type":"channel","noteNumber":36,"velocity":76,"subtype":"noteOn"},{"deltaTime":124,"channel":0,"type":"channel","noteNumber":56,"velocity":71,"subtype":"noteOn"},{"deltaTime":3443,"channel":0,"type":"channel","subtype":"noteOff","noteNumber":48,"velocity":0},{"deltaTime":185,"channel":0,"type":"channel","subtype":"noteOff","noteNumber":36,"velocity":0},{"deltaTime":141,"channel":0,"type":"channel","subtype":"noteOff","noteNumber":56,"velocity":0},{"deltaTime":603,"channel":0,"type":"channel","subtype":"noteOff","noteNumber":24,"velocity":0},{"deltaTime":560,"channel":0,"type":"channel","noteNumber":31,"velocity":81,"subtype":"noteOn"},{"deltaTime":4574,"channel":0,"type":"channel","subtype":"noteOff","noteNumber":31,"velocity":0},{"deltaTime":1224,"channel":0,"type":"channel","noteNumber":24,"velocity":75,"subtype":"noteOn"},{"deltaTime":172,"channel":0,"type":"channel","noteNumber":48,"velocity":74,"subtype":"noteOn"},{"deltaTime":62,"channel":0,"type":"channel","noteNumber":36,"velocity":74,"subtype":"noteOn"},{"deltaTime":184,"channel":0,"type":"channel","noteNumber":54,"velocity":72,"subtype":"noteOn"},{"deltaTime":3505,"channel":0,"type":"channel","subtype":"noteOff","noteNumber":24,"velocity":0},{"deltaTime":388,"channel":0,"type":"channel","subtype":"noteOff","noteNumber":36,"velocity":0},{"deltaTime":448,"channel":0,"type":"channel","subtype":"noteOff","noteNumber":48,"velocity":0},{"deltaTime":173,"channel":0,"type":"channel","noteNumber":31,"velocity":69,"subtype":"noteOn"},{"deltaTime":153,"channel":0,"type":"channel","noteNumber":51,"velocity":71,"subtype":"noteOn"},{"deltaTime":530,"channel":0,"type":"channel","subtype":"noteOff","noteNumber":54,"velocity":0},{"deltaTime":3332,"channel":0,"type":"channel","subtype":"noteOff","noteNumber":51,"velocity":0},{"deltaTime":357,"channel":0,"type":"channel","subtype":"noteOff","noteNumber":31,"velocity":0},{"deltaTime":1131,"channel":0,"type":"channel","noteNumber":54,"velocity":69,"subtype":"noteOn"},{"deltaTime":111,"channel":0,"type":"channel","noteNumber":48,"velocity":80,"subtype":"noteOn"},{"deltaTime":185,"channel":0,"type":"channel","noteNumber":24,"velocity":71,"subtype":"noteOn"},{"deltaTime":122,"channel":0,"type":"channel","noteNumber":36,"velocity":77,"subtype":"noteOn"},{"deltaTime":3770,"channel":0,"type":"channel","subtype":"noteOff","noteNumber":48,"velocity":0},{"deltaTime":265,"channel":0,"type":"channel","subtype":"noteOff","noteNumber":36,"velocity":0},{"deltaTime":92,"channel":0,"type":"channel","subtype":"noteOff","noteNumber":24,"velocity":0},{"deltaTime":387,"channel":0,"type":"channel","noteNumber":51,"velocity":65,"subtype":"noteOn"},{"deltaTime":172,"channel":0,"type":"channel","noteNumber":31,"velocity":73,"subtype":"noteOn"},{"deltaTime":246,"channel":0,"type":"channel","subtype":"noteOff","noteNumber":54,"velocity":0},{"deltaTime":4096,"channel":0,"type":"channel","subtype":"noteOff","noteNumber":51,"velocity":0},{"deltaTime":357,"channel":0,"type":"channel","subtype":"noteOff","noteNumber":31,"velocity":0},{"deltaTime":1192,"channel":0,"type":"channel","noteNumber":24,"velocity":75,"subtype":"noteOn"},{"deltaTime":0,"channel":0,"type":"channel","subtype":"controller","controllerType":64,"value":56},{"deltaTime":204,"channel":0,"type":"channel","noteNumber":54,"velocity":77,"subtype":"noteOn"},{"deltaTime":184,"channel":0,"type":"channel","noteNumber":36,"velocity":74,"subtype":"noteOn"},{"deltaTime":110,"channel":0,"type":"channel","noteNumber":48,"velocity":75,"subtype":"noteOn"},{"deltaTime":246,"channel":0,"type":"channel","subtype":"controller","controllerType":64,"value":120},{"deltaTime":31,"channel":0,"type":"channel","subtype":"controller","controllerType":64,"value":127},{"deltaTime":3383,"channel":0,"type":"channel","subtype":"noteOff","noteNumber":24,"velocity":0},{"deltaTime":153,"channel":0,"type":"channel","subtype":"noteOff","noteNumber":36,"velocity":0},{"deltaTime":591,"channel":0,"type":"channel","noteNumber":49,"velocity":48,"subtype":"noteOn"},{"deltaTime":295,"channel":0,"type":"channel","subtype":"noteOff","noteNumber":54,"velocity":0},{"deltaTime":61,"channel":0,"type":"channel","noteNumber":31,"velocity":68,"subtype":"noteOn"},{"deltaTime":867,"channel":0,"type":"channel","subtype":"noteOff","noteNumber":48,"velocity":0},{"deltaTime":3290,"channel":0,"type":"channel","subtype":"controller","controllerType":64,"value":120},{"deltaTime":154,"channel":0,"type":"channel","subtype":"controller","controllerType":64,"value":56},{"deltaTime":92,"channel":0,"type":"channel","subtype":"controller","controllerType":64,"value":0},{"deltaTime":30,"channel":0,"type":"channel","subtype":"noteOff","noteNumber":31,"velocity":0},{"deltaTime":856,"channel":0,"type":"channel","subtype":"noteOff","noteNumber":49,"velocity":0},{"deltaTime":122,"channel":0,"type":"channel","noteNumber":25,"velocity":75,"subtype":"noteOn"},{"deltaTime":203,"channel":0,"type":"channel","noteNumber":37,"velocity":81,"subtype":"noteOn"},{"deltaTime":3629,"channel":0,"type":"channel","subtype":"controller","controllerType":64,"value":56},{"deltaTime":122,"channel":0,"type":"channel","subtype":"controller","controllerType":64,"value":120},{"deltaTime":31,"channel":0,"type":"channel","subtype":"controller","controllerType":64,"value":127},{"deltaTime":1181,"channel":0,"type":"channel","subtype":"noteOff","noteNumber":37,"velocity":0},{"deltaTime":62,"channel":0,"type":"channel","subtype":"noteOff","noteNumber":25,"velocity":0},{"deltaTime":92,"channel":0,"type":"channel","noteNumber":32,"velocity":60,"subtype":"noteOn"},{"deltaTime":1814,"channel":0,"type":"channel","noteNumber":48,"velocity":61,"subtype":"noteOn"},{"deltaTime":3984,"channel":0,"type":"channel","noteNumber":51,"velocity":74,"subtype":"noteOn"},{"deltaTime":142,"channel":0,"type":"channel","subtype":"noteOff","noteNumber":32,"velocity":0},{"deltaTime":92,"channel":0,"type":"channel","subtype":"noteOff","noteNumber":48,"velocity":0},{"deltaTime":1040,"channel":0,"type":"channel","noteNumber":36,"velocity":79,"subtype":"noteOn"},{"deltaTime":214,"channel":0,"type":"channel","noteNumber":24,"velocity":77,"subtype":"noteOn"},{"deltaTime":2017,"channel":0,"type":"channel","subtype":"noteOff","noteNumber":51,"velocity":0},{"deltaTime":2405,"channel":0,"type":"channel","subtype":"controller","controllerType":64,"value":64},{"deltaTime":61,"channel":0,"type":"channel","subtype":"controller","controllerType":64,"value":8},{"deltaTime":123,"channel":0,"type":"channel","subtype":"controller","controllerType":64,"value":0},{"deltaTime":80,"channel":0,"type":"channel","noteNumber":31,"velocity":78,"subtype":"noteOn"},{"deltaTime":185,"channel":0,"type":"channel","subtype":"noteOff","noteNumber":36,"velocity":0},{"deltaTime":202,"channel":0,"type":"channel","subtype":"noteOff","noteNumber":24,"velocity":0},{"deltaTime":2916,"channel":0,"type":"channel","subtype":"noteOff","noteNumber":31,"velocity":0},{"deltaTime":448,"channel":0,"type":"channel","subtype":"controller","controllerType":64,"value":56},{"deltaTime":123,"channel":0,"type":"channel","subtype":"controller","controllerType":64,"value":120},{"deltaTime":31,"channel":0,"type":"channel","subtype":"controller","controllerType":64,"value":127},{"deltaTime":947,"channel":0,"type":"channel","noteNumber":48,"velocity":70,"subtype":"noteOn"},{"deltaTime":5288,"channel":0,"type":"channel","noteNumber":51,"velocity":75,"subtype":"noteOn"},{"deltaTime":203,"channel":0,"type":"channel","noteNumber":56,"velocity":65,"subtype":"noteOn"},{"deltaTime":929,"channel":0,"type":"channel","subtype":"noteOff","noteNumber":48,"velocity":0},{"deltaTime":854,"channel":0,"type":"channel","subtype":"noteOff","noteNumber":56,"velocity":0},{"deltaTime":2712,"channel":0,"type":"channel","noteNumber":27,"velocity":79,"subtype":"noteOn"},{"deltaTime":172,"channel":0,"type":"channel","noteNumber":39,"velocity":81,"subtype":"noteOn"},{"deltaTime":1316,"channel":0,"type":"channel","subtype":"noteOff","noteNumber":51,"velocity":0},{"deltaTime":794,"channel":0,"type":"channel","subtype":"controller","controllerType":64,"value":120},{"deltaTime":154,"channel":0,"type":"channel","subtype":"controller","controllerType":64,"value":56},{"deltaTime":92,"channel":0,"type":"channel","subtype":"controller","controllerType":64,"value":0},{"deltaTime":2140,"channel":0,"type":"channel","noteNumber":34,"velocity":64,"subtype":"noteOn"},{"deltaTime":978,"channel":0,"type":"channel","subtype":"noteOff","noteNumber":39,"velocity":0},{"deltaTime":92,"channel":0,"type":"channel","subtype":"noteOff","noteNumber":27,"velocity":0},{"deltaTime":743,"channel":0,"type":"channel","subtype":"controller","controllerType":64,"value":56},{"deltaTime":111,"channel":0,"type":"channel","subtype":"controller","controllerType":64,"value":120},{"deltaTime":32,"channel":0,"type":"channel","subtype":"controller","controllerType":64,"value":127},{"deltaTime":3811,"channel":0,"type":"channel","subtype":"noteOff","noteNumber":34,"velocity":0},{"deltaTime":388,"channel":0,"type":"channel","noteNumber":28,"velocity":78,"subtype":"noteOn"},{"deltaTime":295,"channel":0,"type":"channel","noteNumber":40,"velocity":80,"subtype":"noteOn"},{"deltaTime":3057,"channel":0,"type":"channel","subtype":"controller","controllerType":64,"value":64},{"deltaTime":92,"channel":0,"type":"channel","subtype":"controller","controllerType":64,"value":0},{"deltaTime":2201,"channel":0,"type":"channel","subtype":"noteOff","noteNumber":40,"velocity":0},{"deltaTime":80,"channel":0,"type":"channel","noteNumber":56,"velocity":75,"subtype":"noteOn"},{"deltaTime":185,"channel":0,"type":"channel","noteNumber":48,"velocity":78,"subtype":"noteOn"},{"deltaTime":234,"channel":0,"type":"channel","noteNumber":51,"velocity":75,"subtype":"noteOn"},{"deltaTime":1906,"channel":0,"type":"channel","subtype":"controller","controllerType":64,"value":56},{"deltaTime":92,"channel":0,"type":"channel","subtype":"controller","controllerType":64,"value":120},{"deltaTime":30,"channel":0,"type":"channel","subtype":"controller","controllerType":64,"value":127},{"deltaTime":326,"channel":0,"type":"channel","subtype":"noteOff","noteNumber":28,"velocity":0},{"deltaTime":2018,"channel":0,"type":"channel","subtype":"noteOff","noteNumber":48,"velocity":0},{"deltaTime":387,"channel":0,"type":"channel","noteNumber":35,"velocity":81,"subtype":"noteOn"},{"deltaTime":1629,"channel":0,"type":"channel","subtype":"noteOff","noteNumber":51,"velocity":0},{"deltaTime":1285,"channel":0,"type":"channel","subtype":"noteOff","noteNumber":56,"velocity":0},{"deltaTime":622,"channel":0,"type":"channel","subtype":"noteOff","noteNumber":35,"velocity":0},{"deltaTime":1100,"channel":0,"type":"channel","noteNumber":51,"velocity":67,"subtype":"noteOn"},{"deltaTime":172,"channel":0,"type":"channel","noteNumber":58,"velocity":69,"subtype":"noteOn"},{"deltaTime":124,"channel":0,"type":"channel","noteNumber":48,"velocity":71,"subtype":"noteOn"},{"deltaTime":2680,"channel":0,"type":"channel","subtype":"noteOff","noteNumber":48,"velocity":0},{"deltaTime":1243,"channel":0,"type":"channel","subtype":"noteOff","noteNumber":51,"velocity":0},{"deltaTime":947,"channel":0,"type":"channel","subtype":"noteOff","noteNumber":58,"velocity":0},{"deltaTime":449,"channel":0,"type":"channel","noteNumber":26,"velocity":82,"subtype":"noteOn"},{"deltaTime":123,"channel":0,"type":"channel","noteNumber":38,"velocity":81,"subtype":"noteOn"},{"deltaTime":1211,"channel":0,"type":"channel","subtype":"controller","controllerType":64,"value":120},{"deltaTime":154,"channel":0,"type":"channel","subtype":"controller","controllerType":64,"value":56},{"deltaTime":92,"channel":0,"type":"channel","subtype":"controller","controllerType":64,"value":0},{"deltaTime":3739,"channel":0,"type":"channel","subtype":"noteOff","noteNumber":38,"velocity":0},{"deltaTime":602,"channel":0,"type":"channel","noteNumber":33,"velocity":76,"subtype":"noteOn"},{"deltaTime":326,"channel":0,"type":"channel","subtype":"controller","controllerType":64,"value":56},{"deltaTime":31,"channel":0,"type":"channel","subtype":"noteOff","noteNumber":26,"velocity":0},{"deltaTime":111,"channel":0,"type":"channel","subtype":"controller","controllerType":64,"value":120},{"deltaTime":31,"channel":0,"type":"channel","subtype":"controller","controllerType":64,"value":127},{"deltaTime":2232,"channel":0,"type":"channel","subtype":"noteOff","noteNumber":33,"velocity":0},{"deltaTime":1752,"channel":0,"type":"channel","noteNumber":61,"velocity":66,"subtype":"noteOn"},{"deltaTime":203,"channel":0,"type":"channel","noteNumber":50,"velocity":75,"subtype":"noteOn"},{"deltaTime":123,"channel":0,"type":"channel","noteNumber":54,"velocity":68,"subtype":"noteOn"},{"deltaTime":2374,"channel":0,"type":"channel","subtype":"noteOff","noteNumber":50,"velocity":0},{"deltaTime":2558,"channel":0,"type":"channel","noteNumber":30,"velocity":75,"subtype":"noteOn"},{"deltaTime":184,"channel":0,"type":"channel","noteNumber":42,"velocity":75,"subtype":"noteOn"},{"deltaTime":204,"channel":0,"type":"channel","subtype":"noteOff","noteNumber":54,"velocity":0},{"deltaTime":774,"channel":0,"type":"channel","subtype":"noteOff","noteNumber":61,"velocity":0},{"deltaTime":2466,"channel":0,"type":"channel","subtype":"controller","controllerType":64,"value":120},{"deltaTime":153,"channel":0,"type":"channel","subtype":"controller","controllerType":64,"value":56},{"deltaTime":111,"channel":0,"type":"channel","subtype":"controller","controllerType":64,"value":0},{"deltaTime":1316,"channel":0,"type":"channel","noteNumber":37,"velocity":69,"subtype":"noteOn"},{"deltaTime":173,"channel":0,"type":"channel","subtype":"noteOff","noteNumber":42,"velocity":0},{"deltaTime":510,"channel":0,"type":"channel","subtype":"noteOff","noteNumber":30,"velocity":0},{"deltaTime":2761,"channel":0,"type":"channel","subtype":"controller","controllerType":64,"value":56},{"deltaTime":92,"channel":0,"type":"channel","subtype":"controller","controllerType":64,"value":120},{"deltaTime":31,"channel":0,"type":"channel","subtype":"controller","controllerType":64,"value":127},{"deltaTime":1986,"channel":0,"type":"channel","noteNumber":29,"velocity":75,"subtype":"noteOn"},{"deltaTime":326,"channel":0,"type":"channel","noteNumber":41,"velocity":78,"subtype":"noteOn"},{"deltaTime":744,"channel":0,"type":"channel","subtype":"noteOff","noteNumber":37,"velocity":0},{"deltaTime":3536,"channel":0,"type":"channel","subtype":"controller","controllerType":64,"value":120},{"deltaTime":154,"channel":0,"type":"channel","subtype":"controller","controllerType":64,"value":56},{"deltaTime":91,"channel":0,"type":"channel","subtype":"controller","controllerType":64,"value":0},{"deltaTime":948,"channel":0,"type":"channel","noteNumber":37,"velocity":75,"subtype":"noteOn"},{"deltaTime":978,"channel":0,"type":"channel","subtype":"noteOff","noteNumber":29,"velocity":0},{"deltaTime":92,"channel":0,"type":"channel","noteNumber":36,"velocity":75,"subtype":"noteOn"},{"deltaTime":1518,"channel":0,"type":"channel","subtype":"noteOff","noteNumber":41,"velocity":0},{"deltaTime":1213,"channel":0,"type":"channel","subtype":"noteOff","noteNumber":37,"velocity":0},{"deltaTime":153,"channel":0,"type":"channel","subtype":"controller","controllerType":64,"value":56},{"deltaTime":141,"channel":0,"type":"channel","subtype":"controller","controllerType":64,"value":120},{"deltaTime":32,"channel":0,"type":"channel","subtype":"controller","controllerType":64,"value":127},{"deltaTime":30,"channel":0,"type":"channel","subtype":"noteOff","noteNumber":36,"velocity":0},{"deltaTime":1315,"channel":0,"type":"channel","noteNumber":53,"velocity":68,"subtype":"noteOn"},{"deltaTime":4686,"channel":0,"type":"channel","subtype":"noteOff","noteNumber":53,"velocity":0},{"deltaTime":216,"channel":0,"type":"channel","noteNumber":32,"velocity":78,"subtype":"noteOn"},{"deltaTime":172,"channel":0,"type":"channel","noteNumber":44,"velocity":84,"subtype":"noteOn"},{"deltaTime":1580,"channel":0,"type":"channel","noteNumber":34,"velocity":26,"subtype":"noteOn"},{"deltaTime":2140,"channel":0,"type":"channel","subtype":"controller","controllerType":64,"value":120},{"deltaTime":142,"channel":0,"type":"channel","subtype":"controller","controllerType":64,"value":56},{"deltaTime":62,"channel":0,"type":"channel","subtype":"controller","controllerType":64,"value":0},{"deltaTime":1284,"channel":0,"type":"channel","noteNumber":61,"velocity":73,"subtype":"noteOn"},{"deltaTime":204,"channel":0,"type":"channel","noteNumber":58,"velocity":75,"subtype":"noteOn"},{"deltaTime":91,"channel":0,"type":"channel","subtype":"noteOff","noteNumber":44,"velocity":0},{"deltaTime":142,"channel":0,"type":"channel","subtype":"noteOff","noteNumber":34,"velocity":0},{"deltaTime":480,"channel":0,"type":"channel","subtype":"noteOff","noteNumber":32,"velocity":0},{"deltaTime":2047,"channel":0,"type":"channel","subtype":"controller","controllerType":64,"value":56},{"deltaTime":123,"channel":0,"type":"channel","subtype":"controller","controllerType":64,"value":120},{"deltaTime":31,"channel":0,"type":"channel","subtype":"controller","controllerType":64,"value":127},{"deltaTime":529,"channel":0,"type":"channel","noteNumber":39,"velocity":55,"subtype":"noteOn"},{"deltaTime":1377,"channel":0,"type":"channel","subtype":"noteOff","noteNumber":58,"velocity":0},{"deltaTime":437,"channel":0,"type":"channel","subtype":"noteOff","noteNumber":61,"velocity":0},{"deltaTime":4169,"channel":0,"type":"channel","subtype":"noteOff","noteNumber":39,"velocity":0},{"deltaTime":499,"channel":0,"type":"channel","noteNumber":43,"velocity":85,"subtype":"noteOn"},{"deltaTime":184,"channel":0,"type":"channel","noteNumber":31,"velocity":83,"subtype":"noteOn"},{"deltaTime":5166,"channel":0,"type":"channel","subtype":"noteOff","noteNumber":43,"velocity":0},{"deltaTime":356,"channel":0,"type":"channel","noteNumber":38,"velocity":81,"subtype":"noteOn"},{"deltaTime":775,"channel":0,"type":"channel","subtype":"noteOff","noteNumber":31,"velocity":0},{"deltaTime":30,"channel":0,"type":"channel","subtype":"controller","controllerType":64,"value":120},{"deltaTime":154,"channel":0,"type":"channel","subtype":"controller","controllerType":64,"value":56},{"deltaTime":80,"channel":0,"type":"channel","subtype":"controller","controllerType":64,"value":0},{"deltaTime":3720,"channel":0,"type":"channel","subtype":"noteOff","noteNumber":38,"velocity":0},{"deltaTime":591,"channel":0,"type":"channel","subtype":"controller","controllerType":64,"value":56},{"deltaTime":123,"channel":0,"type":"channel","subtype":"controller","controllerType":64,"value":120},{"deltaTime":30,"channel":0,"type":"channel","noteNumber":56,"velocity":77,"subtype":"noteOn"},{"deltaTime":92,"channel":0,"type":"channel","subtype":"controller","controllerType":64,"value":127},{"deltaTime":4606,"channel":0,"type":"channel","subtype":"noteOff","noteNumber":56,"velocity":0},{"deltaTime":62,"channel":0,"type":"channel","noteNumber":27,"velocity":74,"subtype":"noteOn"},{"deltaTime":172,"channel":0,"type":"channel","noteNumber":39,"velocity":78,"subtype":"noteOn"},{"deltaTime":5085,"channel":0,"type":"channel","noteNumber":55,"velocity":78,"subtype":"noteOn"},{"deltaTime":326,"channel":0,"type":"channel","subtype":"controller","controllerType":64,"value":120},{"deltaTime":173,"channel":0,"type":"channel","subtype":"controller","controllerType":64,"value":56},{"deltaTime":62,"channel":0,"type":"channel","subtype":"controller","controllerType":64,"value":0},{"deltaTime":1039,"channel":0,"type":"channel","subtype":"noteOff","noteNumber":39,"velocity":0},{"deltaTime":1008,"channel":0,"type":"channel","subtype":"noteOff","noteNumber":27,"velocity":0},{"deltaTime":1132,"channel":0,"type":"channel","noteNumber":34,"velocity":68,"subtype":"noteOn"},{"deltaTime":448,"channel":0,"type":"channel","subtype":"noteOff","noteNumber":55,"velocity":0},{"deltaTime":590,"channel":0,"type":"channel","subtype":"noteOff","noteNumber":34,"velocity":0},{"deltaTime":990,"channel":0,"type":"channel","noteNumber":35,"velocity":55,"subtype":"noteOn"},{"deltaTime":499,"channel":0,"type":"channel","subtype":"controller","controllerType":64,"value":56},{"deltaTime":92,"channel":0,"type":"channel","subtype":"controller","controllerType":64,"value":120},{"deltaTime":31,"channel":0,"type":"channel","subtype":"controller","controllerType":64,"value":127},{"deltaTime":854,"channel":0,"type":"channel","subtype":"noteOff","noteNumber":35,"velocity":0},{"deltaTime":3395,"channel":0,"type":"channel","noteNumber":38,"velocity":78,"subtype":"noteOn"},{"deltaTime":4932,"channel":0,"type":"channel","subtype":"noteOff","noteNumber":38,"velocity":0},{"deltaTime":214,"channel":0,"type":"channel","noteNumber":34,"velocity":83,"subtype":"noteOn"},{"deltaTime":2578,"channel":0,"type":"channel","subtype":"controller","controllerType":64,"value":120},{"deltaTime":153,"channel":0,"type":"channel","subtype":"controller","controllerType":64,"value":56},{"deltaTime":92,"channel":0,"type":"channel","subtype":"controller","controllerType":64,"value":0},{"deltaTime":1396,"channel":0,"type":"channel","subtype":"noteOff","noteNumber":34,"velocity":0},{"deltaTime":1569,"channel":0,"type":"channel","noteNumber":54,"velocity":74,"subtype":"noteOn"},{"deltaTime":1580,"channel":0,"type":"channel","subtype":"controller","controllerType":64,"value":56},{"deltaTime":92,"channel":0,"type":"channel","subtype":"controller","controllerType":64,"value":120},{"deltaTime":30,"channel":0,"type":"channel","subtype":"controller","controllerType":64,"value":127},{"deltaTime":2639,"channel":0,"type":"channel","subtype":"noteOff","noteNumber":54,"velocity":0},{"deltaTime":866,"channel":0,"type":"channel","noteNumber":37,"velocity":88,"subtype":"noteOn"},{"deltaTime":143,"channel":0,"type":"channel","noteNumber":25,"velocity":84,"subtype":"noteOn"},{"deltaTime":3953,"channel":0,"type":"channel","noteNumber":53,"velocity":65,"subtype":"noteOn"},{"deltaTime":1642,"channel":0,"type":"channel","subtype":"noteOff","noteNumber":25,"velocity":0},{"deltaTime":49,"channel":0,"type":"channel","subtype":"noteOff","noteNumber":37,"velocity":0},{"deltaTime":1814,"channel":0,"type":"channel","subtype":"noteOff","noteNumber":53,"velocity":0},{"deltaTime":1783,"channel":0,"type":"channel","noteNumber":36,"velocity":80,"subtype":"noteOn"},{"deltaTime":185,"channel":0,"type":"channel","noteNumber":54,"velocity":69,"subtype":"noteOn"},{"deltaTime":1070,"channel":0,"type":"channel","noteNumber":24,"velocity":36,"subtype":"noteOn"},{"deltaTime":1365,"channel":0,"type":"channel","noteNumber":57,"velocity":75,"subtype":"noteOn"},{"deltaTime":123,"channel":0,"type":"channel","subtype":"noteOff","noteNumber":24,"velocity":0},{"deltaTime":1537,"channel":0,"type":"channel","subtype":"noteOff","noteNumber":54,"velocity":0},{"deltaTime":326,"channel":0,"type":"channel","subtype":"noteOff","noteNumber":36,"velocity":0},{"deltaTime":1734,"channel":0,"type":"channel","noteNumber":61,"velocity":39,"subtype":"noteOn"},{"deltaTime":1476,"channel":0,"type":"channel","subtype":"noteOff","noteNumber":61,"velocity":0},{"deltaTime":1489,"channel":0,"type":"channel","noteNumber":61,"velocity":64,"subtype":"noteOn"},{"deltaTime":1192,"channel":0,"type":"channel","subtype":"noteOff","noteNumber":57,"velocity":0},{"deltaTime":1906,"channel":0,"type":"channel","subtype":"controller","controllerType":64,"value":120},{"deltaTime":142,"channel":0,"type":"channel","subtype":"controller","controllerType":64,"value":56},{"deltaTime":92,"channel":0,"type":"channel","subtype":"controller","controllerType":64,"value":0},{"deltaTime":1692,"channel":0,"type":"channel","noteNumber":36,"velocity":82,"subtype":"noteOn"},{"deltaTime":356,"channel":0,"type":"channel","subtype":"noteOff","noteNumber":61,"velocity":0},{"deltaTime":62,"channel":0,"type":"channel","noteNumber":24,"velocity":82,"subtype":"noteOn"},{"deltaTime":4045,"channel":0,"type":"channel","noteNumber":52,"velocity":74,"subtype":"noteOn"},{"deltaTime":530,"channel":0,"type":"channel","subtype":"noteOff","noteNumber":24,"velocity":0},{"deltaTime":744,"channel":0,"type":"channel","subtype":"noteOff","noteNumber":36,"velocity":0},{"deltaTime":1396,"channel":0,"type":"channel","subtype":"controller","controllerType":64,"value":56},{"deltaTime":122,"channel":0,"type":"channel","subtype":"controller","controllerType":64,"value":120},{"deltaTime":31,"channel":0,"type":"channel","subtype":"controller","controllerType":64,"value":127},{"deltaTime":498,"channel":0,"type":"channel","subtype":"noteOff","noteNumber":52,"velocity":0},{"deltaTime":2294,"channel":0,"type":"channel","noteNumber":62,"velocity":79,"subtype":"noteOn"},{"deltaTime":234,"channel":0,"type":"channel","noteNumber":31,"velocity":74,"subtype":"noteOn"},{"deltaTime":92,"channel":0,"type":"channel","noteNumber":55,"velocity":83,"subtype":"noteOn"},{"deltaTime":3363,"channel":0,"type":"channel","subtype":"noteOff","noteNumber":62,"velocity":0},{"deltaTime":1243,"channel":0,"type":"channel","subtype":"noteOff","noteNumber":31,"velocity":0},{"deltaTime":184,"channel":0,"type":"channel","subtype":"noteOff","noteNumber":55,"velocity":0},{"deltaTime":793,"channel":0,"type":"channel","noteNumber":37,"velocity":77,"subtype":"noteOn"},{"deltaTime":450,"channel":0,"type":"channel","noteNumber":25,"velocity":52,"subtype":"noteOn"},{"deltaTime":2588,"channel":0,"type":"channel","subtype":"controller","controllerType":64,"value":120},{"deltaTime":142,"channel":0,"type":"channel","subtype":"controller","controllerType":64,"value":56},{"deltaTime":92,"channel":0,"type":"channel","subtype":"controller","controllerType":64,"value":0},{"deltaTime":1193,"channel":0,"type":"channel","subtype":"noteOff","noteNumber":25,"velocity":0},{"deltaTime":591,"channel":0,"type":"channel","subtype":"noteOff","noteNumber":37,"velocity":0},{"deltaTime":326,"channel":0,"type":"channel","noteNumber":32,"velocity":39,"subtype":"noteOn"},{"deltaTime":1161,"channel":0,"type":"channel","noteNumber":31,"velocity":39,"subtype":"noteOn"},{"deltaTime":1630,"channel":0,"type":"channel","subtype":"noteOff","noteNumber":31,"velocity":0},{"deltaTime":1285,"channel":0,"type":"channel","subtype":"noteOff","noteNumber":32,"velocity":0},{"deltaTime":1070,"channel":0,"type":"channel","noteNumber":63,"velocity":74,"subtype":"noteOn"},{"deltaTime":172,"channel":0,"type":"channel","noteNumber":51,"velocity":84,"subtype":"noteOn"},{"deltaTime":185,"channel":0,"type":"channel","noteNumber":55,"velocity":75,"subtype":"noteOn"},{"deltaTime":2312,"channel":0,"type":"channel","subtype":"controller","controllerType":64,"value":56},{"deltaTime":92,"channel":0,"type":"channel","subtype":"controller","controllerType":64,"value":120},{"deltaTime":31,"channel":0,"type":"channel","subtype":"controller","controllerType":64,"value":127},{"deltaTime":2466,"channel":0,"type":"channel","noteNumber":24,"velocity":74,"subtype":"noteOn"},{"deltaTime":123,"channel":0,"type":"channel","noteNumber":36,"velocity":75,"subtype":"noteOn"},{"deltaTime":744,"channel":0,"type":"channel","subtype":"noteOff","noteNumber":51,"velocity":0},{"deltaTime":326,"channel":0,"type":"channel","subtype":"noteOff","noteNumber":55,"velocity":0},{"deltaTime":652,"channel":0,"type":"channel","subtype":"noteOff","noteNumber":63,"velocity":0},{"deltaTime":2527,"channel":0,"type":"channel","subtype":"noteOff","noteNumber":36,"velocity":0},{"deltaTime":560,"channel":0,"type":"channel","subtype":"noteOff","noteNumber":24,"velocity":0},{"deltaTime":153,"channel":0,"type":"channel","noteNumber":61,"velocity":66,"subtype":"noteOn"},{"deltaTime":265,"channel":0,"type":"channel","noteNumber":32,"velocity":70,"subtype":"noteOn"},{"deltaTime":184,"channel":0,"type":"channel","noteNumber":55,"velocity":64,"subtype":"noteOn"},{"deltaTime":1863,"channel":0,"type":"channel","noteNumber":31,"velocity":41,"subtype":"noteOn"},{"deltaTime":1458,"channel":0,"type":"channel","subtype":"noteOff","noteNumber":31,"velocity":0},{"deltaTime":92,"channel":0,"type":"channel","subtype":"noteOff","noteNumber":32,"velocity":0},{"deltaTime":1488,"channel":0,"type":"channel","subtype":"noteOff","noteNumber":61,"velocity":0},{"deltaTime":265,"channel":0,"type":"channel","noteNumber":52,"velocity":84,"subtype":"noteOn"},{"deltaTime":184,"channel":0,"type":"channel","subtype":"noteOff","noteNumber":55,"velocity":0},{"deltaTime":111,"channel":0,"type":"channel","noteNumber":25,"velocity":61,"subtype":"noteOn"},{"deltaTime":245,"channel":0,"type":"channel","noteNumber":63,"velocity":50,"subtype":"noteOn"},{"deltaTime":173,"channel":0,"type":"channel","noteNumber":37,"velocity":75,"subtype":"noteOn"},{"deltaTime":264,"channel":0,"type":"channel","subtype":"controller","controllerType":64,"value":64},{"deltaTime":93,"channel":0,"type":"channel","subtype":"controller","controllerType":64,"value":0},{"deltaTime":326,"channel":0,"type":"channel","noteNumber":64,"velocity":40,"subtype":"noteOn"},{"deltaTime":510,"channel":0,"type":"channel","noteNumber":62,"velocity":28,"subtype":"noteOn"},{"deltaTime":1457,"channel":0,"type":"channel","subtype":"noteOff","noteNumber":64,"velocity":0},{"deltaTime":111,"channel":0,"type":"channel","subtype":"noteOff","noteNumber":62,"velocity":0},{"deltaTime":541,"channel":0,"type":"channel","subtype":"noteOff","noteNumber":63,"velocity":0},{"deltaTime":357,"channel":0,"type":"channel","subtype":"noteOff","noteNumber":52,"velocity":0},{"deltaTime":713,"channel":0,"type":"channel","subtype":"noteOff","noteNumber":25,"velocity":0},{"deltaTime":448,"channel":0,"type":"channel","subtype":"noteOff","noteNumber":37,"velocity":0},{"deltaTime":763,"channel":0,"type":"channel","noteNumber":32,"velocity":64,"subtype":"noteOn"},{"deltaTime":3659,"channel":0,"type":"channel","subtype":"noteOff","noteNumber":32,"velocity":0},{"deltaTime":541,"channel":0,"type":"channel","noteNumber":51,"velocity":88,"subtype":"noteOn"},{"deltaTime":265,"channel":0,"type":"channel","noteNumber":63,"velocity":79,"subtype":"noteOn"},{"deltaTime":947,"channel":0,"type":"channel","noteNumber":24,"velocity":79,"subtype":"noteOn"},{"deltaTime":184,"channel":0,"type":"channel","noteNumber":36,"velocity":81,"subtype":"noteOn"},{"deltaTime":621,"channel":0,"type":"channel","subtype":"controller","controllerType":64,"value":56},{"deltaTime":92,"channel":0,"type":"channel","subtype":"controller","controllerType":64,"value":120},{"deltaTime":31,"channel":0,"type":"channel","subtype":"controller","controllerType":64,"value":127},{"deltaTime":2639,"channel":0,"type":"channel","subtype":"noteOff","noteNumber":51,"velocity":0},{"deltaTime":1038,"channel":0,"type":"channel","noteNumber":32,"velocity":73,"subtype":"noteOn"},{"deltaTime":124,"channel":0,"type":"channel","subtype":"noteOff","noteNumber":24,"velocity":0},{"deltaTime":92,"channel":0,"type":"channel","noteNumber":55,"velocity":69,"subtype":"noteOn"},{"deltaTime":203,"channel":0,"type":"channel","subtype":"noteOff","noteNumber":63,"velocity":0},{"deltaTime":541,"channel":0,"type":"channel","subtype":"noteOff","noteNumber":36,"velocity":0},{"deltaTime":2883,"channel":0,"type":"channel","subtype":"controller","controllerType":64,"value":120},{"deltaTime":173,"channel":0,"type":"channel","subtype":"controller","controllerType":64,"value":56},{"deltaTime":92,"channel":0,"type":"channel","subtype":"controller","controllerType":64,"value":0},{"deltaTime":529,"channel":0,"type":"channel","subtype":"noteOff","noteNumber":32,"velocity":0},{"deltaTime":775,"channel":0,"type":"channel","subtype":"noteOff","noteNumber":55,"velocity":0},{"deltaTime":4575,"channel":0,"type":"channel","noteNumber":63,"velocity":75,"subtype":"noteOn"},{"deltaTime":154,"channel":0,"type":"channel","noteNumber":52,"velocity":75,"subtype":"noteOn"},{"deltaTime":122,"channel":0,"type":"channel","noteNumber":32,"velocity":70,"subtype":"noteOn"},{"deltaTime":3954,"channel":0,"type":"channel","subtype":"noteOff","noteNumber":52,"velocity":0},{"deltaTime":652,"channel":0,"type":"channel","subtype":"noteOff","noteNumber":63,"velocity":0},{"deltaTime":296,"channel":0,"type":"channel","noteNumber":55,"velocity":65,"subtype":"noteOn"},{"deltaTime":448,"channel":0,"type":"channel","noteNumber":37,"velocity":78,"subtype":"noteOn"},{"deltaTime":204,"channel":0,"type":"channel","noteNumber":25,"velocity":61,"subtype":"noteOn"},{"deltaTime":387,"channel":0,"type":"channel","subtype":"noteOff","noteNumber":32,"velocity":0},{"deltaTime":3118,"channel":0,"type":"channel","subtype":"controller","controllerType":64,"value":56},{"deltaTime":92,"channel":0,"type":"channel","subtype":"controller","controllerType":64,"value":120},{"deltaTime":31,"channel":0,"type":"channel","subtype":"controller","controllerType":64,"value":127},{"deltaTime":498,"channel":0,"type":"channel","noteNumber":32,"velocity":62,"subtype":"noteOn"},{"deltaTime":387,"channel":0,"type":"channel","noteNumber":63,"velocity":75,"subtype":"noteOn"},{"deltaTime":184,"channel":0,"type":"channel","subtype":"noteOff","noteNumber":37,"velocity":0},{"deltaTime":62,"channel":0,"type":"channel","subtype":"noteOff","noteNumber":25,"velocity":0},{"deltaTime":30,"channel":0,"type":"channel","noteNumber":52,"velocity":80,"subtype":"noteOn"},{"deltaTime":652,"channel":0,"type":"channel","subtype":"noteOff","noteNumber":55,"velocity":0},{"deltaTime":2048,"channel":0,"type":"channel","subtype":"noteOff","noteNumber":63,"velocity":0},{"deltaTime":867,"channel":0,"type":"channel","subtype":"noteOff","noteNumber":52,"velocity":0},{"deltaTime":917,"channel":0,"type":"channel","subtype":"noteOff","noteNumber":32,"velocity":0},{"deltaTime":805,"channel":0,"type":"channel","noteNumber":24,"velocity":75,"subtype":"noteOn"},{"deltaTime":173,"channel":0,"type":"channel","noteNumber":62,"velocity":70,"subtype":"noteOn"},{"deltaTime":122,"channel":0,"type":"channel","noteNumber":36,"velocity":78,"subtype":"noteOn"},{"deltaTime":203,"channel":0,"type":"channel","noteNumber":52,"velocity":62,"subtype":"noteOn"},{"deltaTime":3069,"channel":0,"type":"channel","subtype":"noteOff","noteNumber":52,"velocity":0},{"deltaTime":498,"channel":0,"type":"channel","subtype":"noteOff","noteNumber":62,"velocity":0},{"deltaTime":154,"channel":0,"type":"channel","subtype":"noteOff","noteNumber":36,"velocity":0},{"deltaTime":590,"channel":0,"type":"channel","noteNumber":55,"velocity":73,"subtype":"noteOn"},{"deltaTime":215,"channel":0,"type":"channel","noteNumber":31,"velocity":78,"subtype":"noteOn"},{"deltaTime":326,"channel":0,"type":"channel","subtype":"noteOff","noteNumber":24,"velocity":0},{"deltaTime":357,"channel":0,"type":"channel","subtype":"controller","controllerType":64,"value":120},{"deltaTime":141,"channel":0,"type":"channel","subtype":"controller","controllerType":64,"value":56},{"deltaTime":62,"channel":0,"type":"channel","subtype":"controller","controllerType":64,"value":0},{"deltaTime":3148,"channel":0,"type":"channel","subtype":"noteOff","noteNumber":31,"velocity":0},{"deltaTime":867,"channel":0,"type":"channel","subtype":"controller","controllerType":64,"value":56},{"deltaTime":92,"channel":0,"type":"channel","subtype":"controller","controllerType":64,"value":120},{"deltaTime":31,"channel":0,"type":"channel","subtype":"controller","controllerType":64,"value":127},{"deltaTime":437,"channel":0,"type":"channel","noteNumber":52,"velocity":78,"subtype":"noteOn"},{"deltaTime":479,"channel":0,"type":"channel","noteNumber":37,"velocity":69,"subtype":"noteOn"},{"deltaTime":184,"channel":0,"type":"channel","noteNumber":61,"velocity":73,"subtype":"noteOn"},{"deltaTime":357,"channel":0,"type":"channel","noteNumber":25,"velocity":31,"subtype":"noteOn"},{"deltaTime":591,"channel":0,"type":"channel","subtype":"noteOff","noteNumber":55,"velocity":0},{"deltaTime":1211,"channel":0,"type":"channel","subtype":"noteOff","noteNumber":52,"velocity":0},{"deltaTime":307,"channel":0,"type":"channel","subtype":"noteOff","noteNumber":25,"velocity":0},{"deltaTime":1335,"channel":0,"type":"channel","subtype":"noteOff","noteNumber":61,"velocity":0},{"deltaTime":591,"channel":0,"type":"channel","noteNumber":32,"velocity":71,"subtype":"noteOn"},{"deltaTime":184,"channel":0,"type":"channel","subtype":"noteOff","noteNumber":37,"velocity":0},{"deltaTime":1070,"channel":0,"type":"channel","noteNumber":55,"velocity":62,"subtype":"noteOn"},{"deltaTime":3210,"channel":0,"type":"channel","subtype":"noteOff","noteNumber":32,"velocity":0},{"deltaTime":264,"channel":0,"type":"channel","subtype":"noteOff","noteNumber":55,"velocity":0},{"deltaTime":388,"channel":0,"type":"channel","subtype":"controller","controllerType":64,"value":120},{"deltaTime":172,"channel":0,"type":"channel","subtype":"controller","controllerType":64,"value":56},{"deltaTime":123,"channel":0,"type":"channel","subtype":"controller","controllerType":64,"value":0},{"deltaTime":153,"channel":0,"type":"channel","noteNumber":58,"velocity":81,"subtype":"noteOn"},{"deltaTime":265,"channel":0,"type":"channel","noteNumber":51,"velocity":87,"subtype":"noteOn"},{"deltaTime":172,"channel":0,"type":"channel","noteNumber":37,"velocity":74,"subtype":"noteOn"},{"deltaTime":2528,"channel":0,"type":"channel","subtype":"noteOff","noteNumber":37,"velocity":0},{"deltaTime":1641,"channel":0,"type":"channel","noteNumber":32,"velocity":66,"subtype":"noteOn"},{"deltaTime":978,"channel":0,"type":"channel","subtype":"noteOff","noteNumber":51,"velocity":0},{"deltaTime":1193,"channel":0,"type":"channel","subtype":"noteOff","noteNumber":58,"velocity":0},{"deltaTime":2933,"channel":0,"type":"channel","subtype":"noteOff","noteNumber":32,"velocity":0},{"deltaTime":357,"channel":0,"type":"channel","noteNumber":52,"velocity":80,"subtype":"noteOn"},{"deltaTime":215,"channel":0,"type":"channel","noteNumber":55,"velocity":77,"subtype":"noteOn"},{"deltaTime":173,"channel":0,"type":"channel","noteNumber":36,"velocity":78,"subtype":"noteOn"},{"deltaTime":214,"channel":0,"type":"channel","noteNumber":24,"velocity":78,"subtype":"noteOn"},{"deltaTime":652,"channel":0,"type":"channel","subtype":"controller","controllerType":64,"value":56},{"deltaTime":142,"channel":0,"type":"channel","subtype":"controller","controllerType":64,"value":120},{"deltaTime":30,"channel":0,"type":"channel","subtype":"controller","controllerType":64,"value":127},{"deltaTime":1876,"channel":0,"type":"channel","subtype":"noteOff","noteNumber":52,"velocity":0},{"deltaTime":1132,"channel":0,"type":"channel","subtype":"noteOff","noteNumber":36,"velocity":0},{"deltaTime":356,"channel":0,"type":"channel","subtype":"noteOff","noteNumber":24,"velocity":0},{"deltaTime":357,"channel":0,"type":"channel","noteNumber":31,"velocity":66,"subtype":"noteOn"},{"deltaTime":357,"channel":0,"type":"channel","noteNumber":61,"velocity":69,"subtype":"noteOn"},{"deltaTime":2496,"channel":0,"type":"channel","subtype":"noteOff","noteNumber":55,"velocity":0},{"deltaTime":479,"channel":0,"type":"channel","subtype":"noteOff","noteNumber":31,"velocity":0},{"deltaTime":948,"channel":0,"type":"channel","subtype":"noteOff","noteNumber":61,"velocity":0},{"deltaTime":1008,"channel":0,"type":"channel","noteNumber":37,"velocity":75,"subtype":"noteOn"},{"deltaTime":184,"channel":0,"type":"channel","noteNumber":51,"velocity":84,"subtype":"noteOn"},{"deltaTime":204,"channel":0,"type":"channel","subtype":"controller","controllerType":64,"value":120},{"deltaTime":122,"channel":0,"type":"channel","subtype":"controller","controllerType":64,"value":56},{"deltaTime":31,"channel":0,"type":"channel","noteNumber":55,"velocity":43,"subtype":"noteOn"},{"deltaTime":142,"channel":0,"type":"channel","subtype":"controller","controllerType":64,"value":0},{"deltaTime":61,"channel":0,"type":"channel","noteNumber":58,"velocity":66,"subtype":"noteOn"},{"deltaTime":947,"channel":0,"type":"channel","subtype":"noteOff","noteNumber":55,"velocity":0},{"deltaTime":2977,"channel":0,"type":"channel","subtype":"noteOff","noteNumber":51,"velocity":0},{"deltaTime":1070,"channel":0,"type":"channel","subtype":"noteOff","noteNumber":37,"velocity":0},{"deltaTime":387,"channel":0,"type":"channel","subtype":"noteOff","noteNumber":58,"velocity":0},{"deltaTime":172,"channel":0,"type":"channel","noteNumber":32,"velocity":41,"subtype":"noteOn"},{"deltaTime":1377,"channel":0,"type":"channel","subtype":"noteOff","noteNumber":32,"velocity":0},{"deltaTime":3290,"channel":0,"type":"channel","noteNumber":50,"velocity":81,"subtype":"noteOn"},{"deltaTime":185,"channel":0,"type":"channel","noteNumber":58,"velocity":78,"subtype":"noteOn"},{"deltaTime":326,"channel":0,"type":"channel","noteNumber":55,"velocity":78,"subtype":"noteOn"},{"deltaTime":122,"channel":0,"type":"channel","noteNumber":25,"velocity":75,"subtype":"noteOn"},{"deltaTime":204,"channel":0,"type":"channel","noteNumber":37,"velocity":77,"subtype":"noteOn"},{"deltaTime":836,"channel":0,"type":"channel","subtype":"controller","controllerType":64,"value":56},{"deltaTime":80,"channel":0,"type":"channel","subtype":"controller","controllerType":64,"value":120},{"deltaTime":31,"channel":0,"type":"channel","subtype":"controller","controllerType":64,"value":127},{"deltaTime":805,"channel":0,"type":"channel","subtype":"noteOff","noteNumber":50,"velocity":0},{"deltaTime":2140,"channel":0,"type":"channel","noteNumber":32,"velocity":60,"subtype":"noteOn"},{"deltaTime":510,"channel":0,"type":"channel","subtype":"noteOff","noteNumber":37,"velocity":0},{"deltaTime":31,"channel":0,"type":"channel","subtype":"noteOff","noteNumber":25,"velocity":0},{"deltaTime":499,"channel":0,"type":"channel","subtype":"noteOff","noteNumber":32,"velocity":0},{"deltaTime":387,"channel":0,"type":"channel","noteNumber":61,"velocity":59,"subtype":"noteOn"},{"deltaTime":1101,"channel":0,"type":"channel","subtype":"noteOff","noteNumber":58,"velocity":0},{"deltaTime":1518,"channel":0,"type":"channel","subtype":"noteOff","noteNumber":55,"velocity":0},{"deltaTime":1458,"channel":0,"type":"channel","subtype":"noteOff","noteNumber":61,"velocity":0},{"deltaTime":947,"channel":0,"type":"channel","noteNumber":58,"velocity":31,"subtype":"noteOn"},{"deltaTime":123,"channel":0,"type":"channel","noteNumber":51,"velocity":82,"subtype":"noteOn"},{"deltaTime":713,"channel":0,"type":"channel","noteNumber":36,"velocity":31,"subtype":"noteOn"},{"deltaTime":1783,"channel":0,"type":"channel","subtype":"noteOff","noteNumber":36,"velocity":0},{"deltaTime":3026,"channel":0,"type":"channel","subtype":"noteOff","noteNumber":51,"velocity":0},{"deltaTime":418,"channel":0,"type":"channel","noteNumber":32,"velocity":75,"subtype":"noteOn"},{"deltaTime":479,"channel":0,"type":"channel","noteNumber":55,"velocity":69,"subtype":"noteOn"},{"deltaTime":2915,"channel":0,"type":"channel","subtype":"noteOff","noteNumber":58,"velocity":0},{"deltaTime":794,"channel":0,"type":"channel","subtype":"noteOff","noteNumber":55,"velocity":0},{"deltaTime":479,"channel":0,"type":"channel","subtype":"noteOff","noteNumber":32,"velocity":0},{"deltaTime":1132,"channel":0,"type":"channel","noteNumber":24,"velocity":75,"subtype":"noteOn"},{"deltaTime":448,"channel":0,"type":"channel","noteNumber":36,"velocity":84,"subtype":"noteOn"},{"deltaTime":683,"channel":0,"type":"channel","noteNumber":25,"velocity":48,"subtype":"noteOn"},{"deltaTime":1070,"channel":0,"type":"channel","subtype":"noteOff","noteNumber":25,"velocity":0},{"deltaTime":2313,"channel":0,"type":"channel","subtype":"noteOff","noteNumber":36,"velocity":0},{"deltaTime":571,"channel":0,"type":"channel","noteNumber":31,"velocity":78,"subtype":"noteOn"},{"deltaTime":437,"channel":0,"type":"channel","noteNumber":54,"velocity":78,"subtype":"noteOn"},{"deltaTime":123,"channel":0,"type":"channel","subtype":"noteOff","noteNumber":24,"velocity":0},{"deltaTime":3148,"channel":0,"type":"channel","subtype":"noteOff","noteNumber":54,"velocity":0},{"deltaTime":775,"channel":0,"type":"channel","subtype":"noteOff","noteNumber":31,"velocity":0},{"deltaTime":1009,"channel":0,"type":"channel","subtype":"controller","controllerType":64,"value":88},{"deltaTime":92,"channel":0,"type":"channel","subtype":"controller","controllerType":64,"value":24},{"deltaTime":92,"channel":0,"type":"channel","subtype":"controller","controllerType":64,"value":0},{"deltaTime":30,"channel":0,"type":"channel","noteNumber":25,"velocity":74,"subtype":"noteOn"},{"deltaTime":265,"channel":0,"type":"channel","noteNumber":37,"velocity":78,"subtype":"noteOn"},{"deltaTime":234,"channel":0,"type":"channel","noteNumber":54,"velocity":73,"subtype":"noteOn"},{"deltaTime":92,"channel":0,"type":"channel","noteNumber":62,"velocity":82,"subtype":"noteOn"},{"deltaTime":2281,"channel":0,"type":"channel","subtype":"noteOff","noteNumber":54,"velocity":0},{"deltaTime":1163,"channel":0,"type":"channel","subtype":"controller","controllerType":64,"value":56},{"deltaTime":92,"channel":0,"type":"channel","subtype":"controller","controllerType":64,"value":120},{"deltaTime":31,"channel":0,"type":"channel","subtype":"controller","controllerType":64,"value":127},{"deltaTime":234,"channel":0,"type":"channel","subtype":"noteOff","noteNumber":62,"velocity":0},{"deltaTime":479,"channel":0,"type":"channel","noteNumber":32,"velocity":57,"subtype":"noteOn"},{"deltaTime":123,"channel":0,"type":"channel","noteNumber":58,"velocity":67,"subtype":"noteOn"},{"deltaTime":560,"channel":0,"type":"channel","subtype":"noteOff","noteNumber":25,"velocity":0},{"deltaTime":172,"channel":0,"type":"channel","subtype":"noteOff","noteNumber":37,"velocity":0},{"deltaTime":4261,"channel":0,"type":"channel","subtype":"noteOff","noteNumber":32,"velocity":0},{"deltaTime":111,"channel":0,"type":"channel","subtype":"noteOff","noteNumber":58,"velocity":0},{"deltaTime":928,"channel":0,"type":"channel","noteNumber":62,"velocity":66,"subtype":"noteOn"},{"deltaTime":203,"channel":0,"type":"channel","noteNumber":53,"velocity":75,"subtype":"noteOn"},{"deltaTime":265,"channel":0,"type":"channel","noteNumber":24,"velocity":66,"subtype":"noteOn"},{"deltaTime":184,"channel":0,"type":"channel","noteNumber":36,"velocity":68,"subtype":"noteOn"},{"deltaTime":2405,"channel":0,"type":"channel","subtype":"noteOff","noteNumber":24,"velocity":0},{"deltaTime":233,"channel":0,"type":"channel","subtype":"noteOff","noteNumber":36,"velocity":0},{"deltaTime":31,"channel":0,"type":"channel","subtype":"noteOff","noteNumber":53,"velocity":0},{"deltaTime":510,"channel":0,"type":"channel","subtype":"noteOff","noteNumber":62,"velocity":0},{"deltaTime":1040,"channel":0,"type":"channel","noteNumber":31,"velocity":78,"subtype":"noteOn"},{"deltaTime":356,"channel":0,"type":"channel","noteNumber":55,"velocity":80,"subtype":"noteOn"},{"deltaTime":1193,"channel":0,"type":"channel","subtype":"controller","controllerType":64,"value":120},{"deltaTime":142,"channel":0,"type":"channel","subtype":"controller","controllerType":64,"value":56},{"deltaTime":61,"channel":0,"type":"channel","subtype":"controller","controllerType":64,"value":0},{"deltaTime":3118,"channel":0,"type":"channel","subtype":"noteOff","noteNumber":31,"velocity":0},{"deltaTime":449,"channel":0,"type":"channel","subtype":"controller","controllerType":64,"value":56},{"deltaTime":92,"channel":0,"type":"channel","subtype":"controller","controllerType":64,"value":120},{"deltaTime":31,"channel":0,"type":"channel","noteNumber":24,"velocity":78,"subtype":"noteOn"},{"deltaTime":203,"channel":0,"type":"channel","subtype":"controller","controllerType":64,"value":127},{"deltaTime":31,"channel":0,"type":"channel","noteNumber":36,"velocity":72,"subtype":"noteOn"},{"deltaTime":183,"channel":0,"type":"channel","subtype":"noteOff","noteNumber":55,"velocity":0},{"deltaTime":887,"channel":0,"type":"channel","noteNumber":35,"velocity":36,"subtype":"noteOn"},{"deltaTime":1487,"channel":0,"type":"channel","subtype":"noteOff","noteNumber":35,"velocity":0},{"deltaTime":1366,"channel":0,"type":"channel","subtype":"noteOff","noteNumber":36,"velocity":0},{"deltaTime":92,"channel":0,"type":"channel","subtype":"noteOff","noteNumber":24,"velocity":0},{"deltaTime":1070,"channel":0,"type":"channel","noteNumber":31,"velocity":66,"subtype":"noteOn"},{"deltaTime":498,"channel":0,"type":"channel","noteNumber":53,"velocity":81,"subtype":"noteOn"},{"deltaTime":215,"channel":0,"type":"channel","noteNumber":63,"velocity":75,"subtype":"noteOn"},{"deltaTime":3271,"channel":0,"type":"channel","subtype":"noteOff","noteNumber":53,"velocity":0},{"deltaTime":112,"channel":0,"type":"channel","subtype":"noteOff","noteNumber":31,"velocity":0},{"deltaTime":989,"channel":0,"type":"channel","subtype":"noteOff","noteNumber":63,"velocity":0},{"deltaTime":326,"channel":0,"type":"channel","noteNumber":37,"velocity":74,"subtype":"noteOn"},{"deltaTime":591,"channel":0,"type":"channel","noteNumber":55,"velocity":74,"subtype":"noteOn"},{"deltaTime":3271,"channel":0,"type":"channel","subtype":"noteOff","noteNumber":37,"velocity":0},{"deltaTime":418,"channel":0,"type":"channel","noteNumber":32,"velocity":75,"subtype":"noteOn"},{"deltaTime":1722,"channel":0,"type":"channel","noteNumber":53,"velocity":76,"subtype":"noteOn"},{"deltaTime":2017,"channel":0,"type":"channel","subtype":"noteOff","noteNumber":55,"velocity":0},{"deltaTime":357,"channel":0,"type":"channel","subtype":"noteOff","noteNumber":53,"velocity":0},{"deltaTime":1162,"channel":0,"type":"channel","subtype":"noteOff","noteNumber":32,"velocity":0},{"deltaTime":1100,"channel":0,"type":"channel","noteNumber":53,"velocity":83,"subtype":"noteOn"},{"deltaTime":204,"channel":0,"type":"channel","noteNumber":62,"velocity":84,"subtype":"noteOn"},{"deltaTime":184,"channel":0,"type":"channel","noteNumber":36,"velocity":82,"subtype":"noteOn"},{"deltaTime":142,"channel":0,"type":"channel","noteNumber":24,"velocity":82,"subtype":"noteOn"},{"deltaTime":184,"channel":0,"type":"channel","subtype":"controller","controllerType":64,"value":120},{"deltaTime":110,"channel":0,"type":"channel","subtype":"controller","controllerType":64,"value":56},{"deltaTime":93,"channel":0,"type":"channel","subtype":"controller","controllerType":64,"value":0},{"deltaTime":2976,"channel":0,"type":"channel","subtype":"controller","controllerType":64,"value":40},{"deltaTime":92,"channel":0,"type":"channel","subtype":"controller","controllerType":64,"value":96},{"deltaTime":49,"channel":0,"type":"channel","subtype":"controller","controllerType":64,"value":127},{"deltaTime":450,"channel":0,"type":"channel","subtype":"noteOff","noteNumber":53,"velocity":0},{"deltaTime":245,"channel":0,"type":"channel","subtype":"noteOff","noteNumber":36,"velocity":0},{"deltaTime":529,"channel":0,"type":"channel","subtype":"noteOff","noteNumber":24,"velocity":0},{"deltaTime":62,"channel":0,"type":"channel","noteNumber":31,"velocity":69,"subtype":"noteOn"},{"deltaTime":234,"channel":0,"type":"channel","subtype":"noteOff","noteNumber":62,"velocity":0},{"deltaTime":3781,"channel":0,"type":"channel","subtype":"noteOff","noteNumber":31,"velocity":0},{"deltaTime":1273,"channel":0,"type":"channel","noteNumber":37,"velocity":75,"subtype":"noteOn"},{"deltaTime":184,"channel":0,"type":"channel","noteNumber":51,"velocity":85,"subtype":"noteOn"},{"deltaTime":112,"channel":0,"type":"channel","noteNumber":60,"velocity":73,"subtype":"noteOn"},{"deltaTime":3301,"channel":0,"type":"channel","subtype":"controller","controllerType":64,"value":120},{"deltaTime":172,"channel":0,"type":"channel","subtype":"controller","controllerType":64,"value":56},{"deltaTime":62,"channel":0,"type":"channel","subtype":"controller","controllerType":64,"value":0},{"deltaTime":898,"channel":0,"type":"channel","subtype":"noteOff","noteNumber":51,"velocity":0},{"deltaTime":448,"channel":0,"type":"channel","noteNumber":58,"velocity":68,"subtype":"noteOn"},{"deltaTime":204,"channel":0,"type":"channel","subtype":"noteOff","noteNumber":60,"velocity":0},{"deltaTime":61,"channel":0,"type":"channel","subtype":"noteOff","noteNumber":37,"velocity":0},{"deltaTime":295,"channel":0,"type":"channel","noteNumber":52,"velocity":63,"subtype":"noteOn"},{"deltaTime":683,"channel":0,"type":"channel","noteNumber":32,"velocity":55,"subtype":"noteOn"},{"deltaTime":1629,"channel":0,"type":"channel","subtype":"controller","controllerType":64,"value":56},{"deltaTime":124,"channel":0,"type":"channel","subtype":"controller","controllerType":64,"value":120},{"deltaTime":30,"channel":0,"type":"channel","subtype":"noteOff","noteNumber":32,"velocity":0},{"deltaTime":31,"channel":0,"type":"channel","subtype":"controller","controllerType":64,"value":127},{"deltaTime":61,"channel":0,"type":"channel","subtype":"noteOff","noteNumber":52,"velocity":0},{"deltaTime":2202,"channel":0,"type":"channel","subtype":"noteOff","noteNumber":58,"velocity":0},{"deltaTime":1181,"channel":0,"type":"channel","noteNumber":36,"velocity":72,"subtype":"noteOn"},{"deltaTime":184,"channel":0,"type":"channel","noteNumber":38,"velocity":81,"subtype":"noteOn"},{"deltaTime":2374,"channel":0,"type":"channel","subtype":"noteOff","noteNumber":36,"velocity":0},{"deltaTime":418,"channel":0,"type":"channel","subtype":"noteOff","noteNumber":38,"velocity":0},{"deltaTime":1549,"channel":0,"type":"channel","noteNumber":52,"velocity":76,"subtype":"noteOn"},{"deltaTime":3179,"channel":0,"type":"channel","subtype":"noteOff","noteNumber":52,"velocity":0},{"deltaTime":2374,"channel":0,"type":"channel","noteNumber":58,"velocity":75,"subtype":"noteOn"},{"deltaTime":357,"channel":0,"type":"channel","noteNumber":55,"velocity":76,"subtype":"noteOn"},{"deltaTime":4126,"channel":0,"type":"channel","noteNumber":48,"velocity":73,"subtype":"noteOn"},{"deltaTime":123,"channel":0,"type":"channel","subtype":"noteOff","noteNumber":55,"velocity":0},{"deltaTime":480,"channel":0,"type":"channel","subtype":"noteOff","noteNumber":58,"velocity":0},{"deltaTime":4747,"channel":0,"type":"channel","noteNumber":49,"velocity":78,"subtype":"noteOn"},{"deltaTime":449,"channel":0,"type":"channel","subtype":"noteOff","noteNumber":48,"velocity":0},{"deltaTime":602,"channel":0,"type":"channel","subtype":"controller","controllerType":64,"value":120},{"deltaTime":142,"channel":0,"type":"channel","subtype":"controller","controllerType":64,"value":56},{"deltaTime":92,"channel":0,"type":"channel","subtype":"controller","controllerType":64,"value":0},{"deltaTime":4372,"channel":0,"type":"channel","subtype":"controller","controllerType":64,"value":56},{"deltaTime":31,"channel":0,"type":"channel","noteNumber":51,"velocity":73,"subtype":"noteOn"},{"deltaTime":172,"channel":0,"type":"channel","noteNumber":53,"velocity":78,"subtype":"noteOn"},{"deltaTime":203,"channel":0,"type":"channel","noteNumber":63,"velocity":66,"subtype":"noteOn"},{"deltaTime":93,"channel":0,"type":"channel","noteNumber":55,"velocity":74,"subtype":"noteOn"},{"deltaTime":294,"channel":0,"type":"channel","subtype":"controller","controllerType":64,"value":120},{"deltaTime":32,"channel":0,"type":"channel","subtype":"controller","controllerType":64,"value":127},{"deltaTime":713,"channel":0,"type":"channel","subtype":"noteOff","noteNumber":49,"velocity":0},{"deltaTime":1070,"channel":0,"type":"channel","subtype":"noteOff","noteNumber":53,"velocity":0},{"deltaTime":1641,"channel":0,"type":"channel","noteNumber":49,"velocity":52,"subtype":"noteOn"},{"deltaTime":234,"channel":0,"type":"channel","subtype":"noteOff","noteNumber":63,"velocity":0},{"deltaTime":683,"channel":0,"type":"channel","subtype":"noteOff","noteNumber":51,"velocity":0},{"deltaTime":31,"channel":0,"type":"channel","subtype":"noteOff","noteNumber":55,"velocity":0},{"deltaTime":1487,"channel":0,"type":"channel","noteNumber":48,"velocity":59,"subtype":"noteOn"},{"deltaTime":1305,"channel":0,"type":"channel","subtype":"noteOff","noteNumber":49,"velocity":0},{"deltaTime":2975,"channel":0,"type":"channel","noteNumber":53,"velocity":75,"subtype":"noteOn"},{"deltaTime":172,"channel":0,"type":"channel","noteNumber":51,"velocity":73,"subtype":"noteOn"},{"deltaTime":1194,"channel":0,"type":"channel","subtype":"noteOff","noteNumber":48,"velocity":0},{"deltaTime":2619,"channel":0,"type":"channel","subtype":"noteOff","noteNumber":53,"velocity":0},{"deltaTime":1365,"channel":0,"type":"channel","subtype":"noteOff","noteNumber":51,"velocity":0},{"deltaTime":142,"channel":0,"type":"channel","noteNumber":62,"velocity":78,"subtype":"noteOn"},{"deltaTime":123,"channel":0,"type":"channel","noteNumber":47,"velocity":69,"subtype":"noteOn"},{"deltaTime":184,"channel":0,"type":"channel","noteNumber":55,"velocity":74,"subtype":"noteOn"},{"deltaTime":1365,"channel":0,"type":"channel","subtype":"controller","controllerType":64,"value":56},{"deltaTime":62,"channel":0,"type":"channel","subtype":"controller","controllerType":64,"value":0},{"deltaTime":3535,"channel":0,"type":"channel","noteNumber":49,"velocity":61,"subtype":"noteOn"},{"deltaTime":388,"channel":0,"type":"channel","subtype":"controller","controllerType":64,"value":56},{"deltaTime":142,"channel":0,"type":"channel","subtype":"controller","controllerType":64,"value":120},{"deltaTime":31,"channel":0,"type":"channel","subtype":"noteOff","noteNumber":62,"velocity":0},{"deltaTime":0,"channel":0,"type":"channel","subtype":"controller","controllerType":64,"value":127},{"deltaTime":122,"channel":0,"type":"channel","subtype":"noteOff","noteNumber":55,"velocity":0},{"deltaTime":111,"channel":0,"type":"channel","subtype":"noteOff","noteNumber":47,"velocity":0},{"deltaTime":4342,"channel":0,"type":"channel","noteNumber":53,"velocity":78,"subtype":"noteOn"},{"deltaTime":184,"channel":0,"type":"channel","noteNumber":51,"velocity":75,"subtype":"noteOn"},{"deltaTime":744,"channel":0,"type":"channel","subtype":"noteOff","noteNumber":49,"velocity":0},{"deltaTime":2964,"channel":0,"type":"channel","subtype":"noteOff","noteNumber":53,"velocity":0},{"deltaTime":1020,"channel":0,"type":"channel","noteNumber":49,"velocity":58,"subtype":"noteOn"},{"deltaTime":652,"channel":0,"type":"channel","noteNumber":55,"velocity":78,"subtype":"noteOn"},{"deltaTime":204,"channel":0,"type":"channel","noteNumber":58,"velocity":75,"subtype":"noteOn"},{"deltaTime":946,"channel":0,"type":"channel","subtype":"noteOff","noteNumber":51,"velocity":0},{"deltaTime":3395,"channel":0,"type":"channel","noteNumber":51,"velocity":66,"subtype":"noteOn"},{"deltaTime":529,"channel":0,"type":"channel","subtype":"noteOff","noteNumber":58,"velocity":0},{"deltaTime":541,"channel":0,"type":"channel","subtype":"noteOff","noteNumber":55,"velocity":0},{"deltaTime":92,"channel":0,"type":"channel","subtype":"noteOff","noteNumber":49,"velocity":0},{"deltaTime":437,"channel":0,"type":"channel","subtype":"controller","controllerType":64,"value":120},{"deltaTime":153,"channel":0,"type":"channel","subtype":"controller","controllerType":64,"value":56},{"deltaTime":92,"channel":0,"type":"channel","subtype":"controller","controllerType":64,"value":0},{"deltaTime":3057,"channel":0,"type":"channel","noteNumber":46,"velocity":60,"subtype":"noteOn"},{"deltaTime":184,"channel":0,"type":"channel","subtype":"noteOff","noteNumber":51,"velocity":0},{"deltaTime":295,"channel":0,"type":"channel","noteNumber":53,"velocity":75,"subtype":"noteOn"},{"deltaTime":1876,"channel":0,"type":"channel","noteNumber":45,"velocity":33,"subtype":"noteOn"},{"deltaTime":713,"channel":0,"type":"channel","subtype":"controller","controllerType":64,"value":56},{"deltaTime":111,"channel":0,"type":"channel","subtype":"controller","controllerType":64,"value":120},{"deltaTime":31,"channel":0,"type":"channel","subtype":"controller","controllerType":64,"value":127},{"deltaTime":977,"channel":0,"type":"channel","subtype":"noteOff","noteNumber":45,"velocity":0},{"deltaTime":664,"channel":0,"type":"channel","subtype":"noteOff","noteNumber":53,"velocity":0},{"deltaTime":326,"channel":0,"type":"channel","subtype":"noteOff","noteNumber":46,"velocity":0},{"deltaTime":437,"channel":0,"type":"channel","noteNumber":49,"velocity":73,"subtype":"noteOn"},{"deltaTime":898,"channel":0,"type":"channel","noteNumber":58,"velocity":75,"subtype":"noteOn"},{"deltaTime":141,"channel":0,"type":"channel","noteNumber":55,"velocity":76,"subtype":"noteOn"},{"deltaTime":2915,"channel":0,"type":"channel","subtype":"noteOff","noteNumber":55,"velocity":0},{"deltaTime":928,"channel":0,"type":"channel","subtype":"noteOff","noteNumber":58,"velocity":0},{"deltaTime":855,"channel":0,"type":"channel","subtype":"noteOff","noteNumber":49,"velocity":0},{"deltaTime":277,"channel":0,"type":"channel","noteNumber":51,"velocity":66,"subtype":"noteOn"},{"deltaTime":3210,"channel":0,"type":"channel","noteNumber":49,"velocity":53,"subtype":"noteOn"},{"deltaTime":762,"channel":0,"type":"channel","subtype":"noteOff","noteNumber":51,"velocity":0},{"deltaTime":1814,"channel":0,"type":"channel","noteNumber":54,"velocity":75,"subtype":"noteOn"},{"deltaTime":4465,"channel":0,"type":"channel","noteNumber":58,"velocity":60,"subtype":"noteOn"},{"deltaTime":652,"channel":0,"type":"channel","noteNumber":53,"velocity":74,"subtype":"noteOn"},{"deltaTime":683,"channel":0,"type":"channel","subtype":"noteOff","noteNumber":54,"velocity":0},{"deltaTime":2262,"channel":0,"type":"channel","subtype":"noteOff","noteNumber":49,"velocity":0},{"deltaTime":2313,"channel":0,"type":"channel","subtype":"noteOff","noteNumber":58,"velocity":0},{"deltaTime":92,"channel":0,"type":"channel","noteNumber":54,"velocity":84,"subtype":"noteOn"},{"deltaTime":1783,"channel":0,"type":"channel","noteNumber":41,"velocity":67,"subtype":"noteOn"},{"deltaTime":3394,"channel":0,"type":"channel","subtype":"noteOff","noteNumber":41,"velocity":0},{"deltaTime":732,"channel":0,"type":"channel","noteNumber":58,"velocity":78,"subtype":"noteOn"},{"deltaTime":123,"channel":0,"type":"channel","subtype":"noteOff","noteNumber":54,"velocity":0},{"deltaTime":388,"channel":0,"type":"channel","noteNumber":49,"velocity":75,"subtype":"noteOn"},{"deltaTime":805,"channel":0,"type":"channel","subtype":"noteOff","noteNumber":53,"velocity":0},{"deltaTime":4157,"channel":0,"type":"channel","noteNumber":56,"velocity":89,"subtype":"noteOn"},{"deltaTime":215,"channel":0,"type":"channel","noteNumber":52,"velocity":79,"subtype":"noteOn"},{"deltaTime":111,"channel":0,"type":"channel","subtype":"noteOff","noteNumber":58,"velocity":0},{"deltaTime":602,"channel":0,"type":"channel","noteNumber":50,"velocity":69,"subtype":"noteOn"},{"deltaTime":468,"channel":0,"type":"channel","subtype":"noteOff","noteNumber":49,"velocity":0},{"deltaTime":92,"channel":0,"type":"channel","subtype":"controller","controllerType":64,"value":120},{"deltaTime":203,"channel":0,"type":"channel","subtype":"controller","controllerType":64,"value":56},{"deltaTime":92,"channel":0,"type":"channel","subtype":"controller","controllerType":64,"value":0},{"deltaTime":184,"channel":0,"type":"channel","subtype":"noteOff","noteNumber":50,"velocity":0},{"deltaTime":499,"channel":0,"type":"channel","noteNumber":40,"velocity":49,"subtype":"noteOn"},{"deltaTime":1162,"channel":0,"type":"channel","subtype":"noteOff","noteNumber":40,"velocity":0},{"deltaTime":1629,"channel":0,"type":"channel","noteNumber":58,"velocity":64,"subtype":"noteOn"},{"deltaTime":216,"channel":0,"type":"channel","noteNumber":47,"velocity":66,"subtype":"noteOn"},{"deltaTime":387,"channel":0,"type":"channel","subtype":"noteOff","noteNumber":52,"velocity":0},{"deltaTime":467,"channel":0,"type":"channel","noteNumber":63,"velocity":65,"subtype":"noteOn"},{"deltaTime":246,"channel":0,"type":"channel","subtype":"controller","controllerType":64,"value":56},{"deltaTime":111,"channel":0,"type":"channel","subtype":"controller","controllerType":64,"value":120},{"deltaTime":31,"channel":0,"type":"channel","subtype":"controller","controllerType":64,"value":127},{"deltaTime":123,"channel":0,"type":"channel","subtype":"noteOff","noteNumber":56,"velocity":0},{"deltaTime":2589,"channel":0,"type":"channel","subtype":"noteOff","noteNumber":58,"velocity":0},{"deltaTime":793,"channel":0,"type":"channel","noteNumber":40,"velocity":48,"subtype":"noteOn"},{"deltaTime":307,"channel":0,"type":"channel","subtype":"noteOff","noteNumber":47,"velocity":0},{"deltaTime":468,"channel":0,"type":"channel","noteNumber":56,"velocity":74,"subtype":"noteOn"},{"deltaTime":357,"channel":0,"type":"channel","noteNumber":52,"velocity":66,"subtype":"noteOn"},{"deltaTime":3068,"channel":0,"type":"channel","subtype":"noteOff","noteNumber":63,"velocity":0},{"deltaTime":560,"channel":0,"type":"channel","noteNumber":47,"velocity":74,"subtype":"noteOn"},{"deltaTime":326,"channel":0,"type":"channel","subtype":"noteOff","noteNumber":40,"velocity":0},{"deltaTime":264,"channel":0,"type":"channel","noteNumber":58,"velocity":66,"subtype":"noteOn"},{"deltaTime":184,"channel":0,"type":"channel","subtype":"noteOff","noteNumber":52,"velocity":0},{"deltaTime":591,"channel":0,"type":"channel","subtype":"noteOff","noteNumber":56,"velocity":0},{"deltaTime":3985,"channel":0,"type":"channel","subtype":"noteOff","noteNumber":47,"velocity":0},{"deltaTime":479,"channel":0,"type":"channel","subtype":"noteOff","noteNumber":58,"velocity":0},{"deltaTime":61,"channel":0,"type":"channel","noteNumber":57,"velocity":66,"subtype":"noteOn"},{"deltaTime":234,"channel":0,"type":"channel","noteNumber":51,"velocity":79,"subtype":"noteOn"},{"deltaTime":3333,"channel":0,"type":"channel","subtype":"controller","controllerType":64,"value":120},{"deltaTime":173,"channel":0,"type":"channel","subtype":"controller","controllerType":64,"value":56},{"deltaTime":92,"channel":0,"type":"channel","subtype":"controller","controllerType":64,"value":0},{"deltaTime":1630,"channel":0,"type":"channel","noteNumber":58,"velocity":70,"subtype":"noteOn"},{"deltaTime":183,"channel":0,"type":"channel","subtype":"noteOff","noteNumber":51,"velocity":0},{"deltaTime":92,"channel":0,"type":"channel","noteNumber":46,"velocity":61,"subtype":"noteOn"},{"deltaTime":204,"channel":0,"type":"channel","noteNumber":66,"velocity":66,"subtype":"noteOn"},{"deltaTime":172,"channel":0,"type":"channel","subtype":"noteOff","noteNumber":57,"velocity":0},{"deltaTime":2324,"channel":0,"type":"channel","subtype":"controller","controllerType":64,"value":48},{"deltaTime":123,"channel":0,"type":"channel","subtype":"controller","controllerType":64,"value":112},{"deltaTime":112,"channel":0,"type":"channel","subtype":"controller","controllerType":64,"value":127},{"deltaTime":294,"channel":0,"type":"channel","noteNumber":47,"velocity":25,"subtype":"noteOn"},{"deltaTime":959,"channel":0,"type":"channel","subtype":"noteOff","noteNumber":66,"velocity":0},{"deltaTime":173,"channel":0,"type":"channel","subtype":"noteOff","noteNumber":58,"velocity":0},{"deltaTime":357,"channel":0,"type":"channel","subtype":"noteOff","noteNumber":47,"velocity":0},{"deltaTime":387,"channel":0,"type":"channel","subtype":"noteOff","noteNumber":46,"velocity":0},{"deltaTime":31,"channel":0,"type":"channel","noteNumber":52,"velocity":80,"subtype":"noteOn"},{"deltaTime":1131,"channel":0,"type":"channel","noteNumber":56,"velocity":58,"subtype":"noteOn"},{"deltaTime":172,"channel":0,"type":"channel","noteNumber":54,"velocity":76,"subtype":"noteOn"},{"deltaTime":3210,"channel":0,"type":"channel","subtype":"noteOff","noteNumber":56,"velocity":0},{"deltaTime":215,"channel":0,"type":"channel","subtype":"noteOff","noteNumber":52,"velocity":0},{"deltaTime":744,"channel":0,"type":"channel","noteNumber":47,"velocity":69,"subtype":"noteOn"},{"deltaTime":142,"channel":0,"type":"channel","subtype":"noteOff","noteNumber":54,"velocity":0},{"deltaTime":388,"channel":0,"type":"channel","noteNumber":58,"velocity":64,"subtype":"noteOn"},{"deltaTime":245,"channel":0,"type":"channel","noteNumber":63,"velocity":48,"subtype":"noteOn"},{"deltaTime":1691,"channel":0,"type":"channel","subtype":"noteOff","noteNumber":63,"velocity":0},{"deltaTime":1692,"channel":0,"type":"channel","subtype":"noteOff","noteNumber":58,"velocity":0},{"deltaTime":61,"channel":0,"type":"channel","subtype":"noteOff","noteNumber":47,"velocity":0},{"deltaTime":1273,"channel":0,"type":"channel","noteNumber":54,"velocity":80,"subtype":"noteOn"},{"deltaTime":184,"channel":0,"type":"channel","noteNumber":52,"velocity":66,"subtype":"noteOn"},{"deltaTime":1457,"channel":0,"type":"channel","subtype":"controller","controllerType":64,"value":120},{"deltaTime":173,"channel":0,"type":"channel","subtype":"controller","controllerType":64,"value":56},{"deltaTime":61,"channel":0,"type":"channel","subtype":"controller","controllerType":64,"value":0},{"deltaTime":3272,"channel":0,"type":"channel","subtype":"noteOff","noteNumber":52,"velocity":0},{"deltaTime":202,"channel":0,"type":"channel","noteNumber":47,"velocity":73,"subtype":"noteOn"},{"deltaTime":124,"channel":0,"type":"channel","subtype":"noteOff","noteNumber":54,"velocity":0},{"deltaTime":264,"channel":0,"type":"channel","noteNumber":58,"velocity":66,"subtype":"noteOn"},{"deltaTime":184,"channel":0,"type":"channel","noteNumber":63,"velocity":60,"subtype":"noteOn"},{"deltaTime":4280,"channel":0,"type":"channel","subtype":"noteOff","noteNumber":63,"velocity":0},{"deltaTime":92,"channel":0,"type":"channel","subtype":"noteOff","noteNumber":58,"velocity":0},{"deltaTime":204,"channel":0,"type":"channel","subtype":"noteOff","noteNumber":47,"velocity":0},{"deltaTime":295,"channel":0,"type":"channel","subtype":"controller","controllerType":64,"value":40},{"deltaTime":123,"channel":0,"type":"channel","subtype":"controller","controllerType":64,"value":104},{"deltaTime":30,"channel":0,"type":"channel","noteNumber":40,"velocity":71,"subtype":"noteOn"},{"deltaTime":234,"channel":0,"type":"channel","subtype":"controller","controllerType":64,"value":127},{"deltaTime":62,"channel":0,"type":"channel","noteNumber":56,"velocity":84,"subtype":"noteOn"},{"deltaTime":5085,"channel":0,"type":"channel","noteNumber":47,"velocity":71,"subtype":"noteOn"},{"deltaTime":406,"channel":0,"type":"channel","noteNumber":66,"velocity":69,"subtype":"noteOn"},{"deltaTime":775,"channel":0,"type":"channel","subtype":"noteOff","noteNumber":40,"velocity":0},{"deltaTime":92,"channel":0,"type":"channel","subtype":"noteOff","noteNumber":56,"velocity":0},{"deltaTime":3118,"channel":0,"type":"channel","subtype":"noteOff","noteNumber":47,"velocity":0},{"deltaTime":805,"channel":0,"type":"channel","subtype":"noteOff","noteNumber":66,"velocity":0},{"deltaTime":357,"channel":0,"type":"channel","noteNumber":51,"velocity":82,"subtype":"noteOn"},{"deltaTime":123,"channel":0,"type":"channel","noteNumber":56,"velocity":74,"subtype":"noteOn"},{"deltaTime":4932,"channel":0,"type":"channel","subtype":"noteOff","noteNumber":51,"velocity":0},{"deltaTime":172,"channel":0,"type":"channel","noteNumber":66,"velocity":68,"subtype":"noteOn"},{"deltaTime":184,"channel":0,"type":"channel","noteNumber":47,"velocity":72,"subtype":"noteOn"},{"deltaTime":265,"channel":0,"type":"channel","subtype":"noteOff","noteNumber":56,"velocity":0},{"deltaTime":4544,"channel":0,"type":"channel","subtype":"noteOff","noteNumber":66,"velocity":0},{"deltaTime":449,"channel":0,"type":"channel","noteNumber":56,"velocity":81,"subtype":"noteOn"},{"deltaTime":479,"channel":0,"type":"channel","noteNumber":52,"velocity":56,"subtype":"noteOn"},{"deltaTime":142,"channel":0,"type":"channel","noteNumber":53,"velocity":52,"subtype":"noteOn"},{"deltaTime":184,"channel":0,"type":"channel","subtype":"noteOff","noteNumber":47,"velocity":0},{"deltaTime":2436,"channel":0,"type":"channel","subtype":"noteOff","noteNumber":53,"velocity":0},{"deltaTime":202,"channel":0,"type":"channel","subtype":"noteOff","noteNumber":56,"velocity":0},{"deltaTime":898,"channel":0,"type":"channel","subtype":"noteOff","noteNumber":52,"velocity":0},{"deltaTime":591,"channel":0,"type":"channel","noteNumber":47,"velocity":67,"subtype":"noteOn"},{"deltaTime":510,"channel":0,"type":"channel","noteNumber":63,"velocity":66,"subtype":"noteOn"},{"deltaTime":3597,"channel":0,"type":"channel","subtype":"noteOff","noteNumber":47,"velocity":0},{"deltaTime":498,"channel":0,"type":"channel","subtype":"noteOff","noteNumber":63,"velocity":0},{"deltaTime":990,"channel":0,"type":"channel","noteNumber":51,"velocity":82,"subtype":"noteOn"},{"deltaTime":112,"channel":0,"type":"channel","noteNumber":58,"velocity":84,"subtype":"noteOn"},{"deltaTime":1100,"channel":0,"type":"channel","subtype":"controller","controllerType":64,"value":120},{"deltaTime":123,"channel":0,"type":"channel","subtype":"controller","controllerType":64,"value":56},{"deltaTime":92,"channel":0,"type":"channel","subtype":"controller","controllerType":64,"value":0},{"deltaTime":3616,"channel":0,"type":"channel","noteNumber":47,"velocity":63,"subtype":"noteOn"},{"deltaTime":510,"channel":0,"type":"channel","subtype":"noteOff","noteNumber":51,"velocity":0},{"deltaTime":203,"channel":0,"type":"channel","noteNumber":70,"velocity":61,"subtype":"noteOn"},{"deltaTime":695,"channel":0,"type":"channel","subtype":"controller","controllerType":64,"value":56},{"deltaTime":80,"channel":0,"type":"channel","subtype":"controller","controllerType":64,"value":120},{"deltaTime":31,"channel":0,"type":"channel","subtype":"controller","controllerType":64,"value":127},{"deltaTime":571,"channel":0,"type":"channel","subtype":"noteOff","noteNumber":58,"velocity":0},{"deltaTime":2048,"channel":0,"type":"channel","subtype":"noteOff","noteNumber":70,"velocity":0},{"deltaTime":1304,"channel":0,"type":"channel","noteNumber":52,"velocity":67,"subtype":"noteOn"},{"deltaTime":510,"channel":0,"type":"channel","noteNumber":59,"velocity":66,"subtype":"noteOn"},{"deltaTime":1040,"channel":0,"type":"channel","subtype":"noteOff","noteNumber":47,"velocity":0},{"deltaTime":3566,"channel":0,"type":"channel","subtype":"noteOff","noteNumber":52,"velocity":0},{"deltaTime":326,"channel":0,"type":"channel","subtype":"noteOff","noteNumber":59,"velocity":0},{"deltaTime":775,"channel":0,"type":"channel","noteNumber":40,"velocity":73,"subtype":"noteOn"},{"deltaTime":356,"channel":0,"type":"channel","noteNumber":71,"velocity":55,"subtype":"noteOn"},{"deltaTime":4034,"channel":0,"type":"channel","subtype":"noteOff","noteNumber":40,"velocity":0},{"deltaTime":246,"channel":0,"type":"channel","subtype":"noteOff","noteNumber":71,"velocity":0},{"deltaTime":824,"channel":0,"type":"channel","noteNumber":68,"velocity":66,"subtype":"noteOn"},{"deltaTime":124,"channel":0,"type":"channel","noteNumber":47,"velocity":70,"subtype":"noteOn"},{"deltaTime":4606,"channel":0,"type":"channel","subtype":"noteOff","noteNumber":47,"velocity":0},{"deltaTime":540,"channel":0,"type":"channel","noteNumber":51,"velocity":66,"subtype":"noteOn"},{"deltaTime":204,"channel":0,"type":"channel","noteNumber":66,"velocity":60,"subtype":"noteOn"},{"deltaTime":387,"channel":0,"type":"channel","subtype":"noteOff","noteNumber":68,"velocity":0},{"deltaTime":3984,"channel":0,"type":"channel","subtype":"noteOff","noteNumber":51,"velocity":0},{"deltaTime":1427,"channel":0,"type":"channel","noteNumber":47,"velocity":59,"subtype":"noteOn"},{"deltaTime":479,"channel":0,"type":"channel","noteNumber":68,"velocity":66,"subtype":"noteOn"},{"deltaTime":2762,"channel":0,"type":"channel","subtype":"noteOff","noteNumber":66,"velocity":0},{"deltaTime":2558,"channel":0,"type":"channel","noteNumber":70,"velocity":63,"subtype":"noteOn"},{"deltaTime":560,"channel":0,"type":"channel","subtype":"noteOff","noteNumber":47,"velocity":0},{"deltaTime":590,"channel":0,"type":"channel","noteNumber":40,"velocity":40,"subtype":"noteOn"},{"deltaTime":184,"channel":0,"type":"channel","noteNumber":41,"velocity":41,"subtype":"noteOn"},{"deltaTime":1458,"channel":0,"type":"channel","subtype":"noteOff","noteNumber":68,"velocity":0},{"deltaTime":1924,"channel":0,"type":"channel","subtype":"noteOff","noteNumber":40,"velocity":0},{"deltaTime":154,"channel":0,"type":"channel","subtype":"noteOff","noteNumber":41,"velocity":0},{"deltaTime":1814,"channel":0,"type":"channel","noteNumber":61,"velocity":47,"subtype":"noteOn"},{"deltaTime":123,"channel":0,"type":"channel","noteNumber":47,"velocity":54,"subtype":"noteOn"},{"deltaTime":621,"channel":0,"type":"channel","subtype":"noteOff","noteNumber":70,"velocity":0},{"deltaTime":4606,"channel":0,"type":"channel","subtype":"noteOff","noteNumber":61,"velocity":0},{"deltaTime":498,"channel":0,"type":"channel","noteNumber":51,"velocity":45,"subtype":"noteOn"},{"deltaTime":185,"channel":0,"type":"channel","subtype":"noteOff","noteNumber":47,"velocity":0},{"deltaTime":744,"channel":0,"type":"channel","noteNumber":66,"velocity":44,"subtype":"noteOn"},{"deltaTime":5676,"channel":0,"type":"channel","subtype":"noteOff","noteNumber":66,"velocity":0},{"deltaTime":326,"channel":0,"type":"channel","subtype":"noteOff","noteNumber":51,"velocity":0},{"deltaTime":30,"channel":0,"type":"channel","noteNumber":47,"velocity":39,"subtype":"noteOn"},{"deltaTime":886,"channel":0,"type":"channel","noteNumber":68,"velocity":30,"subtype":"noteOn"},{"deltaTime":3689,"channel":0,"type":"channel","subtype":"noteOff","noteNumber":68,"velocity":0},{"deltaTime":264,"channel":0,"type":"channel","subtype":"noteOff","noteNumber":47,"velocity":0},{"deltaTime":2823,"channel":0,"type":"channel","noteNumber":63,"velocity":34,"subtype":"noteOn"},{"deltaTime":7133,"channel":0,"type":"channel","subtype":"noteOff","noteNumber":63,"velocity":0},{"deltaTime":1224,"channel":0,"type":"channel","noteNumber":70,"velocity":25,"subtype":"noteOn"},{"deltaTime":5227,"channel":0,"type":"channel","noteNumber":47,"velocity":1,"subtype":"noteOn"},{"deltaTime":2355,"channel":0,"type":"channel","noteNumber":49,"velocity":57,"subtype":"noteOn"},{"deltaTime":1568,"channel":0,"type":"channel","subtype":"noteOff","noteNumber":70,"velocity":0},{"deltaTime":7459,"channel":0,"type":"channel","noteNumber":54,"velocity":66,"subtype":"noteOn"},{"deltaTime":6217,"channel":0,"type":"channel","subtype":"noteOff","noteNumber":47,"velocity":0},{"deltaTime":775,"channel":0,"type":"channel","noteNumber":65,"velocity":71,"subtype":"noteOn"},{"deltaTime":141,"channel":0,"type":"channel","subtype":"noteOff","noteNumber":49,"velocity":0},{"deltaTime":2497,"channel":0,"type":"channel","subtype":"noteOff","noteNumber":54,"velocity":0},{"deltaTime":2650,"channel":0,"type":"channel","noteNumber":70,"velocity":64,"subtype":"noteOn"},{"deltaTime":5738,"channel":0,"type":"channel","noteNumber":77,"velocity":82,"subtype":"noteOn"},{"deltaTime":172,"channel":0,"type":"channel","noteNumber":46,"velocity":76,"subtype":"noteOn"},{"deltaTime":6278,"channel":0,"type":"channel","noteNumber":53,"velocity":68,"subtype":"noteOn"},{"deltaTime":204,"channel":0,"type":"channel","subtype":"noteOff","noteNumber":65,"velocity":0},{"deltaTime":3098,"channel":0,"type":"channel","subtype":"noteOff","noteNumber":70,"velocity":0},{"deltaTime":468,"channel":0,"type":"channel","subtype":"noteOff","noteNumber":77,"velocity":0},{"deltaTime":5024,"channel":0,"type":"channel","noteNumber":58,"velocity":83,"subtype":"noteOn"},{"deltaTime":1039,"channel":0,"type":"channel","subtype":"noteOff","noteNumber":46,"velocity":0},{"deltaTime":4108,"channel":0,"type":"channel","subtype":"noteOff","noteNumber":53,"velocity":0},{"deltaTime":824,"channel":0,"type":"channel","noteNumber":75,"velocity":78,"subtype":"noteOn"},{"deltaTime":1672,"channel":0,"type":"channel","subtype":"noteOff","noteNumber":58,"velocity":0},{"deltaTime":1365,"channel":0,"type":"channel","noteNumber":82,"velocity":66,"subtype":"noteOn"},{"deltaTime":4311,"channel":0,"type":"channel","noteNumber":54,"velocity":72,"subtype":"noteOn"},{"deltaTime":3333,"channel":0,"type":"channel","noteNumber":85,"velocity":60,"subtype":"noteOn"},{"deltaTime":1181,"channel":0,"type":"channel","noteNumber":59,"velocity":39,"subtype":"noteOn"},{"deltaTime":326,"channel":0,"type":"channel","subtype":"noteOff","noteNumber":82,"velocity":0},{"deltaTime":2976,"channel":0,"type":"channel","noteNumber":82,"velocity":60,"subtype":"noteOn"},{"deltaTime":1906,"channel":0,"type":"channel","noteNumber":87,"velocity":79,"subtype":"noteOn"},{"deltaTime":529,"channel":0,"type":"channel","subtype":"noteOff","noteNumber":54,"velocity":0},{"deltaTime":836,"channel":0,"type":"channel","subtype":"noteOff","noteNumber":85,"velocity":0},{"deltaTime":1427,"channel":0,"type":"channel","subtype":"noteOff","noteNumber":82,"velocity":0},{"deltaTime":61,"channel":0,"type":"channel","subtype":"noteOff","noteNumber":75,"velocity":0},{"deltaTime":4003,"channel":0,"type":"channel","subtype":"noteOff","noteNumber":59,"velocity":0},{"deltaTime":2091,"channel":0,"type":"channel","noteNumber":75,"velocity":59,"subtype":"noteOn"},{"deltaTime":713,"channel":0,"type":"channel","subtype":"noteOff","noteNumber":87,"velocity":0},{"deltaTime":1243,"channel":0,"type":"channel","noteNumber":82,"velocity":46,"subtype":"noteOn"},{"deltaTime":1223,"channel":0,"type":"channel","noteNumber":85,"velocity":66,"subtype":"noteOn"},{"deltaTime":1304,"channel":0,"type":"channel","subtype":"noteOff","noteNumber":75,"velocity":0},{"deltaTime":948,"channel":0,"type":"channel","subtype":"noteOff","noteNumber":82,"velocity":0},{"deltaTime":1813,"channel":0,"type":"channel","noteNumber":59,"velocity":52,"subtype":"noteOn"},{"deltaTime":3118,"channel":0,"type":"channel","noteNumber":75,"velocity":40,"subtype":"noteOn"},{"deltaTime":480,"channel":0,"type":"channel","subtype":"noteOff","noteNumber":85,"velocity":0},{"deltaTime":3474,"channel":0,"type":"channel","noteNumber":82,"velocity":46,"subtype":"noteOn"},{"deltaTime":2090,"channel":0,"type":"channel","subtype":"noteOff","noteNumber":75,"velocity":0},{"deltaTime":4096,"channel":0,"type":"channel","noteNumber":61,"velocity":48,"subtype":"noteOn"},{"deltaTime":1611,"channel":0,"type":"channel","subtype":"noteOff","noteNumber":59,"velocity":0},{"deltaTime":6795,"channel":0,"type":"channel","noteNumber":80,"velocity":58,"subtype":"noteOn"},{"deltaTime":1489,"channel":0,"type":"channel","subtype":"noteOff","noteNumber":82,"velocity":0},{"deltaTime":2108,"channel":0,"type":"channel","noteNumber":60,"velocity":51,"subtype":"noteOn"},{"deltaTime":898,"channel":0,"type":"channel","noteNumber":73,"velocity":40,"subtype":"noteOn"},{"deltaTime":805,"channel":0,"type":"channel","subtype":"noteOff","noteNumber":80,"velocity":0},{"deltaTime":388,"channel":0,"type":"channel","noteNumber":82,"velocity":55,"subtype":"noteOn"},{"deltaTime":4329,"channel":0,"type":"channel","subtype":"noteOff","noteNumber":73,"velocity":0},{"deltaTime":480,"channel":0,"type":"channel","subtype":"noteOff","noteNumber":61,"velocity":0},{"deltaTime":3769,"channel":0,"type":"channel","subtype":"noteOff","noteNumber":82,"velocity":0},{"deltaTime":450,"channel":0,"type":"channel","noteNumber":80,"velocity":53,"subtype":"noteOn"},{"deltaTime":1008,"channel":0,"type":"channel","noteNumber":61,"velocity":23,"subtype":"noteOn"},{"deltaTime":2711,"channel":0,"type":"channel","subtype":"noteOff","noteNumber":60,"velocity":0},{"deltaTime":2528,"channel":0,"type":"channel","subtype":"noteOff","noteNumber":80,"velocity":0},{"deltaTime":2048,"channel":0,"type":"channel","noteNumber":70,"velocity":52,"subtype":"noteOn"},{"deltaTime":7551,"channel":0,"type":"channel","subtype":"noteOff","noteNumber":70,"velocity":0},{"deltaTime":560,"channel":0,"type":"channel","noteNumber":66,"velocity":36,"subtype":"noteOn"},{"deltaTime":4574,"channel":0,"type":"channel","subtype":"noteOff","noteNumber":66,"velocity":0},{"deltaTime":2946,"channel":0,"type":"channel","subtype":"noteOff","noteNumber":61,"velocity":0},{"deltaTime":621,"channel":0,"type":"channel","noteNumber":63,"velocity":49,"subtype":"noteOn"},{"deltaTime":3241,"channel":0,"type":"channel","subtype":"noteOff","noteNumber":63,"velocity":0},{"deltaTime":3720,"channel":0,"type":"channel","noteNumber":54,"velocity":76,"subtype":"noteOn"},{"deltaTime":7337,"channel":0,"type":"channel","noteNumber":63,"velocity":69,"subtype":"noteOn"},{"deltaTime":4372,"channel":0,"type":"channel","subtype":"noteOff","noteNumber":54,"velocity":0},{"deltaTime":1691,"channel":0,"type":"channel","subtype":"noteOff","noteNumber":63,"velocity":0},{"deltaTime":571,"channel":0,"type":"channel","noteNumber":52,"velocity":76,"subtype":"noteOn"},{"deltaTime":326,"channel":0,"type":"channel","noteNumber":54,"velocity":66,"subtype":"noteOn"},{"deltaTime":886,"channel":0,"type":"channel","noteNumber":63,"velocity":30,"subtype":"noteOn"},{"deltaTime":1784,"channel":0,"type":"channel","subtype":"noteOff","noteNumber":63,"velocity":0},{"deltaTime":3424,"channel":0,"type":"channel","noteNumber":47,"velocity":75,"subtype":"noteOn"},{"deltaTime":203,"channel":0,"type":"channel","noteNumber":61,"velocity":76,"subtype":"noteOn"},{"deltaTime":1101,"channel":0,"type":"channel","subtype":"noteOff","noteNumber":52,"velocity":0},{"deltaTime":1101,"channel":0,"type":"channel","subtype":"noteOff","noteNumber":54,"velocity":0},{"deltaTime":4249,"channel":0,"type":"channel","noteNumber":63,"velocity":80,"subtype":"noteOn"},{"deltaTime":153,"channel":0,"type":"channel","noteNumber":56,"velocity":82,"subtype":"noteOn"},{"deltaTime":173,"channel":0,"type":"channel","subtype":"noteOff","noteNumber":61,"velocity":0},{"deltaTime":31,"channel":0,"type":"channel","noteNumber":40,"velocity":76,"subtype":"noteOn"},{"deltaTime":183,"channel":0,"type":"channel","subtype":"controller","controllerType":64,"value":120},{"deltaTime":143,"channel":0,"type":"channel","subtype":"controller","controllerType":64,"value":56},{"deltaTime":92,"channel":0,"type":"channel","subtype":"controller","controllerType":64,"value":0},{"deltaTime":2078,"channel":0,"type":"channel","subtype":"noteOff","noteNumber":47,"velocity":0},{"deltaTime":2232,"channel":0,"type":"channel","subtype":"controller","controllerType":64,"value":56},{"deltaTime":142,"channel":0,"type":"channel","subtype":"controller","controllerType":64,"value":127},{"deltaTime":571,"channel":0,"type":"channel","noteNumber":47,"velocity":64,"subtype":"noteOn"},{"deltaTime":1366,"channel":0,"type":"channel","subtype":"noteOff","noteNumber":40,"velocity":0},{"deltaTime":916,"channel":0,"type":"channel","subtype":"noteOff","noteNumber":56,"velocity":0},{"deltaTime":2528,"channel":0,"type":"channel","subtype":"noteOff","noteNumber":63,"velocity":0},{"deltaTime":682,"channel":0,"type":"channel","subtype":"noteOff","noteNumber":47,"velocity":0},{"deltaTime":1132,"channel":0,"type":"channel","noteNumber":51,"velocity":75,"subtype":"noteOn"},{"deltaTime":387,"channel":0,"type":"channel","noteNumber":66,"velocity":70,"subtype":"noteOn"},{"deltaTime":184,"channel":0,"type":"channel","noteNumber":61,"velocity":73,"subtype":"noteOn"},{"deltaTime":173,"channel":0,"type":"channel","noteNumber":56,"velocity":65,"subtype":"noteOn"},{"deltaTime":1426,"channel":0,"type":"channel","subtype":"noteOff","noteNumber":56,"velocity":0},{"deltaTime":4046,"channel":0,"type":"channel","subtype":"noteOff","noteNumber":51,"velocity":0},{"deltaTime":142,"channel":0,"type":"channel","noteNumber":47,"velocity":70,"subtype":"noteOn"},{"deltaTime":276,"channel":0,"type":"channel","noteNumber":63,"velocity":76,"subtype":"noteOn"},{"deltaTime":499,"channel":0,"type":"channel","subtype":"noteOff","noteNumber":66,"velocity":0},{"deltaTime":3148,"channel":0,"type":"channel","subtype":"noteOff","noteNumber":61,"velocity":0},{"deltaTime":2528,"channel":0,"type":"channel","noteNumber":58,"velocity":70,"subtype":"noteOn"},{"deltaTime":153,"channel":0,"type":"channel","noteNumber":66,"velocity":73,"subtype":"noteOn"},{"deltaTime":203,"channel":0,"type":"channel","noteNumber":52,"velocity":72,"subtype":"noteOn"},{"deltaTime":775,"channel":0,"type":"channel","subtype":"noteOff","noteNumber":47,"velocity":0},{"deltaTime":1611,"channel":0,"type":"channel","subtype":"controller","controllerType":64,"value":120},{"deltaTime":142,"channel":0,"type":"channel","subtype":"controller","controllerType":64,"value":56},{"deltaTime":92,"channel":0,"type":"channel","subtype":"controller","controllerType":64,"value":0},{"deltaTime":3025,"channel":0,"type":"channel","noteNumber":47,"velocity":70,"subtype":"noteOn"},{"deltaTime":480,"channel":0,"type":"channel","subtype":"noteOff","noteNumber":52,"velocity":0},{"deltaTime":1101,"channel":0,"type":"channel","subtype":"controller","controllerType":64,"value":56},{"deltaTime":91,"channel":0,"type":"channel","subtype":"controller","controllerType":64,"value":120},{"deltaTime":31,"channel":0,"type":"channel","subtype":"controller","controllerType":64,"value":127},{"deltaTime":2313,"channel":0,"type":"channel","subtype":"noteOff","noteNumber":63,"velocity":0},{"deltaTime":651,"channel":0,"type":"channel","subtype":"noteOff","noteNumber":58,"velocity":0},{"deltaTime":1876,"channel":0,"type":"channel","noteNumber":40,"velocity":69,"subtype":"noteOn"},{"deltaTime":184,"channel":0,"type":"channel","subtype":"noteOff","noteNumber":66,"velocity":0},{"deltaTime":49,"channel":0,"type":"channel","subtype":"noteOff","noteNumber":47,"velocity":0},{"deltaTime":93,"channel":0,"type":"channel","noteNumber":61,"velocity":75,"subtype":"noteOn"},{"deltaTime":215,"channel":0,"type":"channel","noteNumber":68,"velocity":77,"subtype":"noteOn"},{"deltaTime":5737,"channel":0,"type":"channel","noteNumber":59,"velocity":70,"subtype":"noteOn"},{"deltaTime":111,"channel":0,"type":"channel","subtype":"noteOff","noteNumber":68,"velocity":0},{"deltaTime":92,"channel":0,"type":"channel","subtype":"noteOff","noteNumber":40,"velocity":0},{"deltaTime":203,"channel":0,"type":"channel","noteNumber":47,"velocity":64,"subtype":"noteOn"},{"deltaTime":185,"channel":0,"type":"channel","noteNumber":66,"velocity":60,"subtype":"noteOn"},{"deltaTime":234,"channel":0,"type":"channel","subtype":"noteOff","noteNumber":61,"velocity":0},{"deltaTime":4851,"channel":0,"type":"channel","subtype":"noteOff","noteNumber":59,"velocity":0},{"deltaTime":1150,"channel":0,"type":"channel","subtype":"noteOff","noteNumber":66,"velocity":0},{"deltaTime":31,"channel":0,"type":"channel","noteNumber":63,"velocity":76,"subtype":"noteOn"},{"deltaTime":245,"channel":0,"type":"channel","noteNumber":59,"velocity":58,"subtype":"noteOn"},{"deltaTime":173,"channel":0,"type":"channel","noteNumber":44,"velocity":75,"subtype":"noteOn"},{"deltaTime":123,"channel":0,"type":"channel","noteNumber":61,"velocity":63,"subtype":"noteOn"},{"deltaTime":498,"channel":0,"type":"channel","subtype":"noteOff","noteNumber":47,"velocity":0},{"deltaTime":652,"channel":0,"type":"channel","subtype":"noteOff","noteNumber":61,"velocity":0},{"deltaTime":2946,"channel":0,"type":"channel","subtype":"controller","controllerType":64,"value":120},{"deltaTime":153,"channel":0,"type":"channel","subtype":"controller","controllerType":64,"value":56},{"deltaTime":61,"channel":0,"type":"channel","subtype":"controller","controllerType":64,"value":0},{"deltaTime":2854,"channel":0,"type":"channel","noteNumber":50,"velocity":63,"subtype":"noteOn"},{"deltaTime":1457,"channel":0,"type":"channel","subtype":"controller","controllerType":64,"value":56},{"deltaTime":49,"channel":0,"type":"channel","subtype":"noteOff","noteNumber":59,"velocity":0},{"deltaTime":93,"channel":0,"type":"channel","subtype":"controller","controllerType":64,"value":120},{"deltaTime":31,"channel":0,"type":"channel","subtype":"controller","controllerType":64,"value":127},{"deltaTime":3179,"channel":0,"type":"channel","subtype":"noteOff","noteNumber":50,"velocity":0},{"deltaTime":571,"channel":0,"type":"channel","noteNumber":61,"velocity":77,"subtype":"noteOn"},{"deltaTime":203,"channel":0,"type":"channel","noteNumber":66,"velocity":69,"subtype":"noteOn"},{"deltaTime":510,"channel":0,"type":"channel","noteNumber":56,"velocity":66,"subtype":"noteOn"},{"deltaTime":530,"channel":0,"type":"channel","noteNumber":59,"velocity":23,"subtype":"noteOn"},{"deltaTime":928,"channel":0,"type":"channel","subtype":"noteOff","noteNumber":63,"velocity":0},{"deltaTime":560,"channel":0,"type":"channel","subtype":"noteOff","noteNumber":59,"velocity":0},{"deltaTime":2884,"channel":0,"type":"channel","subtype":"noteOff","noteNumber":61,"velocity":0},{"deltaTime":1008,"channel":0,"type":"channel","subtype":"noteOff","noteNumber":66,"velocity":0},{"deltaTime":62,"channel":0,"type":"channel","noteNumber":51,"velocity":70,"subtype":"noteOn"},{"deltaTime":498,"channel":0,"type":"channel","subtype":"noteOff","noteNumber":56,"velocity":0},{"deltaTime":928,"channel":0,"type":"channel","subtype":"noteOff","noteNumber":44,"velocity":0},{"deltaTime":5228,"channel":0,"type":"channel","noteNumber":58,"velocity":69,"subtype":"noteOn"},{"deltaTime":294,"channel":0,"type":"channel","noteNumber":57,"velocity":39,"subtype":"noteOn"},{"deltaTime":185,"channel":0,"type":"channel","noteNumber":43,"velocity":56,"subtype":"noteOn"},{"deltaTime":172,"channel":0,"type":"channel","noteNumber":55,"velocity":55,"subtype":"noteOn"},{"deltaTime":184,"channel":0,"type":"channel","subtype":"noteOff","noteNumber":51,"velocity":0},{"deltaTime":62,"channel":0,"type":"channel","noteNumber":45,"velocity":47,"subtype":"noteOn"},{"deltaTime":1334,"channel":0,"type":"channel","subtype":"noteOff","noteNumber":45,"velocity":0},{"deltaTime":4016,"channel":0,"type":"channel","subtype":"noteOff","noteNumber":57,"velocity":0},{"deltaTime":172,"channel":0,"type":"channel","noteNumber":51,"velocity":73,"subtype":"noteOn"},{"deltaTime":184,"channel":0,"type":"channel","noteNumber":70,"velocity":78,"subtype":"noteOn"},{"deltaTime":948,"channel":0,"type":"channel","subtype":"noteOff","noteNumber":55,"velocity":0},{"deltaTime":1070,"channel":0,"type":"channel","subtype":"controller","controllerType":64,"value":120},{"deltaTime":153,"channel":0,"type":"channel","subtype":"controller","controllerType":64,"value":56},{"deltaTime":31,"channel":0,"type":"channel","subtype":"noteOff","noteNumber":43,"velocity":0},{"deltaTime":80,"channel":0,"type":"channel","subtype":"controller","controllerType":64,"value":0},{"deltaTime":31,"channel":0,"type":"channel","subtype":"noteOff","noteNumber":58,"velocity":0},{"deltaTime":3567,"channel":0,"type":"channel","noteNumber":55,"velocity":73,"subtype":"noteOn"},{"deltaTime":866,"channel":0,"type":"channel","subtype":"noteOff","noteNumber":70,"velocity":0},{"deltaTime":683,"channel":0,"type":"channel","subtype":"controller","controllerType":64,"value":56},{"deltaTime":92,"channel":0,"type":"channel","subtype":"controller","controllerType":64,"value":120},{"deltaTime":30,"channel":0,"type":"channel","subtype":"controller","controllerType":64,"value":127},{"deltaTime":81,"channel":0,"type":"channel","subtype":"noteOff","noteNumber":51,"velocity":0},{"deltaTime":4433,"channel":0,"type":"channel","subtype":"noteOff","noteNumber":55,"velocity":0},{"deltaTime":123,"channel":0,"type":"channel","noteNumber":51,"velocity":64,"subtype":"noteOn"},{"deltaTime":406,"channel":0,"type":"channel","noteNumber":61,"velocity":66,"subtype":"noteOn"},{"deltaTime":6156,"channel":0,"type":"channel","noteNumber":54,"velocity":73,"subtype":"noteOn"},{"deltaTime":123,"channel":0,"type":"channel","noteNumber":68,"velocity":72,"subtype":"noteOn"},{"deltaTime":560,"channel":0,"type":"channel","subtype":"noteOff","noteNumber":51,"velocity":0},{"deltaTime":1844,"channel":0,"type":"channel","subtype":"noteOff","noteNumber":61,"velocity":0},{"deltaTime":3363,"channel":0,"type":"channel","subtype":"noteOff","noteNumber":54,"velocity":0},{"deltaTime":80,"channel":0,"type":"channel","noteNumber":51,"velocity":73,"subtype":"noteOn"},{"deltaTime":3874,"channel":0,"type":"channel","subtype":"noteOff","noteNumber":51,"velocity":0},{"deltaTime":1446,"channel":0,"type":"channel","subtype":"noteOff","noteNumber":68,"velocity":0},{"deltaTime":1672,"channel":0,"type":"channel","noteNumber":60,"velocity":65,"subtype":"noteOn"},{"deltaTime":6155,"channel":0,"type":"channel","noteNumber":72,"velocity":80,"subtype":"noteOn"},{"deltaTime":2762,"channel":0,"type":"channel","subtype":"noteOff","noteNumber":60,"velocity":0},{"deltaTime":2435,"channel":0,"type":"channel","subtype":"noteOff","noteNumber":72,"velocity":0},{"deltaTime":683,"channel":0,"type":"channel","noteNumber":48,"velocity":82,"subtype":"noteOn"},{"deltaTime":326,"channel":0,"type":"channel","noteNumber":36,"velocity":78,"subtype":"noteOn"},{"deltaTime":4372,"channel":0,"type":"channel","subtype":"noteOff","noteNumber":48,"velocity":0},{"deltaTime":2078,"channel":0,"type":"channel","noteNumber":43,"velocity":64,"subtype":"noteOn"},{"deltaTime":184,"channel":0,"type":"channel","subtype":"noteOff","noteNumber":36,"velocity":0},{"deltaTime":19,"channel":0,"type":"channel","noteNumber":66,"velocity":61,"subtype":"noteOn"},{"deltaTime":1285,"channel":0,"type":"channel","noteNumber":78,"velocity":22,"subtype":"noteOn"},{"deltaTime":1691,"channel":0,"type":"channel","subtype":"noteOff","noteNumber":78,"velocity":0},{"deltaTime":867,"channel":0,"type":"channel","subtype":"noteOff","noteNumber":66,"velocity":0},{"deltaTime":652,"channel":0,"type":"channel","subtype":"noteOff","noteNumber":43,"velocity":0},{"deltaTime":1753,"channel":0,"type":"channel","noteNumber":65,"velocity":77,"subtype":"noteOn"},{"deltaTime":153,"channel":0,"type":"channel","noteNumber":77,"velocity":73,"subtype":"noteOn"},{"deltaTime":2435,"channel":0,"type":"channel","subtype":"noteOff","noteNumber":65,"velocity":0},{"deltaTime":917,"channel":0,"type":"channel","subtype":"noteOff","noteNumber":77,"velocity":0},{"deltaTime":3068,"channel":0,"type":"channel","noteNumber":66,"velocity":76,"subtype":"noteOn"},{"deltaTime":111,"channel":0,"type":"channel","noteNumber":78,"velocity":83,"subtype":"noteOn"},{"deltaTime":2589,"channel":0,"type":"channel","subtype":"noteOff","noteNumber":66,"velocity":0},{"deltaTime":448,"channel":0,"type":"channel","subtype":"noteOff","noteNumber":78,"velocity":0},{"deltaTime":3057,"channel":0,"type":"channel","noteNumber":70,"velocity":84,"subtype":"noteOn"},{"deltaTime":357,"channel":0,"type":"channel","noteNumber":82,"velocity":70,"subtype":"noteOn"},{"deltaTime":387,"channel":0,"type":"channel","noteNumber":80,"velocity":60,"subtype":"noteOn"},{"deltaTime":683,"channel":0,"type":"channel","subtype":"noteOff","noteNumber":82,"velocity":0},{"deltaTime":184,"channel":0,"type":"channel","noteNumber":36,"velocity":39,"subtype":"noteOn"},{"deltaTime":234,"channel":0,"type":"channel","noteNumber":24,"velocity":23,"subtype":"noteOn"},{"deltaTime":866,"channel":0,"type":"channel","subtype":"noteOff","noteNumber":70,"velocity":0},{"deltaTime":296,"channel":0,"type":"channel","subtype":"noteOff","noteNumber":80,"velocity":0},{"deltaTime":326,"channel":0,"type":"channel","subtype":"noteOff","noteNumber":36,"velocity":0},{"deltaTime":978,"channel":0,"type":"channel","subtype":"noteOff","noteNumber":24,"velocity":0},{"deltaTime":2435,"channel":0,"type":"channel","noteNumber":31,"velocity":78,"subtype":"noteOn"},{"deltaTime":1162,"channel":0,"type":"channel","noteNumber":82,"velocity":83,"subtype":"noteOn"},{"deltaTime":122,"channel":0,"type":"channel","noteNumber":73,"velocity":75,"subtype":"noteOn"},{"deltaTime":917,"channel":0,"type":"channel","subtype":"noteOff","noteNumber":82,"velocity":0},{"deltaTime":62,"channel":0,"type":"channel","subtype":"noteOff","noteNumber":73,"velocity":0},{"deltaTime":2496,"channel":0,"type":"channel","subtype":"noteOff","noteNumber":31,"velocity":0},{"deltaTime":2589,"channel":0,"type":"channel","noteNumber":24,"velocity":67,"subtype":"noteOn"},{"deltaTime":529,"channel":0,"type":"channel","noteNumber":36,"velocity":59,"subtype":"noteOn"},{"deltaTime":867,"channel":0,"type":"channel","noteNumber":73,"velocity":89,"subtype":"noteOn"},{"deltaTime":172,"channel":0,"type":"channel","noteNumber":85,"velocity":85,"subtype":"noteOn"},{"deltaTime":480,"channel":0,"type":"channel","noteNumber":35,"velocity":22,"subtype":"noteOn"},{"deltaTime":1334,"channel":0,"type":"channel","subtype":"noteOff","noteNumber":35,"velocity":0},{"deltaTime":1642,"channel":0,"type":"channel","subtype":"noteOff","noteNumber":36,"velocity":0},{"deltaTime":264,"channel":0,"type":"channel","subtype":"noteOff","noteNumber":73,"velocity":0},{"deltaTime":92,"channel":0,"type":"channel","subtype":"noteOff","noteNumber":24,"velocity":0},{"deltaTime":560,"channel":0,"type":"channel","subtype":"noteOff","noteNumber":85,"velocity":0},{"deltaTime":1599,"channel":0,"type":"channel","noteNumber":31,"velocity":68,"subtype":"noteOn"},{"deltaTime":4016,"channel":0,"type":"channel","subtype":"noteOff","noteNumber":31,"velocity":0},{"deltaTime":3720,"channel":0,"type":"channel","noteNumber":37,"velocity":82,"subtype":"noteOn"},{"deltaTime":172,"channel":0,"type":"channel","noteNumber":78,"velocity":98,"subtype":"noteOn"},{"deltaTime":184,"channel":0,"type":"channel","noteNumber":90,"velocity":81,"subtype":"noteOn"},{"deltaTime":326,"channel":0,"type":"channel","noteNumber":87,"velocity":66,"subtype":"noteOn"},{"deltaTime":1040,"channel":0,"type":"channel","subtype":"noteOff","noteNumber":87,"velocity":0},{"deltaTime":6684,"channel":0,"type":"channel","subtype":"noteOff","noteNumber":90,"velocity":0},{"deltaTime":4575,"channel":0,"type":"channel","subtype":"noteOff","noteNumber":78,"velocity":0},{"deltaTime":1396,"channel":0,"type":"channel","subtype":"noteOff","noteNumber":37,"velocity":0},{"deltaTime":5799,"channel":0,"type":"channel","noteNumber":75,"velocity":66,"subtype":"noteOn"},{"deltaTime":1365,"channel":0,"type":"channel","noteNumber":82,"velocity":54,"subtype":"noteOn"},{"deltaTime":1488,"channel":0,"type":"channel","noteNumber":85,"velocity":64,"subtype":"noteOn"},{"deltaTime":1998,"channel":0,"type":"channel","subtype":"noteOff","noteNumber":75,"velocity":0},{"deltaTime":713,"channel":0,"type":"channel","subtype":"noteOff","noteNumber":82,"velocity":0},{"deltaTime":4250,"channel":0,"type":"channel","noteNumber":61,"velocity":51,"subtype":"noteOn"},{"deltaTime":172,"channel":0,"type":"channel","noteNumber":82,"velocity":78,"subtype":"noteOn"},{"deltaTime":123,"channel":0,"type":"channel","subtype":"noteOff","noteNumber":85,"velocity":0},{"deltaTime":172,"channel":0,"type":"channel","noteNumber":75,"velocity":81,"subtype":"noteOn"},{"deltaTime":5707,"channel":0,"type":"channel","subtype":"noteOff","noteNumber":75,"velocity":0},{"deltaTime":510,"channel":0,"type":"channel","subtype":"noteOff","noteNumber":82,"velocity":0},{"deltaTime":234,"channel":0,"type":"channel","noteNumber":63,"velocity":72,"subtype":"noteOn"},{"deltaTime":1365,"channel":0,"type":"channel","subtype":"noteOff","noteNumber":61,"velocity":0},{"deltaTime":5799,"channel":0,"type":"channel","noteNumber":66,"velocity":82,"subtype":"noteOn"},{"deltaTime":8173,"channel":0,"type":"channel","noteNumber":75,"velocity":65,"subtype":"noteOn"},{"deltaTime":418,"channel":0,"type":"channel","noteNumber":73,"velocity":73,"subtype":"noteOn"},{"deltaTime":774,"channel":0,"type":"channel","subtype":"noteOff","noteNumber":63,"velocity":0},{"deltaTime":510,"channel":0,"type":"channel","subtype":"noteOff","noteNumber":75,"velocity":0},{"deltaTime":4483,"channel":0,"type":"channel","subtype":"noteOff","noteNumber":66,"velocity":0},{"deltaTime":2343,"channel":0,"type":"channel","noteNumber":75,"velocity":78,"subtype":"noteOn"},{"deltaTime":6033,"channel":0,"type":"channel","subtype":"noteOff","noteNumber":73,"velocity":0},{"deltaTime":744,"channel":0,"type":"channel","subtype":"noteOff","noteNumber":75,"velocity":0},{"deltaTime":184,"channel":0,"type":"channel","noteNumber":70,"velocity":75,"subtype":"noteOn"},{"deltaTime":172,"channel":0,"type":"channel","noteNumber":65,"velocity":70,"subtype":"noteOn"},{"deltaTime":450,"channel":0,"type":"channel","noteNumber":68,"velocity":64,"subtype":"noteOn"},{"deltaTime":2354,"channel":0,"type":"channel","subtype":"noteOff","noteNumber":68,"velocity":0},{"deltaTime":3413,"channel":0,"type":"channel","subtype":"noteOff","noteNumber":65,"velocity":0},{"deltaTime":449,"channel":0,"type":"channel","noteNumber":61,"velocity":66,"subtype":"noteOn"},{"deltaTime":621,"channel":0,"type":"channel","noteNumber":73,"velocity":78,"subtype":"noteOn"},{"deltaTime":172,"channel":0,"type":"channel","noteNumber":68,"velocity":75,"subtype":"noteOn"},{"deltaTime":1581,"channel":0,"type":"channel","subtype":"noteOff","noteNumber":70,"velocity":0},{"deltaTime":3006,"channel":0,"type":"channel","subtype":"noteOff","noteNumber":68,"velocity":0},{"deltaTime":2344,"channel":0,"type":"channel","noteNumber":64,"velocity":64,"subtype":"noteOn"},{"deltaTime":184,"channel":0,"type":"channel","noteNumber":75,"velocity":72,"subtype":"noteOn"},{"deltaTime":173,"channel":0,"type":"channel","noteNumber":70,"velocity":74,"subtype":"noteOn"},{"deltaTime":1039,"channel":0,"type":"channel","subtype":"noteOff","noteNumber":61,"velocity":0},{"deltaTime":713,"channel":0,"type":"channel","subtype":"noteOff","noteNumber":73,"velocity":0},{"deltaTime":3443,"channel":0,"type":"channel","subtype":"noteOff","noteNumber":75,"velocity":0},{"deltaTime":357,"channel":0,"type":"channel","subtype":"noteOff","noteNumber":64,"velocity":0},{"deltaTime":572,"channel":0,"type":"channel","subtype":"noteOff","noteNumber":70,"velocity":0},{"deltaTime":855,"channel":0,"type":"channel","noteNumber":73,"velocity":78,"subtype":"noteOn"},{"deltaTime":276,"channel":0,"type":"channel","noteNumber":68,"velocity":79,"subtype":"noteOn"},{"deltaTime":4840,"channel":0,"type":"channel","subtype":"noteOff","noteNumber":68,"velocity":0},{"deltaTime":1875,"channel":0,"type":"channel","noteNumber":61,"velocity":66,"subtype":"noteOn"},{"deltaTime":204,"channel":0,"type":"channel","noteNumber":75,"velocity":77,"subtype":"noteOn"},{"deltaTime":214,"channel":0,"type":"channel","noteNumber":70,"velocity":78,"subtype":"noteOn"},{"deltaTime":5818,"channel":0,"type":"channel","subtype":"noteOff","noteNumber":73,"velocity":0},{"deltaTime":602,"channel":0,"type":"channel","noteNumber":63,"velocity":75,"subtype":"noteOn"},{"deltaTime":173,"channel":0,"type":"channel","noteNumber":68,"velocity":82,"subtype":"noteOn"},{"deltaTime":357,"channel":0,"type":"channel","noteNumber":78,"velocity":80,"subtype":"noteOn"},{"deltaTime":1039,"channel":0,"type":"channel","subtype":"noteOff","noteNumber":75,"velocity":0},{"deltaTime":682,"channel":0,"type":"channel","subtype":"noteOff","noteNumber":70,"velocity":0},{"deltaTime":93,"channel":0,"type":"channel","subtype":"noteOff","noteNumber":61,"velocity":0},{"deltaTime":2466,"channel":0,"type":"channel","subtype":"noteOff","noteNumber":78,"velocity":0},{"deltaTime":92,"channel":0,"type":"channel","subtype":"noteOff","noteNumber":63,"velocity":0},{"deltaTime":61,"channel":0,"type":"channel","subtype":"noteOff","noteNumber":68,"velocity":0},{"deltaTime":2170,"channel":0,"type":"channel","noteNumber":75,"velocity":78,"subtype":"noteOn"},{"deltaTime":235,"channel":0,"type":"channel","noteNumber":68,"velocity":64,"subtype":"noteOn"},{"deltaTime":202,"channel":0,"type":"channel","noteNumber":58,"velocity":70,"subtype":"noteOn"},{"deltaTime":572,"channel":0,"type":"channel","noteNumber":70,"velocity":69,"subtype":"noteOn"},{"deltaTime":1599,"channel":0,"type":"channel","subtype":"noteOff","noteNumber":68,"velocity":0},{"deltaTime":2355,"channel":0,"type":"channel","subtype":"noteOff","noteNumber":58,"velocity":0},{"deltaTime":498,"channel":0,"type":"channel","subtype":"noteOff","noteNumber":75,"velocity":0},{"deltaTime":1519,"channel":0,"type":"channel","noteNumber":67,"velocity":78,"subtype":"noteOn"},{"deltaTime":184,"channel":0,"type":"channel","noteNumber":73,"velocity":80,"subtype":"noteOn"},{"deltaTime":296,"channel":0,"type":"channel","noteNumber":48,"velocity":64,"subtype":"noteOn"},{"deltaTime":172,"channel":0,"type":"channel","noteNumber":50,"velocity":70,"subtype":"noteOn"},{"deltaTime":1427,"channel":0,"type":"channel","subtype":"noteOff","noteNumber":70,"velocity":0},{"deltaTime":3210,"channel":0,"type":"channel","subtype":"noteOff","noteNumber":67,"velocity":0},{"deltaTime":775,"channel":0,"type":"channel","subtype":"noteOff","noteNumber":48,"velocity":0},{"deltaTime":418,"channel":0,"type":"channel","subtype":"noteOff","noteNumber":50,"velocity":0},{"deltaTime":61,"channel":0,"type":"channel","noteNumber":57,"velocity":75,"subtype":"noteOn"},{"deltaTime":683,"channel":0,"type":"channel","noteNumber":70,"velocity":77,"subtype":"noteOn"},{"deltaTime":203,"channel":0,"type":"channel","noteNumber":75,"velocity":73,"subtype":"noteOn"},{"deltaTime":2262,"channel":0,"type":"channel","subtype":"noteOff","noteNumber":73,"velocity":0},{"deltaTime":2976,"channel":0,"type":"channel","subtype":"noteOff","noteNumber":57,"velocity":0},{"deltaTime":80,"channel":0,"type":"channel","subtype":"noteOff","noteNumber":75,"velocity":0},{"deltaTime":388,"channel":0,"type":"channel","subtype":"noteOff","noteNumber":70,"velocity":0},{"deltaTime":775,"channel":0,"type":"channel","noteNumber":73,"velocity":69,"subtype":"noteOn"},{"deltaTime":215,"channel":0,"type":"channel","noteNumber":51,"velocity":62,"subtype":"noteOn"},{"deltaTime":203,"channel":0,"type":"channel","noteNumber":63,"velocity":63,"subtype":"noteOn"},{"deltaTime":529,"channel":0,"type":"channel","noteNumber":68,"velocity":75,"subtype":"noteOn"},{"deltaTime":1070,"channel":0,"type":"channel","subtype":"noteOff","noteNumber":68,"velocity":0},{"deltaTime":2558,"channel":0,"type":"channel","subtype":"noteOff","noteNumber":63,"velocity":0},{"deltaTime":2029,"channel":0,"type":"channel","noteNumber":58,"velocity":71,"subtype":"noteOn"},{"deltaTime":1987,"channel":0,"type":"channel","subtype":"noteOff","noteNumber":51,"velocity":0},{"deltaTime":4544,"channel":0,"type":"channel","subtype":"noteOff","noteNumber":58,"velocity":0},{"deltaTime":651,"channel":0,"type":"channel","noteNumber":64,"velocity":71,"subtype":"noteOn"},{"deltaTime":185,"channel":0,"type":"channel","noteNumber":52,"velocity":74,"subtype":"noteOn"},{"deltaTime":123,"channel":0,"type":"channel","noteNumber":68,"velocity":82,"subtype":"noteOn"},{"deltaTime":203,"channel":0,"type":"channel","noteNumber":75,"velocity":76,"subtype":"noteOn"},{"deltaTime":744,"channel":0,"type":"channel","noteNumber":70,"velocity":39,"subtype":"noteOn"},{"deltaTime":1039,"channel":0,"type":"channel","subtype":"controller","controllerType":64,"value":120},{"deltaTime":154,"channel":0,"type":"channel","subtype":"controller","controllerType":64,"value":56},{"deltaTime":80,"channel":0,"type":"channel","subtype":"controller","controllerType":64,"value":0},{"deltaTime":154,"channel":0,"type":"channel","subtype":"noteOff","noteNumber":70,"velocity":0},{"deltaTime":92,"channel":0,"type":"channel","subtype":"noteOff","noteNumber":73,"velocity":0},{"deltaTime":3148,"channel":0,"type":"channel","subtype":"noteOff","noteNumber":64,"velocity":0},{"deltaTime":560,"channel":0,"type":"channel","subtype":"controller","controllerType":64,"value":56},{"deltaTime":92,"channel":0,"type":"channel","subtype":"controller","controllerType":64,"value":120},{"deltaTime":31,"channel":0,"type":"channel","subtype":"controller","controllerType":64,"value":127},{"deltaTime":203,"channel":0,"type":"channel","noteNumber":59,"velocity":75,"subtype":"noteOn"},{"deltaTime":184,"channel":0,"type":"channel","noteNumber":70,"velocity":75,"subtype":"noteOn"},{"deltaTime":234,"channel":0,"type":"channel","subtype":"noteOff","noteNumber":68,"velocity":0},{"deltaTime":31,"channel":0,"type":"channel","subtype":"noteOff","noteNumber":75,"velocity":0},{"deltaTime":2343,"channel":0,"type":"channel","subtype":"noteOff","noteNumber":52,"velocity":0},{"deltaTime":2650,"channel":0,"type":"channel","subtype":"noteOff","noteNumber":59,"velocity":0},{"deltaTime":1303,"channel":0,"type":"channel","subtype":"noteOff","noteNumber":70,"velocity":0},{"deltaTime":338,"channel":0,"type":"channel","noteNumber":63,"velocity":72,"subtype":"noteOn"},{"deltaTime":406,"channel":0,"type":"channel","noteNumber":67,"velocity":75,"subtype":"noteOn"},{"deltaTime":246,"channel":0,"type":"channel","noteNumber":51,"velocity":66,"subtype":"noteOn"},{"deltaTime":4484,"channel":0,"type":"channel","subtype":"noteOff","noteNumber":67,"velocity":0},{"deltaTime":92,"channel":0,"type":"channel","subtype":"noteOff","noteNumber":63,"velocity":0},{"deltaTime":1039,"channel":0,"type":"channel","noteNumber":58,"velocity":66,"subtype":"noteOn"},{"deltaTime":559,"channel":0,"type":"channel","noteNumber":70,"velocity":70,"subtype":"noteOn"},{"deltaTime":185,"channel":0,"type":"channel","noteNumber":75,"velocity":69,"subtype":"noteOn"},{"deltaTime":123,"channel":0,"type":"channel","subtype":"noteOff","noteNumber":51,"velocity":0},{"deltaTime":5165,"channel":0,"type":"channel","subtype":"noteOff","noteNumber":70,"velocity":0},{"deltaTime":744,"channel":0,"type":"channel","subtype":"noteOff","noteNumber":75,"velocity":0},{"deltaTime":560,"channel":0,"type":"channel","noteNumber":50,"velocity":75,"subtype":"noteOn"},{"deltaTime":123,"channel":0,"type":"channel","noteNumber":68,"velocity":83,"subtype":"noteOn"},{"deltaTime":203,"channel":0,"type":"channel","noteNumber":62,"velocity":75,"subtype":"noteOn"},{"deltaTime":123,"channel":0,"type":"channel","subtype":"noteOff","noteNumber":58,"velocity":0},{"deltaTime":5614,"channel":0,"type":"channel","noteNumber":58,"velocity":70,"subtype":"noteOn"},{"deltaTime":357,"channel":0,"type":"channel","subtype":"noteOff","noteNumber":50,"velocity":0},{"deltaTime":31,"channel":0,"type":"channel","noteNumber":70,"velocity":76,"subtype":"noteOn"},{"deltaTime":387,"channel":0,"type":"channel","noteNumber":78,"velocity":73,"subtype":"noteOn"},{"deltaTime":652,"channel":0,"type":"channel","subtype":"noteOff","noteNumber":62,"velocity":0},{"deltaTime":276,"channel":0,"type":"channel","subtype":"controller","controllerType":64,"value":120},{"deltaTime":142,"channel":0,"type":"channel","subtype":"controller","controllerType":64,"value":56},{"deltaTime":92,"channel":0,"type":"channel","subtype":"controller","controllerType":64,"value":0},{"deltaTime":265,"channel":0,"type":"channel","subtype":"noteOff","noteNumber":68,"velocity":0},{"deltaTime":2884,"channel":0,"type":"channel","subtype":"controller","controllerType":64,"value":56},{"deltaTime":92,"channel":0,"type":"channel","subtype":"controller","controllerType":64,"value":120},{"deltaTime":30,"channel":0,"type":"channel","subtype":"controller","controllerType":64,"value":127},{"deltaTime":561,"channel":0,"type":"channel","subtype":"noteOff","noteNumber":78,"velocity":0},{"deltaTime":897,"channel":0,"type":"channel","subtype":"noteOff","noteNumber":58,"velocity":0},{"deltaTime":142,"channel":0,"type":"channel","noteNumber":68,"velocity":66,"subtype":"noteOn"},{"deltaTime":184,"channel":0,"type":"channel","subtype":"noteOff","noteNumber":70,"velocity":0},{"deltaTime":3536,"channel":0,"type":"channel","subtype":"noteOff","noteNumber":68,"velocity":0},{"deltaTime":3118,"channel":0,"type":"channel","noteNumber":58,"velocity":66,"subtype":"noteOn"},{"deltaTime":184,"channel":0,"type":"channel","noteNumber":70,"velocity":78,"subtype":"noteOn"},{"deltaTime":142,"channel":0,"type":"channel","noteNumber":75,"velocity":68,"subtype":"noteOn"},{"deltaTime":4728,"channel":0,"type":"channel","subtype":"noteOff","noteNumber":70,"velocity":0},{"deltaTime":234,"channel":0,"type":"channel","subtype":"noteOff","noteNumber":75,"velocity":0},{"deltaTime":714,"channel":0,"type":"channel","noteNumber":67,"velocity":65,"subtype":"noteOn"},{"deltaTime":1070,"channel":0,"type":"channel","noteNumber":64,"velocity":46,"subtype":"noteOn"},{"deltaTime":183,"channel":0,"type":"channel","noteNumber":63,"velocity":38,"subtype":"noteOn"},{"deltaTime":2497,"channel":0,"type":"channel","subtype":"noteOff","noteNumber":64,"velocity":0},{"deltaTime":357,"channel":0,"type":"channel","subtype":"noteOff","noteNumber":63,"velocity":0},{"deltaTime":793,"channel":0,"type":"channel","subtype":"noteOff","noteNumber":67,"velocity":0},{"deltaTime":154,"channel":0,"type":"channel","subtype":"noteOff","noteNumber":58,"velocity":0},{"deltaTime":1427,"channel":0,"type":"channel","noteNumber":51,"velocity":73,"subtype":"noteOn"},{"deltaTime":184,"channel":0,"type":"channel","noteNumber":75,"velocity":75,"subtype":"noteOn"},{"deltaTime":111,"channel":0,"type":"channel","noteNumber":70,"velocity":78,"subtype":"noteOn"},{"deltaTime":744,"channel":0,"type":"channel","noteNumber":52,"velocity":71,"subtype":"noteOn"},{"deltaTime":1814,"channel":0,"type":"channel","subtype":"noteOff","noteNumber":51,"velocity":0},{"deltaTime":2976,"channel":0,"type":"channel","subtype":"controller","controllerType":64,"value":120},{"deltaTime":141,"channel":0,"type":"channel","subtype":"controller","controllerType":64,"value":56},{"deltaTime":93,"channel":0,"type":"channel","subtype":"controller","controllerType":64,"value":0},{"deltaTime":295,"channel":0,"type":"channel","noteNumber":59,"velocity":69,"subtype":"noteOn"},{"deltaTime":184,"channel":0,"type":"channel","subtype":"noteOff","noteNumber":70,"velocity":0},{"deltaTime":775,"channel":0,"type":"channel","noteNumber":68,"velocity":75,"subtype":"noteOn"},{"deltaTime":111,"channel":0,"type":"channel","subtype":"noteOff","noteNumber":75,"velocity":0},{"deltaTime":571,"channel":0,"type":"channel","subtype":"noteOff","noteNumber":52,"velocity":0},{"deltaTime":1692,"channel":0,"type":"channel","subtype":"controller","controllerType":64,"value":56},{"deltaTime":122,"channel":0,"type":"channel","subtype":"controller","controllerType":64,"value":120},{"deltaTime":31,"channel":0,"type":"channel","subtype":"controller","controllerType":64,"value":127},{"deltaTime":2079,"channel":0,"type":"channel","subtype":"noteOff","noteNumber":68,"velocity":0},{"deltaTime":295,"channel":0,"type":"channel","noteNumber":64,"velocity":61,"subtype":"noteOn"},{"deltaTime":1131,"channel":0,"type":"channel","noteNumber":73,"velocity":76,"subtype":"noteOn"},{"deltaTime":204,"channel":0,"type":"channel","noteNumber":70,"velocity":75,"subtype":"noteOn"},{"deltaTime":214,"channel":0,"type":"channel","noteNumber":68,"velocity":60,"subtype":"noteOn"},{"deltaTime":296,"channel":0,"type":"channel","subtype":"noteOff","noteNumber":59,"velocity":0},{"deltaTime":1100,"channel":0,"type":"channel","subtype":"noteOff","noteNumber":68,"velocity":0},{"deltaTime":4392,"channel":0,"type":"channel","noteNumber":53,"velocity":75,"subtype":"noteOn"},{"deltaTime":184,"channel":0,"type":"channel","subtype":"noteOff","noteNumber":70,"velocity":0},{"deltaTime":30,"channel":0,"type":"channel","noteNumber":68,"velocity":84,"subtype":"noteOn"},{"deltaTime":530,"channel":0,"type":"channel","subtype":"noteOff","noteNumber":64,"velocity":0},{"deltaTime":1518,"channel":0,"type":"channel","subtype":"controller","controllerType":64,"value":64},{"deltaTime":92,"channel":0,"type":"channel","subtype":"controller","controllerType":64,"value":0},{"deltaTime":591,"channel":0,"type":"channel","noteNumber":56,"velocity":21,"subtype":"noteOn"},{"deltaTime":1223,"channel":0,"type":"channel","subtype":"noteOff","noteNumber":56,"velocity":0},{"deltaTime":112,"channel":0,"type":"channel","subtype":"noteOff","noteNumber":73,"velocity":0},{"deltaTime":1284,"channel":0,"type":"channel","subtype":"controller","controllerType":64,"value":56},{"deltaTime":111,"channel":0,"type":"channel","subtype":"controller","controllerType":64,"value":120},{"deltaTime":31,"channel":0,"type":"channel","subtype":"controller","controllerType":64,"value":127},{"deltaTime":682,"channel":0,"type":"channel","noteNumber":60,"velocity":75,"subtype":"noteOn"},{"deltaTime":185,"channel":0,"type":"channel","subtype":"noteOff","noteNumber":53,"velocity":0},{"deltaTime":356,"channel":0,"type":"channel","noteNumber":70,"velocity":71,"subtype":"noteOn"},{"deltaTime":2048,"channel":0,"type":"channel","subtype":"noteOff","noteNumber":68,"velocity":0},{"deltaTime":2823,"channel":0,"type":"channel","subtype":"noteOff","noteNumber":70,"velocity":0},{"deltaTime":1131,"channel":0,"type":"channel","noteNumber":67,"velocity":83,"subtype":"noteOn"},{"deltaTime":265,"channel":0,"type":"channel","noteNumber":65,"velocity":79,"subtype":"noteOn"},{"deltaTime":1783,"channel":0,"type":"channel","subtype":"noteOff","noteNumber":60,"velocity":0},{"deltaTime":1254,"channel":0,"type":"channel","subtype":"noteOff","noteNumber":65,"velocity":0},{"deltaTime":2934,"channel":0,"type":"channel","noteNumber":51,"velocity":78,"subtype":"noteOn"},{"deltaTime":184,"channel":0,"type":"channel","noteNumber":70,"velocity":59,"subtype":"noteOn"},{"deltaTime":326,"channel":0,"type":"channel","noteNumber":75,"velocity":66,"subtype":"noteOn"},{"deltaTime":1875,"channel":0,"type":"channel","subtype":"noteOff","noteNumber":67,"velocity":0},{"deltaTime":3210,"channel":0,"type":"channel","subtype":"noteOff","noteNumber":70,"velocity":0},{"deltaTime":62,"channel":0,"type":"channel","subtype":"noteOff","noteNumber":75,"velocity":0},{"deltaTime":1039,"channel":0,"type":"channel","subtype":"noteOff","noteNumber":51,"velocity":0},{"deltaTime":1335,"channel":0,"type":"channel","noteNumber":58,"velocity":20,"subtype":"noteOn"},{"deltaTime":652,"channel":0,"type":"channel","subtype":"controller","controllerType":64,"value":120},{"deltaTime":153,"channel":0,"type":"channel","subtype":"controller","controllerType":64,"value":56},{"deltaTime":61,"channel":0,"type":"channel","subtype":"controller","controllerType":64,"value":0},{"deltaTime":2190,"channel":0,"type":"channel","subtype":"controller","controllerType":64,"value":56},{"deltaTime":92,"channel":0,"type":"channel","subtype":"controller","controllerType":64,"value":120},{"deltaTime":31,"channel":0,"type":"channel","subtype":"controller","controllerType":64,"value":127},{"deltaTime":184,"channel":0,"type":"channel","subtype":"noteOff","noteNumber":58,"velocity":0},{"deltaTime":855,"channel":0,"type":"channel","noteNumber":63,"velocity":66,"subtype":"noteOn"},{"deltaTime":184,"channel":0,"type":"channel","noteNumber":65,"velocity":66,"subtype":"noteOn"},{"deltaTime":4391,"channel":0,"type":"channel","subtype":"noteOff","noteNumber":63,"velocity":0},{"deltaTime":1316,"channel":0,"type":"channel","noteNumber":58,"velocity":66,"subtype":"noteOn"},{"deltaTime":326,"channel":0,"type":"channel","noteNumber":68,"velocity":66,"subtype":"noteOn"},{"deltaTime":172,"channel":0,"type":"channel","noteNumber":70,"velocity":71,"subtype":"noteOn"},{"deltaTime":744,"channel":0,"type":"channel","subtype":"noteOff","noteNumber":65,"velocity":0},{"deltaTime":3272,"channel":0,"type":"channel","subtype":"noteOff","noteNumber":70,"velocity":0},{"deltaTime":621,"channel":0,"type":"channel","subtype":"noteOff","noteNumber":68,"velocity":0},{"deltaTime":682,"channel":0,"type":"channel","subtype":"noteOff","noteNumber":58,"velocity":0},{"deltaTime":449,"channel":0,"type":"channel","noteNumber":62,"velocity":70,"subtype":"noteOn"},{"deltaTime":510,"channel":0,"type":"channel","noteNumber":65,"velocity":78,"subtype":"noteOn"},{"deltaTime":499,"channel":0,"type":"channel","subtype":"noteOff","noteNumber":62,"velocity":0},{"deltaTime":5238,"channel":0,"type":"channel","subtype":"noteOff","noteNumber":65,"velocity":0},{"deltaTime":80,"channel":0,"type":"channel","noteNumber":50,"velocity":72,"subtype":"noteOn"},{"deltaTime":683,"channel":0,"type":"channel","noteNumber":68,"velocity":67,"subtype":"noteOn"},{"deltaTime":185,"channel":0,"type":"channel","noteNumber":74,"velocity":76,"subtype":"noteOn"},{"deltaTime":4839,"channel":0,"type":"channel","subtype":"noteOff","noteNumber":50,"velocity":0},{"deltaTime":31,"channel":0,"type":"channel","noteNumber":58,"velocity":66,"subtype":"noteOn"},{"deltaTime":184,"channel":0,"type":"channel","subtype":"noteOff","noteNumber":74,"velocity":0},{"deltaTime":2528,"channel":0,"type":"channel","subtype":"noteOff","noteNumber":68,"velocity":0},{"deltaTime":3831,"channel":0,"type":"channel","subtype":"noteOff","noteNumber":58,"velocity":0},{"deltaTime":61,"channel":0,"type":"channel","noteNumber":65,"velocity":73,"subtype":"noteOn"},{"deltaTime":204,"channel":0,"type":"channel","noteNumber":63,"velocity":75,"subtype":"noteOn"},{"deltaTime":448,"channel":0,"type":"channel","noteNumber":68,"velocity":49,"subtype":"noteOn"},{"deltaTime":1304,"channel":0,"type":"channel","subtype":"noteOff","noteNumber":68,"velocity":0},{"deltaTime":3567,"channel":0,"type":"channel","subtype":"noteOff","noteNumber":63,"velocity":0},{"deltaTime":510,"channel":0,"type":"channel","noteNumber":58,"velocity":66,"subtype":"noteOn"},{"deltaTime":621,"channel":0,"type":"channel","noteNumber":68,"velocity":75,"subtype":"noteOn"},{"deltaTime":2293,"channel":0,"type":"channel","subtype":"noteOff","noteNumber":65,"velocity":0},{"deltaTime":2110,"channel":0,"type":"channel","subtype":"noteOff","noteNumber":58,"velocity":0},{"deltaTime":1660,"channel":0,"type":"channel","noteNumber":65,"velocity":65,"subtype":"noteOn"},{"deltaTime":153,"channel":0,"type":"channel","subtype":"noteOff","noteNumber":68,"velocity":0},{"deltaTime":81,"channel":0,"type":"channel","noteNumber":75,"velocity":72,"subtype":"noteOn"},{"deltaTime":4729,"channel":0,"type":"channel","subtype":"noteOff","noteNumber":75,"velocity":0},{"deltaTime":245,"channel":0,"type":"channel","subtype":"noteOff","noteNumber":65,"velocity":0},{"deltaTime":1833,"channel":0,"type":"channel","noteNumber":74,"velocity":64,"subtype":"noteOn"},{"deltaTime":5983,"channel":0,"type":"channel","subtype":"noteOff","noteNumber":74,"velocity":0},{"deltaTime":1476,"channel":0,"type":"channel","noteNumber":72,"velocity":45,"subtype":"noteOn"},{"deltaTime":6930,"channel":0,"type":"channel","subtype":"noteOff","noteNumber":72,"velocity":0},{"deltaTime":480,"channel":0,"type":"channel","noteNumber":70,"velocity":27,"subtype":"noteOn"},{"deltaTime":3413,"channel":0,"type":"channel","subtype":"noteOff","noteNumber":70,"velocity":0},{"deltaTime":3536,"channel":0,"type":"channel","noteNumber":70,"velocity":57,"subtype":"noteOn"},{"deltaTime":6278,"channel":0,"type":"channel","subtype":"noteOff","noteNumber":70,"velocity":0},{"deltaTime":2312,"channel":0,"type":"channel","noteNumber":67,"velocity":36,"subtype":"noteOn"},{"deltaTime":10853,"channel":0,"type":"channel","noteNumber":70,"velocity":45,"subtype":"noteOn"},{"deltaTime":204,"channel":0,"type":"channel","subtype":"noteOff","noteNumber":67,"velocity":0},{"deltaTime":8203,"channel":0,"type":"channel","subtype":"noteOff","noteNumber":70,"velocity":0},{"deltaTime":2558,"channel":0,"type":"channel","noteNumber":67,"velocity":25,"subtype":"noteOn"},{"deltaTime":6481,"channel":0,"type":"channel","subtype":"noteOff","noteNumber":67,"velocity":0},{"deltaTime":1070,"channel":0,"type":"channel","noteNumber":70,"velocity":30,"subtype":"noteOn"},{"deltaTime":855,"channel":0,"type":"channel","noteNumber":46,"velocity":26,"subtype":"noteOn"},{"deltaTime":215,"channel":0,"type":"channel","noteNumber":50,"velocity":36,"subtype":"noteOn"},{"deltaTime":92,"channel":0,"type":"channel","noteNumber":62,"velocity":34,"subtype":"noteOn"},{"deltaTime":4686,"channel":0,"type":"channel","subtype":"noteOff","noteNumber":70,"velocity":0},{"deltaTime":1101,"channel":0,"type":"channel","subtype":"noteOff","noteNumber":62,"velocity":0},{"deltaTime":4015,"channel":0,"type":"channel","subtype":"noteOff","noteNumber":50,"velocity":0},{"deltaTime":3770,"channel":0,"type":"channel","noteNumber":58,"velocity":27,"subtype":"noteOn"},{"deltaTime":1814,"channel":0,"type":"channel","noteNumber":65,"velocity":32,"subtype":"noteOn"},{"deltaTime":4403,"channel":0,"type":"channel","subtype":"noteOff","noteNumber":46,"velocity":0},{"deltaTime":3302,"channel":0,"type":"channel","subtype":"noteOff","noteNumber":65,"velocity":0},{"deltaTime":682,"channel":0,"type":"channel","noteNumber":61,"velocity":66,"subtype":"noteOn"},{"deltaTime":560,"channel":0,"type":"channel","subtype":"noteOff","noteNumber":58,"velocity":0},{"deltaTime":1316,"channel":0,"type":"channel","noteNumber":47,"velocity":58,"subtype":"noteOn"},{"deltaTime":3892,"channel":0,"type":"channel","noteNumber":59,"velocity":57,"subtype":"noteOn"},{"deltaTime":856,"channel":0,"type":"channel","subtype":"noteOff","noteNumber":61,"velocity":0},{"deltaTime":1967,"channel":0,"type":"channel","noteNumber":49,"velocity":60,"subtype":"noteOn"},{"deltaTime":234,"channel":0,"type":"channel","noteNumber":61,"velocity":64,"subtype":"noteOn"},{"deltaTime":2293,"channel":0,"type":"channel","subtype":"noteOff","noteNumber":47,"velocity":0},{"deltaTime":80,"channel":0,"type":"channel","subtype":"noteOff","noteNumber":59,"velocity":0},{"deltaTime":2651,"channel":0,"type":"channel","noteNumber":68,"velocity":70,"subtype":"noteOn"},{"deltaTime":1875,"channel":0,"type":"channel","noteNumber":59,"velocity":45,"subtype":"noteOn"},{"deltaTime":203,"channel":0,"type":"channel","subtype":"noteOff","noteNumber":61,"velocity":0},{"deltaTime":3180,"channel":0,"type":"channel","noteNumber":54,"velocity":51,"subtype":"noteOn"},{"deltaTime":387,"channel":0,"type":"channel","subtype":"noteOff","noteNumber":68,"velocity":0},{"deltaTime":1967,"channel":0,"type":"channel","noteNumber":66,"velocity":67,"subtype":"noteOn"},{"deltaTime":4514,"channel":0,"type":"channel","subtype":"noteOff","noteNumber":59,"velocity":0},{"deltaTime":2558,"channel":0,"type":"channel","noteNumber":59,"velocity":62,"subtype":"noteOn"},{"deltaTime":621,"channel":0,"type":"channel","noteNumber":47,"velocity":62,"subtype":"noteOn"},{"deltaTime":1193,"channel":0,"type":"channel","subtype":"noteOff","noteNumber":49,"velocity":0},{"deltaTime":3954,"channel":0,"type":"channel","subtype":"noteOff","noteNumber":54,"velocity":0},{"deltaTime":1814,"channel":0,"type":"channel","noteNumber":49,"velocity":60,"subtype":"noteOn"},{"deltaTime":173,"channel":0,"type":"channel","noteNumber":68,"velocity":68,"subtype":"noteOn"},{"deltaTime":774,"channel":0,"type":"channel","subtype":"noteOff","noteNumber":66,"velocity":0},{"deltaTime":203,"channel":0,"type":"channel","subtype":"noteOff","noteNumber":47,"velocity":0},{"deltaTime":4342,"channel":0,"type":"channel","subtype":"noteOff","noteNumber":68,"velocity":0},{"deltaTime":2109,"channel":0,"type":"channel","noteNumber":54,"velocity":46,"subtype":"noteOn"},{"deltaTime":5565,"channel":0,"type":"channel","subtype":"noteOff","noteNumber":59,"velocity":0},{"deltaTime":1150,"channel":0,"type":"channel","noteNumber":67,"velocity":39,"subtype":"noteOn"},{"deltaTime":898,"channel":0,"type":"channel","subtype":"noteOff","noteNumber":54,"velocity":0},{"deltaTime":2914,"channel":0,"type":"channel","subtype":"noteOff","noteNumber":67,"velocity":0},{"deltaTime":1783,"channel":0,"type":"channel","noteNumber":65,"velocity":39,"subtype":"noteOn"},{"deltaTime":1162,"channel":0,"type":"channel","noteNumber":46,"velocity":40,"subtype":"noteOn"},{"deltaTime":112,"channel":0,"type":"channel","subtype":"noteOff","noteNumber":49,"velocity":0},{"deltaTime":4525,"channel":0,"type":"channel","subtype":"noteOff","noteNumber":65,"velocity":0},{"deltaTime":2639,"channel":0,"type":"channel","noteNumber":62,"velocity":52,"subtype":"noteOn"},{"deltaTime":5257,"channel":0,"type":"channel","subtype":"noteOff","noteNumber":62,"velocity":0},{"deltaTime":1580,"channel":0,"type":"channel","noteNumber":58,"velocity":54,"subtype":"noteOn"},{"deltaTime":326,"channel":0,"type":"channel","noteNumber":47,"velocity":43,"subtype":"noteOn"},{"deltaTime":4698,"channel":0,"type":"channel","subtype":"noteOff","noteNumber":46,"velocity":0},{"deltaTime":111,"channel":0,"type":"channel","subtype":"noteOff","noteNumber":58,"velocity":0},{"deltaTime":1408,"channel":0,"type":"channel","noteNumber":62,"velocity":60,"subtype":"noteOn"},{"deltaTime":6450,"channel":0,"type":"channel","subtype":"noteOff","noteNumber":62,"velocity":0},{"deltaTime":345,"channel":0,"type":"channel","noteNumber":53,"velocity":49,"subtype":"noteOn"},{"deltaTime":418,"channel":0,"type":"channel","noteNumber":65,"velocity":57,"subtype":"noteOn"},{"deltaTime":6217,"channel":0,"type":"channel","subtype":"noteOff","noteNumber":65,"velocity":0},{"deltaTime":449,"channel":0,"type":"channel","noteNumber":62,"velocity":45,"subtype":"noteOn"},{"deltaTime":3628,"channel":0,"type":"channel","subtype":"noteOff","noteNumber":62,"velocity":0},{"deltaTime":111,"channel":0,"type":"channel","subtype":"noteOff","noteNumber":47,"velocity":0},{"deltaTime":418,"channel":0,"type":"channel","subtype":"noteOff","noteNumber":53,"velocity":0},{"deltaTime":836,"channel":0,"type":"channel","noteNumber":51,"velocity":59,"subtype":"noteOn"},{"deltaTime":683,"channel":0,"type":"channel","noteNumber":56,"velocity":48,"subtype":"noteOn"},{"deltaTime":5460,"channel":0,"type":"channel","subtype":"noteOff","noteNumber":56,"velocity":0},{"deltaTime":277,"channel":0,"type":"channel","noteNumber":61,"velocity":44,"subtype":"noteOn"},{"deltaTime":2497,"channel":0,"type":"channel","noteNumber":53,"velocity":58,"subtype":"noteOn"},{"deltaTime":4575,"channel":0,"type":"channel","noteNumber":65,"velocity":67,"subtype":"noteOn"},{"deltaTime":1070,"channel":0,"type":"channel","subtype":"noteOff","noteNumber":61,"velocity":0},{"deltaTime":4157,"channel":0,"type":"channel","subtype":"noteOff","noteNumber":51,"velocity":0},{"deltaTime":2558,"channel":0,"type":"channel","noteNumber":61,"velocity":57,"subtype":"noteOn"},{"deltaTime":153,"channel":0,"type":"channel","subtype":"noteOff","noteNumber":53,"velocity":0},{"deltaTime":50,"channel":0,"type":"channel","subtype":"noteOff","noteNumber":65,"velocity":0},{"deltaTime":30,"channel":0,"type":"channel","noteNumber":50,"velocity":57,"subtype":"noteOn"},{"deltaTime":7134,"channel":0,"type":"channel","noteNumber":56,"velocity":57,"subtype":"noteOn"},{"deltaTime":184,"channel":0,"type":"channel","subtype":"noteOff","noteNumber":61,"velocity":0},{"deltaTime":529,"channel":0,"type":"channel","noteNumber":51,"velocity":63,"subtype":"noteOn"},{"deltaTime":1876,"channel":0,"type":"channel","subtype":"noteOff","noteNumber":50,"velocity":0},{"deltaTime":3954,"channel":0,"type":"channel","noteNumber":61,"velocity":56,"subtype":"noteOn"},{"deltaTime":1549,"channel":0,"type":"channel","noteNumber":55,"velocity":66,"subtype":"noteOn"},{"deltaTime":1101,"channel":0,"type":"channel","subtype":"noteOff","noteNumber":56,"velocity":0},{"deltaTime":5073,"channel":0,"type":"channel","noteNumber":68,"velocity":66,"subtype":"noteOn"},{"deltaTime":326,"channel":0,"type":"channel","subtype":"noteOff","noteNumber":61,"velocity":0},{"deltaTime":6309,"channel":0,"type":"channel","subtype":"noteOff","noteNumber":68,"velocity":0},{"deltaTime":326,"channel":0,"type":"channel","noteNumber":61,"velocity":60,"subtype":"noteOn"},{"deltaTime":2589,"channel":0,"type":"channel","subtype":"noteOff","noteNumber":55,"velocity":0},{"deltaTime":3972,"channel":0,"type":"channel","noteNumber":56,"velocity":66,"subtype":"noteOn"},{"deltaTime":154,"channel":0,"type":"channel","subtype":"noteOff","noteNumber":61,"velocity":0},{"deltaTime":2466,"channel":0,"type":"channel","subtype":"noteOff","noteNumber":51,"velocity":0},{"deltaTime":621,"channel":0,"type":"channel","noteNumber":53,"velocity":40,"subtype":"noteOn"},{"deltaTime":2497,"channel":0,"type":"channel","noteNumber":61,"velocity":61,"subtype":"noteOn"},{"deltaTime":356,"channel":0,"type":"channel","subtype":"noteOff","noteNumber":56,"velocity":0},{"deltaTime":1101,"channel":0,"type":"channel","noteNumber":55,"velocity":55,"subtype":"noteOn"},{"deltaTime":4821,"channel":0,"type":"channel","noteNumber":65,"velocity":70,"subtype":"noteOn"},{"deltaTime":591,"channel":0,"type":"channel","subtype":"noteOff","noteNumber":61,"velocity":0},{"deltaTime":6450,"channel":0,"type":"channel","noteNumber":51,"velocity":69,"subtype":"noteOn"},{"deltaTime":184,"channel":0,"type":"channel","noteNumber":61,"velocity":59,"subtype":"noteOn"},{"deltaTime":203,"channel":0,"type":"channel","subtype":"noteOff","noteNumber":65,"velocity":0},{"deltaTime":979,"channel":0,"type":"channel","subtype":"noteOff","noteNumber":53,"velocity":0},{"deltaTime":1457,"channel":0,"type":"channel","subtype":"noteOff","noteNumber":55,"velocity":0},{"deltaTime":3505,"channel":0,"type":"channel","subtype":"noteOff","noteNumber":61,"velocity":0},{"deltaTime":479,"channel":0,"type":"channel","noteNumber":56,"velocity":69,"subtype":"noteOn"},{"deltaTime":6512,"channel":0,"type":"channel","subtype":"noteOff","noteNumber":56,"velocity":0},{"deltaTime":142,"channel":0,"type":"channel","noteNumber":61,"velocity":57,"subtype":"noteOn"},{"deltaTime":295,"channel":0,"type":"channel","noteNumber":53,"velocity":73,"subtype":"noteOn"},{"deltaTime":1070,"channel":0,"type":"channel","subtype":"noteOff","noteNumber":51,"velocity":0},{"deltaTime":5380,"channel":0,"type":"channel","noteNumber":65,"velocity":75,"subtype":"noteOn"},{"deltaTime":634,"channel":0,"type":"channel","noteNumber":51,"velocity":69,"subtype":"noteOn"},{"deltaTime":172,"channel":0,"type":"channel","subtype":"noteOff","noteNumber":61,"velocity":0},{"deltaTime":806,"channel":0,"type":"channel","subtype":"noteOff","noteNumber":53,"velocity":0},{"deltaTime":5085,"channel":0,"type":"channel","noteNumber":61,"velocity":69,"subtype":"noteOn"},{"deltaTime":855,"channel":0,"type":"channel","subtype":"noteOff","noteNumber":65,"velocity":0},{"deltaTime":5614,"channel":0,"type":"channel","noteNumber":56,"velocity":77,"subtype":"noteOn"},{"deltaTime":123,"channel":0,"type":"channel","noteNumber":52,"velocity":60,"subtype":"noteOn"},{"deltaTime":2263,"channel":0,"type":"channel","subtype":"noteOff","noteNumber":61,"velocity":0},{"deltaTime":4372,"channel":0,"type":"channel","noteNumber":61,"velocity":73,"subtype":"noteOn"},{"deltaTime":234,"channel":0,"type":"channel","noteNumber":55,"velocity":66,"subtype":"noteOn"},{"deltaTime":111,"channel":0,"type":"channel","noteNumber":53,"velocity":63,"subtype":"noteOn"},{"deltaTime":337,"channel":0,"type":"channel","subtype":"noteOff","noteNumber":51,"velocity":0},{"deltaTime":112,"channel":0,"type":"channel","subtype":"noteOff","noteNumber":52,"velocity":0},{"deltaTime":1315,"channel":0,"type":"channel","subtype":"noteOff","noteNumber":56,"velocity":0},{"deltaTime":1864,"channel":0,"type":"channel","subtype":"noteOff","noteNumber":55,"velocity":0},{"deltaTime":2447,"channel":0,"type":"channel","noteNumber":65,"velocity":70,"subtype":"noteOn"},{"deltaTime":406,"channel":0,"type":"channel","noteNumber":52,"velocity":66,"subtype":"noteOn"},{"deltaTime":184,"channel":0,"type":"channel","subtype":"noteOff","noteNumber":61,"velocity":0},{"deltaTime":744,"channel":0,"type":"channel","subtype":"noteOff","noteNumber":53,"velocity":0},{"deltaTime":4810,"channel":0,"type":"channel","noteNumber":61,"velocity":57,"subtype":"noteOn"},{"deltaTime":1549,"channel":0,"type":"channel","subtype":"noteOff","noteNumber":65,"velocity":0},{"deltaTime":5350,"channel":0,"type":"channel","subtype":"noteOff","noteNumber":52,"velocity":0},{"deltaTime":61,"channel":0,"type":"channel","noteNumber":56,"velocity":72,"subtype":"noteOn"},{"deltaTime":204,"channel":0,"type":"channel","noteNumber":48,"velocity":66,"subtype":"noteOn"},{"deltaTime":153,"channel":0,"type":"channel","subtype":"noteOff","noteNumber":61,"velocity":0},{"deltaTime":5910,"channel":0,"type":"channel","noteNumber":51,"velocity":69,"subtype":"noteOn"},{"deltaTime":184,"channel":0,"type":"channel","noteNumber":61,"velocity":63,"subtype":"noteOn"},{"deltaTime":1070,"channel":0,"type":"channel","subtype":"noteOff","noteNumber":48,"velocity":0},{"deltaTime":4931,"channel":0,"type":"channel","subtype":"noteOff","noteNumber":56,"velocity":0},{"deltaTime":622,"channel":0,"type":"channel","subtype":"noteOff","noteNumber":51,"velocity":0},{"deltaTime":153,"channel":0,"type":"channel","noteNumber":57,"velocity":60,"subtype":"noteOn"},{"deltaTime":173,"channel":0,"type":"channel","noteNumber":68,"velocity":82,"subtype":"noteOn"},{"deltaTime":184,"channel":0,"type":"channel","noteNumber":55,"velocity":64,"subtype":"noteOn"},{"deltaTime":111,"channel":0,"type":"channel","subtype":"noteOff","noteNumber":61,"velocity":0},{"deltaTime":989,"channel":0,"type":"channel","noteNumber":60,"velocity":26,"subtype":"noteOn"},{"deltaTime":1569,"channel":0,"type":"channel","subtype":"noteOff","noteNumber":60,"velocity":0},{"deltaTime":2466,"channel":0,"type":"channel","subtype":"noteOff","noteNumber":57,"velocity":0},{"deltaTime":897,"channel":0,"type":"channel","noteNumber":53,"velocity":69,"subtype":"noteOn"},{"deltaTime":296,"channel":0,"type":"channel","noteNumber":61,"velocity":63,"subtype":"noteOn"},{"deltaTime":172,"channel":0,"type":"channel","subtype":"noteOff","noteNumber":68,"velocity":0},{"deltaTime":418,"channel":0,"type":"channel","subtype":"noteOff","noteNumber":55,"velocity":0},{"deltaTime":4698,"channel":0,"type":"channel","subtype":"noteOff","noteNumber":53,"velocity":0},{"deltaTime":154,"channel":0,"type":"channel","noteNumber":55,"velocity":66,"subtype":"noteOn"},{"deltaTime":110,"channel":0,"type":"channel","subtype":"noteOff","noteNumber":61,"velocity":0},{"deltaTime":683,"channel":0,"type":"channel","noteNumber":56,"velocity":82,"subtype":"noteOn"},{"deltaTime":5380,"channel":0,"type":"channel","subtype":"noteOff","noteNumber":56,"velocity":0},{"deltaTime":837,"channel":0,"type":"channel","noteNumber":51,"velocity":63,"subtype":"noteOn"},{"deltaTime":123,"channel":0,"type":"channel","subtype":"noteOff","noteNumber":55,"velocity":0},{"deltaTime":590,"channel":0,"type":"channel","noteNumber":61,"velocity":70,"subtype":"noteOn"},{"deltaTime":4077,"channel":0,"type":"channel","subtype":"controller","controllerType":64,"value":120},{"deltaTime":142,"channel":0,"type":"channel","subtype":"controller","controllerType":64,"value":56},{"deltaTime":61,"channel":0,"type":"channel","subtype":"controller","controllerType":64,"value":0},{"deltaTime":978,"channel":0,"type":"channel","subtype":"noteOff","noteNumber":61,"velocity":0},{"deltaTime":989,"channel":0,"type":"channel","noteNumber":65,"velocity":82,"subtype":"noteOn"},{"deltaTime":469,"channel":0,"type":"channel","subtype":"noteOff","noteNumber":51,"velocity":0},{"deltaTime":214,"channel":0,"type":"channel","noteNumber":49,"velocity":29,"subtype":"noteOn"},{"deltaTime":112,"channel":0,"type":"channel","noteNumber":50,"velocity":66,"subtype":"noteOn"},{"deltaTime":3984,"channel":0,"type":"channel","subtype":"controller","controllerType":64,"value":56},{"deltaTime":92,"channel":0,"type":"channel","subtype":"controller","controllerType":64,"value":120},{"deltaTime":31,"channel":0,"type":"channel","subtype":"controller","controllerType":64,"value":127},{"deltaTime":295,"channel":0,"type":"channel","subtype":"noteOff","noteNumber":49,"velocity":0},{"deltaTime":1039,"channel":0,"type":"channel","noteNumber":51,"velocity":62,"subtype":"noteOn"},{"deltaTime":418,"channel":0,"type":"channel","noteNumber":61,"velocity":69,"subtype":"noteOn"},{"deltaTime":1101,"channel":0,"type":"channel","subtype":"noteOff","noteNumber":50,"velocity":0},{"deltaTime":31,"channel":0,"type":"channel","subtype":"noteOff","noteNumber":65,"velocity":0},{"deltaTime":4096,"channel":0,"type":"channel","subtype":"noteOff","noteNumber":61,"velocity":0},{"deltaTime":897,"channel":0,"type":"channel","subtype":"noteOff","noteNumber":51,"velocity":0},{"deltaTime":173,"channel":0,"type":"channel","noteNumber":53,"velocity":66,"subtype":"noteOn"},{"deltaTime":184,"channel":0,"type":"channel","noteNumber":56,"velocity":78,"subtype":"noteOn"},{"deltaTime":6358,"channel":0,"type":"channel","noteNumber":55,"velocity":66,"subtype":"noteOn"},{"deltaTime":498,"channel":0,"type":"channel","noteNumber":61,"velocity":69,"subtype":"noteOn"},{"deltaTime":990,"channel":0,"type":"channel","subtype":"noteOff","noteNumber":56,"velocity":0},{"deltaTime":4391,"channel":0,"type":"channel","subtype":"noteOff","noteNumber":61,"velocity":0},{"deltaTime":682,"channel":0,"type":"channel","noteNumber":65,"velocity":73,"subtype":"noteOn"},{"deltaTime":308,"channel":0,"type":"channel","noteNumber":48,"velocity":64,"subtype":"noteOn"},{"deltaTime":172,"channel":0,"type":"channel","subtype":"noteOff","noteNumber":53,"velocity":0},{"deltaTime":714,"channel":0,"type":"channel","subtype":"noteOff","noteNumber":55,"velocity":0},{"deltaTime":61,"channel":0,"type":"channel","subtype":"controller","controllerType":64,"value":120},{"deltaTime":172,"channel":0,"type":"channel","subtype":"controller","controllerType":64,"value":56},{"deltaTime":93,"channel":0,"type":"channel","subtype":"controller","controllerType":64,"value":0},{"deltaTime":4218,"channel":0,"type":"channel","subtype":"controller","controllerType":64,"value":56},{"deltaTime":92,"channel":0,"type":"channel","subtype":"controller","controllerType":64,"value":120},{"deltaTime":31,"channel":0,"type":"channel","subtype":"controller","controllerType":64,"value":127},{"deltaTime":510,"channel":0,"type":"channel","noteNumber":51,"velocity":69,"subtype":"noteOn"},{"deltaTime":173,"channel":0,"type":"channel","noteNumber":61,"velocity":70,"subtype":"noteOn"},{"deltaTime":540,"channel":0,"type":"channel","subtype":"noteOff","noteNumber":65,"velocity":0},{"deltaTime":855,"channel":0,"type":"channel","subtype":"noteOff","noteNumber":48,"velocity":0},{"deltaTime":4077,"channel":0,"type":"channel","subtype":"noteOff","noteNumber":51,"velocity":0},{"deltaTime":234,"channel":0,"type":"channel","noteNumber":53,"velocity":67,"subtype":"noteOn"},{"deltaTime":928,"channel":0,"type":"channel","subtype":"noteOff","noteNumber":61,"velocity":0},{"deltaTime":19,"channel":0,"type":"channel","noteNumber":56,"velocity":82,"subtype":"noteOn"},{"deltaTime":5178,"channel":0,"type":"channel","subtype":"noteOff","noteNumber":56,"velocity":0},{"deltaTime":326,"channel":0,"type":"channel","noteNumber":55,"velocity":70,"subtype":"noteOn"},{"deltaTime":1008,"channel":0,"type":"channel","noteNumber":61,"velocity":71,"subtype":"noteOn"},{"deltaTime":1396,"channel":0,"type":"channel","subtype":"noteOff","noteNumber":53,"velocity":0},{"deltaTime":4698,"channel":0,"type":"channel","subtype":"noteOff","noteNumber":61,"velocity":0},{"deltaTime":31,"channel":0,"type":"channel","noteNumber":51,"velocity":55,"subtype":"noteOn"},{"deltaTime":202,"channel":0,"type":"channel","subtype":"noteOff","noteNumber":55,"velocity":0},{"deltaTime":216,"channel":0,"type":"channel","noteNumber":65,"velocity":77,"subtype":"noteOn"},{"deltaTime":6358,"channel":0,"type":"channel","noteNumber":53,"velocity":69,"subtype":"noteOn"},{"deltaTime":123,"channel":0,"type":"channel","noteNumber":61,"velocity":74,"subtype":"noteOn"},{"deltaTime":437,"channel":0,"type":"channel","subtype":"noteOff","noteNumber":65,"velocity":0},{"deltaTime":30,"channel":0,"type":"channel","subtype":"noteOff","noteNumber":51,"velocity":0},{"deltaTime":5769,"channel":0,"type":"channel","noteNumber":55,"velocity":77,"subtype":"noteOn"},{"deltaTime":356,"channel":0,"type":"channel","noteNumber":56,"velocity":78,"subtype":"noteOn"},{"deltaTime":1458,"channel":0,"type":"channel","subtype":"noteOff","noteNumber":53,"velocity":0},{"deltaTime":590,"channel":0,"type":"channel","subtype":"noteOff","noteNumber":61,"velocity":0},{"deltaTime":4464,"channel":0,"type":"channel","subtype":"noteOff","noteNumber":55,"velocity":0},{"deltaTime":31,"channel":0,"type":"channel","noteNumber":61,"velocity":69,"subtype":"noteOn"},{"deltaTime":203,"channel":0,"type":"channel","noteNumber":48,"velocity":70,"subtype":"noteOn"},{"deltaTime":215,"channel":0,"type":"channel","subtype":"noteOff","noteNumber":56,"velocity":0},{"deltaTime":5787,"channel":0,"type":"channel","noteNumber":51,"velocity":75,"subtype":"noteOn"},{"deltaTime":215,"channel":0,"type":"channel","subtype":"noteOff","noteNumber":48,"velocity":0},{"deltaTime":92,"channel":0,"type":"channel","noteNumber":68,"velocity":81,"subtype":"noteOn"},{"deltaTime":1691,"channel":0,"type":"channel","subtype":"noteOff","noteNumber":61,"velocity":0},{"deltaTime":1335,"channel":0,"type":"channel","subtype":"controller","controllerType":64,"value":56},{"deltaTime":61,"channel":0,"type":"channel","subtype":"controller","controllerType":64,"value":0},{"deltaTime":3179,"channel":0,"type":"channel","noteNumber":61,"velocity":63,"subtype":"noteOn"},{"deltaTime":265,"channel":0,"type":"channel","noteNumber":52,"velocity":69,"subtype":"noteOn"},{"deltaTime":245,"channel":0,"type":"channel","subtype":"controller","controllerType":64,"value":56},{"deltaTime":112,"channel":0,"type":"channel","subtype":"controller","controllerType":64,"value":120},{"deltaTime":30,"channel":0,"type":"channel","subtype":"controller","controllerType":64,"value":127},{"deltaTime":510,"channel":0,"type":"channel","subtype":"noteOff","noteNumber":51,"velocity":0},{"deltaTime":92,"channel":0,"type":"channel","subtype":"noteOff","noteNumber":68,"velocity":0},{"deltaTime":4453,"channel":0,"type":"channel","noteNumber":56,"velocity":78,"subtype":"noteOn"},{"deltaTime":836,"channel":0,"type":"channel","subtype":"noteOff","noteNumber":52,"velocity":0},{"deltaTime":30,"channel":0,"type":"channel","noteNumber":53,"velocity":75,"subtype":"noteOn"},{"deltaTime":437,"channel":0,"type":"channel","subtype":"noteOff","noteNumber":61,"velocity":0},{"deltaTime":4760,"channel":0,"type":"channel","subtype":"noteOff","noteNumber":56,"velocity":0},{"deltaTime":897,"channel":0,"type":"channel","noteNumber":61,"velocity":66,"subtype":"noteOn"},{"deltaTime":948,"channel":0,"type":"channel","noteNumber":50,"velocity":54,"subtype":"noteOn"},{"deltaTime":295,"channel":0,"type":"channel","subtype":"noteOff","noteNumber":53,"velocity":0},{"deltaTime":2730,"channel":0,"type":"channel","subtype":"noteOff","noteNumber":50,"velocity":0},{"deltaTime":1132,"channel":0,"type":"channel","subtype":"noteOff","noteNumber":61,"velocity":0},{"deltaTime":1284,"channel":0,"type":"channel","noteNumber":65,"velocity":84,"subtype":"noteOn"},{"deltaTime":1864,"channel":0,"type":"channel","noteNumber":51,"velocity":61,"subtype":"noteOn"},{"deltaTime":990,"channel":0,"type":"channel","noteNumber":49,"velocity":21,"subtype":"noteOn"},{"deltaTime":2189,"channel":0,"type":"channel","subtype":"noteOff","noteNumber":49,"velocity":0},{"deltaTime":990,"channel":0,"type":"channel","subtype":"noteOff","noteNumber":51,"velocity":0},{"deltaTime":1212,"channel":0,"type":"channel","noteNumber":61,"velocity":75,"subtype":"noteOn"},{"deltaTime":184,"channel":0,"type":"channel","subtype":"noteOff","noteNumber":65,"velocity":0},{"deltaTime":173,"channel":0,"type":"channel","noteNumber":53,"velocity":71,"subtype":"noteOn"},{"deltaTime":4728,"channel":0,"type":"channel","subtype":"noteOff","noteNumber":53,"velocity":0},{"deltaTime":836,"channel":0,"type":"channel","noteNumber":55,"velocity":75,"subtype":"noteOn"},{"deltaTime":265,"channel":0,"type":"channel","noteNumber":56,"velocity":84,"subtype":"noteOn"},{"deltaTime":1488,"channel":0,"type":"channel","subtype":"noteOff","noteNumber":61,"velocity":0},{"deltaTime":3800,"channel":0,"type":"channel","subtype":"noteOff","noteNumber":56,"velocity":0},{"deltaTime":1009,"channel":0,"type":"channel","noteNumber":51,"velocity":61,"subtype":"noteOn"},{"deltaTime":387,"channel":0,"type":"channel","noteNumber":61,"velocity":72,"subtype":"noteOn"},{"deltaTime":510,"channel":0,"type":"channel","subtype":"noteOff","noteNumber":55,"velocity":0},{"deltaTime":5104,"channel":0,"type":"channel","subtype":"noteOff","noteNumber":61,"velocity":0},{"deltaTime":634,"channel":0,"type":"channel","noteNumber":65,"velocity":73,"subtype":"noteOn"},{"deltaTime":744,"channel":0,"type":"channel","noteNumber":48,"velocity":66,"subtype":"noteOn"},{"deltaTime":682,"channel":0,"type":"channel","subtype":"noteOff","noteNumber":51,"velocity":0},{"deltaTime":5227,"channel":0,"type":"channel","noteNumber":53,"velocity":69,"subtype":"noteOn"},{"deltaTime":203,"channel":0,"type":"channel","noteNumber":61,"velocity":70,"subtype":"noteOn"},{"deltaTime":246,"channel":0,"type":"channel","subtype":"noteOff","noteNumber":48,"velocity":0},{"deltaTime":141,"channel":0,"type":"channel","subtype":"noteOff","noteNumber":65,"velocity":0},{"deltaTime":5117,"channel":0,"type":"channel","noteNumber":55,"velocity":73,"subtype":"noteOn"},{"deltaTime":652,"channel":0,"type":"channel","noteNumber":56,"velocity":81,"subtype":"noteOn"},{"deltaTime":387,"channel":0,"type":"channel","subtype":"noteOff","noteNumber":61,"velocity":0},{"deltaTime":714,"channel":0,"type":"channel","subtype":"noteOff","noteNumber":53,"velocity":0},{"deltaTime":3393,"channel":0,"type":"channel","subtype":"noteOff","noteNumber":56,"velocity":0},{"deltaTime":683,"channel":0,"type":"channel","subtype":"noteOff","noteNumber":55,"velocity":0},{"deltaTime":357,"channel":0,"type":"channel","noteNumber":51,"velocity":69,"subtype":"noteOn"},{"deltaTime":1396,"channel":0,"type":"channel","noteNumber":61,"velocity":68,"subtype":"noteOn"},{"deltaTime":5460,"channel":0,"type":"channel","subtype":"noteOff","noteNumber":61,"velocity":0},{"deltaTime":542,"channel":0,"type":"channel","noteNumber":65,"velocity":80,"subtype":"noteOn"},{"deltaTime":774,"channel":0,"type":"channel","noteNumber":53,"velocity":80,"subtype":"noteOn"},{"deltaTime":173,"channel":0,"type":"channel","subtype":"noteOff","noteNumber":51,"velocity":0},{"deltaTime":5921,"channel":0,"type":"channel","noteNumber":55,"velocity":79,"subtype":"noteOn"},{"deltaTime":468,"channel":0,"type":"channel","noteNumber":61,"velocity":76,"subtype":"noteOn"},{"deltaTime":836,"channel":0,"type":"channel","subtype":"noteOff","noteNumber":65,"velocity":0},{"deltaTime":1070,"channel":0,"type":"channel","subtype":"noteOff","noteNumber":53,"velocity":0},{"deltaTime":4046,"channel":0,"type":"channel","noteNumber":56,"velocity":84,"subtype":"noteOn"},{"deltaTime":203,"channel":0,"type":"channel","noteNumber":48,"velocity":70,"subtype":"noteOn"},{"deltaTime":1193,"channel":0,"type":"channel","subtype":"noteOff","noteNumber":61,"velocity":0},{"deltaTime":4747,"channel":0,"type":"channel","noteNumber":61,"velocity":69,"subtype":"noteOn"},{"deltaTime":185,"channel":0,"type":"channel","noteNumber":51,"velocity":75,"subtype":"noteOn"},{"deltaTime":1427,"channel":0,"type":"channel","subtype":"noteOff","noteNumber":55,"velocity":0},{"deltaTime":172,"channel":0,"type":"channel","subtype":"noteOff","noteNumber":48,"velocity":0},{"deltaTime":2945,"channel":0,"type":"channel","subtype":"noteOff","noteNumber":56,"velocity":0},{"deltaTime":1224,"channel":0,"type":"channel","subtype":"noteOff","noteNumber":61,"velocity":0},{"deltaTime":1131,"channel":0,"type":"channel","subtype":"noteOff","noteNumber":51,"velocity":0},{"deltaTime":234,"channel":0,"type":"channel","noteNumber":53,"velocity":77,"subtype":"noteOn"},{"deltaTime":357,"channel":0,"type":"channel","noteNumber":68,"velocity":84,"subtype":"noteOn"},{"deltaTime":6807,"channel":0,"type":"channel","subtype":"noteOff","noteNumber":68,"velocity":0},{"deltaTime":122,"channel":0,"type":"channel","noteNumber":55,"velocity":84,"subtype":"noteOn"},{"deltaTime":296,"channel":0,"type":"channel","noteNumber":61,"velocity":69,"subtype":"noteOn"},{"deltaTime":1956,"channel":0,"type":"channel","subtype":"noteOff","noteNumber":55,"velocity":0},{"deltaTime":1906,"channel":0,"type":"channel","subtype":"noteOff","noteNumber":53,"velocity":0},{"deltaTime":1722,"channel":0,"type":"channel","subtype":"noteOff","noteNumber":61,"velocity":0},{"deltaTime":559,"channel":0,"type":"channel","noteNumber":56,"velocity":92,"subtype":"noteOn"},{"deltaTime":1519,"channel":0,"type":"channel","noteNumber":63,"velocity":26,"subtype":"noteOn"},{"deltaTime":2171,"channel":0,"type":"channel","subtype":"noteOff","noteNumber":63,"velocity":0},{"deltaTime":2558,"channel":0,"type":"channel","noteNumber":61,"velocity":74,"subtype":"noteOn"},{"deltaTime":3658,"channel":0,"type":"channel","subtype":"noteOff","noteNumber":56,"velocity":0},{"deltaTime":1784,"channel":0,"type":"channel","noteNumber":35,"velocity":87,"subtype":"noteOn"},{"deltaTime":173,"channel":0,"type":"channel","noteNumber":56,"velocity":85,"subtype":"noteOn"},{"deltaTime":183,"channel":0,"type":"channel","noteNumber":47,"velocity":84,"subtype":"noteOn"},{"deltaTime":143,"channel":0,"type":"channel","noteNumber":68,"velocity":87,"subtype":"noteOn"},{"deltaTime":1457,"channel":0,"type":"channel","subtype":"controller","controllerType":64,"value":120},{"deltaTime":122,"channel":0,"type":"channel","subtype":"controller","controllerType":64,"value":56},{"deltaTime":31,"channel":0,"type":"channel","subtype":"noteOff","noteNumber":61,"velocity":0},{"deltaTime":111,"channel":0,"type":"channel","subtype":"controller","controllerType":64,"value":0},{"deltaTime":2447,"channel":0,"type":"channel","subtype":"controller","controllerType":64,"value":56},{"deltaTime":49,"channel":0,"type":"channel","subtype":"controller","controllerType":64,"value":112},{"deltaTime":93,"channel":0,"type":"channel","subtype":"controller","controllerType":64,"value":127},{"deltaTime":2263,"channel":0,"type":"channel","subtype":"noteOff","noteNumber":35,"velocity":0},{"deltaTime":498,"channel":0,"type":"channel","noteNumber":61,"velocity":73,"subtype":"noteOn"},{"deltaTime":1020,"channel":0,"type":"channel","subtype":"noteOff","noteNumber":47,"velocity":0},{"deltaTime":326,"channel":0,"type":"channel","subtype":"noteOff","noteNumber":68,"velocity":0},{"deltaTime":296,"channel":0,"type":"channel","subtype":"noteOff","noteNumber":56,"velocity":0},{"deltaTime":4840,"channel":0,"type":"channel","noteNumber":54,"velocity":85,"subtype":"noteOn"},{"deltaTime":1579,"channel":0,"type":"channel","subtype":"noteOff","noteNumber":61,"velocity":0},{"deltaTime":172,"channel":0,"type":"channel","noteNumber":63,"velocity":31,"subtype":"noteOn"},{"deltaTime":2233,"channel":0,"type":"channel","subtype":"noteOff","noteNumber":63,"velocity":0},{"deltaTime":2079,"channel":0,"type":"channel","noteNumber":47,"velocity":72,"subtype":"noteOn"},{"deltaTime":245,"channel":0,"type":"channel","noteNumber":61,"velocity":76,"subtype":"noteOn"},{"deltaTime":2546,"channel":0,"type":"channel","subtype":"noteOff","noteNumber":54,"velocity":0},{"deltaTime":3659,"channel":0,"type":"channel","subtype":"noteOff","noteNumber":61,"velocity":0},{"deltaTime":62,"channel":0,"type":"channel","noteNumber":66,"velocity":84,"subtype":"noteOn"},{"deltaTime":202,"channel":0,"type":"channel","noteNumber":54,"velocity":87,"subtype":"noteOn"},{"deltaTime":338,"channel":0,"type":"channel","noteNumber":49,"velocity":78,"subtype":"noteOn"},{"deltaTime":6501,"channel":0,"type":"channel","noteNumber":51,"velocity":87,"subtype":"noteOn"},{"deltaTime":805,"channel":0,"type":"channel","noteNumber":61,"velocity":54,"subtype":"noteOn"},{"deltaTime":357,"channel":0,"type":"channel","subtype":"noteOff","noteNumber":66,"velocity":0},{"deltaTime":1070,"channel":0,"type":"channel","subtype":"noteOff","noteNumber":54,"velocity":0},{"deltaTime":713,"channel":0,"type":"channel","subtype":"noteOff","noteNumber":61,"velocity":0},{"deltaTime":3475,"channel":0,"type":"channel","noteNumber":54,"velocity":84,"subtype":"noteOn"},{"deltaTime":214,"channel":0,"type":"channel","subtype":"noteOff","noteNumber":51,"velocity":0},{"deltaTime":744,"channel":0,"type":"channel","subtype":"noteOff","noteNumber":47,"velocity":0},{"deltaTime":142,"channel":0,"type":"channel","subtype":"noteOff","noteNumber":49,"velocity":0},{"deltaTime":264,"channel":0,"type":"channel","noteNumber":61,"velocity":31,"subtype":"noteOn"},{"deltaTime":1784,"channel":0,"type":"channel","subtype":"noteOff","noteNumber":61,"velocity":0},{"deltaTime":2742,"channel":0,"type":"channel","noteNumber":61,"velocity":60,"subtype":"noteOn"},{"deltaTime":917,"channel":0,"type":"channel","subtype":"noteOff","noteNumber":54,"velocity":0},{"deltaTime":5319,"channel":0,"type":"channel","noteNumber":35,"velocity":82,"subtype":"noteOn"},{"deltaTime":245,"channel":0,"type":"channel","noteNumber":47,"velocity":79,"subtype":"noteOn"},{"deltaTime":326,"channel":0,"type":"channel","noteNumber":56,"velocity":87,"subtype":"noteOn"},{"deltaTime":173,"channel":0,"type":"channel","noteNumber":68,"velocity":84,"subtype":"noteOn"},{"deltaTime":1334,"channel":0,"type":"channel","subtype":"noteOff","noteNumber":61,"velocity":0},{"deltaTime":4760,"channel":0,"type":"channel","noteNumber":42,"velocity":72,"subtype":"noteOn"},{"deltaTime":448,"channel":0,"type":"channel","noteNumber":61,"velocity":65,"subtype":"noteOn"},{"deltaTime":326,"channel":0,"type":"channel","subtype":"noteOff","noteNumber":47,"velocity":0},{"deltaTime":123,"channel":0,"type":"channel","subtype":"noteOff","noteNumber":56,"velocity":0},{"deltaTime":49,"channel":0,"type":"channel","subtype":"noteOff","noteNumber":68,"velocity":0},{"deltaTime":5738,"channel":0,"type":"channel","noteNumber":47,"velocity":75,"subtype":"noteOn"},{"deltaTime":215,"channel":0,"type":"channel","subtype":"noteOff","noteNumber":61,"velocity":0},{"deltaTime":61,"channel":0,"type":"channel","noteNumber":56,"velocity":81,"subtype":"noteOn"},{"deltaTime":2497,"channel":0,"type":"channel","subtype":"noteOff","noteNumber":47,"velocity":0},{"deltaTime":1119,"channel":0,"type":"channel","subtype":"noteOff","noteNumber":35,"velocity":0},{"deltaTime":480,"channel":0,"type":"channel","subtype":"noteOff","noteNumber":42,"velocity":0},{"deltaTime":2497,"channel":0,"type":"channel","noteNumber":61,"velocity":66,"subtype":"noteOn"},{"deltaTime":1254,"channel":0,"type":"channel","subtype":"noteOff","noteNumber":56,"velocity":0},{"deltaTime":3597,"channel":0,"type":"channel","subtype":"noteOff","noteNumber":61,"velocity":0},{"deltaTime":1119,"channel":0,"type":"channel","noteNumber":30,"velocity":83,"subtype":"noteOn"},{"deltaTime":246,"channel":0,"type":"channel","noteNumber":42,"velocity":87,"subtype":"noteOn"},{"deltaTime":173,"channel":0,"type":"channel","noteNumber":66,"velocity":84,"subtype":"noteOn"},{"deltaTime":123,"channel":0,"type":"channel","noteNumber":54,"velocity":93,"subtype":"noteOn"},{"deltaTime":6032,"channel":0,"type":"channel","noteNumber":37,"velocity":65,"subtype":"noteOn"},{"deltaTime":652,"channel":0,"type":"channel","subtype":"noteOff","noteNumber":42,"velocity":0},{"deltaTime":184,"channel":0,"type":"channel","noteNumber":61,"velocity":60,"subtype":"noteOn"},{"deltaTime":591,"channel":0,"type":"channel","subtype":"noteOff","noteNumber":30,"velocity":0},{"deltaTime":172,"channel":0,"type":"channel","subtype":"noteOff","noteNumber":66,"velocity":0},{"deltaTime":572,"channel":0,"type":"channel","subtype":"noteOff","noteNumber":54,"velocity":0},{"deltaTime":3271,"channel":0,"type":"channel","subtype":"noteOff","noteNumber":37,"velocity":0},{"deltaTime":1427,"channel":0,"type":"channel","noteNumber":30,"velocity":78,"subtype":"noteOn"},{"deltaTime":203,"channel":0,"type":"channel","noteNumber":42,"velocity":84,"subtype":"noteOn"},{"deltaTime":215,"channel":0,"type":"channel","subtype":"noteOff","noteNumber":61,"velocity":0},{"deltaTime":80,"channel":0,"type":"channel","noteNumber":54,"velocity":82,"subtype":"noteOn"},{"deltaTime":1458,"channel":0,"type":"channel","noteNumber":63,"velocity":32,"subtype":"noteOn"},{"deltaTime":122,"channel":0,"type":"channel","noteNumber":66,"velocity":53,"subtype":"noteOn"},{"deltaTime":1427,"channel":0,"type":"channel","subtype":"noteOff","noteNumber":63,"velocity":0},{"deltaTime":203,"channel":0,"type":"channel","subtype":"noteOff","noteNumber":42,"velocity":0},{"deltaTime":1611,"channel":0,"type":"channel","subtype":"noteOff","noteNumber":30,"velocity":0},{"deltaTime":1518,"channel":0,"type":"channel","noteNumber":61,"velocity":66,"subtype":"noteOn"},{"deltaTime":143,"channel":0,"type":"channel","subtype":"noteOff","noteNumber":66,"velocity":0},{"deltaTime":1334,"channel":0,"type":"channel","subtype":"noteOff","noteNumber":54,"velocity":0},{"deltaTime":4138,"channel":0,"type":"channel","subtype":"noteOff","noteNumber":61,"velocity":0},{"deltaTime":560,"channel":0,"type":"channel","subtype":"controller","controllerType":64,"value":120},{"deltaTime":153,"channel":0,"type":"channel","subtype":"controller","controllerType":64,"value":56},{"deltaTime":31,"channel":0,"type":"channel","noteNumber":28,"velocity":89,"subtype":"noteOn"},{"deltaTime":173,"channel":0,"type":"channel","noteNumber":56,"velocity":89,"subtype":"noteOn"},{"deltaTime":184,"channel":0,"type":"channel","noteNumber":40,"velocity":82,"subtype":"noteOn"},{"deltaTime":142,"channel":0,"type":"channel","noteNumber":68,"velocity":85,"subtype":"noteOn"},{"deltaTime":245,"channel":0,"type":"channel","subtype":"controller","controllerType":64,"value":0},{"deltaTime":357,"channel":0,"type":"channel","noteNumber":38,"velocity":54,"subtype":"noteOn"},{"deltaTime":793,"channel":0,"type":"channel","noteNumber":30,"velocity":30,"subtype":"noteOn"},{"deltaTime":929,"channel":0,"type":"channel","subtype":"controller","controllerType":64,"value":56},{"deltaTime":92,"channel":0,"type":"channel","subtype":"controller","controllerType":64,"value":120},{"deltaTime":18,"channel":0,"type":"channel","subtype":"controller","controllerType":64,"value":127},{"deltaTime":1581,"channel":0,"type":"channel","subtype":"noteOff","noteNumber":30,"velocity":0},{"deltaTime":1629,"channel":0,"type":"channel","subtype":"noteOff","noteNumber":38,"velocity":0},{"deltaTime":929,"channel":0,"type":"channel","noteNumber":61,"velocity":61,"subtype":"noteOn"},{"deltaTime":621,"channel":0,"type":"channel","noteNumber":35,"velocity":67,"subtype":"noteOn"},{"deltaTime":234,"channel":0,"type":"channel","subtype":"noteOff","noteNumber":56,"velocity":0},{"deltaTime":356,"channel":0,"type":"channel","subtype":"noteOff","noteNumber":68,"velocity":0},{"deltaTime":93,"channel":0,"type":"channel","subtype":"noteOff","noteNumber":28,"velocity":0},{"deltaTime":214,"channel":0,"type":"channel","subtype":"noteOff","noteNumber":40,"velocity":0},{"deltaTime":1784,"channel":0,"type":"channel","subtype":"noteOff","noteNumber":35,"velocity":0},{"deltaTime":2669,"channel":0,"type":"channel","subtype":"noteOff","noteNumber":61,"velocity":0},{"deltaTime":449,"channel":0,"type":"channel","noteNumber":56,"velocity":85,"subtype":"noteOn"},{"deltaTime":5910,"channel":0,"type":"channel","noteNumber":61,"velocity":60,"subtype":"noteOn"},{"deltaTime":2354,"channel":0,"type":"channel","subtype":"noteOff","noteNumber":56,"velocity":0},{"deltaTime":3831,"channel":0,"type":"channel","noteNumber":40,"velocity":81,"subtype":"noteOn"},{"deltaTime":173,"channel":0,"type":"channel","noteNumber":52,"velocity":82,"subtype":"noteOn"},{"deltaTime":245,"channel":0,"type":"channel","noteNumber":66,"velocity":82,"subtype":"noteOn"},{"deltaTime":204,"channel":0,"type":"channel","noteNumber":54,"velocity":88,"subtype":"noteOn"},{"deltaTime":1008,"channel":0,"type":"channel","subtype":"noteOff","noteNumber":61,"velocity":0},{"deltaTime":3954,"channel":0,"type":"channel","subtype":"noteOff","noteNumber":52,"velocity":0},{"deltaTime":602,"channel":0,"type":"channel","subtype":"noteOff","noteNumber":54,"velocity":0},{"deltaTime":265,"channel":0,"type":"channel","noteNumber":61,"velocity":64,"subtype":"noteOn"},{"deltaTime":203,"channel":0,"type":"channel","noteNumber":47,"velocity":72,"subtype":"noteOn"},{"deltaTime":449,"channel":0,"type":"channel","subtype":"noteOff","noteNumber":66,"velocity":0},{"deltaTime":1193,"channel":0,"type":"channel","subtype":"noteOff","noteNumber":40,"velocity":0},{"deltaTime":1150,"channel":0,"type":"channel","subtype":"noteOff","noteNumber":47,"velocity":0},{"deltaTime":3099,"channel":0,"type":"channel","subtype":"noteOff","noteNumber":61,"velocity":0},{"deltaTime":886,"channel":0,"type":"channel","noteNumber":54,"velocity":80,"subtype":"noteOn"},{"deltaTime":5737,"channel":0,"type":"channel","noteNumber":61,"velocity":60,"subtype":"noteOn"},{"deltaTime":1611,"channel":0,"type":"channel","subtype":"noteOff","noteNumber":54,"velocity":0},{"deltaTime":3474,"channel":0,"type":"channel","subtype":"noteOff","noteNumber":61,"velocity":0},{"deltaTime":978,"channel":0,"type":"channel","subtype":"controller","controllerType":64,"value":120},{"deltaTime":154,"channel":0,"type":"channel","subtype":"controller","controllerType":64,"value":56},{"deltaTime":110,"channel":0,"type":"channel","subtype":"controller","controllerType":64,"value":0},{"deltaTime":388,"channel":0,"type":"channel","noteNumber":33,"velocity":84,"subtype":"noteOn"},{"deltaTime":184,"channel":0,"type":"channel","noteNumber":56,"velocity":87,"subtype":"noteOn"},{"deltaTime":204,"channel":0,"type":"channel","noteNumber":45,"velocity":84,"subtype":"noteOn"},{"deltaTime":183,"channel":0,"type":"channel","noteNumber":68,"velocity":83,"subtype":"noteOn"},{"deltaTime":825,"channel":0,"type":"channel","noteNumber":43,"velocity":38,"subtype":"noteOn"},{"deltaTime":806,"channel":0,"type":"channel","subtype":"controller","controllerType":64,"value":40},{"deltaTime":91,"channel":0,"type":"channel","subtype":"controller","controllerType":64,"value":104},{"deltaTime":92,"channel":0,"type":"channel","subtype":"controller","controllerType":64,"value":127},{"deltaTime":468,"channel":0,"type":"channel","subtype":"noteOff","noteNumber":43,"velocity":0},{"deltaTime":3394,"channel":0,"type":"channel","subtype":"noteOff","noteNumber":45,"velocity":0},{"deltaTime":296,"channel":0,"type":"channel","subtype":"noteOff","noteNumber":68,"velocity":0},{"deltaTime":682,"channel":0,"type":"channel","noteNumber":61,"velocity":71,"subtype":"noteOn"},{"deltaTime":234,"channel":0,"type":"channel","noteNumber":40,"velocity":74,"subtype":"noteOn"},{"deltaTime":510,"channel":0,"type":"channel","subtype":"noteOff","noteNumber":33,"velocity":0},{"deltaTime":357,"channel":0,"type":"channel","subtype":"noteOff","noteNumber":56,"velocity":0},{"deltaTime":5116,"channel":0,"type":"channel","noteNumber":45,"velocity":73,"subtype":"noteOn"},{"deltaTime":886,"channel":0,"type":"channel","noteNumber":54,"velocity":79,"subtype":"noteOn"},{"deltaTime":214,"channel":0,"type":"channel","subtype":"noteOff","noteNumber":45,"velocity":0},{"deltaTime":1009,"channel":0,"type":"channel","subtype":"noteOff","noteNumber":61,"velocity":0},{"deltaTime":4421,"channel":0,"type":"channel","subtype":"noteOff","noteNumber":40,"velocity":0},{"deltaTime":388,"channel":0,"type":"channel","noteNumber":61,"velocity":62,"subtype":"noteOn"},{"deltaTime":1611,"channel":0,"type":"channel","subtype":"noteOff","noteNumber":54,"velocity":0},{"deltaTime":4219,"channel":0,"type":"channel","subtype":"noteOff","noteNumber":61,"velocity":0},{"deltaTime":326,"channel":0,"type":"channel","subtype":"controller","controllerType":64,"value":120},{"deltaTime":153,"channel":0,"type":"channel","subtype":"controller","controllerType":64,"value":56},{"deltaTime":142,"channel":0,"type":"channel","subtype":"controller","controllerType":64,"value":0},{"deltaTime":590,"channel":0,"type":"channel","noteNumber":42,"velocity":89,"subtype":"noteOn"},{"deltaTime":185,"channel":0,"type":"channel","noteNumber":68,"velocity":84,"subtype":"noteOn"},{"deltaTime":202,"channel":0,"type":"channel","noteNumber":30,"velocity":82,"subtype":"noteOn"},{"deltaTime":124,"channel":0,"type":"channel","noteNumber":56,"velocity":88,"subtype":"noteOn"},{"deltaTime":418,"channel":0,"type":"channel","noteNumber":32,"velocity":43,"subtype":"noteOn"},{"deltaTime":682,"channel":0,"type":"channel","subtype":"controller","controllerType":64,"value":56},{"deltaTime":92,"channel":0,"type":"channel","subtype":"controller","controllerType":64,"value":120},{"deltaTime":31,"channel":0,"type":"channel","subtype":"controller","controllerType":64,"value":127},{"deltaTime":4483,"channel":0,"type":"channel","subtype":"noteOff","noteNumber":68,"velocity":0},{"deltaTime":387,"channel":0,"type":"channel","noteNumber":37,"velocity":66,"subtype":"noteOn"},{"deltaTime":296,"channel":0,"type":"channel","subtype":"noteOff","noteNumber":42,"velocity":0},{"deltaTime":61,"channel":0,"type":"channel","noteNumber":61,"velocity":64,"subtype":"noteOn"},{"deltaTime":184,"channel":0,"type":"channel","subtype":"noteOff","noteNumber":56,"velocity":0},{"deltaTime":19,"channel":0,"type":"channel","subtype":"noteOff","noteNumber":32,"velocity":0},{"deltaTime":1408,"channel":0,"type":"channel","subtype":"noteOff","noteNumber":30,"velocity":0},{"deltaTime":3616,"channel":0,"type":"channel","subtype":"noteOff","noteNumber":37,"velocity":0},{"deltaTime":480,"channel":0,"type":"channel","noteNumber":30,"velocity":70,"subtype":"noteOn"},{"deltaTime":479,"channel":0,"type":"channel","noteNumber":42,"velocity":81,"subtype":"noteOn"},{"deltaTime":265,"channel":0,"type":"channel","noteNumber":54,"velocity":77,"subtype":"noteOn"},{"deltaTime":978,"channel":0,"type":"channel","subtype":"noteOff","noteNumber":61,"velocity":0},{"deltaTime":1192,"channel":0,"type":"channel","noteNumber":63,"velocity":25,"subtype":"noteOn"},{"deltaTime":917,"channel":0,"type":"channel","subtype":"noteOff","noteNumber":42,"velocity":0},{"deltaTime":867,"channel":0,"type":"channel","subtype":"noteOff","noteNumber":30,"velocity":0},{"deltaTime":479,"channel":0,"type":"channel","subtype":"noteOff","noteNumber":63,"velocity":0},{"deltaTime":1630,"channel":0,"type":"channel","noteNumber":61,"velocity":57,"subtype":"noteOn"},{"deltaTime":1192,"channel":0,"type":"channel","subtype":"noteOff","noteNumber":54,"velocity":0},{"deltaTime":4686,"channel":0,"type":"channel","subtype":"noteOff","noteNumber":61,"velocity":0},{"deltaTime":357,"channel":0,"type":"channel","subtype":"controller","controllerType":64,"value":104},{"deltaTime":123,"channel":0,"type":"channel","subtype":"controller","controllerType":64,"value":40},{"deltaTime":92,"channel":0,"type":"channel","subtype":"controller","controllerType":64,"value":0},{"deltaTime":326,"channel":0,"type":"channel","noteNumber":40,"velocity":87,"subtype":"noteOn"},{"deltaTime":123,"channel":0,"type":"channel","noteNumber":28,"velocity":88,"subtype":"noteOn"},{"deltaTime":173,"channel":0,"type":"channel","noteNumber":68,"velocity":84,"subtype":"noteOn"},{"deltaTime":184,"channel":0,"type":"channel","noteNumber":56,"velocity":90,"subtype":"noteOn"},{"deltaTime":2374,"channel":0,"type":"channel","subtype":"controller","controllerType":64,"value":56},{"deltaTime":92,"channel":0,"type":"channel","subtype":"controller","controllerType":64,"value":120},{"deltaTime":30,"channel":0,"type":"channel","subtype":"controller","controllerType":64,"value":127},{"deltaTime":1783,"channel":0,"type":"channel","subtype":"noteOff","noteNumber":28,"velocity":0},{"deltaTime":1722,"channel":0,"type":"channel","noteNumber":61,"velocity":58,"subtype":"noteOn"},{"deltaTime":173,"channel":0,"type":"channel","subtype":"noteOff","noteNumber":40,"velocity":0},{"deltaTime":295,"channel":0,"type":"channel","subtype":"noteOff","noteNumber":56,"velocity":0},{"deltaTime":419,"channel":0,"type":"channel","subtype":"noteOff","noteNumber":68,"velocity":0},{"deltaTime":5411,"channel":0,"type":"channel","noteNumber":56,"velocity":69,"subtype":"noteOn"},{"deltaTime":153,"channel":0,"type":"channel","subtype":"noteOff","noteNumber":61,"velocity":0},{"deltaTime":6297,"channel":0,"type":"channel","noteNumber":61,"velocity":64,"subtype":"noteOn"},{"deltaTime":1630,"channel":0,"type":"channel","subtype":"noteOff","noteNumber":56,"velocity":0},{"deltaTime":4667,"channel":0,"type":"channel","noteNumber":66,"velocity":80,"subtype":"noteOn"},{"deltaTime":184,"channel":0,"type":"channel","noteNumber":35,"velocity":82,"subtype":"noteOn"},{"deltaTime":172,"channel":0,"type":"channel","subtype":"noteOff","noteNumber":61,"velocity":0},{"deltaTime":32,"channel":0,"type":"channel","noteNumber":47,"velocity":83,"subtype":"noteOn"},{"deltaTime":184,"channel":0,"type":"channel","noteNumber":54,"velocity":89,"subtype":"noteOn"},{"deltaTime":234,"channel":0,"type":"channel","subtype":"controller","controllerType":64,"value":120},{"deltaTime":92,"channel":0,"type":"channel","subtype":"controller","controllerType":64,"value":56},{"deltaTime":61,"channel":0,"type":"channel","subtype":"controller","controllerType":64,"value":0},{"deltaTime":2220,"channel":0,"type":"channel","subtype":"controller","controllerType":64,"value":56},{"deltaTime":93,"channel":0,"type":"channel","subtype":"controller","controllerType":64,"value":120},{"deltaTime":30,"channel":0,"type":"channel","subtype":"controller","controllerType":64,"value":127},{"deltaTime":3364,"channel":0,"type":"channel","noteNumber":61,"velocity":66,"subtype":"noteOn"},{"deltaTime":172,"channel":0,"type":"channel","noteNumber":42,"velocity":64,"subtype":"noteOn"},{"deltaTime":602,"channel":0,"type":"channel","subtype":"noteOff","noteNumber":47,"velocity":0},{"deltaTime":173,"channel":0,"type":"channel","subtype":"noteOff","noteNumber":54,"velocity":0},{"deltaTime":203,"channel":0,"type":"channel","subtype":"noteOff","noteNumber":66,"velocity":0},{"deltaTime":1346,"channel":0,"type":"channel","subtype":"noteOff","noteNumber":35,"velocity":0},{"deltaTime":2792,"channel":0,"type":"channel","subtype":"noteOff","noteNumber":42,"velocity":0},{"deltaTime":1304,"channel":0,"type":"channel","noteNumber":54,"velocity":81,"subtype":"noteOn"},{"deltaTime":928,"channel":0,"type":"channel","subtype":"noteOff","noteNumber":61,"velocity":0},{"deltaTime":5258,"channel":0,"type":"channel","noteNumber":61,"velocity":43,"subtype":"noteOn"},{"deltaTime":1242,"channel":0,"type":"channel","subtype":"noteOff","noteNumber":54,"velocity":0},{"deltaTime":4526,"channel":0,"type":"channel","subtype":"noteOff","noteNumber":61,"velocity":0},{"deltaTime":326,"channel":0,"type":"channel","subtype":"controller","controllerType":64,"value":120},{"deltaTime":173,"channel":0,"type":"channel","subtype":"controller","controllerType":64,"value":56},{"deltaTime":91,"channel":0,"type":"channel","subtype":"controller","controllerType":64,"value":0},{"deltaTime":449,"channel":0,"type":"channel","noteNumber":30,"velocity":82,"subtype":"noteOn"},{"deltaTime":204,"channel":0,"type":"channel","noteNumber":68,"velocity":85,"subtype":"noteOn"},{"deltaTime":183,"channel":0,"type":"channel","noteNumber":56,"velocity":92,"subtype":"noteOn"},{"deltaTime":111,"channel":0,"type":"channel","noteNumber":42,"velocity":87,"subtype":"noteOn"},{"deltaTime":1937,"channel":0,"type":"channel","subtype":"controller","controllerType":64,"value":56},{"deltaTime":123,"channel":0,"type":"channel","subtype":"controller","controllerType":64,"value":120},{"deltaTime":49,"channel":0,"type":"channel","subtype":"controller","controllerType":64,"value":127},{"deltaTime":3395,"channel":0,"type":"channel","subtype":"noteOff","noteNumber":42,"velocity":0},{"deltaTime":326,"channel":0,"type":"channel","subtype":"noteOff","noteNumber":56,"velocity":0},{"deltaTime":123,"channel":0,"type":"channel","noteNumber":37,"velocity":54,"subtype":"noteOn"},{"deltaTime":172,"channel":0,"type":"channel","noteNumber":61,"velocity":61,"subtype":"noteOn"},{"deltaTime":388,"channel":0,"type":"channel","subtype":"noteOff","noteNumber":30,"velocity":0},{"deltaTime":540,"channel":0,"type":"channel","subtype":"noteOff","noteNumber":68,"velocity":0},{"deltaTime":4453,"channel":0,"type":"channel","subtype":"noteOff","noteNumber":37,"velocity":0},{"deltaTime":977,"channel":0,"type":"channel","noteNumber":30,"velocity":73,"subtype":"noteOn"},{"deltaTime":185,"channel":0,"type":"channel","noteNumber":42,"velocity":76,"subtype":"noteOn"},{"deltaTime":326,"channel":0,"type":"channel","noteNumber":56,"velocity":78,"subtype":"noteOn"},{"deltaTime":479,"channel":0,"type":"channel","noteNumber":68,"velocity":74,"subtype":"noteOn"},{"deltaTime":763,"channel":0,"type":"channel","subtype":"noteOff","noteNumber":61,"velocity":0},{"deltaTime":2804,"channel":0,"type":"channel","subtype":"noteOff","noteNumber":42,"velocity":0},{"deltaTime":682,"channel":0,"type":"channel","subtype":"noteOff","noteNumber":68,"velocity":0},{"deltaTime":560,"channel":0,"type":"channel","noteNumber":37,"velocity":64,"subtype":"noteOn"},{"deltaTime":898,"channel":0,"type":"channel","subtype":"noteOff","noteNumber":30,"velocity":0},{"deltaTime":49,"channel":0,"type":"channel","noteNumber":61,"velocity":60,"subtype":"noteOn"},{"deltaTime":1611,"channel":0,"type":"channel","subtype":"noteOff","noteNumber":56,"velocity":0},{"deltaTime":1519,"channel":0,"type":"channel","subtype":"noteOff","noteNumber":37,"velocity":0},{"deltaTime":1722,"channel":0,"type":"channel","subtype":"noteOff","noteNumber":61,"velocity":0},{"deltaTime":357,"channel":0,"type":"channel","subtype":"controller","controllerType":64,"value":120},{"deltaTime":172,"channel":0,"type":"channel","subtype":"controller","controllerType":64,"value":56},{"deltaTime":92,"channel":0,"type":"channel","subtype":"controller","controllerType":64,"value":0},{"deltaTime":836,"channel":0,"type":"channel","noteNumber":66,"velocity":84,"subtype":"noteOn"},{"deltaTime":173,"channel":0,"type":"channel","noteNumber":54,"velocity":84,"subtype":"noteOn"},{"deltaTime":184,"channel":0,"type":"channel","noteNumber":27,"velocity":84,"subtype":"noteOn"},{"deltaTime":141,"channel":0,"type":"channel","noteNumber":39,"velocity":89,"subtype":"noteOn"},{"deltaTime":1396,"channel":0,"type":"channel","subtype":"controller","controllerType":64,"value":56},{"deltaTime":124,"channel":0,"type":"channel","subtype":"controller","controllerType":64,"value":120},{"deltaTime":30,"channel":0,"type":"channel","subtype":"controller","controllerType":64,"value":127},{"deltaTime":4126,"channel":0,"type":"channel","subtype":"noteOff","noteNumber":39,"velocity":0},{"deltaTime":1021,"channel":0,"type":"channel","noteNumber":61,"velocity":66,"subtype":"noteOn"},{"deltaTime":855,"channel":0,"type":"channel","subtype":"noteOff","noteNumber":66,"velocity":0},{"deltaTime":245,"channel":0,"type":"channel","subtype":"noteOff","noteNumber":27,"velocity":0},{"deltaTime":19,"channel":0,"type":"channel","noteNumber":34,"velocity":32,"subtype":"noteOn"},{"deltaTime":387,"channel":0,"type":"channel","noteNumber":33,"velocity":51,"subtype":"noteOn"},{"deltaTime":246,"channel":0,"type":"channel","subtype":"noteOff","noteNumber":54,"velocity":0},{"deltaTime":948,"channel":0,"type":"channel","subtype":"noteOff","noteNumber":33,"velocity":0},{"deltaTime":621,"channel":0,"type":"channel","subtype":"noteOff","noteNumber":34,"velocity":0},{"deltaTime":2619,"channel":0,"type":"channel","noteNumber":39,"velocity":84,"subtype":"noteOn"},{"deltaTime":203,"channel":0,"type":"channel","subtype":"noteOff","noteNumber":61,"velocity":0},{"deltaTime":511,"channel":0,"type":"channel","noteNumber":54,"velocity":84,"subtype":"noteOn"},{"deltaTime":652,"channel":0,"type":"channel","noteNumber":66,"velocity":52,"subtype":"noteOn"},{"deltaTime":1641,"channel":0,"type":"channel","subtype":"noteOff","noteNumber":66,"velocity":0},{"deltaTime":264,"channel":0,"type":"channel","subtype":"noteOff","noteNumber":39,"velocity":0},{"deltaTime":3659,"channel":0,"type":"channel","noteNumber":61,"velocity":64,"subtype":"noteOn"},{"deltaTime":1304,"channel":0,"type":"channel","subtype":"noteOff","noteNumber":54,"velocity":0},{"deltaTime":3536,"channel":0,"type":"channel","subtype":"noteOff","noteNumber":61,"velocity":0},{"deltaTime":559,"channel":0,"type":"channel","subtype":"controller","controllerType":64,"value":120},{"deltaTime":185,"channel":0,"type":"channel","subtype":"controller","controllerType":64,"value":56},{"deltaTime":92,"channel":0,"type":"channel","subtype":"controller","controllerType":64,"value":0},{"deltaTime":713,"channel":0,"type":"channel","noteNumber":34,"velocity":83,"subtype":"noteOn"},{"deltaTime":173,"channel":0,"type":"channel","noteNumber":46,"velocity":87,"subtype":"noteOn"},{"deltaTime":123,"channel":0,"type":"channel","noteNumber":58,"velocity":84,"subtype":"noteOn"},{"deltaTime":234,"channel":0,"type":"channel","noteNumber":70,"velocity":79,"subtype":"noteOn"},{"deltaTime":184,"channel":0,"type":"channel","noteNumber":68,"velocity":78,"subtype":"noteOn"},{"deltaTime":172,"channel":0,"type":"channel","noteNumber":56,"velocity":79,"subtype":"noteOn"},{"deltaTime":541,"channel":0,"type":"channel","subtype":"noteOff","noteNumber":70,"velocity":0},{"deltaTime":326,"channel":0,"type":"channel","subtype":"noteOff","noteNumber":56,"velocity":0},{"deltaTime":265,"channel":0,"type":"channel","subtype":"controller","controllerType":64,"value":56},{"deltaTime":30,"channel":0,"type":"channel","noteNumber":69,"velocity":38,"subtype":"noteOn"},{"deltaTime":296,"channel":0,"type":"channel","subtype":"controller","controllerType":64,"value":120},{"deltaTime":30,"channel":0,"type":"channel","subtype":"controller","controllerType":64,"value":127},{"deltaTime":2436,"channel":0,"type":"channel","subtype":"noteOff","noteNumber":69,"velocity":0},{"deltaTime":1253,"channel":0,"type":"channel","subtype":"noteOff","noteNumber":46,"velocity":0},{"deltaTime":591,"channel":0,"type":"channel","subtype":"noteOff","noteNumber":34,"velocity":0},{"deltaTime":510,"channel":0,"type":"channel","subtype":"noteOff","noteNumber":68,"velocity":0},{"deltaTime":406,"channel":0,"type":"channel","noteNumber":41,"velocity":56,"subtype":"noteOn"},{"deltaTime":3923,"channel":0,"type":"channel","subtype":"noteOff","noteNumber":41,"velocity":0},{"deltaTime":154,"channel":0,"type":"channel","subtype":"noteOff","noteNumber":58,"velocity":0},{"deltaTime":2343,"channel":0,"type":"channel","noteNumber":34,"velocity":63,"subtype":"noteOn"},{"deltaTime":185,"channel":0,"type":"channel","noteNumber":46,"velocity":71,"subtype":"noteOn"},{"deltaTime":418,"channel":0,"type":"channel","noteNumber":58,"velocity":73,"subtype":"noteOn"},{"deltaTime":529,"channel":0,"type":"channel","noteNumber":68,"velocity":57,"subtype":"noteOn"},{"deltaTime":2761,"channel":0,"type":"channel","subtype":"noteOff","noteNumber":46,"velocity":0},{"deltaTime":1519,"channel":0,"type":"channel","subtype":"noteOff","noteNumber":34,"velocity":0},{"deltaTime":836,"channel":0,"type":"channel","noteNumber":41,"velocity":54,"subtype":"noteOn"},{"deltaTime":295,"channel":0,"type":"channel","subtype":"noteOff","noteNumber":68,"velocity":0},{"deltaTime":184,"channel":0,"type":"channel","noteNumber":61,"velocity":61,"subtype":"noteOn"},{"deltaTime":560,"channel":0,"type":"channel","subtype":"noteOff","noteNumber":58,"velocity":0},{"deltaTime":3382,"channel":0,"type":"channel","subtype":"noteOff","noteNumber":41,"velocity":0},{"deltaTime":1937,"channel":0,"type":"channel","subtype":"controller","controllerType":64,"value":120},{"deltaTime":154,"channel":0,"type":"channel","subtype":"controller","controllerType":64,"value":56},{"deltaTime":80,"channel":0,"type":"channel","subtype":"controller","controllerType":64,"value":0},{"deltaTime":31,"channel":0,"type":"channel","noteNumber":46,"velocity":83,"subtype":"noteOn"},{"deltaTime":153,"channel":0,"type":"channel","noteNumber":34,"velocity":78,"subtype":"noteOn"},{"deltaTime":204,"channel":0,"type":"channel","noteNumber":56,"velocity":85,"subtype":"noteOn"},{"deltaTime":122,"channel":0,"type":"channel","noteNumber":66,"velocity":79,"subtype":"noteOn"},{"deltaTime":1722,"channel":0,"type":"channel","subtype":"controller","controllerType":64,"value":56},{"deltaTime":31,"channel":0,"type":"channel","subtype":"noteOff","noteNumber":61,"velocity":0},{"deltaTime":123,"channel":0,"type":"channel","subtype":"controller","controllerType":64,"value":120},{"deltaTime":30,"channel":0,"type":"channel","subtype":"controller","controllerType":64,"value":127},{"deltaTime":3801,"channel":0,"type":"channel","subtype":"noteOff","noteNumber":46,"velocity":0},{"deltaTime":448,"channel":0,"type":"channel","subtype":"noteOff","noteNumber":34,"velocity":0},{"deltaTime":530,"channel":0,"type":"channel","noteNumber":61,"velocity":53,"subtype":"noteOn"},{"deltaTime":184,"channel":0,"type":"channel","noteNumber":41,"velocity":54,"subtype":"noteOn"},{"deltaTime":203,"channel":0,"type":"channel","subtype":"noteOff","noteNumber":66,"velocity":0},{"deltaTime":897,"channel":0,"type":"channel","subtype":"noteOff","noteNumber":56,"velocity":0},{"deltaTime":2792,"channel":0,"type":"channel","subtype":"noteOff","noteNumber":41,"velocity":0},{"deltaTime":2251,"channel":0,"type":"channel","noteNumber":46,"velocity":75,"subtype":"noteOn"},{"deltaTime":185,"channel":0,"type":"channel","noteNumber":34,"velocity":66,"subtype":"noteOn"},{"deltaTime":202,"channel":0,"type":"channel","noteNumber":54,"velocity":75,"subtype":"noteOn"},{"deltaTime":1378,"channel":0,"type":"channel","subtype":"noteOff","noteNumber":61,"velocity":0},{"deltaTime":3148,"channel":0,"type":"channel","subtype":"noteOff","noteNumber":46,"velocity":0},{"deltaTime":1040,"channel":0,"type":"channel","subtype":"noteOff","noteNumber":34,"velocity":0},{"deltaTime":448,"channel":0,"type":"channel","noteNumber":41,"velocity":60,"subtype":"noteOn"},{"deltaTime":173,"channel":0,"type":"channel","noteNumber":61,"velocity":56,"subtype":"noteOn"},{"deltaTime":1070,"channel":0,"type":"channel","subtype":"noteOff","noteNumber":54,"velocity":0},{"deltaTime":2373,"channel":0,"type":"channel","subtype":"noteOff","noteNumber":41,"velocity":0},{"deltaTime":990,"channel":0,"type":"channel","subtype":"noteOff","noteNumber":61,"velocity":0},{"deltaTime":1427,"channel":0,"type":"channel","subtype":"controller","controllerType":64,"value":120},{"deltaTime":172,"channel":0,"type":"channel","subtype":"controller","controllerType":64,"value":56},{"deltaTime":92,"channel":0,"type":"channel","subtype":"controller","controllerType":64,"value":0},{"deltaTime":234,"channel":0,"type":"channel","noteNumber":34,"velocity":82,"subtype":"noteOn"},{"deltaTime":357,"channel":0,"type":"channel","noteNumber":46,"velocity":83,"subtype":"noteOn"},{"deltaTime":184,"channel":0,"type":"channel","noteNumber":66,"velocity":87,"subtype":"noteOn"},{"deltaTime":142,"channel":0,"type":"channel","noteNumber":56,"velocity":90,"subtype":"noteOn"},{"deltaTime":775,"channel":0,"type":"channel","noteNumber":61,"velocity":42,"subtype":"noteOn"},{"deltaTime":153,"channel":0,"type":"channel","noteNumber":63,"velocity":44,"subtype":"noteOn"},{"deltaTime":437,"channel":0,"type":"channel","subtype":"controller","controllerType":64,"value":56},{"deltaTime":92,"channel":0,"type":"channel","subtype":"controller","controllerType":64,"value":120},{"deltaTime":31,"channel":0,"type":"channel","subtype":"controller","controllerType":64,"value":127},{"deltaTime":590,"channel":0,"type":"channel","subtype":"noteOff","noteNumber":63,"velocity":0},{"deltaTime":62,"channel":0,"type":"channel","subtype":"noteOff","noteNumber":61,"velocity":0},{"deltaTime":3486,"channel":0,"type":"channel","subtype":"noteOff","noteNumber":46,"velocity":0},{"deltaTime":591,"channel":0,"type":"channel","noteNumber":61,"velocity":32,"subtype":"noteOn"},{"deltaTime":528,"channel":0,"type":"channel","subtype":"noteOff","noteNumber":34,"velocity":0},{"deltaTime":185,"channel":0,"type":"channel","noteNumber":41,"velocity":61,"subtype":"noteOn"},{"deltaTime":387,"channel":0,"type":"channel","subtype":"noteOff","noteNumber":66,"velocity":0},{"deltaTime":948,"channel":0,"type":"channel","subtype":"noteOff","noteNumber":56,"velocity":0},{"deltaTime":2170,"channel":0,"type":"channel","subtype":"noteOff","noteNumber":41,"velocity":0},{"deltaTime":1722,"channel":0,"type":"channel","subtype":"noteOff","noteNumber":61,"velocity":0},{"deltaTime":449,"channel":0,"type":"channel","noteNumber":34,"velocity":66,"subtype":"noteOn"},{"deltaTime":448,"channel":0,"type":"channel","noteNumber":66,"velocity":70,"subtype":"noteOn"},{"deltaTime":204,"channel":0,"type":"channel","noteNumber":56,"velocity":79,"subtype":"noteOn"},{"deltaTime":184,"channel":0,"type":"channel","noteNumber":46,"velocity":56,"subtype":"noteOn"},{"deltaTime":3290,"channel":0,"type":"channel","subtype":"noteOff","noteNumber":46,"velocity":0},{"deltaTime":1254,"channel":0,"type":"channel","subtype":"noteOff","noteNumber":34,"velocity":0},{"deltaTime":1242,"channel":0,"type":"channel","noteNumber":41,"velocity":41,"subtype":"noteOn"},{"deltaTime":185,"channel":0,"type":"channel","noteNumber":61,"velocity":58,"subtype":"noteOn"},{"deltaTime":234,"channel":0,"type":"channel","subtype":"noteOff","noteNumber":66,"velocity":0},{"deltaTime":1427,"channel":0,"type":"channel","subtype":"noteOff","noteNumber":56,"velocity":0},{"deltaTime":92,"channel":0,"type":"channel","subtype":"noteOff","noteNumber":41,"velocity":0},{"deltaTime":1875,"channel":0,"type":"channel","subtype":"noteOff","noteNumber":61,"velocity":0},{"deltaTime":947,"channel":0,"type":"channel","subtype":"controller","controllerType":64,"value":120},{"deltaTime":203,"channel":0,"type":"channel","subtype":"controller","controllerType":64,"value":56},{"deltaTime":93,"channel":0,"type":"channel","subtype":"controller","controllerType":64,"value":0},{"deltaTime":897,"channel":0,"type":"channel","noteNumber":34,"velocity":80,"subtype":"noteOn"},{"deltaTime":264,"channel":0,"type":"channel","noteNumber":46,"velocity":82,"subtype":"noteOn"},{"deltaTime":173,"channel":0,"type":"channel","noteNumber":54,"velocity":88,"subtype":"noteOn"},{"deltaTime":123,"channel":0,"type":"channel","noteNumber":63,"velocity":80,"subtype":"noteOn"},{"deltaTime":233,"channel":0,"type":"channel","noteNumber":58,"velocity":66,"subtype":"noteOn"},{"deltaTime":387,"channel":0,"type":"channel","noteNumber":61,"velocity":40,"subtype":"noteOn"},{"deltaTime":277,"channel":0,"type":"channel","subtype":"controller","controllerType":64,"value":56},{"deltaTime":80,"channel":0,"type":"channel","subtype":"controller","controllerType":64,"value":120},{"deltaTime":31,"channel":0,"type":"channel","subtype":"controller","controllerType":64,"value":127},{"deltaTime":184,"channel":0,"type":"channel","subtype":"noteOff","noteNumber":58,"velocity":0},{"deltaTime":855,"channel":0,"type":"channel","subtype":"noteOff","noteNumber":61,"velocity":0},{"deltaTime":3751,"channel":0,"type":"channel","subtype":"noteOff","noteNumber":46,"velocity":0},{"deltaTime":886,"channel":0,"type":"channel","noteNumber":61,"velocity":66,"subtype":"noteOn"},{"deltaTime":215,"channel":0,"type":"channel","noteNumber":41,"velocity":72,"subtype":"noteOn"},{"deltaTime":775,"channel":0,"type":"channel","subtype":"noteOff","noteNumber":34,"velocity":0},{"deltaTime":732,"channel":0,"type":"channel","subtype":"noteOff","noteNumber":54,"velocity":0},{"deltaTime":480,"channel":0,"type":"channel","subtype":"noteOff","noteNumber":63,"velocity":0},{"deltaTime":1100,"channel":0,"type":"channel","subtype":"noteOff","noteNumber":41,"velocity":0},{"deltaTime":1998,"channel":0,"type":"channel","subtype":"noteOff","noteNumber":61,"velocity":0},{"deltaTime":1753,"channel":0,"type":"channel","noteNumber":54,"velocity":84,"subtype":"noteOn"},{"deltaTime":1426,"channel":0,"type":"channel","noteNumber":63,"velocity":26,"subtype":"noteOn"},{"deltaTime":2823,"channel":0,"type":"channel","subtype":"noteOff","noteNumber":63,"velocity":0},{"deltaTime":1753,"channel":0,"type":"channel","noteNumber":61,"velocity":36,"subtype":"noteOn"},{"deltaTime":2466,"channel":0,"type":"channel","subtype":"noteOff","noteNumber":54,"velocity":0},{"deltaTime":1875,"channel":0,"type":"channel","subtype":"noteOff","noteNumber":61,"velocity":0},{"deltaTime":917,"channel":0,"type":"channel","subtype":"controller","controllerType":64,"value":120},{"deltaTime":183,"channel":0,"type":"channel","subtype":"controller","controllerType":64,"value":56},{"deltaTime":81,"channel":0,"type":"channel","subtype":"controller","controllerType":64,"value":0},{"deltaTime":928,"channel":0,"type":"channel","noteNumber":25,"velocity":87,"subtype":"noteOn"},{"deltaTime":173,"channel":0,"type":"channel","noteNumber":37,"velocity":92,"subtype":"noteOn"},{"deltaTime":245,"channel":0,"type":"channel","noteNumber":65,"velocity":83,"subtype":"noteOn"},{"deltaTime":203,"channel":0,"type":"channel","noteNumber":53,"velocity":90,"subtype":"noteOn"},{"deltaTime":1335,"channel":0,"type":"channel","subtype":"controller","controllerType":64,"value":56},{"deltaTime":123,"channel":0,"type":"channel","subtype":"controller","controllerType":64,"value":120},{"deltaTime":30,"channel":0,"type":"channel","noteNumber":64,"velocity":23,"subtype":"noteOn"},{"deltaTime":142,"channel":0,"type":"channel","subtype":"controller","controllerType":64,"value":127},{"deltaTime":1224,"channel":0,"type":"channel","subtype":"noteOff","noteNumber":64,"velocity":0},{"deltaTime":2853,"channel":0,"type":"channel","noteNumber":32,"velocity":66,"subtype":"noteOn"},{"deltaTime":479,"channel":0,"type":"channel","subtype":"noteOff","noteNumber":37,"velocity":0},{"deltaTime":173,"channel":0,"type":"channel","subtype":"noteOff","noteNumber":25,"velocity":0},{"deltaTime":31,"channel":0,"type":"channel","subtype":"noteOff","noteNumber":53,"velocity":0},{"deltaTime":61,"channel":0,"type":"channel","noteNumber":61,"velocity":61,"subtype":"noteOn"},{"deltaTime":529,"channel":0,"type":"channel","subtype":"noteOff","noteNumber":65,"velocity":0},{"deltaTime":3364,"channel":0,"type":"channel","subtype":"noteOff","noteNumber":32,"velocity":0},{"deltaTime":2914,"channel":0,"type":"channel","noteNumber":37,"velocity":65,"subtype":"noteOn"},{"deltaTime":173,"channel":0,"type":"channel","noteNumber":25,"velocity":63,"subtype":"noteOn"},{"deltaTime":184,"channel":0,"type":"channel","noteNumber":53,"velocity":57,"subtype":"noteOn"},{"deltaTime":111,"channel":0,"type":"channel","subtype":"noteOff","noteNumber":61,"velocity":0},{"deltaTime":3271,"channel":0,"type":"channel","subtype":"noteOff","noteNumber":37,"velocity":0},{"deltaTime":1427,"channel":0,"type":"channel","subtype":"noteOff","noteNumber":25,"velocity":0},{"deltaTime":295,"channel":0,"type":"channel","noteNumber":32,"velocity":61,"subtype":"noteOn"},{"deltaTime":1519,"channel":0,"type":"channel","noteNumber":61,"velocity":63,"subtype":"noteOn"},{"deltaTime":2385,"channel":0,"type":"channel","subtype":"noteOff","noteNumber":53,"velocity":0},{"deltaTime":1089,"channel":0,"type":"channel","subtype":"noteOff","noteNumber":32,"velocity":0},{"deltaTime":898,"channel":0,"type":"channel","subtype":"noteOff","noteNumber":61,"velocity":0},{"deltaTime":234,"channel":0,"type":"channel","subtype":"controller","controllerType":64,"value":120},{"deltaTime":153,"channel":0,"type":"channel","subtype":"controller","controllerType":64,"value":56},{"deltaTime":92,"channel":0,"type":"channel","subtype":"controller","controllerType":64,"value":0},{"deltaTime":1243,"channel":0,"type":"channel","noteNumber":65,"velocity":85,"subtype":"noteOn"},{"deltaTime":264,"channel":0,"type":"channel","noteNumber":25,"velocity":83,"subtype":"noteOn"},{"deltaTime":185,"channel":0,"type":"channel","noteNumber":53,"velocity":89,"subtype":"noteOn"},{"deltaTime":122,"channel":0,"type":"channel","noteNumber":37,"velocity":85,"subtype":"noteOn"},{"deltaTime":1182,"channel":0,"type":"channel","noteNumber":27,"velocity":46,"subtype":"noteOn"},{"deltaTime":0,"channel":0,"type":"channel","subtype":"controller","controllerType":64,"value":56},{"deltaTime":183,"channel":0,"type":"channel","subtype":"controller","controllerType":64,"value":120},{"deltaTime":111,"channel":0,"type":"channel","subtype":"controller","controllerType":64,"value":127},{"deltaTime":2712,"channel":0,"type":"channel","subtype":"noteOff","noteNumber":37,"velocity":0},{"deltaTime":2079,"channel":0,"type":"channel","noteNumber":32,"velocity":65,"subtype":"noteOn"},{"deltaTime":92,"channel":0,"type":"channel","subtype":"noteOff","noteNumber":25,"velocity":0},{"deltaTime":110,"channel":0,"type":"channel","noteNumber":61,"velocity":64,"subtype":"noteOn"},{"deltaTime":326,"channel":0,"type":"channel","subtype":"noteOff","noteNumber":53,"velocity":0},{"deltaTime":93,"channel":0,"type":"channel","subtype":"noteOff","noteNumber":27,"velocity":0},{"deltaTime":805,"channel":0,"type":"channel","subtype":"noteOff","noteNumber":65,"velocity":0},{"deltaTime":3210,"channel":0,"type":"channel","subtype":"noteOff","noteNumber":32,"velocity":0},{"deltaTime":1845,"channel":0,"type":"channel","noteNumber":25,"velocity":57,"subtype":"noteOn"},{"deltaTime":326,"channel":0,"type":"channel","noteNumber":53,"velocity":69,"subtype":"noteOn"},{"deltaTime":141,"channel":0,"type":"channel","noteNumber":37,"velocity":64,"subtype":"noteOn"},{"deltaTime":338,"channel":0,"type":"channel","subtype":"noteOff","noteNumber":61,"velocity":0},{"deltaTime":4035,"channel":0,"type":"channel","subtype":"noteOff","noteNumber":37,"velocity":0},{"deltaTime":448,"channel":0,"type":"channel","subtype":"noteOff","noteNumber":25,"velocity":0},{"deltaTime":529,"channel":0,"type":"channel","noteNumber":32,"velocity":63,"subtype":"noteOn"},{"deltaTime":1101,"channel":0,"type":"channel","noteNumber":61,"velocity":55,"subtype":"noteOn"},{"deltaTime":1783,"channel":0,"type":"channel","subtype":"noteOff","noteNumber":53,"velocity":0},{"deltaTime":837,"channel":0,"type":"channel","subtype":"noteOff","noteNumber":32,"velocity":0},{"deltaTime":1334,"channel":0,"type":"channel","subtype":"noteOff","noteNumber":61,"velocity":0},{"deltaTime":418,"channel":0,"type":"channel","subtype":"controller","controllerType":64,"value":120},{"deltaTime":154,"channel":0,"type":"channel","subtype":"controller","controllerType":64,"value":56},{"deltaTime":110,"channel":0,"type":"channel","subtype":"controller","controllerType":64,"value":0},{"deltaTime":1163,"channel":0,"type":"channel","noteNumber":65,"velocity":84,"subtype":"noteOn"},{"deltaTime":184,"channel":0,"type":"channel","noteNumber":53,"velocity":85,"subtype":"noteOn"},{"deltaTime":173,"channel":0,"type":"channel","noteNumber":25,"velocity":80,"subtype":"noteOn"},{"deltaTime":122,"channel":0,"type":"channel","noteNumber":37,"velocity":81,"subtype":"noteOn"},{"deltaTime":652,"channel":0,"type":"channel","subtype":"controller","controllerType":64,"value":56},{"deltaTime":92,"channel":0,"type":"channel","subtype":"controller","controllerType":64,"value":120},{"deltaTime":31,"channel":0,"type":"channel","subtype":"controller","controllerType":64,"value":127},{"deltaTime":4636,"channel":0,"type":"channel","noteNumber":32,"velocity":63,"subtype":"noteOn"},{"deltaTime":112,"channel":0,"type":"channel","subtype":"noteOff","noteNumber":37,"velocity":0},{"deltaTime":245,"channel":0,"type":"channel","subtype":"noteOff","noteNumber":25,"velocity":0},{"deltaTime":295,"channel":0,"type":"channel","noteNumber":61,"velocity":58,"subtype":"noteOn"},{"deltaTime":1396,"channel":0,"type":"channel","subtype":"noteOff","noteNumber":53,"velocity":0},{"deltaTime":948,"channel":0,"type":"channel","subtype":"noteOff","noteNumber":65,"velocity":0},{"deltaTime":2170,"channel":0,"type":"channel","subtype":"noteOff","noteNumber":32,"velocity":0},{"deltaTime":418,"channel":0,"type":"channel","subtype":"noteOff","noteNumber":61,"velocity":0},{"deltaTime":1488,"channel":0,"type":"channel","noteNumber":53,"velocity":73,"subtype":"noteOn"},{"deltaTime":357,"channel":0,"type":"channel","noteNumber":25,"velocity":71,"subtype":"noteOn"},{"deltaTime":141,"channel":0,"type":"channel","noteNumber":37,"velocity":78,"subtype":"noteOn"},{"deltaTime":4760,"channel":0,"type":"channel","subtype":"noteOff","noteNumber":37,"velocity":0},{"deltaTime":153,"channel":0,"type":"channel","noteNumber":32,"velocity":55,"subtype":"noteOn"},{"deltaTime":357,"channel":0,"type":"channel","noteNumber":61,"velocity":61,"subtype":"noteOn"},{"deltaTime":825,"channel":0,"type":"channel","subtype":"noteOff","noteNumber":25,"velocity":0},{"deltaTime":1845,"channel":0,"type":"channel","subtype":"noteOff","noteNumber":53,"velocity":0},{"deltaTime":1641,"channel":0,"type":"channel","subtype":"noteOff","noteNumber":61,"velocity":0},{"deltaTime":1119,"channel":0,"type":"channel","subtype":"noteOff","noteNumber":32,"velocity":0},{"deltaTime":1611,"channel":0,"type":"channel","subtype":"controller","controllerType":64,"value":96},{"deltaTime":92,"channel":0,"type":"channel","subtype":"controller","controllerType":64,"value":32},{"deltaTime":31,"channel":0,"type":"channel","noteNumber":64,"velocity":82,"subtype":"noteOn"},{"deltaTime":173,"channel":0,"type":"channel","noteNumber":35,"velocity":82,"subtype":"noteOn"},{"deltaTime":202,"channel":0,"type":"channel","noteNumber":23,"velocity":85,"subtype":"noteOn"},{"deltaTime":124,"channel":0,"type":"channel","noteNumber":52,"velocity":85,"subtype":"noteOn"},{"deltaTime":264,"channel":0,"type":"channel","subtype":"controller","controllerType":64,"value":0},{"deltaTime":2171,"channel":0,"type":"channel","subtype":"controller","controllerType":64,"value":56},{"deltaTime":123,"channel":0,"type":"channel","subtype":"controller","controllerType":64,"value":120},{"deltaTime":30,"channel":0,"type":"channel","subtype":"controller","controllerType":64,"value":127},{"deltaTime":3414,"channel":0,"type":"channel","subtype":"noteOff","noteNumber":35,"velocity":0},{"deltaTime":61,"channel":0,"type":"channel","noteNumber":30,"velocity":66,"subtype":"noteOn"},{"deltaTime":184,"channel":0,"type":"channel","noteNumber":58,"velocity":66,"subtype":"noteOn"},{"deltaTime":203,"channel":0,"type":"channel","subtype":"noteOff","noteNumber":23,"velocity":0},{"deltaTime":867,"channel":0,"type":"channel","subtype":"noteOff","noteNumber":64,"velocity":0},{"deltaTime":173,"channel":0,"type":"channel","subtype":"noteOff","noteNumber":52,"velocity":0},{"deltaTime":3953,"channel":0,"type":"channel","subtype":"noteOff","noteNumber":58,"velocity":0},{"deltaTime":154,"channel":0,"type":"channel","subtype":"noteOff","noteNumber":30,"velocity":0},{"deltaTime":1273,"channel":0,"type":"channel","noteNumber":23,"velocity":81,"subtype":"noteOn"},{"deltaTime":184,"channel":0,"type":"channel","noteNumber":35,"velocity":79,"subtype":"noteOn"},{"deltaTime":142,"channel":0,"type":"channel","noteNumber":64,"velocity":84,"subtype":"noteOn"},{"deltaTime":184,"channel":0,"type":"channel","noteNumber":52,"velocity":87,"subtype":"noteOn"},{"deltaTime":4871,"channel":0,"type":"channel","noteNumber":30,"velocity":66,"subtype":"noteOn"},{"deltaTime":172,"channel":0,"type":"channel","subtype":"noteOff","noteNumber":23,"velocity":0},{"deltaTime":633,"channel":0,"type":"channel","noteNumber":58,"velocity":48,"subtype":"noteOn"},{"deltaTime":387,"channel":0,"type":"channel","subtype":"noteOff","noteNumber":35,"velocity":0},{"deltaTime":794,"channel":0,"type":"channel","subtype":"noteOff","noteNumber":52,"velocity":0},{"deltaTime":928,"channel":0,"type":"channel","subtype":"noteOff","noteNumber":64,"velocity":0},{"deltaTime":1488,"channel":0,"type":"channel","subtype":"noteOff","noteNumber":58,"velocity":0},{"deltaTime":357,"channel":0,"type":"channel","subtype":"noteOff","noteNumber":30,"velocity":0},{"deltaTime":793,"channel":0,"type":"channel","subtype":"controller","controllerType":64,"value":64},{"deltaTime":93,"channel":0,"type":"channel","subtype":"controller","controllerType":64,"value":0},{"deltaTime":1844,"channel":0,"type":"channel","noteNumber":65,"velocity":84,"subtype":"noteOn"},{"deltaTime":172,"channel":0,"type":"channel","noteNumber":25,"velocity":84,"subtype":"noteOn"},{"deltaTime":185,"channel":0,"type":"channel","noteNumber":53,"velocity":84,"subtype":"noteOn"},{"deltaTime":123,"channel":0,"type":"channel","noteNumber":37,"velocity":85,"subtype":"noteOn"},{"deltaTime":886,"channel":0,"type":"channel","subtype":"controller","controllerType":64,"value":56},{"deltaTime":92,"channel":0,"type":"channel","subtype":"controller","controllerType":64,"value":120},{"deltaTime":30,"channel":0,"type":"channel","subtype":"controller","controllerType":64,"value":127},{"deltaTime":5024,"channel":0,"type":"channel","subtype":"noteOff","noteNumber":37,"velocity":0},{"deltaTime":62,"channel":0,"type":"channel","noteNumber":32,"velocity":59,"subtype":"noteOn"},{"deltaTime":498,"channel":0,"type":"channel","noteNumber":61,"velocity":49,"subtype":"noteOn"},{"deltaTime":388,"channel":0,"type":"channel","subtype":"noteOff","noteNumber":25,"velocity":0},{"deltaTime":448,"channel":0,"type":"channel","subtype":"noteOff","noteNumber":65,"velocity":0},{"deltaTime":1335,"channel":0,"type":"channel","subtype":"noteOff","noteNumber":53,"velocity":0},{"deltaTime":2201,"channel":0,"type":"channel","subtype":"noteOff","noteNumber":32,"velocity":0},{"deltaTime":1131,"channel":0,"type":"channel","subtype":"noteOff","noteNumber":61,"velocity":0},{"deltaTime":1274,"channel":0,"type":"channel","noteNumber":25,"velocity":47,"subtype":"noteOn"},{"deltaTime":153,"channel":0,"type":"channel","noteNumber":65,"velocity":68,"subtype":"noteOn"},{"deltaTime":173,"channel":0,"type":"channel","noteNumber":37,"velocity":50,"subtype":"noteOn"},{"deltaTime":122,"channel":0,"type":"channel","noteNumber":53,"velocity":73,"subtype":"noteOn"},{"deltaTime":3210,"channel":0,"type":"channel","subtype":"noteOff","noteNumber":25,"velocity":0},{"deltaTime":172,"channel":0,"type":"channel","subtype":"noteOff","noteNumber":37,"velocity":0},{"deltaTime":1999,"channel":0,"type":"channel","noteNumber":32,"velocity":59,"subtype":"noteOn"},{"deltaTime":498,"channel":0,"type":"channel","noteNumber":61,"velocity":63,"subtype":"noteOn"},{"deltaTime":1021,"channel":0,"type":"channel","subtype":"noteOff","noteNumber":65,"velocity":0},{"deltaTime":682,"channel":0,"type":"channel","subtype":"noteOff","noteNumber":53,"velocity":0},{"deltaTime":2048,"channel":0,"type":"channel","subtype":"noteOff","noteNumber":32,"velocity":0},{"deltaTime":449,"channel":0,"type":"channel","subtype":"noteOff","noteNumber":61,"velocity":0},{"deltaTime":793,"channel":0,"type":"channel","subtype":"controller","controllerType":64,"value":120},{"deltaTime":154,"channel":0,"type":"channel","subtype":"controller","controllerType":64,"value":56},{"deltaTime":92,"channel":0,"type":"channel","subtype":"controller","controllerType":64,"value":0},{"deltaTime":1101,"channel":0,"type":"channel","noteNumber":65,"velocity":84,"subtype":"noteOn"},{"deltaTime":173,"channel":0,"type":"channel","noteNumber":25,"velocity":79,"subtype":"noteOn"},{"deltaTime":183,"channel":0,"type":"channel","noteNumber":53,"velocity":85,"subtype":"noteOn"},{"deltaTime":112,"channel":0,"type":"channel","noteNumber":37,"velocity":80,"subtype":"noteOn"},{"deltaTime":1192,"channel":0,"type":"channel","subtype":"controller","controllerType":64,"value":56},{"deltaTime":123,"channel":0,"type":"channel","subtype":"controller","controllerType":64,"value":120},{"deltaTime":31,"channel":0,"type":"channel","subtype":"controller","controllerType":64,"value":127},{"deltaTime":2761,"channel":0,"type":"channel","subtype":"noteOff","noteNumber":37,"velocity":0},{"deltaTime":1457,"channel":0,"type":"channel","subtype":"noteOff","noteNumber":53,"velocity":0},{"deltaTime":142,"channel":0,"type":"channel","subtype":"noteOff","noteNumber":25,"velocity":0},{"deltaTime":246,"channel":0,"type":"channel","noteNumber":32,"velocity":63,"subtype":"noteOn"},{"deltaTime":436,"channel":0,"type":"channel","noteNumber":61,"velocity":63,"subtype":"noteOn"},{"deltaTime":683,"channel":0,"type":"channel","subtype":"noteOff","noteNumber":65,"velocity":0},{"deltaTime":2589,"channel":0,"type":"channel","subtype":"noteOff","noteNumber":32,"velocity":0},{"deltaTime":836,"channel":0,"type":"channel","subtype":"noteOff","noteNumber":61,"velocity":0},{"deltaTime":2466,"channel":0,"type":"channel","noteNumber":25,"velocity":74,"subtype":"noteOn"},{"deltaTime":123,"channel":0,"type":"channel","noteNumber":65,"velocity":80,"subtype":"noteOn"},{"deltaTime":173,"channel":0,"type":"channel","noteNumber":53,"velocity":82,"subtype":"noteOn"},{"deltaTime":183,"channel":0,"type":"channel","noteNumber":37,"velocity":75,"subtype":"noteOn"},{"deltaTime":3647,"channel":0,"type":"channel","subtype":"noteOff","noteNumber":37,"velocity":0},{"deltaTime":1783,"channel":0,"type":"channel","noteNumber":32,"velocity":64,"subtype":"noteOn"},{"deltaTime":419,"channel":0,"type":"channel","subtype":"noteOff","noteNumber":25,"velocity":0},{"deltaTime":123,"channel":0,"type":"channel","noteNumber":61,"velocity":70,"subtype":"noteOn"},{"deltaTime":528,"channel":0,"type":"channel","subtype":"noteOff","noteNumber":65,"velocity":0},{"deltaTime":1489,"channel":0,"type":"channel","subtype":"noteOff","noteNumber":53,"velocity":0},{"deltaTime":977,"channel":0,"type":"channel","subtype":"noteOff","noteNumber":32,"velocity":0},{"deltaTime":542,"channel":0,"type":"channel","subtype":"noteOff","noteNumber":61,"velocity":0},{"deltaTime":1580,"channel":0,"type":"channel","subtype":"controller","controllerType":64,"value":120},{"deltaTime":142,"channel":0,"type":"channel","subtype":"controller","controllerType":64,"value":56},{"deltaTime":92,"channel":0,"type":"channel","subtype":"controller","controllerType":64,"value":0},{"deltaTime":1273,"channel":0,"type":"channel","noteNumber":65,"velocity":87,"subtype":"noteOn"},{"deltaTime":325,"channel":0,"type":"channel","noteNumber":25,"velocity":82,"subtype":"noteOn"},{"deltaTime":185,"channel":0,"type":"channel","noteNumber":53,"velocity":89,"subtype":"noteOn"},{"deltaTime":203,"channel":0,"type":"channel","noteNumber":37,"velocity":83,"subtype":"noteOn"},{"deltaTime":388,"channel":0,"type":"channel","subtype":"controller","controllerType":64,"value":56},{"deltaTime":122,"channel":0,"type":"channel","subtype":"controller","controllerType":64,"value":120},{"deltaTime":31,"channel":0,"type":"channel","subtype":"controller","controllerType":64,"value":127},{"deltaTime":886,"channel":0,"type":"channel","noteNumber":27,"velocity":23,"subtype":"noteOn"},{"deltaTime":1610,"channel":0,"type":"channel","subtype":"noteOff","noteNumber":27,"velocity":0},{"deltaTime":1101,"channel":0,"type":"channel","subtype":"noteOff","noteNumber":37,"velocity":0},{"deltaTime":1212,"channel":0,"type":"channel","noteNumber":32,"velocity":65,"subtype":"noteOn"},{"deltaTime":510,"channel":0,"type":"channel","subtype":"noteOff","noteNumber":25,"velocity":0},{"deltaTime":295,"channel":0,"type":"channel","subtype":"noteOff","noteNumber":53,"velocity":0},{"deltaTime":31,"channel":0,"type":"channel","noteNumber":61,"velocity":66,"subtype":"noteOn"},{"deltaTime":1009,"channel":0,"type":"channel","subtype":"noteOff","noteNumber":65,"velocity":0},{"deltaTime":1365,"channel":0,"type":"channel","subtype":"noteOff","noteNumber":32,"velocity":0},{"deltaTime":989,"channel":0,"type":"channel","subtype":"noteOff","noteNumber":61,"velocity":0},{"deltaTime":3414,"channel":0,"type":"channel","noteNumber":65,"velocity":81,"subtype":"noteOn"},{"deltaTime":202,"channel":0,"type":"channel","noteNumber":25,"velocity":81,"subtype":"noteOn"},{"deltaTime":124,"channel":0,"type":"channel","noteNumber":37,"velocity":85,"subtype":"noteOn"},{"deltaTime":183,"channel":0,"type":"channel","noteNumber":53,"velocity":84,"subtype":"noteOn"},{"deltaTime":235,"channel":0,"type":"channel","noteNumber":64,"velocity":60,"subtype":"noteOn"},{"deltaTime":1008,"channel":0,"type":"channel","subtype":"noteOff","noteNumber":64,"velocity":0},{"deltaTime":3382,"channel":0,"type":"channel","noteNumber":32,"velocity":53,"subtype":"noteOn"},{"deltaTime":541,"channel":0,"type":"channel","subtype":"noteOff","noteNumber":37,"velocity":0},{"deltaTime":510,"channel":0,"type":"channel","noteNumber":61,"velocity":66,"subtype":"noteOn"},{"deltaTime":468,"channel":0,"type":"channel","subtype":"noteOff","noteNumber":65,"velocity":0},{"deltaTime":572,"channel":0,"type":"channel","subtype":"noteOff","noteNumber":25,"velocity":0},{"deltaTime":418,"channel":0,"type":"channel","subtype":"noteOff","noteNumber":53,"velocity":0},{"deltaTime":1864,"channel":0,"type":"channel","subtype":"noteOff","noteNumber":32,"velocity":0},{"deltaTime":245,"channel":0,"type":"channel","subtype":"noteOff","noteNumber":61,"velocity":0},{"deltaTime":2189,"channel":0,"type":"channel","subtype":"controller","controllerType":64,"value":120},{"deltaTime":154,"channel":0,"type":"channel","subtype":"controller","controllerType":64,"value":56},{"deltaTime":92,"channel":0,"type":"channel","subtype":"controller","controllerType":64,"value":0},{"deltaTime":1181,"channel":0,"type":"channel","noteNumber":35,"velocity":77,"subtype":"noteOn"},{"deltaTime":123,"channel":0,"type":"channel","noteNumber":23,"velocity":87,"subtype":"noteOn"},{"deltaTime":234,"channel":0,"type":"channel","noteNumber":68,"velocity":87,"subtype":"noteOn"},{"deltaTime":184,"channel":0,"type":"channel","noteNumber":33,"velocity":78,"subtype":"noteOn"},{"deltaTime":172,"channel":0,"type":"channel","noteNumber":56,"velocity":94,"subtype":"noteOn"},{"deltaTime":185,"channel":0,"type":"channel","noteNumber":61,"velocity":62,"subtype":"noteOn"},{"deltaTime":326,"channel":0,"type":"channel","subtype":"noteOff","noteNumber":33,"velocity":0},{"deltaTime":479,"channel":0,"type":"channel","subtype":"controller","controllerType":64,"value":56},{"deltaTime":111,"channel":0,"type":"channel","subtype":"controller","controllerType":64,"value":120},{"deltaTime":31,"channel":0,"type":"channel","subtype":"controller","controllerType":64,"value":127},{"deltaTime":92,"channel":0,"type":"channel","subtype":"noteOff","noteNumber":61,"velocity":0},{"deltaTime":4280,"channel":0,"type":"channel","noteNumber":30,"velocity":62,"subtype":"noteOn"},{"deltaTime":867,"channel":0,"type":"channel","subtype":"noteOff","noteNumber":23,"velocity":0},{"deltaTime":80,"channel":0,"type":"channel","subtype":"noteOff","noteNumber":35,"velocity":0},{"deltaTime":1285,"channel":0,"type":"channel","subtype":"noteOff","noteNumber":68,"velocity":0},{"deltaTime":111,"channel":0,"type":"channel","subtype":"noteOff","noteNumber":56,"velocity":0},{"deltaTime":1550,"channel":0,"type":"channel","subtype":"noteOff","noteNumber":30,"velocity":0},{"deltaTime":3750,"channel":0,"type":"channel","noteNumber":68,"velocity":84,"subtype":"noteOn"},{"deltaTime":204,"channel":0,"type":"channel","noteNumber":35,"velocity":84,"subtype":"noteOn"},{"deltaTime":184,"channel":0,"type":"channel","noteNumber":23,"velocity":82,"subtype":"noteOn"},{"deltaTime":111,"channel":0,"type":"channel","noteNumber":56,"velocity":90,"subtype":"noteOn"},{"deltaTime":387,"channel":0,"type":"channel","noteNumber":25,"velocity":52,"subtype":"noteOn"},{"deltaTime":184,"channel":0,"type":"channel","noteNumber":66,"velocity":44,"subtype":"noteOn"},{"deltaTime":326,"channel":0,"type":"channel","noteNumber":63,"velocity":26,"subtype":"noteOn"},{"deltaTime":234,"channel":0,"type":"channel","noteNumber":61,"velocity":23,"subtype":"noteOn"},{"deltaTime":154,"channel":0,"type":"channel","noteNumber":30,"velocity":23,"subtype":"noteOn"},{"deltaTime":326,"channel":0,"type":"channel","subtype":"noteOff","noteNumber":25,"velocity":0},{"deltaTime":436,"channel":0,"type":"channel","subtype":"noteOff","noteNumber":66,"velocity":0},{"deltaTime":450,"channel":0,"type":"channel","subtype":"noteOff","noteNumber":63,"velocity":0},{"deltaTime":92,"channel":0,"type":"channel","subtype":"noteOff","noteNumber":30,"velocity":0},{"deltaTime":91,"channel":0,"type":"channel","subtype":"noteOff","noteNumber":61,"velocity":0},{"deltaTime":2251,"channel":0,"type":"channel","noteNumber":30,"velocity":63,"subtype":"noteOn"},{"deltaTime":541,"channel":0,"type":"channel","subtype":"noteOff","noteNumber":23,"velocity":0},{"deltaTime":449,"channel":0,"type":"channel","subtype":"noteOff","noteNumber":35,"velocity":0},{"deltaTime":142,"channel":0,"type":"channel","noteNumber":61,"velocity":41,"subtype":"noteOn"},{"deltaTime":621,"channel":0,"type":"channel","subtype":"noteOff","noteNumber":68,"velocity":0},{"deltaTime":419,"channel":0,"type":"channel","subtype":"noteOff","noteNumber":56,"velocity":0},{"deltaTime":2323,"channel":0,"type":"channel","subtype":"noteOff","noteNumber":30,"velocity":0},{"deltaTime":173,"channel":0,"type":"channel","subtype":"noteOff","noteNumber":61,"velocity":0},{"deltaTime":1039,"channel":0,"type":"channel","subtype":"controller","controllerType":64,"value":120},{"deltaTime":154,"channel":0,"type":"channel","subtype":"controller","controllerType":64,"value":56},{"deltaTime":92,"channel":0,"type":"channel","subtype":"controller","controllerType":64,"value":0},{"deltaTime":1008,"channel":0,"type":"channel","noteNumber":25,"velocity":84,"subtype":"noteOn"},{"deltaTime":172,"channel":0,"type":"channel","noteNumber":65,"velocity":83,"subtype":"noteOn"},{"deltaTime":124,"channel":0,"type":"channel","noteNumber":37,"velocity":85,"subtype":"noteOn"},{"deltaTime":233,"channel":0,"type":"channel","noteNumber":53,"velocity":89,"subtype":"noteOn"},{"deltaTime":1427,"channel":0,"type":"channel","subtype":"controller","controllerType":64,"value":56},{"deltaTime":92,"channel":0,"type":"channel","subtype":"controller","controllerType":64,"value":120},{"deltaTime":31,"channel":0,"type":"channel","subtype":"controller","controllerType":64,"value":127},{"deltaTime":4402,"channel":0,"type":"channel","subtype":"noteOff","noteNumber":37,"velocity":0},{"deltaTime":437,"channel":0,"type":"channel","subtype":"noteOff","noteNumber":25,"velocity":0},{"deltaTime":154,"channel":0,"type":"channel","noteNumber":32,"velocity":56,"subtype":"noteOn"},{"deltaTime":184,"channel":0,"type":"channel","noteNumber":61,"velocity":59,"subtype":"noteOn"},{"deltaTime":732,"channel":0,"type":"channel","subtype":"noteOff","noteNumber":65,"velocity":0},{"deltaTime":480,"channel":0,"type":"channel","subtype":"noteOff","noteNumber":53,"velocity":0},{"deltaTime":1814,"channel":0,"type":"channel","subtype":"noteOff","noteNumber":61,"velocity":0},{"deltaTime":541,"channel":0,"type":"channel","subtype":"noteOff","noteNumber":32,"velocity":0},{"deltaTime":2374,"channel":0,"type":"channel","noteNumber":25,"velocity":73,"subtype":"noteOn"},{"deltaTime":203,"channel":0,"type":"channel","noteNumber":37,"velocity":72,"subtype":"noteOn"},{"deltaTime":123,"channel":0,"type":"channel","noteNumber":65,"velocity":78,"subtype":"noteOn"},{"deltaTime":202,"channel":0,"type":"channel","noteNumber":53,"velocity":81,"subtype":"noteOn"},{"deltaTime":5320,"channel":0,"type":"channel","subtype":"noteOff","noteNumber":25,"velocity":0},{"deltaTime":215,"channel":0,"type":"channel","noteNumber":32,"velocity":59,"subtype":"noteOn"},{"deltaTime":172,"channel":0,"type":"channel","subtype":"noteOff","noteNumber":37,"velocity":0},{"deltaTime":572,"channel":0,"type":"channel","noteNumber":61,"velocity":64,"subtype":"noteOn"},{"deltaTime":467,"channel":0,"type":"channel","subtype":"noteOff","noteNumber":53,"velocity":0},{"deltaTime":93,"channel":0,"type":"channel","subtype":"noteOff","noteNumber":65,"velocity":0},{"deltaTime":2047,"channel":0,"type":"channel","subtype":"noteOff","noteNumber":32,"velocity":0},{"deltaTime":185,"channel":0,"type":"channel","subtype":"noteOff","noteNumber":61,"velocity":0},{"deltaTime":2884,"channel":0,"type":"channel","subtype":"controller","controllerType":64,"value":120},{"deltaTime":141,"channel":0,"type":"channel","subtype":"controller","controllerType":64,"value":56},{"deltaTime":123,"channel":0,"type":"channel","subtype":"controller","controllerType":64,"value":0},{"deltaTime":264,"channel":0,"type":"channel","noteNumber":65,"velocity":85,"subtype":"noteOn"},{"deltaTime":185,"channel":0,"type":"channel","noteNumber":37,"velocity":89,"subtype":"noteOn"},{"deltaTime":123,"channel":0,"type":"channel","noteNumber":53,"velocity":93,"subtype":"noteOn"},{"deltaTime":172,"channel":0,"type":"channel","noteNumber":26,"velocity":82,"subtype":"noteOn"},{"deltaTime":203,"channel":0,"type":"channel","noteNumber":27,"velocity":61,"subtype":"noteOn"},{"deltaTime":185,"channel":0,"type":"channel","noteNumber":64,"velocity":66,"subtype":"noteOn"},{"deltaTime":836,"channel":0,"type":"channel","subtype":"controller","controllerType":64,"value":56},{"deltaTime":111,"channel":0,"type":"channel","subtype":"controller","controllerType":64,"value":120},{"deltaTime":31,"channel":0,"type":"channel","subtype":"noteOff","noteNumber":64,"velocity":0},{"deltaTime":30,"channel":0,"type":"channel","subtype":"controller","controllerType":64,"value":127},{"deltaTime":2324,"channel":0,"type":"channel","subtype":"noteOff","noteNumber":26,"velocity":0},{"deltaTime":1070,"channel":0,"type":"channel","subtype":"noteOff","noteNumber":27,"velocity":0},{"deltaTime":560,"channel":0,"type":"channel","subtype":"noteOff","noteNumber":37,"velocity":0},{"deltaTime":836,"channel":0,"type":"channel","noteNumber":61,"velocity":56,"subtype":"noteOn"},{"deltaTime":357,"channel":0,"type":"channel","noteNumber":32,"velocity":46,"subtype":"noteOn"},{"deltaTime":652,"channel":0,"type":"channel","subtype":"noteOff","noteNumber":65,"velocity":0},{"deltaTime":172,"channel":0,"type":"channel","subtype":"noteOff","noteNumber":53,"velocity":0},{"deltaTime":2416,"channel":0,"type":"channel","subtype":"noteOff","noteNumber":61,"velocity":0},{"deltaTime":234,"channel":0,"type":"channel","subtype":"noteOff","noteNumber":32,"velocity":0},{"deltaTime":3026,"channel":0,"type":"channel","noteNumber":65,"velocity":83,"subtype":"noteOn"},{"deltaTime":184,"channel":0,"type":"channel","noteNumber":25,"velocity":77,"subtype":"noteOn"},{"deltaTime":172,"channel":0,"type":"channel","noteNumber":37,"velocity":78,"subtype":"noteOn"},{"deltaTime":185,"channel":0,"type":"channel","noteNumber":53,"velocity":85,"subtype":"noteOn"},{"deltaTime":3801,"channel":0,"type":"channel","subtype":"noteOff","noteNumber":37,"velocity":0},{"deltaTime":1721,"channel":0,"type":"channel","noteNumber":32,"velocity":60,"subtype":"noteOn"},{"deltaTime":387,"channel":0,"type":"channel","subtype":"noteOff","noteNumber":25,"velocity":0},{"deltaTime":714,"channel":0,"type":"channel","subtype":"noteOff","noteNumber":65,"velocity":0},{"deltaTime":246,"channel":0,"type":"channel","noteNumber":60,"velocity":64,"subtype":"noteOn"},{"deltaTime":793,"channel":0,"type":"channel","subtype":"noteOff","noteNumber":53,"velocity":0},{"deltaTime":277,"channel":0,"type":"channel","subtype":"noteOff","noteNumber":60,"velocity":0},{"deltaTime":1304,"channel":0,"type":"channel","subtype":"noteOff","noteNumber":32,"velocity":0},{"deltaTime":3179,"channel":0,"type":"channel","noteNumber":53,"velocity":84,"subtype":"noteOn"},{"deltaTime":184,"channel":0,"type":"channel","noteNumber":65,"velocity":82,"subtype":"noteOn"},{"deltaTime":172,"channel":0,"type":"channel","noteNumber":25,"velocity":82,"subtype":"noteOn"},{"deltaTime":184,"channel":0,"type":"channel","noteNumber":37,"velocity":84,"subtype":"noteOn"},{"deltaTime":1070,"channel":0,"type":"channel","noteNumber":27,"velocity":35,"subtype":"noteOn"},{"deltaTime":530,"channel":0,"type":"channel","subtype":"noteOff","noteNumber":53,"velocity":0},{"deltaTime":1254,"channel":0,"type":"channel","subtype":"noteOff","noteNumber":27,"velocity":0},{"deltaTime":111,"channel":0,"type":"channel","subtype":"noteOff","noteNumber":65,"velocity":0},{"deltaTime":836,"channel":0,"type":"channel","subtype":"noteOff","noteNumber":37,"velocity":0},{"deltaTime":1039,"channel":0,"type":"channel","subtype":"noteOff","noteNumber":25,"velocity":0},{"deltaTime":265,"channel":0,"type":"channel","noteNumber":32,"velocity":63,"subtype":"noteOn"},{"deltaTime":651,"channel":0,"type":"channel","noteNumber":58,"velocity":75,"subtype":"noteOn"},{"deltaTime":338,"channel":0,"type":"channel","noteNumber":70,"velocity":72,"subtype":"noteOn"},{"deltaTime":1089,"channel":0,"type":"channel","subtype":"noteOff","noteNumber":58,"velocity":0},{"deltaTime":1193,"channel":0,"type":"channel","subtype":"noteOff","noteNumber":32,"velocity":0},{"deltaTime":744,"channel":0,"type":"channel","subtype":"noteOff","noteNumber":70,"velocity":0},{"deltaTime":2619,"channel":0,"type":"channel","noteNumber":59,"velocity":75,"subtype":"noteOn"},{"deltaTime":357,"channel":0,"type":"channel","noteNumber":37,"velocity":78,"subtype":"noteOn"},{"deltaTime":204,"channel":0,"type":"channel","noteNumber":25,"velocity":75,"subtype":"noteOn"},{"deltaTime":356,"channel":0,"type":"channel","noteNumber":71,"velocity":30,"subtype":"noteOn"},{"deltaTime":1427,"channel":0,"type":"channel","noteNumber":27,"velocity":18,"subtype":"noteOn"},{"deltaTime":233,"channel":0,"type":"channel","subtype":"noteOff","noteNumber":59,"velocity":0},{"deltaTime":93,"channel":0,"type":"channel","subtype":"noteOff","noteNumber":71,"velocity":0},{"deltaTime":540,"channel":0,"type":"channel","subtype":"noteOff","noteNumber":25,"velocity":0},{"deltaTime":499,"channel":0,"type":"channel","subtype":"noteOff","noteNumber":37,"velocity":0},{"deltaTime":325,"channel":0,"type":"channel","subtype":"noteOff","noteNumber":27,"velocity":0},{"deltaTime":2233,"channel":0,"type":"channel","noteNumber":58,"velocity":80,"subtype":"noteOn"},{"deltaTime":215,"channel":0,"type":"channel","noteNumber":32,"velocity":66,"subtype":"noteOn"},{"deltaTime":172,"channel":0,"type":"channel","noteNumber":70,"velocity":70,"subtype":"noteOn"},{"deltaTime":388,"channel":0,"type":"channel","noteNumber":68,"velocity":49,"subtype":"noteOn"},{"deltaTime":713,"channel":0,"type":"channel","subtype":"noteOff","noteNumber":70,"velocity":0},{"deltaTime":172,"channel":0,"type":"channel","subtype":"noteOff","noteNumber":58,"velocity":0},{"deltaTime":387,"channel":0,"type":"channel","subtype":"noteOff","noteNumber":68,"velocity":0},{"deltaTime":1286,"channel":0,"type":"channel","subtype":"noteOff","noteNumber":32,"velocity":0},{"deltaTime":3382,"channel":0,"type":"channel","noteNumber":37,"velocity":81,"subtype":"noteOn"},{"deltaTime":184,"channel":0,"type":"channel","noteNumber":66,"velocity":82,"subtype":"noteOn"},{"deltaTime":142,"channel":0,"type":"channel","noteNumber":25,"velocity":77,"subtype":"noteOn"},{"deltaTime":215,"channel":0,"type":"channel","noteNumber":54,"velocity":81,"subtype":"noteOn"},{"deltaTime":173,"channel":0,"type":"channel","noteNumber":56,"velocity":66,"subtype":"noteOn"},{"deltaTime":836,"channel":0,"type":"channel","subtype":"noteOff","noteNumber":54,"velocity":0},{"deltaTime":122,"channel":0,"type":"channel","subtype":"noteOff","noteNumber":56,"velocity":0},{"deltaTime":1630,"channel":0,"type":"channel","subtype":"noteOff","noteNumber":66,"velocity":0},{"deltaTime":947,"channel":0,"type":"channel","subtype":"noteOff","noteNumber":37,"velocity":0},{"deltaTime":1458,"channel":0,"type":"channel","subtype":"noteOff","noteNumber":25,"velocity":0},{"deltaTime":245,"channel":0,"type":"channel","noteNumber":32,"velocity":69,"subtype":"noteOn"},{"deltaTime":406,"channel":0,"type":"channel","noteNumber":53,"velocity":81,"subtype":"noteOn"},{"deltaTime":154,"channel":0,"type":"channel","noteNumber":65,"velocity":67,"subtype":"noteOn"},{"deltaTime":867,"channel":0,"type":"channel","noteNumber":64,"velocity":39,"subtype":"noteOn"},{"deltaTime":1181,"channel":0,"type":"channel","subtype":"noteOff","noteNumber":64,"velocity":0},{"deltaTime":479,"channel":0,"type":"channel","subtype":"noteOff","noteNumber":65,"velocity":0},{"deltaTime":203,"channel":0,"type":"channel","subtype":"noteOff","noteNumber":53,"velocity":0},{"deltaTime":633,"channel":0,"type":"channel","subtype":"noteOff","noteNumber":32,"velocity":0},{"deltaTime":1895,"channel":0,"type":"channel","subtype":"controller","controllerType":64,"value":120},{"deltaTime":153,"channel":0,"type":"channel","subtype":"controller","controllerType":64,"value":56},{"deltaTime":172,"channel":0,"type":"channel","subtype":"controller","controllerType":64,"value":0},{"deltaTime":480,"channel":0,"type":"channel","noteNumber":35,"velocity":84,"subtype":"noteOn"},{"deltaTime":123,"channel":0,"type":"channel","noteNumber":23,"velocity":85,"subtype":"noteOn"},{"deltaTime":387,"channel":0,"type":"channel","noteNumber":66,"velocity":81,"subtype":"noteOn"},{"deltaTime":142,"channel":0,"type":"channel","noteNumber":54,"velocity":84,"subtype":"noteOn"},{"deltaTime":1101,"channel":0,"type":"channel","subtype":"controller","controllerType":64,"value":56},{"deltaTime":92,"channel":0,"type":"channel","subtype":"controller","controllerType":64,"value":120},{"deltaTime":31,"channel":0,"type":"channel","subtype":"controller","controllerType":64,"value":127},{"deltaTime":1518,"channel":0,"type":"channel","subtype":"noteOff","noteNumber":54,"velocity":0},{"deltaTime":1070,"channel":0,"type":"channel","subtype":"noteOff","noteNumber":66,"velocity":0},{"deltaTime":265,"channel":0,"type":"channel","subtype":"noteOff","noteNumber":35,"velocity":0},{"deltaTime":1488,"channel":0,"type":"channel","noteNumber":53,"velocity":80,"subtype":"noteOn"},{"deltaTime":111,"channel":0,"type":"channel","noteNumber":30,"velocity":77,"subtype":"noteOn"},{"deltaTime":215,"channel":0,"type":"channel","noteNumber":65,"velocity":59,"subtype":"noteOn"},{"deltaTime":203,"channel":0,"type":"channel","subtype":"noteOff","noteNumber":23,"velocity":0},{"deltaTime":867,"channel":0,"type":"channel","noteNumber":64,"velocity":25,"subtype":"noteOn"},{"deltaTime":203,"channel":0,"type":"channel","noteNumber":63,"velocity":31,"subtype":"noteOn"},{"deltaTime":775,"channel":0,"type":"channel","subtype":"noteOff","noteNumber":53,"velocity":0},{"deltaTime":356,"channel":0,"type":"channel","subtype":"noteOff","noteNumber":65,"velocity":0},{"deltaTime":203,"channel":0,"type":"channel","subtype":"noteOff","noteNumber":64,"velocity":0},{"deltaTime":154,"channel":0,"type":"channel","subtype":"noteOff","noteNumber":63,"velocity":0},{"deltaTime":885,"channel":0,"type":"channel","subtype":"noteOff","noteNumber":30,"velocity":0},{"deltaTime":1612,"channel":0,"type":"channel","subtype":"controller","controllerType":64,"value":120},{"deltaTime":153,"channel":0,"type":"channel","subtype":"controller","controllerType":64,"value":56},{"deltaTime":111,"channel":0,"type":"channel","subtype":"controller","controllerType":64,"value":0},{"deltaTime":1132,"channel":0,"type":"channel","noteNumber":25,"velocity":82,"subtype":"noteOn"},{"deltaTime":184,"channel":0,"type":"channel","noteNumber":37,"velocity":84,"subtype":"noteOn"},{"deltaTime":172,"channel":0,"type":"channel","noteNumber":63,"velocity":84,"subtype":"noteOn"},{"deltaTime":184,"channel":0,"type":"channel","noteNumber":51,"velocity":92,"subtype":"noteOn"},{"deltaTime":296,"channel":0,"type":"channel","noteNumber":61,"velocity":66,"subtype":"noteOn"},{"deltaTime":295,"channel":0,"type":"channel","subtype":"controller","controllerType":64,"value":56},{"deltaTime":123,"channel":0,"type":"channel","subtype":"controller","controllerType":64,"value":127},{"deltaTime":590,"channel":0,"type":"channel","subtype":"noteOff","noteNumber":61,"velocity":0},{"deltaTime":1040,"channel":0,"type":"channel","subtype":"noteOff","noteNumber":51,"velocity":0},{"deltaTime":713,"channel":0,"type":"channel","subtype":"noteOff","noteNumber":63,"velocity":0},{"deltaTime":1335,"channel":0,"type":"channel","subtype":"noteOff","noteNumber":25,"velocity":0},{"deltaTime":356,"channel":0,"type":"channel","subtype":"noteOff","noteNumber":37,"velocity":0},{"deltaTime":867,"channel":0,"type":"channel","noteNumber":53,"velocity":71,"subtype":"noteOn"},{"deltaTime":203,"channel":0,"type":"channel","noteNumber":32,"velocity":67,"subtype":"noteOn"},{"deltaTime":357,"channel":0,"type":"channel","noteNumber":65,"velocity":42,"subtype":"noteOn"},{"deltaTime":1967,"channel":0,"type":"channel","subtype":"noteOff","noteNumber":65,"velocity":0},{"deltaTime":499,"channel":0,"type":"channel","subtype":"noteOff","noteNumber":53,"velocity":0},{"deltaTime":632,"channel":0,"type":"channel","subtype":"noteOff","noteNumber":32,"velocity":0},{"deltaTime":3057,"channel":0,"type":"channel","noteNumber":53,"velocity":78,"subtype":"noteOn"},{"deltaTime":172,"channel":0,"type":"channel","noteNumber":65,"velocity":81,"subtype":"noteOn"},{"deltaTime":744,"channel":0,"type":"channel","noteNumber":37,"velocity":70,"subtype":"noteOn"},{"deltaTime":185,"channel":0,"type":"channel","noteNumber":25,"velocity":64,"subtype":"noteOn"},{"deltaTime":1162,"channel":0,"type":"channel","subtype":"noteOff","noteNumber":25,"velocity":0},{"deltaTime":560,"channel":0,"type":"channel","subtype":"noteOff","noteNumber":53,"velocity":0},{"deltaTime":2170,"channel":0,"type":"channel","subtype":"noteOff","noteNumber":37,"velocity":0},{"deltaTime":1070,"channel":0,"type":"channel","noteNumber":32,"velocity":67,"subtype":"noteOn"},{"deltaTime":234,"channel":0,"type":"channel","noteNumber":61,"velocity":64,"subtype":"noteOn"},{"deltaTime":357,"channel":0,"type":"channel","subtype":"noteOff","noteNumber":65,"velocity":0},{"deltaTime":2201,"channel":0,"type":"channel","subtype":"noteOff","noteNumber":32,"velocity":0},{"deltaTime":867,"channel":0,"type":"channel","subtype":"noteOff","noteNumber":61,"velocity":0},{"deltaTime":2964,"channel":0,"type":"channel","noteNumber":65,"velocity":87,"subtype":"noteOn"},{"deltaTime":184,"channel":0,"type":"channel","noteNumber":53,"velocity":93,"subtype":"noteOn"},{"deltaTime":234,"channel":0,"type":"channel","noteNumber":25,"velocity":82,"subtype":"noteOn"},{"deltaTime":123,"channel":0,"type":"channel","noteNumber":37,"velocity":87,"subtype":"noteOn"},{"deltaTime":234,"channel":0,"type":"channel","subtype":"controller","controllerType":64,"value":120},{"deltaTime":123,"channel":0,"type":"channel","subtype":"controller","controllerType":64,"value":56},{"deltaTime":61,"channel":0,"type":"channel","subtype":"controller","controllerType":64,"value":0},{"deltaTime":824,"channel":0,"type":"channel","noteNumber":27,"velocity":26,"subtype":"noteOn"},{"deltaTime":246,"channel":0,"type":"channel","subtype":"controller","controllerType":64,"value":32},{"deltaTime":61,"channel":0,"type":"channel","subtype":"controller","controllerType":64,"value":96},{"deltaTime":50,"channel":0,"type":"channel","subtype":"controller","controllerType":64,"value":127},{"deltaTime":2742,"channel":0,"type":"channel","subtype":"noteOff","noteNumber":27,"velocity":0},{"deltaTime":622,"channel":0,"type":"channel","noteNumber":32,"velocity":58,"subtype":"noteOn"},{"deltaTime":387,"channel":0,"type":"channel","noteNumber":61,"velocity":58,"subtype":"noteOn"},{"deltaTime":295,"channel":0,"type":"channel","subtype":"noteOff","noteNumber":25,"velocity":0},{"deltaTime":388,"channel":0,"type":"channel","subtype":"noteOff","noteNumber":37,"velocity":0},{"deltaTime":326,"channel":0,"type":"channel","subtype":"noteOff","noteNumber":65,"velocity":0},{"deltaTime":1161,"channel":0,"type":"channel","subtype":"noteOff","noteNumber":53,"velocity":0},{"deltaTime":1335,"channel":0,"type":"channel","subtype":"noteOff","noteNumber":32,"velocity":0},{"deltaTime":510,"channel":0,"type":"channel","subtype":"noteOff","noteNumber":61,"velocity":0},{"deltaTime":3862,"channel":0,"type":"channel","noteNumber":37,"velocity":60,"subtype":"noteOn"},{"deltaTime":203,"channel":0,"type":"channel","noteNumber":25,"velocity":52,"subtype":"noteOn"},{"deltaTime":357,"channel":0,"type":"channel","noteNumber":53,"velocity":72,"subtype":"noteOn"},{"deltaTime":215,"channel":0,"type":"channel","noteNumber":65,"velocity":60,"subtype":"noteOn"},{"deltaTime":1426,"channel":0,"type":"channel","subtype":"noteOff","noteNumber":25,"velocity":0},{"deltaTime":948,"channel":0,"type":"channel","subtype":"noteOff","noteNumber":65,"velocity":0},{"deltaTime":713,"channel":0,"type":"channel","subtype":"noteOff","noteNumber":53,"velocity":0},{"deltaTime":172,"channel":0,"type":"channel","subtype":"noteOff","noteNumber":37,"velocity":0},{"deltaTime":1876,"channel":0,"type":"channel","noteNumber":32,"velocity":69,"subtype":"noteOn"},{"deltaTime":184,"channel":0,"type":"channel","noteNumber":61,"velocity":70,"subtype":"noteOn"},{"deltaTime":499,"channel":0,"type":"channel","noteNumber":53,"velocity":31,"subtype":"noteOn"},{"deltaTime":1395,"channel":0,"type":"channel","subtype":"noteOff","noteNumber":53,"velocity":0},{"deltaTime":1581,"channel":0,"type":"channel","subtype":"noteOff","noteNumber":61,"velocity":0},{"deltaTime":30,"channel":0,"type":"channel","subtype":"noteOff","noteNumber":32,"velocity":0},{"deltaTime":3087,"channel":0,"type":"channel","noteNumber":53,"velocity":78,"subtype":"noteOn"},{"deltaTime":184,"channel":0,"type":"channel","noteNumber":65,"velocity":78,"subtype":"noteOn"},{"deltaTime":204,"channel":0,"type":"channel","noteNumber":37,"velocity":75,"subtype":"noteOn"},{"deltaTime":184,"channel":0,"type":"channel","noteNumber":25,"velocity":73,"subtype":"noteOn"},{"deltaTime":498,"channel":0,"type":"channel","subtype":"noteOff","noteNumber":53,"velocity":0},{"deltaTime":867,"channel":0,"type":"channel","subtype":"noteOff","noteNumber":65,"velocity":0},{"deltaTime":1335,"channel":0,"type":"channel","subtype":"noteOff","noteNumber":37,"velocity":0},{"deltaTime":1039,"channel":0,"type":"channel","subtype":"noteOff","noteNumber":25,"velocity":0},{"deltaTime":867,"channel":0,"type":"channel","noteNumber":32,"velocity":71,"subtype":"noteOn"},{"deltaTime":498,"channel":0,"type":"channel","noteNumber":55,"velocity":81,"subtype":"noteOn"},{"deltaTime":184,"channel":0,"type":"channel","noteNumber":67,"velocity":73,"subtype":"noteOn"},{"deltaTime":1396,"channel":0,"type":"channel","subtype":"noteOff","noteNumber":55,"velocity":0},{"deltaTime":775,"channel":0,"type":"channel","subtype":"noteOff","noteNumber":67,"velocity":0},{"deltaTime":467,"channel":0,"type":"channel","subtype":"controller","controllerType":64,"value":120},{"deltaTime":154,"channel":0,"type":"channel","subtype":"controller","controllerType":64,"value":56},{"deltaTime":92,"channel":0,"type":"channel","subtype":"controller","controllerType":64,"value":0},{"deltaTime":204,"channel":0,"type":"channel","subtype":"noteOff","noteNumber":32,"velocity":0},{"deltaTime":2170,"channel":0,"type":"channel","subtype":"controller","controllerType":64,"value":56},{"deltaTime":92,"channel":0,"type":"channel","subtype":"controller","controllerType":64,"value":120},{"deltaTime":31,"channel":0,"type":"channel","subtype":"controller","controllerType":64,"value":127},{"deltaTime":886,"channel":0,"type":"channel","noteNumber":37,"velocity":76,"subtype":"noteOn"},{"deltaTime":214,"channel":0,"type":"channel","noteNumber":56,"velocity":79,"subtype":"noteOn"},{"deltaTime":173,"channel":0,"type":"channel","noteNumber":68,"velocity":74,"subtype":"noteOn"},{"deltaTime":123,"channel":0,"type":"channel","noteNumber":25,"velocity":67,"subtype":"noteOn"},{"deltaTime":590,"channel":0,"type":"channel","noteNumber":66,"velocity":39,"subtype":"noteOn"},{"deltaTime":184,"channel":0,"type":"channel","subtype":"noteOff","noteNumber":56,"velocity":0},{"deltaTime":1243,"channel":0,"type":"channel","subtype":"noteOff","noteNumber":66,"velocity":0},{"deltaTime":418,"channel":0,"type":"channel","subtype":"noteOff","noteNumber":68,"velocity":0},{"deltaTime":449,"channel":0,"type":"channel","subtype":"noteOff","noteNumber":37,"velocity":0},{"deltaTime":436,"channel":0,"type":"channel","subtype":"noteOff","noteNumber":25,"velocity":0},{"deltaTime":2122,"channel":0,"type":"channel","noteNumber":55,"velocity":70,"subtype":"noteOn"},{"deltaTime":203,"channel":0,"type":"channel","noteNumber":32,"velocity":73,"subtype":"noteOn"},{"deltaTime":172,"channel":0,"type":"channel","noteNumber":67,"velocity":59,"subtype":"noteOn"},{"deltaTime":541,"channel":0,"type":"channel","noteNumber":66,"velocity":42,"subtype":"noteOn"},{"deltaTime":714,"channel":0,"type":"channel","subtype":"noteOff","noteNumber":55,"velocity":0},{"deltaTime":479,"channel":0,"type":"channel","subtype":"noteOff","noteNumber":66,"velocity":0},{"deltaTime":713,"channel":0,"type":"channel","subtype":"noteOff","noteNumber":67,"velocity":0},{"deltaTime":265,"channel":0,"type":"channel","subtype":"noteOff","noteNumber":32,"velocity":0},{"deltaTime":4065,"channel":0,"type":"channel","noteNumber":37,"velocity":81,"subtype":"noteOn"},{"deltaTime":184,"channel":0,"type":"channel","noteNumber":56,"velocity":83,"subtype":"noteOn"},{"deltaTime":172,"channel":0,"type":"channel","noteNumber":68,"velocity":74,"subtype":"noteOn"},{"deltaTime":185,"channel":0,"type":"channel","noteNumber":25,"velocity":73,"subtype":"noteOn"},{"deltaTime":122,"channel":0,"type":"channel","noteNumber":66,"velocity":61,"subtype":"noteOn"},{"deltaTime":948,"channel":0,"type":"channel","subtype":"noteOff","noteNumber":66,"velocity":0},{"deltaTime":479,"channel":0,"type":"channel","subtype":"noteOff","noteNumber":56,"velocity":0},{"deltaTime":744,"channel":0,"type":"channel","subtype":"noteOff","noteNumber":68,"velocity":0},{"deltaTime":406,"channel":0,"type":"channel","subtype":"noteOff","noteNumber":37,"velocity":0},{"deltaTime":419,"channel":0,"type":"channel","subtype":"noteOff","noteNumber":25,"velocity":0},{"deltaTime":2232,"channel":0,"type":"channel","noteNumber":32,"velocity":75,"subtype":"noteOn"},{"deltaTime":326,"channel":0,"type":"channel","noteNumber":57,"velocity":80,"subtype":"noteOn"},{"deltaTime":590,"channel":0,"type":"channel","noteNumber":69,"velocity":55,"subtype":"noteOn"},{"deltaTime":184,"channel":0,"type":"channel","noteNumber":67,"velocity":47,"subtype":"noteOn"},{"deltaTime":1212,"channel":0,"type":"channel","subtype":"noteOff","noteNumber":67,"velocity":0},{"deltaTime":215,"channel":0,"type":"channel","subtype":"noteOff","noteNumber":57,"velocity":0},{"deltaTime":295,"channel":0,"type":"channel","subtype":"noteOff","noteNumber":69,"velocity":0},{"deltaTime":1304,"channel":0,"type":"channel","subtype":"noteOff","noteNumber":32,"velocity":0},{"deltaTime":3160,"channel":0,"type":"channel","noteNumber":70,"velocity":76,"subtype":"noteOn"},{"deltaTime":204,"channel":0,"type":"channel","noteNumber":58,"velocity":83,"subtype":"noteOn"},{"deltaTime":172,"channel":0,"type":"channel","noteNumber":37,"velocity":84,"subtype":"noteOn"},{"deltaTime":184,"channel":0,"type":"channel","noteNumber":25,"velocity":70,"subtype":"noteOn"},{"deltaTime":775,"channel":0,"type":"channel","subtype":"noteOff","noteNumber":58,"velocity":0},{"deltaTime":1396,"channel":0,"type":"channel","subtype":"noteOff","noteNumber":70,"velocity":0},{"deltaTime":713,"channel":0,"type":"channel","subtype":"noteOff","noteNumber":37,"velocity":0},{"deltaTime":1396,"channel":0,"type":"channel","noteNumber":32,"velocity":68,"subtype":"noteOn"},{"deltaTime":591,"channel":0,"type":"channel","subtype":"noteOff","noteNumber":25,"velocity":0},{"deltaTime":153,"channel":0,"type":"channel","noteNumber":59,"velocity":57,"subtype":"noteOn"},{"deltaTime":203,"channel":0,"type":"channel","noteNumber":71,"velocity":61,"subtype":"noteOn"},{"deltaTime":388,"channel":0,"type":"channel","noteNumber":60,"velocity":52,"subtype":"noteOn"},{"deltaTime":153,"channel":0,"type":"channel","noteNumber":70,"velocity":37,"subtype":"noteOn"},{"deltaTime":947,"channel":0,"type":"channel","subtype":"noteOff","noteNumber":60,"velocity":0},{"deltaTime":449,"channel":0,"type":"channel","subtype":"noteOff","noteNumber":70,"velocity":0},{"deltaTime":479,"channel":0,"type":"channel","subtype":"noteOff","noteNumber":59,"velocity":0},{"deltaTime":81,"channel":0,"type":"channel","subtype":"noteOff","noteNumber":71,"velocity":0},{"deltaTime":2527,"channel":0,"type":"channel","subtype":"noteOff","noteNumber":32,"velocity":0},{"deltaTime":215,"channel":0,"type":"channel","subtype":"controller","controllerType":64,"value":120},{"deltaTime":173,"channel":0,"type":"channel","subtype":"controller","controllerType":64,"value":56},{"deltaTime":92,"channel":0,"type":"channel","subtype":"controller","controllerType":64,"value":0},{"deltaTime":1162,"channel":0,"type":"channel","noteNumber":73,"velocity":84,"subtype":"noteOn"},{"deltaTime":172,"channel":0,"type":"channel","noteNumber":36,"velocity":79,"subtype":"noteOn"},{"deltaTime":184,"channel":0,"type":"channel","noteNumber":23,"velocity":66,"subtype":"noteOn"},{"deltaTime":142,"channel":0,"type":"channel","noteNumber":61,"velocity":88,"subtype":"noteOn"},{"deltaTime":215,"channel":0,"type":"channel","noteNumber":35,"velocity":80,"subtype":"noteOn"},{"deltaTime":173,"channel":0,"type":"channel","noteNumber":24,"velocity":71,"subtype":"noteOn"},{"deltaTime":184,"channel":0,"type":"channel","noteNumber":25,"velocity":51,"subtype":"noteOn"},{"deltaTime":142,"channel":0,"type":"channel","noteNumber":70,"velocity":67,"subtype":"noteOn"},{"deltaTime":214,"channel":0,"type":"channel","noteNumber":63,"velocity":43,"subtype":"noteOn"},{"deltaTime":142,"channel":0,"type":"channel","subtype":"noteOff","noteNumber":35,"velocity":0},{"deltaTime":123,"channel":0,"type":"channel","subtype":"noteOff","noteNumber":70,"velocity":0},{"deltaTime":92,"channel":0,"type":"channel","subtype":"noteOff","noteNumber":25,"velocity":0},{"deltaTime":234,"channel":0,"type":"channel","subtype":"controller","controllerType":64,"value":56},{"deltaTime":122,"channel":0,"type":"channel","subtype":"controller","controllerType":64,"value":127},{"deltaTime":265,"channel":0,"type":"channel","subtype":"noteOff","noteNumber":63,"velocity":0},{"deltaTime":296,"channel":0,"type":"channel","subtype":"noteOff","noteNumber":61,"velocity":0},{"deltaTime":233,"channel":0,"type":"channel","subtype":"noteOff","noteNumber":36,"velocity":0},{"deltaTime":898,"channel":0,"type":"channel","subtype":"noteOff","noteNumber":23,"velocity":0},{"deltaTime":295,"channel":0,"type":"channel","subtype":"noteOff","noteNumber":73,"velocity":0},{"deltaTime":153,"channel":0,"type":"channel","subtype":"noteOff","noteNumber":24,"velocity":0},{"deltaTime":1507,"channel":0,"type":"channel","noteNumber":60,"velocity":79,"subtype":"noteOn"},{"deltaTime":215,"channel":0,"type":"channel","noteNumber":30,"velocity":67,"subtype":"noteOn"},{"deltaTime":296,"channel":0,"type":"channel","noteNumber":72,"velocity":39,"subtype":"noteOn"},{"deltaTime":682,"channel":0,"type":"channel","noteNumber":71,"velocity":26,"subtype":"noteOn"},{"deltaTime":1304,"channel":0,"type":"channel","subtype":"noteOff","noteNumber":71,"velocity":0},{"deltaTime":510,"channel":0,"type":"channel","subtype":"noteOff","noteNumber":60,"velocity":0},{"deltaTime":234,"channel":0,"type":"channel","subtype":"noteOff","noteNumber":72,"velocity":0},{"deltaTime":1906,"channel":0,"type":"channel","subtype":"noteOff","noteNumber":30,"velocity":0},{"deltaTime":1366,"channel":0,"type":"channel","noteNumber":35,"velocity":78,"subtype":"noteOn"},{"deltaTime":326,"channel":0,"type":"channel","noteNumber":23,"velocity":82,"subtype":"noteOn"},{"deltaTime":214,"channel":0,"type":"channel","noteNumber":61,"velocity":89,"subtype":"noteOn"},{"deltaTime":173,"channel":0,"type":"channel","noteNumber":73,"velocity":84,"subtype":"noteOn"},{"deltaTime":977,"channel":0,"type":"channel","noteNumber":30,"velocity":23,"subtype":"noteOn"},{"deltaTime":990,"channel":0,"type":"channel","subtype":"noteOff","noteNumber":61,"velocity":0},{"deltaTime":530,"channel":0,"type":"channel","subtype":"noteOff","noteNumber":30,"velocity":0},{"deltaTime":744,"channel":0,"type":"channel","subtype":"noteOff","noteNumber":73,"velocity":0},{"deltaTime":652,"channel":0,"type":"channel","subtype":"noteOff","noteNumber":35,"velocity":0},{"deltaTime":1008,"channel":0,"type":"channel","subtype":"noteOff","noteNumber":23,"velocity":0},{"deltaTime":713,"channel":0,"type":"channel","noteNumber":30,"velocity":57,"subtype":"noteOn"},{"deltaTime":184,"channel":0,"type":"channel","noteNumber":60,"velocity":66,"subtype":"noteOn"},{"deltaTime":204,"channel":0,"type":"channel","noteNumber":72,"velocity":70,"subtype":"noteOn"},{"deltaTime":2201,"channel":0,"type":"channel","subtype":"noteOff","noteNumber":60,"velocity":0},{"deltaTime":713,"channel":0,"type":"channel","subtype":"noteOff","noteNumber":72,"velocity":0},{"deltaTime":2374,"channel":0,"type":"channel","subtype":"controller","controllerType":64,"value":64},{"deltaTime":30,"channel":0,"type":"channel","subtype":"noteOff","noteNumber":30,"velocity":0},{"deltaTime":124,"channel":0,"type":"channel","subtype":"controller","controllerType":64,"value":0},{"deltaTime":1162,"channel":0,"type":"channel","noteNumber":35,"velocity":80,"subtype":"noteOn"},{"deltaTime":264,"channel":0,"type":"channel","noteNumber":73,"velocity":84,"subtype":"noteOn"},{"deltaTime":234,"channel":0,"type":"channel","noteNumber":61,"velocity":87,"subtype":"noteOn"},{"deltaTime":184,"channel":0,"type":"channel","subtype":"controller","controllerType":64,"value":56},{"deltaTime":62,"channel":0,"type":"channel","noteNumber":23,"velocity":57,"subtype":"noteOn"},{"deltaTime":264,"channel":0,"type":"channel","subtype":"controller","controllerType":64,"value":120},{"deltaTime":31,"channel":0,"type":"channel","subtype":"controller","controllerType":64,"value":127},{"deltaTime":31,"channel":0,"type":"channel","noteNumber":24,"velocity":66,"subtype":"noteOn"},{"deltaTime":326,"channel":0,"type":"channel","noteNumber":25,"velocity":36,"subtype":"noteOn"},{"deltaTime":1660,"channel":0,"type":"channel","subtype":"noteOff","noteNumber":24,"velocity":0},{"deltaTime":92,"channel":0,"type":"channel","subtype":"noteOff","noteNumber":25,"velocity":0},{"deltaTime":560,"channel":0,"type":"channel","subtype":"noteOff","noteNumber":61,"velocity":0},{"deltaTime":276,"channel":0,"type":"channel","subtype":"noteOff","noteNumber":73,"velocity":0},{"deltaTime":683,"channel":0,"type":"channel","subtype":"noteOff","noteNumber":23,"velocity":0},{"deltaTime":111,"channel":0,"type":"channel","subtype":"noteOff","noteNumber":35,"velocity":0},{"deltaTime":682,"channel":0,"type":"channel","noteNumber":30,"velocity":66,"subtype":"noteOn"},{"deltaTime":511,"channel":0,"type":"channel","noteNumber":60,"velocity":74,"subtype":"noteOn"},{"deltaTime":184,"channel":0,"type":"channel","noteNumber":72,"velocity":54,"subtype":"noteOn"},{"deltaTime":1986,"channel":0,"type":"channel","subtype":"noteOff","noteNumber":60,"velocity":0},{"deltaTime":836,"channel":0,"type":"channel","subtype":"noteOff","noteNumber":72,"velocity":0},{"deltaTime":2140,"channel":0,"type":"channel","subtype":"controller","controllerType":64,"value":120},{"deltaTime":142,"channel":0,"type":"channel","subtype":"controller","controllerType":64,"value":56},{"deltaTime":92,"channel":0,"type":"channel","subtype":"controller","controllerType":64,"value":0},{"deltaTime":31,"channel":0,"type":"channel","subtype":"noteOff","noteNumber":30,"velocity":0},{"deltaTime":1304,"channel":0,"type":"channel","noteNumber":35,"velocity":84,"subtype":"noteOn"},{"deltaTime":184,"channel":0,"type":"channel","noteNumber":61,"velocity":84,"subtype":"noteOn"},{"deltaTime":173,"channel":0,"type":"channel","noteNumber":73,"velocity":84,"subtype":"noteOn"},{"deltaTime":122,"channel":0,"type":"channel","noteNumber":23,"velocity":82,"subtype":"noteOn"},{"deltaTime":326,"channel":0,"type":"channel","subtype":"controller","controllerType":64,"value":56},{"deltaTime":92,"channel":0,"type":"channel","subtype":"controller","controllerType":64,"value":120},{"deltaTime":31,"channel":0,"type":"channel","subtype":"controller","controllerType":64,"value":127},{"deltaTime":2884,"channel":0,"type":"channel","subtype":"noteOff","noteNumber":73,"velocity":0},{"deltaTime":265,"channel":0,"type":"channel","subtype":"noteOff","noteNumber":61,"velocity":0},{"deltaTime":467,"channel":0,"type":"channel","subtype":"noteOff","noteNumber":35,"velocity":0},{"deltaTime":246,"channel":0,"type":"channel","subtype":"noteOff","noteNumber":23,"velocity":0},{"deltaTime":1273,"channel":0,"type":"channel","noteNumber":72,"velocity":22,"subtype":"noteOn"},{"deltaTime":123,"channel":0,"type":"channel","noteNumber":30,"velocity":63,"subtype":"noteOn"},{"deltaTime":203,"channel":0,"type":"channel","noteNumber":60,"velocity":74,"subtype":"noteOn"},{"deltaTime":2466,"channel":0,"type":"channel","subtype":"noteOff","noteNumber":60,"velocity":0},{"deltaTime":356,"channel":0,"type":"channel","subtype":"noteOff","noteNumber":72,"velocity":0},{"deltaTime":2110,"channel":0,"type":"channel","subtype":"controller","controllerType":64,"value":120},{"deltaTime":153,"channel":0,"type":"channel","subtype":"controller","controllerType":64,"value":56},{"deltaTime":92,"channel":0,"type":"channel","subtype":"controller","controllerType":64,"value":0},{"deltaTime":31,"channel":0,"type":"channel","subtype":"noteOff","noteNumber":30,"velocity":0},{"deltaTime":1212,"channel":0,"type":"channel","noteNumber":61,"velocity":84,"subtype":"noteOn"},{"deltaTime":123,"channel":0,"type":"channel","noteNumber":73,"velocity":82,"subtype":"noteOn"},{"deltaTime":202,"channel":0,"type":"channel","noteNumber":35,"velocity":82,"subtype":"noteOn"},{"deltaTime":185,"channel":0,"type":"channel","noteNumber":23,"velocity":83,"subtype":"noteOn"},{"deltaTime":295,"channel":0,"type":"channel","subtype":"controller","controllerType":64,"value":56},{"deltaTime":92,"channel":0,"type":"channel","subtype":"controller","controllerType":64,"value":120},{"deltaTime":31,"channel":0,"type":"channel","subtype":"controller","controllerType":64,"value":127},{"deltaTime":855,"channel":0,"type":"channel","subtype":"noteOff","noteNumber":61,"velocity":0},{"deltaTime":714,"channel":0,"type":"channel","subtype":"noteOff","noteNumber":73,"velocity":0},{"deltaTime":897,"channel":0,"type":"channel","subtype":"noteOff","noteNumber":35,"velocity":0},{"deltaTime":1488,"channel":0,"type":"channel","subtype":"noteOff","noteNumber":23,"velocity":0},{"deltaTime":947,"channel":0,"type":"channel","noteNumber":30,"velocity":68,"subtype":"noteOn"},{"deltaTime":529,"channel":0,"type":"channel","noteNumber":66,"velocity":80,"subtype":"noteOn"},{"deltaTime":154,"channel":0,"type":"channel","noteNumber":78,"velocity":75,"subtype":"noteOn"},{"deltaTime":867,"channel":0,"type":"channel","subtype":"noteOff","noteNumber":66,"velocity":0},{"deltaTime":295,"channel":0,"type":"channel","subtype":"noteOff","noteNumber":78,"velocity":0},{"deltaTime":3597,"channel":0,"type":"channel","subtype":"noteOff","noteNumber":30,"velocity":0},{"deltaTime":794,"channel":0,"type":"channel","noteNumber":65,"velocity":82,"subtype":"noteOn"},{"deltaTime":418,"channel":0,"type":"channel","noteNumber":77,"velocity":57,"subtype":"noteOn"},{"deltaTime":326,"channel":0,"type":"channel","noteNumber":35,"velocity":76,"subtype":"noteOn"},{"deltaTime":184,"channel":0,"type":"channel","noteNumber":23,"velocity":77,"subtype":"noteOn"},{"deltaTime":498,"channel":0,"type":"channel","noteNumber":76,"velocity":29,"subtype":"noteOn"},{"deltaTime":1408,"channel":0,"type":"channel","subtype":"noteOff","noteNumber":65,"velocity":0},{"deltaTime":19,"channel":0,"type":"channel","subtype":"noteOff","noteNumber":77,"velocity":0},{"deltaTime":92,"channel":0,"type":"channel","subtype":"noteOff","noteNumber":76,"velocity":0},{"deltaTime":806,"channel":0,"type":"channel","subtype":"noteOff","noteNumber":23,"velocity":0},{"deltaTime":682,"channel":0,"type":"channel","subtype":"noteOff","noteNumber":35,"velocity":0},{"deltaTime":1224,"channel":0,"type":"channel","subtype":"controller","controllerType":64,"value":120},{"deltaTime":203,"channel":0,"type":"channel","subtype":"controller","controllerType":64,"value":56},{"deltaTime":92,"channel":0,"type":"channel","subtype":"controller","controllerType":64,"value":0},{"deltaTime":234,"channel":0,"type":"channel","noteNumber":30,"velocity":74,"subtype":"noteOn"},{"deltaTime":590,"channel":0,"type":"channel","noteNumber":78,"velocity":73,"subtype":"noteOn"},{"deltaTime":185,"channel":0,"type":"channel","noteNumber":66,"velocity":79,"subtype":"noteOn"},{"deltaTime":264,"channel":0,"type":"channel","subtype":"controller","controllerType":64,"value":56},{"deltaTime":92,"channel":0,"type":"channel","subtype":"controller","controllerType":64,"value":120},{"deltaTime":31,"channel":0,"type":"channel","subtype":"controller","controllerType":64,"value":127},{"deltaTime":498,"channel":0,"type":"channel","subtype":"noteOff","noteNumber":66,"velocity":0},{"deltaTime":246,"channel":0,"type":"channel","subtype":"noteOff","noteNumber":78,"velocity":0},{"deltaTime":3862,"channel":0,"type":"channel","subtype":"noteOff","noteNumber":30,"velocity":0},{"deltaTime":529,"channel":0,"type":"channel","noteNumber":65,"velocity":82,"subtype":"noteOn"},{"deltaTime":246,"channel":0,"type":"channel","noteNumber":77,"velocity":71,"subtype":"noteOn"},{"deltaTime":172,"channel":0,"type":"channel","noteNumber":35,"velocity":77,"subtype":"noteOn"},{"deltaTime":184,"channel":0,"type":"channel","noteNumber":23,"velocity":63,"subtype":"noteOn"},{"deltaTime":652,"channel":0,"type":"channel","noteNumber":76,"velocity":39,"subtype":"noteOn"},{"deltaTime":1488,"channel":0,"type":"channel","subtype":"noteOff","noteNumber":76,"velocity":0},{"deltaTime":92,"channel":0,"type":"channel","subtype":"noteOff","noteNumber":65,"velocity":0},{"deltaTime":142,"channel":0,"type":"channel","subtype":"noteOff","noteNumber":77,"velocity":0},{"deltaTime":234,"channel":0,"type":"channel","subtype":"noteOff","noteNumber":23,"velocity":0},{"deltaTime":1051,"channel":0,"type":"channel","subtype":"noteOff","noteNumber":35,"velocity":0},{"deltaTime":1365,"channel":0,"type":"channel","subtype":"controller","controllerType":64,"value":120},{"deltaTime":173,"channel":0,"type":"channel","subtype":"controller","controllerType":64,"value":56},{"deltaTime":92,"channel":0,"type":"channel","subtype":"controller","controllerType":64,"value":0},{"deltaTime":153,"channel":0,"type":"channel","noteNumber":30,"velocity":72,"subtype":"noteOn"},{"deltaTime":357,"channel":0,"type":"channel","noteNumber":78,"velocity":84,"subtype":"noteOn"},{"deltaTime":172,"channel":0,"type":"channel","noteNumber":66,"velocity":82,"subtype":"noteOn"},{"deltaTime":978,"channel":0,"type":"channel","subtype":"controller","controllerType":64,"value":56},{"deltaTime":123,"channel":0,"type":"channel","subtype":"controller","controllerType":64,"value":120},{"deltaTime":31,"channel":0,"type":"channel","subtype":"controller","controllerType":64,"value":127},{"deltaTime":1039,"channel":0,"type":"channel","subtype":"noteOff","noteNumber":66,"velocity":0},{"deltaTime":387,"channel":0,"type":"channel","subtype":"noteOff","noteNumber":78,"velocity":0},{"deltaTime":2282,"channel":0,"type":"channel","subtype":"noteOff","noteNumber":30,"velocity":0},{"deltaTime":1611,"channel":0,"type":"channel","noteNumber":80,"velocity":84,"subtype":"noteOn"},{"deltaTime":123,"channel":0,"type":"channel","noteNumber":35,"velocity":77,"subtype":"noteOn"},{"deltaTime":203,"channel":0,"type":"channel","noteNumber":68,"velocity":82,"subtype":"noteOn"},{"deltaTime":153,"channel":0,"type":"channel","noteNumber":23,"velocity":81,"subtype":"noteOn"},{"deltaTime":204,"channel":0,"type":"channel","noteNumber":70,"velocity":65,"subtype":"noteOn"},{"deltaTime":621,"channel":0,"type":"channel","subtype":"noteOff","noteNumber":68,"velocity":0},{"deltaTime":184,"channel":0,"type":"channel","noteNumber":81,"velocity":25,"subtype":"noteOn"},{"deltaTime":173,"channel":0,"type":"channel","subtype":"noteOff","noteNumber":70,"velocity":0},{"deltaTime":927,"channel":0,"type":"channel","subtype":"noteOff","noteNumber":80,"velocity":0},{"deltaTime":326,"channel":0,"type":"channel","subtype":"noteOff","noteNumber":81,"velocity":0},{"deltaTime":1661,"channel":0,"type":"channel","subtype":"noteOff","noteNumber":35,"velocity":0},{"deltaTime":744,"channel":0,"type":"channel","subtype":"noteOff","noteNumber":23,"velocity":0},{"deltaTime":652,"channel":0,"type":"channel","noteNumber":30,"velocity":57,"subtype":"noteOn"},{"deltaTime":184,"channel":0,"type":"channel","noteNumber":73,"velocity":70,"subtype":"noteOn"},{"deltaTime":173,"channel":0,"type":"channel","noteNumber":61,"velocity":78,"subtype":"noteOn"},{"deltaTime":1039,"channel":0,"type":"channel","subtype":"noteOff","noteNumber":61,"velocity":0},{"deltaTime":805,"channel":0,"type":"channel","subtype":"noteOff","noteNumber":73,"velocity":0},{"deltaTime":2558,"channel":0,"type":"channel","subtype":"controller","controllerType":64,"value":120},{"deltaTime":142,"channel":0,"type":"channel","subtype":"controller","controllerType":64,"value":56},{"deltaTime":92,"channel":0,"type":"channel","subtype":"controller","controllerType":64,"value":0},{"deltaTime":215,"channel":0,"type":"channel","subtype":"noteOff","noteNumber":30,"velocity":0},{"deltaTime":1365,"channel":0,"type":"channel","noteNumber":35,"velocity":81,"subtype":"noteOn"},{"deltaTime":173,"channel":0,"type":"channel","noteNumber":23,"velocity":84,"subtype":"noteOn"},{"deltaTime":184,"channel":0,"type":"channel","noteNumber":73,"velocity":84,"subtype":"noteOn"},{"deltaTime":141,"channel":0,"type":"channel","noteNumber":61,"velocity":89,"subtype":"noteOn"},{"deltaTime":246,"channel":0,"type":"channel","subtype":"controller","controllerType":64,"value":56},{"deltaTime":111,"channel":0,"type":"channel","subtype":"controller","controllerType":64,"value":120},{"deltaTime":31,"channel":0,"type":"channel","subtype":"controller","controllerType":64,"value":127},{"deltaTime":3567,"channel":0,"type":"channel","subtype":"noteOff","noteNumber":61,"velocity":0},{"deltaTime":295,"channel":0,"type":"channel","subtype":"noteOff","noteNumber":73,"velocity":0},{"deltaTime":326,"channel":0,"type":"channel","subtype":"noteOff","noteNumber":23,"velocity":0},{"deltaTime":245,"channel":0,"type":"channel","subtype":"noteOff","noteNumber":35,"velocity":0},{"deltaTime":296,"channel":0,"type":"channel","noteNumber":30,"velocity":53,"subtype":"noteOn"},{"deltaTime":652,"channel":0,"type":"channel","noteNumber":60,"velocity":67,"subtype":"noteOn"},{"deltaTime":479,"channel":0,"type":"channel","noteNumber":72,"velocity":28,"subtype":"noteOn"},{"deltaTime":1568,"channel":0,"type":"channel","subtype":"noteOff","noteNumber":72,"velocity":0},{"deltaTime":744,"channel":0,"type":"channel","subtype":"noteOff","noteNumber":60,"velocity":0},{"deltaTime":1999,"channel":0,"type":"channel","subtype":"noteOff","noteNumber":30,"velocity":0},{"deltaTime":498,"channel":0,"type":"channel","subtype":"controller","controllerType":64,"value":88},{"deltaTime":92,"channel":0,"type":"channel","subtype":"controller","controllerType":64,"value":24},{"deltaTime":92,"channel":0,"type":"channel","subtype":"controller","controllerType":64,"value":0},{"deltaTime":855,"channel":0,"type":"channel","noteNumber":61,"velocity":81,"subtype":"noteOn"},{"deltaTime":185,"channel":0,"type":"channel","noteNumber":73,"velocity":79,"subtype":"noteOn"},{"deltaTime":295,"channel":0,"type":"channel","noteNumber":35,"velocity":80,"subtype":"noteOn"},{"deltaTime":184,"channel":0,"type":"channel","noteNumber":23,"velocity":83,"subtype":"noteOn"},{"deltaTime":529,"channel":0,"type":"channel","subtype":"controller","controllerType":64,"value":56},{"deltaTime":123,"channel":0,"type":"channel","subtype":"controller","controllerType":64,"value":120},{"deltaTime":31,"channel":0,"type":"channel","subtype":"controller","controllerType":64,"value":127},{"deltaTime":2822,"channel":0,"type":"channel","subtype":"noteOff","noteNumber":73,"velocity":0},{"deltaTime":142,"channel":0,"type":"channel","subtype":"noteOff","noteNumber":61,"velocity":0},{"deltaTime":326,"channel":0,"type":"channel","subtype":"noteOff","noteNumber":23,"velocity":0},{"deltaTime":1254,"channel":0,"type":"channel","subtype":"noteOff","noteNumber":35,"velocity":0},{"deltaTime":357,"channel":0,"type":"channel","noteNumber":30,"velocity":66,"subtype":"noteOn"},{"deltaTime":122,"channel":0,"type":"channel","noteNumber":60,"velocity":66,"subtype":"noteOn"},{"deltaTime":235,"channel":0,"type":"channel","noteNumber":72,"velocity":48,"subtype":"noteOn"},{"deltaTime":947,"channel":0,"type":"channel","noteNumber":71,"velocity":25,"subtype":"noteOn"},{"deltaTime":1284,"channel":0,"type":"channel","subtype":"noteOff","noteNumber":72,"velocity":0},{"deltaTime":31,"channel":0,"type":"channel","subtype":"noteOff","noteNumber":60,"velocity":0},{"deltaTime":80,"channel":0,"type":"channel","subtype":"noteOff","noteNumber":71,"velocity":0},{"deltaTime":2171,"channel":0,"type":"channel","subtype":"controller","controllerType":64,"value":120},{"deltaTime":123,"channel":0,"type":"channel","subtype":"controller","controllerType":64,"value":56},{"deltaTime":92,"channel":0,"type":"channel","subtype":"controller","controllerType":64,"value":0},{"deltaTime":31,"channel":0,"type":"channel","subtype":"noteOff","noteNumber":30,"velocity":0},{"deltaTime":1660,"channel":0,"type":"channel","subtype":"controller","controllerType":64,"value":56},{"deltaTime":123,"channel":0,"type":"channel","subtype":"controller","controllerType":64,"value":120},{"deltaTime":31,"channel":0,"type":"channel","noteNumber":61,"velocity":81,"subtype":"noteOn"},{"deltaTime":111,"channel":0,"type":"channel","noteNumber":35,"velocity":81,"subtype":"noteOn"},{"deltaTime":215,"channel":0,"type":"channel","noteNumber":73,"velocity":81,"subtype":"noteOn"},{"deltaTime":172,"channel":0,"type":"channel","noteNumber":23,"velocity":83,"subtype":"noteOn"},{"deltaTime":184,"channel":0,"type":"channel","subtype":"controller","controllerType":64,"value":127},{"deltaTime":2140,"channel":0,"type":"channel","subtype":"noteOff","noteNumber":35,"velocity":0},{"deltaTime":326,"channel":0,"type":"channel","subtype":"noteOff","noteNumber":61,"velocity":0},{"deltaTime":1243,"channel":0,"type":"channel","subtype":"noteOff","noteNumber":73,"velocity":0},{"deltaTime":602,"channel":0,"type":"channel","subtype":"noteOff","noteNumber":23,"velocity":0},{"deltaTime":683,"channel":0,"type":"channel","noteNumber":60,"velocity":75,"subtype":"noteOn"},{"deltaTime":264,"channel":0,"type":"channel","noteNumber":30,"velocity":65,"subtype":"noteOn"},{"deltaTime":622,"channel":0,"type":"channel","noteNumber":72,"velocity":37,"subtype":"noteOn"},{"deltaTime":1660,"channel":0,"type":"channel","subtype":"noteOff","noteNumber":72,"velocity":0},{"deltaTime":337,"channel":0,"type":"channel","subtype":"noteOff","noteNumber":60,"velocity":0},{"deltaTime":1477,"channel":0,"type":"channel","subtype":"controller","controllerType":64,"value":120},{"deltaTime":153,"channel":0,"type":"channel","subtype":"controller","controllerType":64,"value":56},{"deltaTime":92,"channel":0,"type":"channel","subtype":"controller","controllerType":64,"value":0},{"deltaTime":560,"channel":0,"type":"channel","subtype":"noteOff","noteNumber":30,"velocity":0},{"deltaTime":1519,"channel":0,"type":"channel","subtype":"controller","controllerType":64,"value":56},{"deltaTime":141,"channel":0,"type":"channel","subtype":"controller","controllerType":64,"value":120},{"deltaTime":31,"channel":0,"type":"channel","subtype":"controller","controllerType":64,"value":127},{"deltaTime":154,"channel":0,"type":"channel","noteNumber":73,"velocity":75,"subtype":"noteOn"},{"deltaTime":172,"channel":0,"type":"channel","noteNumber":35,"velocity":81,"subtype":"noteOn"},{"deltaTime":185,"channel":0,"type":"channel","noteNumber":61,"velocity":75,"subtype":"noteOn"},{"deltaTime":122,"channel":0,"type":"channel","noteNumber":23,"velocity":82,"subtype":"noteOn"},{"deltaTime":1070,"channel":0,"type":"channel","subtype":"noteOff","noteNumber":61,"velocity":0},{"deltaTime":560,"channel":0,"type":"channel","subtype":"noteOff","noteNumber":73,"velocity":0},{"deltaTime":1335,"channel":0,"type":"channel","subtype":"noteOff","noteNumber":35,"velocity":0},{"deltaTime":1131,"channel":0,"type":"channel","subtype":"noteOff","noteNumber":23,"velocity":0},{"deltaTime":947,"channel":0,"type":"channel","noteNumber":60,"velocity":68,"subtype":"noteOn"},{"deltaTime":123,"channel":0,"type":"channel","noteNumber":30,"velocity":58,"subtype":"noteOn"},{"deltaTime":326,"channel":0,"type":"channel","noteNumber":72,"velocity":51,"subtype":"noteOn"},{"deltaTime":2294,"channel":0,"type":"channel","subtype":"noteOff","noteNumber":60,"velocity":0},{"deltaTime":172,"channel":0,"type":"channel","subtype":"noteOff","noteNumber":72,"velocity":0},{"deltaTime":1458,"channel":0,"type":"channel","subtype":"controller","controllerType":64,"value":120},{"deltaTime":153,"channel":0,"type":"channel","subtype":"controller","controllerType":64,"value":56},{"deltaTime":61,"channel":0,"type":"channel","subtype":"controller","controllerType":64,"value":0},{"deltaTime":886,"channel":0,"type":"channel","subtype":"noteOff","noteNumber":30,"velocity":0},{"deltaTime":836,"channel":0,"type":"channel","noteNumber":75,"velocity":84,"subtype":"noteOn"},{"deltaTime":173,"channel":0,"type":"channel","noteNumber":63,"velocity":80,"subtype":"noteOn"},{"deltaTime":184,"channel":0,"type":"channel","noteNumber":35,"velocity":75,"subtype":"noteOn"},{"deltaTime":111,"channel":0,"type":"channel","noteNumber":23,"velocity":78,"subtype":"noteOn"},{"deltaTime":307,"channel":0,"type":"channel","subtype":"controller","controllerType":64,"value":56},{"deltaTime":111,"channel":0,"type":"channel","subtype":"controller","controllerType":64,"value":120},{"deltaTime":31,"channel":0,"type":"channel","subtype":"controller","controllerType":64,"value":127},{"deltaTime":153,"channel":0,"type":"channel","subtype":"noteOff","noteNumber":75,"velocity":0},{"deltaTime":295,"channel":0,"type":"channel","subtype":"noteOff","noteNumber":63,"velocity":0},{"deltaTime":2497,"channel":0,"type":"channel","subtype":"noteOff","noteNumber":35,"velocity":0},{"deltaTime":805,"channel":0,"type":"channel","subtype":"noteOff","noteNumber":23,"velocity":0},{"deltaTime":1427,"channel":0,"type":"channel","noteNumber":30,"velocity":71,"subtype":"noteOn"},{"deltaTime":437,"channel":0,"type":"channel","noteNumber":58,"velocity":82,"subtype":"noteOn"},{"deltaTime":184,"channel":0,"type":"channel","noteNumber":70,"velocity":72,"subtype":"noteOn"},{"deltaTime":867,"channel":0,"type":"channel","subtype":"noteOff","noteNumber":70,"velocity":0},{"deltaTime":19,"channel":0,"type":"channel","subtype":"noteOff","noteNumber":58,"velocity":0},{"deltaTime":3272,"channel":0,"type":"channel","subtype":"noteOff","noteNumber":30,"velocity":0},{"deltaTime":122,"channel":0,"type":"channel","subtype":"controller","controllerType":64,"value":120},{"deltaTime":123,"channel":0,"type":"channel","subtype":"controller","controllerType":64,"value":56},{"deltaTime":80,"channel":0,"type":"channel","subtype":"controller","controllerType":64,"value":0},{"deltaTime":1346,"channel":0,"type":"channel","noteNumber":61,"velocity":81,"subtype":"noteOn"},{"deltaTime":204,"channel":0,"type":"channel","noteNumber":73,"velocity":80,"subtype":"noteOn"},{"deltaTime":122,"channel":0,"type":"channel","noteNumber":35,"velocity":75,"subtype":"noteOn"},{"deltaTime":173,"channel":0,"type":"channel","noteNumber":23,"velocity":78,"subtype":"noteOn"},{"deltaTime":264,"channel":0,"type":"channel","subtype":"controller","controllerType":64,"value":56},{"deltaTime":124,"channel":0,"type":"channel","subtype":"controller","controllerType":64,"value":120},{"deltaTime":30,"channel":0,"type":"channel","subtype":"controller","controllerType":64,"value":127},{"deltaTime":916,"channel":0,"type":"channel","subtype":"noteOff","noteNumber":73,"velocity":0},{"deltaTime":246,"channel":0,"type":"channel","subtype":"noteOff","noteNumber":61,"velocity":0},{"deltaTime":2017,"channel":0,"type":"channel","subtype":"noteOff","noteNumber":35,"velocity":0},{"deltaTime":541,"channel":0,"type":"channel","subtype":"noteOff","noteNumber":23,"velocity":0},{"deltaTime":947,"channel":0,"type":"channel","noteNumber":72,"velocity":73,"subtype":"noteOn"},{"deltaTime":172,"channel":0,"type":"channel","noteNumber":60,"velocity":75,"subtype":"noteOn"},{"deltaTime":450,"channel":0,"type":"channel","noteNumber":30,"velocity":70,"subtype":"noteOn"},{"deltaTime":1284,"channel":0,"type":"channel","subtype":"noteOff","noteNumber":60,"velocity":0},{"deltaTime":763,"channel":0,"type":"channel","subtype":"noteOff","noteNumber":72,"velocity":0},{"deltaTime":2294,"channel":0,"type":"channel","subtype":"controller","controllerType":64,"value":120},{"deltaTime":153,"channel":0,"type":"channel","subtype":"controller","controllerType":64,"value":56},{"deltaTime":50,"channel":0,"type":"channel","subtype":"controller","controllerType":64,"value":0},{"deltaTime":418,"channel":0,"type":"channel","subtype":"noteOff","noteNumber":30,"velocity":0},{"deltaTime":602,"channel":0,"type":"channel","noteNumber":68,"velocity":75,"subtype":"noteOn"},{"deltaTime":142,"channel":0,"type":"channel","noteNumber":56,"velocity":81,"subtype":"noteOn"},{"deltaTime":295,"channel":0,"type":"channel","subtype":"controller","controllerType":64,"value":56},{"deltaTime":93,"channel":0,"type":"channel","subtype":"controller","controllerType":64,"value":120},{"deltaTime":30,"channel":0,"type":"channel","noteNumber":35,"velocity":73,"subtype":"noteOn"},{"deltaTime":123,"channel":0,"type":"channel","subtype":"controller","controllerType":64,"value":127},{"deltaTime":80,"channel":0,"type":"channel","noteNumber":23,"velocity":75,"subtype":"noteOn"},{"deltaTime":246,"channel":0,"type":"channel","subtype":"noteOff","noteNumber":56,"velocity":0},{"deltaTime":61,"channel":0,"type":"channel","subtype":"noteOff","noteNumber":68,"velocity":0},{"deltaTime":2048,"channel":0,"type":"channel","subtype":"noteOff","noteNumber":35,"velocity":0},{"deltaTime":744,"channel":0,"type":"channel","subtype":"noteOff","noteNumber":23,"velocity":0},{"deltaTime":2527,"channel":0,"type":"channel","noteNumber":30,"velocity":75,"subtype":"noteOn"},{"deltaTime":173,"channel":0,"type":"channel","noteNumber":54,"velocity":78,"subtype":"noteOn"},{"deltaTime":184,"channel":0,"type":"channel","noteNumber":66,"velocity":70,"subtype":"noteOn"},{"deltaTime":1212,"channel":0,"type":"channel","subtype":"noteOff","noteNumber":66,"velocity":0},{"deltaTime":215,"channel":0,"type":"channel","subtype":"noteOff","noteNumber":54,"velocity":0},{"deltaTime":2730,"channel":0,"type":"channel","subtype":"noteOff","noteNumber":30,"velocity":0},{"deltaTime":1845,"channel":0,"type":"channel","noteNumber":53,"velocity":82,"subtype":"noteOn"},{"deltaTime":141,"channel":0,"type":"channel","noteNumber":35,"velocity":78,"subtype":"noteOn"},{"deltaTime":216,"channel":0,"type":"channel","noteNumber":65,"velocity":72,"subtype":"noteOn"},{"deltaTime":92,"channel":0,"type":"channel","noteNumber":23,"velocity":78,"subtype":"noteOn"},{"deltaTime":1783,"channel":0,"type":"channel","subtype":"noteOff","noteNumber":53,"velocity":0},{"deltaTime":499,"channel":0,"type":"channel","subtype":"noteOff","noteNumber":65,"velocity":0},{"deltaTime":744,"channel":0,"type":"channel","subtype":"noteOff","noteNumber":35,"velocity":0},{"deltaTime":233,"channel":0,"type":"channel","subtype":"noteOff","noteNumber":23,"velocity":0},{"deltaTime":2650,"channel":0,"type":"channel","noteNumber":66,"velocity":77,"subtype":"noteOn"},{"deltaTime":184,"channel":0,"type":"channel","noteNumber":54,"velocity":76,"subtype":"noteOn"},{"deltaTime":112,"channel":0,"type":"channel","noteNumber":30,"velocity":76,"subtype":"noteOn"},{"deltaTime":713,"channel":0,"type":"channel","subtype":"noteOff","noteNumber":66,"velocity":0},{"deltaTime":61,"channel":0,"type":"channel","subtype":"noteOff","noteNumber":54,"velocity":0},{"deltaTime":3118,"channel":0,"type":"channel","subtype":"controller","controllerType":64,"value":120},{"deltaTime":123,"channel":0,"type":"channel","subtype":"controller","controllerType":64,"value":56},{"deltaTime":92,"channel":0,"type":"channel","subtype":"controller","controllerType":64,"value":0},{"deltaTime":173,"channel":0,"type":"channel","subtype":"noteOff","noteNumber":30,"velocity":0},{"deltaTime":1549,"channel":0,"type":"channel","noteNumber":35,"velocity":81,"subtype":"noteOn"},{"deltaTime":203,"channel":0,"type":"channel","noteNumber":23,"velocity":85,"subtype":"noteOn"},{"deltaTime":184,"channel":0,"type":"channel","noteNumber":61,"velocity":78,"subtype":"noteOn"},{"deltaTime":204,"channel":0,"type":"channel","noteNumber":73,"velocity":81,"subtype":"noteOn"},{"deltaTime":448,"channel":0,"type":"channel","subtype":"controller","controllerType":64,"value":56},{"deltaTime":123,"channel":0,"type":"channel","subtype":"controller","controllerType":64,"value":120},{"deltaTime":31,"channel":0,"type":"channel","noteNumber":63,"velocity":43,"subtype":"noteOn"},{"deltaTime":142,"channel":0,"type":"channel","subtype":"controller","controllerType":64,"value":127},{"deltaTime":1070,"channel":0,"type":"channel","subtype":"noteOff","noteNumber":63,"velocity":0},{"deltaTime":836,"channel":0,"type":"channel","subtype":"noteOff","noteNumber":61,"velocity":0},{"deltaTime":172,"channel":0,"type":"channel","subtype":"noteOff","noteNumber":73,"velocity":0},{"deltaTime":1101,"channel":0,"type":"channel","subtype":"noteOff","noteNumber":35,"velocity":0},{"deltaTime":1070,"channel":0,"type":"channel","subtype":"noteOff","noteNumber":23,"velocity":0},{"deltaTime":357,"channel":0,"type":"channel","noteNumber":60,"velocity":73,"subtype":"noteOn"},{"deltaTime":122,"channel":0,"type":"channel","noteNumber":30,"velocity":56,"subtype":"noteOn"},{"deltaTime":855,"channel":0,"type":"channel","noteNumber":72,"velocity":34,"subtype":"noteOn"},{"deltaTime":1642,"channel":0,"type":"channel","subtype":"noteOff","noteNumber":72,"velocity":0},{"deltaTime":172,"channel":0,"type":"channel","subtype":"noteOff","noteNumber":60,"velocity":0},{"deltaTime":2294,"channel":0,"type":"channel","subtype":"controller","controllerType":64,"value":120},{"deltaTime":153,"channel":0,"type":"channel","subtype":"controller","controllerType":64,"value":56},{"deltaTime":81,"channel":0,"type":"channel","subtype":"controller","controllerType":64,"value":0},{"deltaTime":294,"channel":0,"type":"channel","subtype":"noteOff","noteNumber":30,"velocity":0},{"deltaTime":1316,"channel":0,"type":"channel","noteNumber":23,"velocity":81,"subtype":"noteOn"},{"deltaTime":173,"channel":0,"type":"channel","noteNumber":35,"velocity":79,"subtype":"noteOn"},{"deltaTime":184,"channel":0,"type":"channel","noteNumber":73,"velocity":81,"subtype":"noteOn"},{"deltaTime":203,"channel":0,"type":"channel","noteNumber":61,"velocity":81,"subtype":"noteOn"},{"deltaTime":264,"channel":0,"type":"channel","subtype":"controller","controllerType":64,"value":56},{"deltaTime":93,"channel":0,"type":"channel","subtype":"controller","controllerType":64,"value":120},{"deltaTime":31,"channel":0,"type":"channel","subtype":"controller","controllerType":64,"value":127},{"deltaTime":1752,"channel":0,"type":"channel","subtype":"noteOff","noteNumber":61,"velocity":0},{"deltaTime":357,"channel":0,"type":"channel","subtype":"noteOff","noteNumber":73,"velocity":0},{"deltaTime":836,"channel":0,"type":"channel","subtype":"noteOff","noteNumber":23,"velocity":0},{"deltaTime":1845,"channel":0,"type":"channel","subtype":"noteOff","noteNumber":35,"velocity":0},{"deltaTime":356,"channel":0,"type":"channel","noteNumber":30,"velocity":73,"subtype":"noteOn"},{"deltaTime":173,"channel":0,"type":"channel","noteNumber":60,"velocity":70,"subtype":"noteOn"},{"deltaTime":184,"channel":0,"type":"channel","noteNumber":72,"velocity":52,"subtype":"noteOn"},{"deltaTime":2201,"channel":0,"type":"channel","subtype":"noteOff","noteNumber":60,"velocity":0},{"deltaTime":406,"channel":0,"type":"channel","subtype":"noteOff","noteNumber":72,"velocity":0},{"deltaTime":1224,"channel":0,"type":"channel","subtype":"controller","controllerType":64,"value":120},{"deltaTime":172,"channel":0,"type":"channel","subtype":"controller","controllerType":64,"value":56},{"deltaTime":62,"channel":0,"type":"channel","subtype":"controller","controllerType":64,"value":0},{"deltaTime":31,"channel":0,"type":"channel","subtype":"noteOff","noteNumber":30,"velocity":0},{"deltaTime":1844,"channel":0,"type":"channel","subtype":"controller","controllerType":64,"value":40},{"deltaTime":123,"channel":0,"type":"channel","subtype":"controller","controllerType":64,"value":104},{"deltaTime":111,"channel":0,"type":"channel","subtype":"controller","controllerType":64,"value":127},{"deltaTime":31,"channel":0,"type":"channel","noteNumber":61,"velocity":84,"subtype":"noteOn"},{"deltaTime":184,"channel":0,"type":"channel","noteNumber":73,"velocity":82,"subtype":"noteOn"},{"deltaTime":111,"channel":0,"type":"channel","noteNumber":30,"velocity":79,"subtype":"noteOn"},{"deltaTime":215,"channel":0,"type":"channel","noteNumber":35,"velocity":80,"subtype":"noteOn"},{"deltaTime":203,"channel":0,"type":"channel","noteNumber":23,"velocity":80,"subtype":"noteOn"},{"deltaTime":418,"channel":0,"type":"channel","subtype":"noteOff","noteNumber":30,"velocity":0},{"deltaTime":1132,"channel":0,"type":"channel","subtype":"noteOff","noteNumber":61,"velocity":0},{"deltaTime":153,"channel":0,"type":"channel","subtype":"noteOff","noteNumber":73,"velocity":0},{"deltaTime":1722,"channel":0,"type":"channel","subtype":"noteOff","noteNumber":35,"velocity":0},{"deltaTime":1691,"channel":0,"type":"channel","subtype":"noteOff","noteNumber":23,"velocity":0},{"deltaTime":31,"channel":0,"type":"channel","noteNumber":30,"velocity":73,"subtype":"noteOn"},{"deltaTime":498,"channel":0,"type":"channel","noteNumber":72,"velocity":48,"subtype":"noteOn"},{"deltaTime":185,"channel":0,"type":"channel","noteNumber":60,"velocity":67,"subtype":"noteOn"},{"deltaTime":774,"channel":0,"type":"channel","noteNumber":71,"velocity":26,"subtype":"noteOn"},{"deltaTime":1488,"channel":0,"type":"channel","subtype":"noteOff","noteNumber":71,"velocity":0},{"deltaTime":326,"channel":0,"type":"channel","subtype":"noteOff","noteNumber":60,"velocity":0},{"deltaTime":173,"channel":0,"type":"channel","subtype":"noteOff","noteNumber":72,"velocity":0},{"deltaTime":1070,"channel":0,"type":"channel","subtype":"controller","controllerType":64,"value":120},{"deltaTime":153,"channel":0,"type":"channel","subtype":"controller","controllerType":64,"value":56},{"deltaTime":61,"channel":0,"type":"channel","subtype":"controller","controllerType":64,"value":0},{"deltaTime":143,"channel":0,"type":"channel","subtype":"noteOff","noteNumber":30,"velocity":0},{"deltaTime":1967,"channel":0,"type":"channel","subtype":"controller","controllerType":64,"value":56},{"deltaTime":111,"channel":0,"type":"channel","subtype":"controller","controllerType":64,"value":120},{"deltaTime":31,"channel":0,"type":"channel","subtype":"controller","controllerType":64,"value":127},{"deltaTime":448,"channel":0,"type":"channel","noteNumber":35,"velocity":83,"subtype":"noteOn"},{"deltaTime":203,"channel":0,"type":"channel","noteNumber":73,"velocity":81,"subtype":"noteOn"},{"deltaTime":185,"channel":0,"type":"channel","noteNumber":23,"velocity":83,"subtype":"noteOn"},{"deltaTime":172,"channel":0,"type":"channel","noteNumber":61,"velocity":78,"subtype":"noteOn"},{"deltaTime":2109,"channel":0,"type":"channel","subtype":"noteOff","noteNumber":73,"velocity":0},{"deltaTime":449,"channel":0,"type":"channel","subtype":"noteOff","noteNumber":23,"velocity":0},{"deltaTime":184,"channel":0,"type":"channel","subtype":"noteOff","noteNumber":61,"velocity":0},{"deltaTime":296,"channel":0,"type":"channel","subtype":"noteOff","noteNumber":35,"velocity":0},{"deltaTime":1752,"channel":0,"type":"channel","noteNumber":30,"velocity":61,"subtype":"noteOn"},{"deltaTime":1070,"channel":0,"type":"channel","noteNumber":60,"velocity":48,"subtype":"noteOn"},{"deltaTime":418,"channel":0,"type":"channel","noteNumber":72,"velocity":21,"subtype":"noteOn"},{"deltaTime":1753,"channel":0,"type":"channel","subtype":"noteOff","noteNumber":72,"velocity":0},{"deltaTime":265,"channel":0,"type":"channel","subtype":"noteOff","noteNumber":60,"velocity":0},{"deltaTime":1457,"channel":0,"type":"channel","subtype":"controller","controllerType":64,"value":120},{"deltaTime":153,"channel":0,"type":"channel","subtype":"controller","controllerType":64,"value":56},{"deltaTime":61,"channel":0,"type":"channel","subtype":"controller","controllerType":64,"value":0},{"deltaTime":591,"channel":0,"type":"channel","subtype":"noteOff","noteNumber":30,"velocity":0},{"deltaTime":1427,"channel":0,"type":"channel","noteNumber":35,"velocity":77,"subtype":"noteOn"},{"deltaTime":387,"channel":0,"type":"channel","subtype":"controller","controllerType":64,"value":56},{"deltaTime":31,"channel":0,"type":"channel","noteNumber":23,"velocity":76,"subtype":"noteOn"},{"deltaTime":173,"channel":0,"type":"channel","noteNumber":72,"velocity":72,"subtype":"noteOn"},{"deltaTime":245,"channel":0,"type":"channel","subtype":"controller","controllerType":64,"value":120},{"deltaTime":19,"channel":0,"type":"channel","subtype":"controller","controllerType":64,"value":127},{"deltaTime":479,"channel":0,"type":"channel","noteNumber":70,"velocity":29,"subtype":"noteOn"},{"deltaTime":1040,"channel":0,"type":"channel","subtype":"noteOff","noteNumber":72,"velocity":0},{"deltaTime":479,"channel":0,"type":"channel","subtype":"noteOff","noteNumber":70,"velocity":0},{"deltaTime":1304,"channel":0,"type":"channel","subtype":"noteOff","noteNumber":23,"velocity":0},{"deltaTime":479,"channel":0,"type":"channel","subtype":"noteOff","noteNumber":35,"velocity":0},{"deltaTime":418,"channel":0,"type":"channel","noteNumber":30,"velocity":58,"subtype":"noteOn"},{"deltaTime":1458,"channel":0,"type":"channel","noteNumber":66,"velocity":77,"subtype":"noteOn"},{"deltaTime":203,"channel":0,"type":"channel","noteNumber":78,"velocity":75,"subtype":"noteOn"},{"deltaTime":1039,"channel":0,"type":"channel","subtype":"noteOff","noteNumber":78,"velocity":0},{"deltaTime":92,"channel":0,"type":"channel","subtype":"noteOff","noteNumber":66,"velocity":0},{"deltaTime":948,"channel":0,"type":"channel","subtype":"noteOff","noteNumber":30,"velocity":0},{"deltaTime":1721,"channel":0,"type":"channel","subtype":"controller","controllerType":64,"value":72},{"deltaTime":93,"channel":0,"type":"channel","subtype":"controller","controllerType":64,"value":8},{"deltaTime":122,"channel":0,"type":"channel","subtype":"controller","controllerType":64,"value":0},{"deltaTime":1070,"channel":0,"type":"channel","noteNumber":25,"velocity":74,"subtype":"noteOn"},{"deltaTime":173,"channel":0,"type":"channel","noteNumber":37,"velocity":72,"subtype":"noteOn"},{"deltaTime":184,"channel":0,"type":"channel","noteNumber":77,"velocity":74,"subtype":"noteOn"},{"deltaTime":203,"channel":0,"type":"channel","noteNumber":65,"velocity":61,"subtype":"noteOn"},{"deltaTime":744,"channel":0,"type":"channel","subtype":"controller","controllerType":64,"value":56},{"deltaTime":123,"channel":0,"type":"channel","subtype":"controller","controllerType":64,"value":120},{"deltaTime":30,"channel":0,"type":"channel","subtype":"controller","controllerType":64,"value":127},{"deltaTime":265,"channel":0,"type":"channel","subtype":"noteOff","noteNumber":65,"velocity":0},{"deltaTime":296,"channel":0,"type":"channel","subtype":"noteOff","noteNumber":37,"velocity":0},{"deltaTime":590,"channel":0,"type":"channel","subtype":"noteOff","noteNumber":77,"velocity":0},{"deltaTime":1285,"channel":0,"type":"channel","subtype":"noteOff","noteNumber":25,"velocity":0},{"deltaTime":1955,"channel":0,"type":"channel","noteNumber":32,"velocity":67,"subtype":"noteOn"},{"deltaTime":837,"channel":0,"type":"channel","noteNumber":75,"velocity":81,"subtype":"noteOn"},{"deltaTime":233,"channel":0,"type":"channel","noteNumber":63,"velocity":81,"subtype":"noteOn"},{"deltaTime":959,"channel":0,"type":"channel","subtype":"noteOff","noteNumber":63,"velocity":0},{"deltaTime":1070,"channel":0,"type":"channel","subtype":"noteOff","noteNumber":75,"velocity":0},{"deltaTime":1070,"channel":0,"type":"channel","subtype":"noteOff","noteNumber":32,"velocity":0},{"deltaTime":2934,"channel":0,"type":"channel","noteNumber":37,"velocity":81,"subtype":"noteOn"},{"deltaTime":154,"channel":0,"type":"channel","noteNumber":25,"velocity":81,"subtype":"noteOn"},{"deltaTime":202,"channel":0,"type":"channel","noteNumber":65,"velocity":82,"subtype":"noteOn"},{"deltaTime":124,"channel":0,"type":"channel","noteNumber":77,"velocity":84,"subtype":"noteOn"},{"deltaTime":387,"channel":0,"type":"channel","noteNumber":75,"velocity":54,"subtype":"noteOn"},{"deltaTime":184,"channel":0,"type":"channel","noteNumber":27,"velocity":43,"subtype":"noteOn"},{"deltaTime":947,"channel":0,"type":"channel","subtype":"noteOff","noteNumber":75,"velocity":0},{"deltaTime":172,"channel":0,"type":"channel","subtype":"noteOff","noteNumber":65,"velocity":0},{"deltaTime":154,"channel":0,"type":"channel","subtype":"noteOff","noteNumber":27,"velocity":0},{"deltaTime":449,"channel":0,"type":"channel","subtype":"noteOff","noteNumber":77,"velocity":0},{"deltaTime":1396,"channel":0,"type":"channel","subtype":"noteOff","noteNumber":37,"velocity":0},{"deltaTime":652,"channel":0,"type":"channel","subtype":"noteOff","noteNumber":25,"velocity":0},{"deltaTime":947,"channel":0,"type":"channel","noteNumber":32,"velocity":71,"subtype":"noteOn"},{"deltaTime":326,"channel":0,"type":"channel","noteNumber":66,"velocity":84,"subtype":"noteOn"},{"deltaTime":184,"channel":0,"type":"channel","noteNumber":78,"velocity":83,"subtype":"noteOn"},{"deltaTime":1457,"channel":0,"type":"channel","subtype":"noteOff","noteNumber":66,"velocity":0},{"deltaTime":498,"channel":0,"type":"channel","subtype":"noteOff","noteNumber":78,"velocity":0},{"deltaTime":1704,"channel":0,"type":"channel","subtype":"noteOff","noteNumber":32,"velocity":0},{"deltaTime":2220,"channel":0,"type":"channel","noteNumber":37,"velocity":84,"subtype":"noteOn"},{"deltaTime":184,"channel":0,"type":"channel","noteNumber":25,"velocity":76,"subtype":"noteOn"},{"deltaTime":357,"channel":0,"type":"channel","noteNumber":68,"velocity":84,"subtype":"noteOn"},{"deltaTime":172,"channel":0,"type":"channel","noteNumber":80,"velocity":87,"subtype":"noteOn"},{"deltaTime":867,"channel":0,"type":"channel","noteNumber":70,"velocity":35,"subtype":"noteOn"},{"deltaTime":172,"channel":0,"type":"channel","subtype":"noteOff","noteNumber":80,"velocity":0},{"deltaTime":511,"channel":0,"type":"channel","subtype":"noteOff","noteNumber":68,"velocity":0},{"deltaTime":916,"channel":0,"type":"channel","subtype":"noteOff","noteNumber":70,"velocity":0},{"deltaTime":1783,"channel":0,"type":"channel","subtype":"noteOff","noteNumber":37,"velocity":0},{"deltaTime":633,"channel":0,"type":"channel","noteNumber":32,"velocity":73,"subtype":"noteOn"},{"deltaTime":591,"channel":0,"type":"channel","subtype":"noteOff","noteNumber":25,"velocity":0},{"deltaTime":184,"channel":0,"type":"channel","noteNumber":70,"velocity":83,"subtype":"noteOn"},{"deltaTime":173,"channel":0,"type":"channel","noteNumber":82,"velocity":77,"subtype":"noteOn"},{"deltaTime":866,"channel":0,"type":"channel","subtype":"noteOff","noteNumber":70,"velocity":0},{"deltaTime":143,"channel":0,"type":"channel","subtype":"noteOff","noteNumber":82,"velocity":0},{"deltaTime":2680,"channel":0,"type":"channel","subtype":"noteOff","noteNumber":32,"velocity":0},{"deltaTime":1101,"channel":0,"type":"channel","subtype":"controller","controllerType":64,"value":120},{"deltaTime":142,"channel":0,"type":"channel","subtype":"controller","controllerType":64,"value":56},{"deltaTime":92,"channel":0,"type":"channel","subtype":"controller","controllerType":64,"value":0},{"deltaTime":479,"channel":0,"type":"channel","noteNumber":36,"velocity":69,"subtype":"noteOn"},{"deltaTime":203,"channel":0,"type":"channel","noteNumber":23,"velocity":64,"subtype":"noteOn"},{"deltaTime":123,"channel":0,"type":"channel","noteNumber":35,"velocity":77,"subtype":"noteOn"},{"deltaTime":173,"channel":0,"type":"channel","noteNumber":82,"velocity":88,"subtype":"noteOn"},{"deltaTime":184,"channel":0,"type":"channel","noteNumber":24,"velocity":71,"subtype":"noteOn"},{"deltaTime":203,"channel":0,"type":"channel","noteNumber":70,"velocity":90,"subtype":"noteOn"},{"deltaTime":123,"channel":0,"type":"channel","noteNumber":80,"velocity":74,"subtype":"noteOn"},{"deltaTime":203,"channel":0,"type":"channel","subtype":"noteOff","noteNumber":35,"velocity":0},{"deltaTime":295,"channel":0,"type":"channel","noteNumber":25,"velocity":26,"subtype":"noteOn"},{"deltaTime":388,"channel":0,"type":"channel","subtype":"noteOff","noteNumber":80,"velocity":0},{"deltaTime":153,"channel":0,"type":"channel","subtype":"controller","controllerType":64,"value":56},{"deltaTime":123,"channel":0,"type":"channel","subtype":"controller","controllerType":64,"value":120},{"deltaTime":18,"channel":0,"type":"channel","subtype":"controller","controllerType":64,"value":127},{"deltaTime":93,"channel":0,"type":"channel","subtype":"noteOff","noteNumber":70,"velocity":0},{"deltaTime":897,"channel":0,"type":"channel","subtype":"noteOff","noteNumber":82,"velocity":0},{"deltaTime":1458,"channel":0,"type":"channel","subtype":"noteOff","noteNumber":25,"velocity":0},{"deltaTime":264,"channel":0,"type":"channel","subtype":"noteOff","noteNumber":36,"velocity":0},{"deltaTime":1101,"channel":0,"type":"channel","subtype":"noteOff","noteNumber":24,"velocity":0},{"deltaTime":173,"channel":0,"type":"channel","subtype":"noteOff","noteNumber":23,"velocity":0},{"deltaTime":92,"channel":0,"type":"channel","noteNumber":80,"velocity":69,"subtype":"noteOn"},{"deltaTime":946,"channel":0,"type":"channel","noteNumber":78,"velocity":51,"subtype":"noteOn"},{"deltaTime":185,"channel":0,"type":"channel","noteNumber":31,"velocity":53,"subtype":"noteOn"},{"deltaTime":172,"channel":0,"type":"channel","noteNumber":68,"velocity":38,"subtype":"noteOn"},{"deltaTime":185,"channel":0,"type":"channel","noteNumber":66,"velocity":34,"subtype":"noteOn"},{"deltaTime":356,"channel":0,"type":"channel","subtype":"noteOff","noteNumber":80,"velocity":0},{"deltaTime":357,"channel":0,"type":"channel","subtype":"noteOff","noteNumber":78,"velocity":0},{"deltaTime":172,"channel":0,"type":"channel","subtype":"noteOff","noteNumber":31,"velocity":0},{"deltaTime":184,"channel":0,"type":"channel","subtype":"noteOff","noteNumber":68,"velocity":0},{"deltaTime":499,"channel":0,"type":"channel","subtype":"noteOff","noteNumber":66,"velocity":0},{"deltaTime":2619,"channel":0,"type":"channel","noteNumber":35,"velocity":74,"subtype":"noteOn"},{"deltaTime":560,"channel":0,"type":"channel","noteNumber":23,"velocity":66,"subtype":"noteOn"},{"deltaTime":215,"channel":0,"type":"channel","noteNumber":66,"velocity":81,"subtype":"noteOn"},{"deltaTime":203,"channel":0,"type":"channel","noteNumber":78,"velocity":82,"subtype":"noteOn"},{"deltaTime":928,"channel":0,"type":"channel","subtype":"noteOff","noteNumber":78,"velocity":0},{"deltaTime":62,"channel":0,"type":"channel","subtype":"noteOff","noteNumber":66,"velocity":0},{"deltaTime":1925,"channel":0,"type":"channel","subtype":"noteOff","noteNumber":35,"velocity":0},{"deltaTime":387,"channel":0,"type":"channel","subtype":"noteOff","noteNumber":23,"velocity":0},{"deltaTime":1906,"channel":0,"type":"channel","noteNumber":65,"velocity":76,"subtype":"noteOn"},{"deltaTime":204,"channel":0,"type":"channel","noteNumber":77,"velocity":81,"subtype":"noteOn"},{"deltaTime":122,"channel":0,"type":"channel","noteNumber":30,"velocity":75,"subtype":"noteOn"},{"deltaTime":1876,"channel":0,"type":"channel","subtype":"noteOff","noteNumber":65,"velocity":0},{"deltaTime":498,"channel":0,"type":"channel","subtype":"noteOff","noteNumber":77,"velocity":0},{"deltaTime":1784,"channel":0,"type":"channel","subtype":"noteOff","noteNumber":30,"velocity":0},{"deltaTime":2354,"channel":0,"type":"channel","noteNumber":23,"velocity":85,"subtype":"noteOn"},{"deltaTime":173,"channel":0,"type":"channel","noteNumber":35,"velocity":84,"subtype":"noteOn"},{"deltaTime":184,"channel":0,"type":"channel","noteNumber":63,"velocity":87,"subtype":"noteOn"},{"deltaTime":172,"channel":0,"type":"channel","noteNumber":75,"velocity":82,"subtype":"noteOn"},{"deltaTime":510,"channel":0,"type":"channel","noteNumber":30,"velocity":28,"subtype":"noteOn"},{"deltaTime":388,"channel":0,"type":"channel","subtype":"noteOff","noteNumber":75,"velocity":0},{"deltaTime":1008,"channel":0,"type":"channel","subtype":"noteOff","noteNumber":63,"velocity":0},{"deltaTime":326,"channel":0,"type":"channel","subtype":"noteOff","noteNumber":30,"velocity":0},{"deltaTime":265,"channel":0,"type":"channel","subtype":"noteOff","noteNumber":35,"velocity":0},{"deltaTime":2761,"channel":0,"type":"channel","noteNumber":30,"velocity":51,"subtype":"noteOn"},{"deltaTime":215,"channel":0,"type":"channel","subtype":"noteOff","noteNumber":23,"velocity":0},{"deltaTime":418,"channel":0,"type":"channel","noteNumber":66,"velocity":83,"subtype":"noteOn"},{"deltaTime":234,"channel":0,"type":"channel","noteNumber":78,"velocity":79,"subtype":"noteOn"},{"deltaTime":947,"channel":0,"type":"channel","noteNumber":75,"velocity":31,"subtype":"noteOn"},{"deltaTime":1519,"channel":0,"type":"channel","subtype":"noteOff","noteNumber":66,"velocity":0},{"deltaTime":92,"channel":0,"type":"channel","subtype":"noteOff","noteNumber":75,"velocity":0},{"deltaTime":61,"channel":0,"type":"channel","subtype":"noteOff","noteNumber":78,"velocity":0},{"deltaTime":2109,"channel":0,"type":"channel","subtype":"noteOff","noteNumber":30,"velocity":0},{"deltaTime":1009,"channel":0,"type":"channel","noteNumber":65,"velocity":77,"subtype":"noteOn"},{"deltaTime":142,"channel":0,"type":"channel","noteNumber":77,"velocity":70,"subtype":"noteOn"},{"deltaTime":337,"channel":0,"type":"channel","noteNumber":35,"velocity":80,"subtype":"noteOn"},{"deltaTime":234,"channel":0,"type":"channel","noteNumber":23,"velocity":78,"subtype":"noteOn"},{"deltaTime":1458,"channel":0,"type":"channel","subtype":"noteOff","noteNumber":65,"velocity":0},{"deltaTime":621,"channel":0,"type":"channel","subtype":"noteOff","noteNumber":77,"velocity":0},{"deltaTime":233,"channel":0,"type":"channel","subtype":"noteOff","noteNumber":35,"velocity":0},{"deltaTime":93,"channel":0,"type":"channel","subtype":"noteOff","noteNumber":23,"velocity":0},{"deltaTime":2823,"channel":0,"type":"channel","noteNumber":30,"velocity":75,"subtype":"noteOn"},{"deltaTime":713,"channel":0,"type":"channel","noteNumber":63,"velocity":70,"subtype":"noteOn"},{"deltaTime":959,"channel":0,"type":"channel","noteNumber":75,"velocity":39,"subtype":"noteOn"},{"deltaTime":172,"channel":0,"type":"channel","subtype":"noteOff","noteNumber":63,"velocity":0},{"deltaTime":265,"channel":0,"type":"channel","noteNumber":61,"velocity":26,"subtype":"noteOn"},{"deltaTime":959,"channel":0,"type":"channel","subtype":"noteOff","noteNumber":75,"velocity":0},{"deltaTime":713,"channel":0,"type":"channel","subtype":"noteOff","noteNumber":30,"velocity":0},{"deltaTime":31,"channel":0,"type":"channel","subtype":"noteOff","noteNumber":61,"velocity":0},{"deltaTime":2964,"channel":0,"type":"channel","noteNumber":61,"velocity":82,"subtype":"noteOn"},{"deltaTime":184,"channel":0,"type":"channel","noteNumber":23,"velocity":78,"subtype":"noteOn"},{"deltaTime":204,"channel":0,"type":"channel","noteNumber":36,"velocity":68,"subtype":"noteOn"},{"deltaTime":183,"channel":0,"type":"channel","noteNumber":73,"velocity":66,"subtype":"noteOn"},{"deltaTime":112,"channel":0,"type":"channel","noteNumber":35,"velocity":71,"subtype":"noteOn"},{"deltaTime":214,"channel":0,"type":"channel","noteNumber":25,"velocity":40,"subtype":"noteOn"},{"deltaTime":204,"channel":0,"type":"channel","subtype":"noteOff","noteNumber":61,"velocity":0},{"deltaTime":326,"channel":0,"type":"channel","subtype":"noteOff","noteNumber":35,"velocity":0},{"deltaTime":313,"channel":0,"type":"channel","subtype":"noteOff","noteNumber":25,"velocity":0},{"deltaTime":13,"channel":0,"type":"channel","noteNumber":24,"velocity":22,"subtype":"noteOn"},{"deltaTime":184,"channel":0,"type":"channel","subtype":"noteOff","noteNumber":36,"velocity":0},{"deltaTime":61,"channel":0,"type":"channel","subtype":"noteOff","noteNumber":73,"velocity":0},{"deltaTime":499,"channel":0,"type":"channel","subtype":"noteOff","noteNumber":24,"velocity":0},{"deltaTime":357,"channel":0,"type":"channel","subtype":"noteOff","noteNumber":23,"velocity":0},{"deltaTime":1997,"channel":0,"type":"channel","noteNumber":30,"velocity":70,"subtype":"noteOn"},{"deltaTime":234,"channel":0,"type":"channel","noteNumber":60,"velocity":63,"subtype":"noteOn"},{"deltaTime":173,"channel":0,"type":"channel","noteNumber":72,"velocity":55,"subtype":"noteOn"},{"deltaTime":989,"channel":0,"type":"channel","noteNumber":27,"velocity":34,"subtype":"noteOn"},{"deltaTime":1009,"channel":0,"type":"channel","subtype":"noteOff","noteNumber":72,"velocity":0},{"deltaTime":418,"channel":0,"type":"channel","subtype":"noteOff","noteNumber":60,"velocity":0},{"deltaTime":295,"channel":0,"type":"channel","subtype":"noteOff","noteNumber":27,"velocity":0},{"deltaTime":1630,"channel":0,"type":"channel","subtype":"noteOff","noteNumber":30,"velocity":0},{"deltaTime":1845,"channel":0,"type":"channel","noteNumber":68,"velocity":75,"subtype":"noteOn"},{"deltaTime":184,"channel":0,"type":"channel","noteNumber":35,"velocity":81,"subtype":"noteOn"},{"deltaTime":173,"channel":0,"type":"channel","noteNumber":23,"velocity":80,"subtype":"noteOn"},{"deltaTime":184,"channel":0,"type":"channel","noteNumber":56,"velocity":80,"subtype":"noteOn"},{"deltaTime":203,"channel":0,"type":"channel","noteNumber":58,"velocity":59,"subtype":"noteOn"},{"deltaTime":449,"channel":0,"type":"channel","noteNumber":66,"velocity":31,"subtype":"noteOn"},{"deltaTime":264,"channel":0,"type":"channel","subtype":"noteOff","noteNumber":58,"velocity":0},{"deltaTime":62,"channel":0,"type":"channel","subtype":"noteOff","noteNumber":56,"velocity":0},{"deltaTime":1242,"channel":0,"type":"channel","subtype":"noteOff","noteNumber":66,"velocity":0},{"deltaTime":92,"channel":0,"type":"channel","subtype":"noteOff","noteNumber":68,"velocity":0},{"deltaTime":234,"channel":0,"type":"channel","subtype":"noteOff","noteNumber":35,"velocity":0},{"deltaTime":62,"channel":0,"type":"channel","subtype":"noteOff","noteNumber":23,"velocity":0},{"deltaTime":2588,"channel":0,"type":"channel","noteNumber":30,"velocity":74,"subtype":"noteOn"},{"deltaTime":418,"channel":0,"type":"channel","noteNumber":66,"velocity":63,"subtype":"noteOn"},{"deltaTime":172,"channel":0,"type":"channel","noteNumber":54,"velocity":78,"subtype":"noteOn"},{"deltaTime":959,"channel":0,"type":"channel","subtype":"noteOff","noteNumber":54,"velocity":0},{"deltaTime":1070,"channel":0,"type":"channel","subtype":"noteOff","noteNumber":66,"velocity":0},{"deltaTime":1600,"channel":0,"type":"channel","subtype":"noteOff","noteNumber":30,"velocity":0},{"deltaTime":2262,"channel":0,"type":"channel","noteNumber":35,"velocity":84,"subtype":"noteOn"},{"deltaTime":204,"channel":0,"type":"channel","noteNumber":23,"velocity":81,"subtype":"noteOn"},{"deltaTime":122,"channel":0,"type":"channel","noteNumber":65,"velocity":76,"subtype":"noteOn"},{"deltaTime":203,"channel":0,"type":"channel","noteNumber":53,"velocity":73,"subtype":"noteOn"},{"deltaTime":185,"channel":0,"type":"channel","noteNumber":55,"velocity":77,"subtype":"noteOn"},{"deltaTime":682,"channel":0,"type":"channel","subtype":"noteOff","noteNumber":55,"velocity":0},{"deltaTime":510,"channel":0,"type":"channel","subtype":"noteOff","noteNumber":53,"velocity":0},{"deltaTime":856,"channel":0,"type":"channel","subtype":"noteOff","noteNumber":65,"velocity":0},{"deltaTime":61,"channel":0,"type":"channel","subtype":"noteOff","noteNumber":35,"velocity":0},{"deltaTime":92,"channel":0,"type":"channel","subtype":"noteOff","noteNumber":23,"velocity":0},{"deltaTime":2374,"channel":0,"type":"channel","noteNumber":30,"velocity":79,"subtype":"noteOn"},{"deltaTime":836,"channel":0,"type":"channel","noteNumber":53,"velocity":79,"subtype":"noteOn"},{"deltaTime":173,"channel":0,"type":"channel","noteNumber":63,"velocity":63,"subtype":"noteOn"},{"deltaTime":836,"channel":0,"type":"channel","subtype":"noteOff","noteNumber":53,"velocity":0},{"deltaTime":1039,"channel":0,"type":"channel","subtype":"noteOff","noteNumber":63,"velocity":0},{"deltaTime":1039,"channel":0,"type":"channel","subtype":"noteOff","noteNumber":30,"velocity":0},{"deltaTime":2730,"channel":0,"type":"channel","noteNumber":63,"velocity":85,"subtype":"noteOn"},{"deltaTime":277,"channel":0,"type":"channel","noteNumber":53,"velocity":88,"subtype":"noteOn"},{"deltaTime":203,"channel":0,"type":"channel","noteNumber":23,"velocity":78,"subtype":"noteOn"},{"deltaTime":184,"channel":0,"type":"channel","noteNumber":35,"velocity":83,"subtype":"noteOn"},{"deltaTime":173,"channel":0,"type":"channel","noteNumber":61,"velocity":63,"subtype":"noteOn"},{"deltaTime":479,"channel":0,"type":"channel","noteNumber":27,"velocity":37,"subtype":"noteOn"},{"deltaTime":387,"channel":0,"type":"channel","subtype":"noteOff","noteNumber":61,"velocity":0},{"deltaTime":437,"channel":0,"type":"channel","noteNumber":24,"velocity":22,"subtype":"noteOn"},{"deltaTime":898,"channel":0,"type":"channel","subtype":"noteOff","noteNumber":53,"velocity":0},{"deltaTime":234,"channel":0,"type":"channel","subtype":"noteOff","noteNumber":23,"velocity":0},{"deltaTime":418,"channel":0,"type":"channel","subtype":"noteOff","noteNumber":27,"velocity":0},{"deltaTime":233,"channel":0,"type":"channel","subtype":"noteOff","noteNumber":63,"velocity":0},{"deltaTime":419,"channel":0,"type":"channel","subtype":"noteOff","noteNumber":35,"velocity":0},{"deltaTime":215,"channel":0,"type":"channel","subtype":"noteOff","noteNumber":24,"velocity":0},{"deltaTime":886,"channel":0,"type":"channel","noteNumber":30,"velocity":81,"subtype":"noteOn"},{"deltaTime":540,"channel":0,"type":"channel","noteNumber":61,"velocity":81,"subtype":"noteOn"},{"deltaTime":357,"channel":0,"type":"channel","noteNumber":63,"velocity":51,"subtype":"noteOn"},{"deltaTime":265,"channel":0,"type":"channel","noteNumber":53,"velocity":55,"subtype":"noteOn"},{"deltaTime":916,"channel":0,"type":"channel","subtype":"noteOff","noteNumber":63,"velocity":0},{"deltaTime":92,"channel":0,"type":"channel","subtype":"noteOff","noteNumber":53,"velocity":0},{"deltaTime":1549,"channel":0,"type":"channel","subtype":"noteOff","noteNumber":30,"velocity":0},{"deltaTime":887,"channel":0,"type":"channel","subtype":"noteOff","noteNumber":61,"velocity":0},{"deltaTime":1997,"channel":0,"type":"channel","subtype":"controller","controllerType":64,"value":120},{"deltaTime":173,"channel":0,"type":"channel","subtype":"controller","controllerType":64,"value":56},{"deltaTime":92,"channel":0,"type":"channel","subtype":"controller","controllerType":64,"value":0},{"deltaTime":265,"channel":0,"type":"channel","noteNumber":30,"velocity":85,"subtype":"noteOn"},{"deltaTime":184,"channel":0,"type":"channel","noteNumber":42,"velocity":84,"subtype":"noteOn"},{"deltaTime":172,"channel":0,"type":"channel","noteNumber":63,"velocity":89,"subtype":"noteOn"},{"deltaTime":184,"channel":0,"type":"channel","noteNumber":54,"velocity":95,"subtype":"noteOn"},{"deltaTime":234,"channel":0,"type":"channel","noteNumber":39,"velocity":69,"subtype":"noteOn"},{"deltaTime":203,"channel":0,"type":"channel","noteNumber":58,"velocity":66,"subtype":"noteOn"},{"deltaTime":215,"channel":0,"type":"channel","noteNumber":40,"velocity":41,"subtype":"noteOn"},{"deltaTime":173,"channel":0,"type":"channel","noteNumber":61,"velocity":27,"subtype":"noteOn"},{"deltaTime":184,"channel":0,"type":"channel","subtype":"noteOff","noteNumber":39,"velocity":0},{"deltaTime":173,"channel":0,"type":"channel","subtype":"noteOff","noteNumber":58,"velocity":0},{"deltaTime":122,"channel":0,"type":"channel","noteNumber":28,"velocity":23,"subtype":"noteOn"},{"deltaTime":203,"channel":0,"type":"channel","noteNumber":29,"velocity":28,"subtype":"noteOn"},{"deltaTime":511,"channel":0,"type":"channel","subtype":"controller","controllerType":64,"value":56},{"deltaTime":92,"channel":0,"type":"channel","subtype":"controller","controllerType":64,"value":120},{"deltaTime":30,"channel":0,"type":"channel","subtype":"noteOff","noteNumber":40,"velocity":0},{"deltaTime":31,"channel":0,"type":"channel","subtype":"controller","controllerType":64,"value":127},{"deltaTime":326,"channel":0,"type":"channel","subtype":"noteOff","noteNumber":61,"velocity":0},{"deltaTime":203,"channel":0,"type":"channel","subtype":"noteOff","noteNumber":28,"velocity":0},{"deltaTime":418,"channel":0,"type":"channel","subtype":"noteOff","noteNumber":29,"velocity":0},{"deltaTime":529,"channel":0,"type":"channel","subtype":"noteOff","noteNumber":54,"velocity":0},{"deltaTime":93,"channel":0,"type":"channel","subtype":"noteOff","noteNumber":42,"velocity":0},{"deltaTime":1162,"channel":0,"type":"channel","subtype":"noteOff","noteNumber":30,"velocity":0},{"deltaTime":560,"channel":0,"type":"channel","noteNumber":61,"velocity":60,"subtype":"noteOn"},{"deltaTime":651,"channel":0,"type":"channel","subtype":"noteOff","noteNumber":63,"velocity":0},{"deltaTime":959,"channel":0,"type":"channel","noteNumber":54,"velocity":23,"subtype":"noteOn"},{"deltaTime":1458,"channel":0,"type":"channel","subtype":"noteOff","noteNumber":54,"velocity":0},{"deltaTime":1783,"channel":0,"type":"channel","subtype":"noteOff","noteNumber":61,"velocity":0},{"deltaTime":1457,"channel":0,"type":"channel","noteNumber":54,"velocity":83,"subtype":"noteOn"},{"deltaTime":204,"channel":0,"type":"channel","noteNumber":42,"velocity":84,"subtype":"noteOn"},{"deltaTime":233,"channel":0,"type":"channel","noteNumber":63,"velocity":64,"subtype":"noteOn"},{"deltaTime":154,"channel":0,"type":"channel","noteNumber":30,"velocity":70,"subtype":"noteOn"},{"deltaTime":172,"channel":0,"type":"channel","noteNumber":61,"velocity":69,"subtype":"noteOn"},{"deltaTime":184,"channel":0,"type":"channel","noteNumber":58,"velocity":51,"subtype":"noteOn"},{"deltaTime":235,"channel":0,"type":"channel","noteNumber":32,"velocity":53,"subtype":"noteOn"},{"deltaTime":214,"channel":0,"type":"channel","subtype":"noteOff","noteNumber":61,"velocity":0},{"deltaTime":468,"channel":0,"type":"channel","subtype":"noteOff","noteNumber":58,"velocity":0},{"deltaTime":215,"channel":0,"type":"channel","subtype":"noteOff","noteNumber":32,"velocity":0},{"deltaTime":886,"channel":0,"type":"channel","subtype":"noteOff","noteNumber":42,"velocity":0},{"deltaTime":214,"channel":0,"type":"channel","subtype":"noteOff","noteNumber":30,"velocity":0},{"deltaTime":62,"channel":0,"type":"channel","subtype":"noteOff","noteNumber":54,"velocity":0},{"deltaTime":1008,"channel":0,"type":"channel","subtype":"noteOff","noteNumber":63,"velocity":0},{"deltaTime":1692,"channel":0,"type":"channel","noteNumber":54,"velocity":64,"subtype":"noteOn"},{"deltaTime":202,"channel":0,"type":"channel","noteNumber":61,"velocity":73,"subtype":"noteOn"},{"deltaTime":450,"channel":0,"type":"channel","noteNumber":37,"velocity":74,"subtype":"noteOn"},{"deltaTime":1998,"channel":0,"type":"channel","subtype":"noteOff","noteNumber":54,"velocity":0},{"deltaTime":590,"channel":0,"type":"channel","subtype":"noteOff","noteNumber":37,"velocity":0},{"deltaTime":591,"channel":0,"type":"channel","subtype":"noteOff","noteNumber":61,"velocity":0},{"deltaTime":2791,"channel":0,"type":"channel","noteNumber":42,"velocity":90,"subtype":"noteOn"},{"deltaTime":185,"channel":0,"type":"channel","noteNumber":54,"velocity":89,"subtype":"noteOn"},{"deltaTime":172,"channel":0,"type":"channel","noteNumber":63,"velocity":87,"subtype":"noteOn"},{"deltaTime":185,"channel":0,"type":"channel","noteNumber":30,"velocity":80,"subtype":"noteOn"},{"deltaTime":172,"channel":0,"type":"channel","noteNumber":58,"velocity":82,"subtype":"noteOn"},{"deltaTime":184,"channel":0,"type":"channel","noteNumber":61,"velocity":74,"subtype":"noteOn"},{"deltaTime":204,"channel":0,"type":"channel","noteNumber":32,"velocity":54,"subtype":"noteOn"},{"deltaTime":183,"channel":0,"type":"channel","subtype":"noteOff","noteNumber":58,"velocity":0},{"deltaTime":62,"channel":0,"type":"channel","subtype":"noteOff","noteNumber":61,"velocity":0},{"deltaTime":499,"channel":0,"type":"channel","subtype":"noteOff","noteNumber":32,"velocity":0},{"deltaTime":1721,"channel":0,"type":"channel","subtype":"noteOff","noteNumber":54,"velocity":0},{"deltaTime":307,"channel":0,"type":"channel","subtype":"noteOff","noteNumber":30,"velocity":0},{"deltaTime":112,"channel":0,"type":"channel","subtype":"noteOff","noteNumber":42,"velocity":0},{"deltaTime":1426,"channel":0,"type":"channel","noteNumber":61,"velocity":65,"subtype":"noteOn"},{"deltaTime":184,"channel":0,"type":"channel","noteNumber":54,"velocity":32,"subtype":"noteOn"},{"deltaTime":234,"channel":0,"type":"channel","noteNumber":58,"velocity":69,"subtype":"noteOn"},{"deltaTime":233,"channel":0,"type":"channel","noteNumber":37,"velocity":75,"subtype":"noteOn"},{"deltaTime":806,"channel":0,"type":"channel","subtype":"noteOff","noteNumber":58,"velocity":0},{"deltaTime":357,"channel":0,"type":"channel","subtype":"noteOff","noteNumber":63,"velocity":0},{"deltaTime":836,"channel":0,"type":"channel","subtype":"noteOff","noteNumber":54,"velocity":0},{"deltaTime":824,"channel":0,"type":"channel","subtype":"noteOff","noteNumber":37,"velocity":0},{"deltaTime":867,"channel":0,"type":"channel","subtype":"noteOff","noteNumber":61,"velocity":0},{"deltaTime":2374,"channel":0,"type":"channel","noteNumber":63,"velocity":85,"subtype":"noteOn"},{"deltaTime":215,"channel":0,"type":"channel","noteNumber":54,"velocity":89,"subtype":"noteOn"},{"deltaTime":173,"channel":0,"type":"channel","noteNumber":42,"velocity":89,"subtype":"noteOn"},{"deltaTime":214,"channel":0,"type":"channel","noteNumber":30,"velocity":75,"subtype":"noteOn"},{"deltaTime":173,"channel":0,"type":"channel","noteNumber":61,"velocity":73,"subtype":"noteOn"},{"deltaTime":184,"channel":0,"type":"channel","noteNumber":58,"velocity":61,"subtype":"noteOn"},{"deltaTime":203,"channel":0,"type":"channel","noteNumber":32,"velocity":56,"subtype":"noteOn"},{"deltaTime":264,"channel":0,"type":"channel","subtype":"noteOff","noteNumber":61,"velocity":0},{"deltaTime":154,"channel":0,"type":"channel","subtype":"noteOff","noteNumber":58,"velocity":0},{"deltaTime":388,"channel":0,"type":"channel","subtype":"noteOff","noteNumber":32,"velocity":0},{"deltaTime":774,"channel":0,"type":"channel","subtype":"noteOff","noteNumber":42,"velocity":0},{"deltaTime":357,"channel":0,"type":"channel","subtype":"noteOff","noteNumber":30,"velocity":0},{"deltaTime":2170,"channel":0,"type":"channel","subtype":"noteOff","noteNumber":63,"velocity":0},{"deltaTime":265,"channel":0,"type":"channel","noteNumber":61,"velocity":67,"subtype":"noteOn"},{"deltaTime":234,"channel":0,"type":"channel","noteNumber":37,"velocity":64,"subtype":"noteOn"},{"deltaTime":1753,"channel":0,"type":"channel","subtype":"noteOff","noteNumber":54,"velocity":0},{"deltaTime":1131,"channel":0,"type":"channel","subtype":"noteOff","noteNumber":37,"velocity":0},{"deltaTime":449,"channel":0,"type":"channel","subtype":"noteOff","noteNumber":61,"velocity":0},{"deltaTime":3210,"channel":0,"type":"channel","noteNumber":63,"velocity":87,"subtype":"noteOn"},{"deltaTime":141,"channel":0,"type":"channel","noteNumber":58,"velocity":104,"subtype":"noteOn"},{"deltaTime":215,"channel":0,"type":"channel","noteNumber":42,"velocity":95,"subtype":"noteOn"},{"deltaTime":204,"channel":0,"type":"channel","noteNumber":54,"velocity":92,"subtype":"noteOn"},{"deltaTime":184,"channel":0,"type":"channel","noteNumber":61,"velocity":83,"subtype":"noteOn"},{"deltaTime":203,"channel":0,"type":"channel","noteNumber":30,"velocity":78,"subtype":"noteOn"},{"deltaTime":184,"channel":0,"type":"channel","noteNumber":32,"velocity":72,"subtype":"noteOn"},{"deltaTime":173,"channel":0,"type":"channel","noteNumber":37,"velocity":45,"subtype":"noteOn"},{"deltaTime":184,"channel":0,"type":"channel","subtype":"noteOff","noteNumber":61,"velocity":0},{"deltaTime":110,"channel":0,"type":"channel","noteNumber":34,"velocity":29,"subtype":"noteOn"},{"deltaTime":216,"channel":0,"type":"channel","subtype":"noteOff","noteNumber":32,"velocity":0},{"deltaTime":436,"channel":0,"type":"channel","subtype":"noteOff","noteNumber":58,"velocity":0},{"deltaTime":93,"channel":0,"type":"channel","subtype":"noteOff","noteNumber":37,"velocity":0},{"deltaTime":867,"channel":0,"type":"channel","subtype":"noteOff","noteNumber":34,"velocity":0},{"deltaTime":448,"channel":0,"type":"channel","subtype":"noteOff","noteNumber":42,"velocity":0},{"deltaTime":1692,"channel":0,"type":"channel","subtype":"noteOff","noteNumber":30,"velocity":0},{"deltaTime":326,"channel":0,"type":"channel","noteNumber":61,"velocity":59,"subtype":"noteOn"},{"deltaTime":234,"channel":0,"type":"channel","noteNumber":37,"velocity":53,"subtype":"noteOn"},{"deltaTime":744,"channel":0,"type":"channel","subtype":"noteOff","noteNumber":63,"velocity":0},{"deltaTime":1752,"channel":0,"type":"channel","subtype":"noteOff","noteNumber":54,"velocity":0},{"deltaTime":1131,"channel":0,"type":"channel","subtype":"noteOff","noteNumber":37,"velocity":0},{"deltaTime":326,"channel":0,"type":"channel","subtype":"noteOff","noteNumber":61,"velocity":0},{"deltaTime":3007,"channel":0,"type":"channel","noteNumber":42,"velocity":92,"subtype":"noteOn"},{"deltaTime":173,"channel":0,"type":"channel","noteNumber":63,"velocity":85,"subtype":"noteOn"},{"deltaTime":153,"channel":0,"type":"channel","noteNumber":58,"velocity":89,"subtype":"noteOn"},{"deltaTime":234,"channel":0,"type":"channel","noteNumber":54,"velocity":89,"subtype":"noteOn"},{"deltaTime":184,"channel":0,"type":"channel","noteNumber":30,"velocity":75,"subtype":"noteOn"},{"deltaTime":142,"channel":0,"type":"channel","noteNumber":61,"velocity":75,"subtype":"noteOn"},{"deltaTime":215,"channel":0,"type":"channel","noteNumber":32,"velocity":51,"subtype":"noteOn"},{"deltaTime":560,"channel":0,"type":"channel","subtype":"noteOff","noteNumber":61,"velocity":0},{"deltaTime":264,"channel":0,"type":"channel","subtype":"noteOff","noteNumber":32,"velocity":0},{"deltaTime":154,"channel":0,"type":"channel","subtype":"noteOff","noteNumber":58,"velocity":0},{"deltaTime":1334,"channel":0,"type":"channel","subtype":"noteOff","noteNumber":54,"velocity":0},{"deltaTime":775,"channel":0,"type":"channel","subtype":"noteOff","noteNumber":42,"velocity":0},{"deltaTime":1488,"channel":0,"type":"channel","noteNumber":37,"velocity":64,"subtype":"noteOn"},{"deltaTime":172,"channel":0,"type":"channel","noteNumber":61,"velocity":69,"subtype":"noteOn"},{"deltaTime":246,"channel":0,"type":"channel","noteNumber":54,"velocity":60,"subtype":"noteOn"},{"deltaTime":499,"channel":0,"type":"channel","subtype":"noteOff","noteNumber":63,"velocity":0},{"deltaTime":61,"channel":0,"type":"channel","subtype":"noteOff","noteNumber":30,"velocity":0},{"deltaTime":540,"channel":0,"type":"channel","subtype":"noteOff","noteNumber":54,"velocity":0},{"deltaTime":2079,"channel":0,"type":"channel","subtype":"noteOff","noteNumber":37,"velocity":0},{"deltaTime":173,"channel":0,"type":"channel","subtype":"noteOff","noteNumber":61,"velocity":0},{"deltaTime":2527,"channel":0,"type":"channel","noteNumber":42,"velocity":84,"subtype":"noteOn"},{"deltaTime":184,"channel":0,"type":"channel","noteNumber":30,"velocity":66,"subtype":"noteOn"},{"deltaTime":173,"channel":0,"type":"channel","noteNumber":63,"velocity":81,"subtype":"noteOn"},{"deltaTime":184,"channel":0,"type":"channel","noteNumber":32,"velocity":53,"subtype":"noteOn"},{"deltaTime":234,"channel":0,"type":"channel","noteNumber":54,"velocity":84,"subtype":"noteOn"},{"deltaTime":590,"channel":0,"type":"channel","noteNumber":58,"velocity":42,"subtype":"noteOn"},{"deltaTime":510,"channel":0,"type":"channel","subtype":"noteOff","noteNumber":32,"velocity":0},{"deltaTime":652,"channel":0,"type":"channel","subtype":"noteOff","noteNumber":42,"velocity":0},{"deltaTime":62,"channel":0,"type":"channel","subtype":"noteOff","noteNumber":30,"velocity":0},{"deltaTime":172,"channel":0,"type":"channel","subtype":"noteOff","noteNumber":58,"velocity":0},{"deltaTime":307,"channel":0,"type":"channel","subtype":"noteOff","noteNumber":54,"velocity":0},{"deltaTime":886,"channel":0,"type":"channel","subtype":"noteOff","noteNumber":63,"velocity":0},{"deltaTime":2079,"channel":0,"type":"channel","subtype":"controller","controllerType":64,"value":120},{"deltaTime":92,"channel":0,"type":"channel","subtype":"controller","controllerType":64,"value":56},{"deltaTime":92,"channel":0,"type":"channel","subtype":"controller","controllerType":64,"value":0},{"deltaTime":61,"channel":0,"type":"channel","noteNumber":41,"velocity":93,"subtype":"noteOn"},{"deltaTime":203,"channel":0,"type":"channel","noteNumber":29,"velocity":87,"subtype":"noteOn"},{"deltaTime":172,"channel":0,"type":"channel","noteNumber":56,"velocity":92,"subtype":"noteOn"},{"deltaTime":185,"channel":0,"type":"channel","noteNumber":61,"velocity":85,"subtype":"noteOn"},{"deltaTime":233,"channel":0,"type":"channel","noteNumber":66,"velocity":80,"subtype":"noteOn"},{"deltaTime":185,"channel":0,"type":"channel","noteNumber":68,"velocity":82,"subtype":"noteOn"},{"deltaTime":172,"channel":0,"type":"channel","noteNumber":63,"velocity":52,"subtype":"noteOn"},{"deltaTime":185,"channel":0,"type":"channel","noteNumber":37,"velocity":37,"subtype":"noteOn"},{"deltaTime":203,"channel":0,"type":"channel","subtype":"noteOff","noteNumber":61,"velocity":0},{"deltaTime":184,"channel":0,"type":"channel","subtype":"controller","controllerType":64,"value":56},{"deltaTime":141,"channel":0,"type":"channel","noteNumber":30,"velocity":22,"subtype":"noteOn"},{"deltaTime":0,"channel":0,"type":"channel","subtype":"controller","controllerType":64,"value":112},{"deltaTime":185,"channel":0,"type":"channel","subtype":"noteOff","noteNumber":63,"velocity":0},{"deltaTime":122,"channel":0,"type":"channel","subtype":"controller","controllerType":64,"value":127},{"deltaTime":469,"channel":0,"type":"channel","subtype":"noteOff","noteNumber":37,"velocity":0},{"deltaTime":1008,"channel":0,"type":"channel","subtype":"noteOff","noteNumber":30,"velocity":0},{"deltaTime":897,"channel":0,"type":"channel","subtype":"noteOff","noteNumber":41,"velocity":0},{"deltaTime":265,"channel":0,"type":"channel","subtype":"noteOff","noteNumber":29,"velocity":0},{"deltaTime":326,"channel":0,"type":"channel","noteNumber":37,"velocity":54,"subtype":"noteOn"},{"deltaTime":215,"channel":0,"type":"channel","noteNumber":61,"velocity":22,"subtype":"noteOn"},{"deltaTime":682,"channel":0,"type":"channel","subtype":"noteOff","noteNumber":66,"velocity":0},{"deltaTime":530,"channel":0,"type":"channel","subtype":"noteOff","noteNumber":68,"velocity":0},{"deltaTime":1284,"channel":0,"type":"channel","subtype":"noteOff","noteNumber":56,"velocity":0},{"deltaTime":1864,"channel":0,"type":"channel","subtype":"noteOff","noteNumber":61,"velocity":0},{"deltaTime":836,"channel":0,"type":"channel","subtype":"noteOff","noteNumber":37,"velocity":0},{"deltaTime":1519,"channel":0,"type":"channel","noteNumber":29,"velocity":84,"subtype":"noteOn"},{"deltaTime":173,"channel":0,"type":"channel","noteNumber":41,"velocity":84,"subtype":"noteOn"},{"deltaTime":184,"channel":0,"type":"channel","noteNumber":66,"velocity":90,"subtype":"noteOn"},{"deltaTime":203,"channel":0,"type":"channel","noteNumber":56,"velocity":95,"subtype":"noteOn"},{"deltaTime":215,"channel":0,"type":"channel","noteNumber":63,"velocity":75,"subtype":"noteOn"},{"deltaTime":172,"channel":0,"type":"channel","noteNumber":61,"velocity":65,"subtype":"noteOn"},{"deltaTime":621,"channel":0,"type":"channel","noteNumber":67,"velocity":38,"subtype":"noteOn"},{"deltaTime":277,"channel":0,"type":"channel","subtype":"noteOff","noteNumber":63,"velocity":0},{"deltaTime":49,"channel":0,"type":"channel","subtype":"noteOff","noteNumber":61,"velocity":0},{"deltaTime":990,"channel":0,"type":"channel","subtype":"noteOff","noteNumber":67,"velocity":0},{"deltaTime":265,"channel":0,"type":"channel","noteNumber":37,"velocity":10,"subtype":"noteOn"},{"deltaTime":122,"channel":0,"type":"channel","subtype":"noteOff","noteNumber":29,"velocity":0},{"deltaTime":112,"channel":0,"type":"channel","subtype":"noteOff","noteNumber":41,"velocity":0},{"deltaTime":356,"channel":0,"type":"channel","subtype":"noteOff","noteNumber":56,"velocity":0},{"deltaTime":326,"channel":0,"type":"channel","subtype":"noteOff","noteNumber":66,"velocity":0},{"deltaTime":775,"channel":0,"type":"channel","subtype":"noteOff","noteNumber":37,"velocity":0},{"deltaTime":977,"channel":0,"type":"channel","subtype":"controller","controllerType":64,"value":120},{"deltaTime":154,"channel":0,"type":"channel","subtype":"controller","controllerType":64,"value":56},{"deltaTime":92,"channel":0,"type":"channel","subtype":"controller","controllerType":64,"value":0},{"deltaTime":142,"channel":0,"type":"channel","noteNumber":56,"velocity":87,"subtype":"noteOn"},{"deltaTime":154,"channel":0,"type":"channel","noteNumber":63,"velocity":85,"subtype":"noteOn"},{"deltaTime":172,"channel":0,"type":"channel","noteNumber":42,"velocity":93,"subtype":"noteOn"},{"deltaTime":215,"channel":0,"type":"channel","noteNumber":30,"velocity":84,"subtype":"noteOn"},{"deltaTime":172,"channel":0,"type":"channel","noteNumber":61,"velocity":79,"subtype":"noteOn"},{"deltaTime":246,"channel":0,"type":"channel","noteNumber":32,"velocity":66,"subtype":"noteOn"},{"deltaTime":173,"channel":0,"type":"channel","noteNumber":37,"velocity":47,"subtype":"noteOn"},{"deltaTime":387,"channel":0,"type":"channel","subtype":"noteOff","noteNumber":61,"velocity":0},{"deltaTime":264,"channel":0,"type":"channel","subtype":"controller","controllerType":64,"value":56},{"deltaTime":93,"channel":0,"type":"channel","subtype":"controller","controllerType":64,"value":120},{"deltaTime":30,"channel":0,"type":"channel","subtype":"controller","controllerType":64,"value":127},{"deltaTime":184,"channel":0,"type":"channel","subtype":"noteOff","noteNumber":32,"velocity":0},{"deltaTime":81,"channel":0,"type":"channel","subtype":"noteOff","noteNumber":37,"velocity":0},{"deltaTime":3455,"channel":0,"type":"channel","noteNumber":61,"velocity":61,"subtype":"noteOn"},{"deltaTime":326,"channel":0,"type":"channel","subtype":"noteOff","noteNumber":42,"velocity":0},{"deltaTime":173,"channel":0,"type":"channel","subtype":"noteOff","noteNumber":30,"velocity":0},{"deltaTime":448,"channel":0,"type":"channel","noteNumber":37,"velocity":63,"subtype":"noteOn"},{"deltaTime":418,"channel":0,"type":"channel","subtype":"noteOff","noteNumber":63,"velocity":0},{"deltaTime":978,"channel":0,"type":"channel","subtype":"noteOff","noteNumber":56,"velocity":0},{"deltaTime":1722,"channel":0,"type":"channel","subtype":"noteOff","noteNumber":37,"velocity":0},{"deltaTime":154,"channel":0,"type":"channel","subtype":"noteOff","noteNumber":61,"velocity":0},{"deltaTime":2638,"channel":0,"type":"channel","noteNumber":63,"velocity":99,"subtype":"noteOn"},{"deltaTime":154,"channel":0,"type":"channel","noteNumber":56,"velocity":96,"subtype":"noteOn"},{"deltaTime":202,"channel":0,"type":"channel","noteNumber":30,"velocity":84,"subtype":"noteOn"},{"deltaTime":154,"channel":0,"type":"channel","noteNumber":61,"velocity":84,"subtype":"noteOn"},{"deltaTime":123,"channel":0,"type":"channel","noteNumber":42,"velocity":89,"subtype":"noteOn"},{"deltaTime":529,"channel":0,"type":"channel","noteNumber":32,"velocity":42,"subtype":"noteOn"},{"deltaTime":1101,"channel":0,"type":"channel","subtype":"noteOff","noteNumber":61,"velocity":0},{"deltaTime":590,"channel":0,"type":"channel","subtype":"noteOff","noteNumber":32,"velocity":0},{"deltaTime":1580,"channel":0,"type":"channel","subtype":"noteOff","noteNumber":42,"velocity":0},{"deltaTime":1070,"channel":0,"type":"channel","noteNumber":61,"velocity":39,"subtype":"noteOn"},{"deltaTime":357,"channel":0,"type":"channel","subtype":"noteOff","noteNumber":30,"velocity":0},{"deltaTime":683,"channel":0,"type":"channel","subtype":"noteOff","noteNumber":63,"velocity":0},{"deltaTime":122,"channel":0,"type":"channel","noteNumber":37,"velocity":54,"subtype":"noteOn"},{"deltaTime":1150,"channel":0,"type":"channel","subtype":"noteOff","noteNumber":56,"velocity":0},{"deltaTime":1052,"channel":0,"type":"channel","subtype":"noteOff","noteNumber":37,"velocity":0},{"deltaTime":713,"channel":0,"type":"channel","subtype":"noteOff","noteNumber":61,"velocity":0},{"deltaTime":2405,"channel":0,"type":"channel","noteNumber":56,"velocity":89,"subtype":"noteOn"},{"deltaTime":264,"channel":0,"type":"channel","noteNumber":61,"velocity":75,"subtype":"noteOn"},{"deltaTime":184,"channel":0,"type":"channel","noteNumber":42,"velocity":85,"subtype":"noteOn"},{"deltaTime":142,"channel":0,"type":"channel","noteNumber":30,"velocity":78,"subtype":"noteOn"},{"deltaTime":264,"channel":0,"type":"channel","noteNumber":63,"velocity":52,"subtype":"noteOn"},{"deltaTime":450,"channel":0,"type":"channel","subtype":"noteOff","noteNumber":61,"velocity":0},{"deltaTime":122,"channel":0,"type":"channel","noteNumber":32,"velocity":39,"subtype":"noteOn"},{"deltaTime":418,"channel":0,"type":"channel","subtype":"noteOff","noteNumber":63,"velocity":0},{"deltaTime":1070,"channel":0,"type":"channel","subtype":"noteOff","noteNumber":32,"velocity":0},{"deltaTime":31,"channel":0,"type":"channel","subtype":"noteOff","noteNumber":42,"velocity":0},{"deltaTime":406,"channel":0,"type":"channel","subtype":"noteOff","noteNumber":56,"velocity":0},{"deltaTime":246,"channel":0,"type":"channel","subtype":"noteOff","noteNumber":30,"velocity":0},{"deltaTime":2282,"channel":0,"type":"channel","subtype":"controller","controllerType":64,"value":120},{"deltaTime":153,"channel":0,"type":"channel","subtype":"controller","controllerType":64,"value":56},{"deltaTime":31,"channel":0,"type":"channel","noteNumber":37,"velocity":75,"subtype":"noteOn"},{"deltaTime":173,"channel":0,"type":"channel","noteNumber":56,"velocity":90,"subtype":"noteOn"},{"deltaTime":183,"channel":0,"type":"channel","noteNumber":63,"velocity":92,"subtype":"noteOn"},{"deltaTime":142,"channel":0,"type":"channel","noteNumber":61,"velocity":95,"subtype":"noteOn"},{"deltaTime":246,"channel":0,"type":"channel","subtype":"controller","controllerType":64,"value":0},{"deltaTime":467,"channel":0,"type":"channel","noteNumber":42,"velocity":58,"subtype":"noteOn"},{"deltaTime":154,"channel":0,"type":"channel","subtype":"noteOff","noteNumber":61,"velocity":0},{"deltaTime":153,"channel":0,"type":"channel","subtype":"controller","controllerType":64,"value":56},{"deltaTime":112,"channel":0,"type":"channel","subtype":"controller","controllerType":64,"value":120},{"deltaTime":30,"channel":0,"type":"channel","subtype":"controller","controllerType":64,"value":127},{"deltaTime":541,"channel":0,"type":"channel","subtype":"noteOff","noteNumber":42,"velocity":0},{"deltaTime":2189,"channel":0,"type":"channel","subtype":"noteOff","noteNumber":56,"velocity":0},{"deltaTime":357,"channel":0,"type":"channel","subtype":"noteOff","noteNumber":37,"velocity":0},{"deltaTime":1999,"channel":0,"type":"channel","noteNumber":61,"velocity":76,"subtype":"noteOn"},{"deltaTime":203,"channel":0,"type":"channel","noteNumber":42,"velocity":84,"subtype":"noteOn"},{"deltaTime":184,"channel":0,"type":"channel","noteNumber":30,"velocity":81,"subtype":"noteOn"},{"deltaTime":173,"channel":0,"type":"channel","noteNumber":56,"velocity":34,"subtype":"noteOn"},{"deltaTime":1131,"channel":0,"type":"channel","subtype":"noteOff","noteNumber":63,"velocity":0},{"deltaTime":449,"channel":0,"type":"channel","subtype":"noteOff","noteNumber":56,"velocity":0},{"deltaTime":326,"channel":0,"type":"channel","subtype":"noteOff","noteNumber":42,"velocity":0},{"deltaTime":1100,"channel":0,"type":"channel","subtype":"noteOff","noteNumber":30,"velocity":0},{"deltaTime":683,"channel":0,"type":"channel","subtype":"noteOff","noteNumber":61,"velocity":0},{"deltaTime":1580,"channel":0,"type":"channel","noteNumber":56,"velocity":75,"subtype":"noteOn"},{"deltaTime":111,"channel":0,"type":"channel","noteNumber":37,"velocity":75,"subtype":"noteOn"},{"deltaTime":1101,"channel":0,"type":"channel","noteNumber":61,"velocity":21,"subtype":"noteOn"},{"deltaTime":1396,"channel":0,"type":"channel","subtype":"noteOff","noteNumber":61,"velocity":0},{"deltaTime":245,"channel":0,"type":"channel","subtype":"noteOff","noteNumber":56,"velocity":0},{"deltaTime":142,"channel":0,"type":"channel","subtype":"noteOff","noteNumber":37,"velocity":0},{"deltaTime":3505,"channel":0,"type":"channel","noteNumber":63,"velocity":96,"subtype":"noteOn"},{"deltaTime":123,"channel":0,"type":"channel","noteNumber":42,"velocity":94,"subtype":"noteOn"},{"deltaTime":234,"channel":0,"type":"channel","noteNumber":56,"velocity":99,"subtype":"noteOn"},{"deltaTime":184,"channel":0,"type":"channel","noteNumber":30,"velocity":82,"subtype":"noteOn"},{"deltaTime":173,"channel":0,"type":"channel","noteNumber":61,"velocity":93,"subtype":"noteOn"},{"deltaTime":184,"channel":0,"type":"channel","noteNumber":37,"velocity":73,"subtype":"noteOn"},{"deltaTime":203,"channel":0,"type":"channel","noteNumber":32,"velocity":41,"subtype":"noteOn"},{"deltaTime":215,"channel":0,"type":"channel","subtype":"noteOff","noteNumber":61,"velocity":0},{"deltaTime":234,"channel":0,"type":"channel","subtype":"noteOff","noteNumber":37,"velocity":0},{"deltaTime":1070,"channel":0,"type":"channel","subtype":"noteOff","noteNumber":32,"velocity":0},{"deltaTime":326,"channel":0,"type":"channel","subtype":"noteOff","noteNumber":56,"velocity":0},{"deltaTime":590,"channel":0,"type":"channel","subtype":"noteOff","noteNumber":42,"velocity":0},{"deltaTime":1458,"channel":0,"type":"channel","subtype":"noteOff","noteNumber":30,"velocity":0},{"deltaTime":325,"channel":0,"type":"channel","noteNumber":61,"velocity":63,"subtype":"noteOn"},{"deltaTime":185,"channel":0,"type":"channel","noteNumber":56,"velocity":37,"subtype":"noteOn"},{"deltaTime":203,"channel":0,"type":"channel","noteNumber":37,"velocity":54,"subtype":"noteOn"},{"deltaTime":2140,"channel":0,"type":"channel","subtype":"noteOff","noteNumber":63,"velocity":0},{"deltaTime":153,"channel":0,"type":"channel","subtype":"noteOff","noteNumber":56,"velocity":0},{"deltaTime":1304,"channel":0,"type":"channel","subtype":"noteOff","noteNumber":37,"velocity":0},{"deltaTime":62,"channel":0,"type":"channel","subtype":"noteOff","noteNumber":61,"velocity":0},{"deltaTime":3658,"channel":0,"type":"channel","noteNumber":63,"velocity":93,"subtype":"noteOn"},{"deltaTime":234,"channel":0,"type":"channel","noteNumber":30,"velocity":82,"subtype":"noteOn"},{"deltaTime":184,"channel":0,"type":"channel","noteNumber":42,"velocity":95,"subtype":"noteOn"},{"deltaTime":173,"channel":0,"type":"channel","noteNumber":56,"velocity":104,"subtype":"noteOn"},{"deltaTime":214,"channel":0,"type":"channel","noteNumber":61,"velocity":100,"subtype":"noteOn"},{"deltaTime":173,"channel":0,"type":"channel","noteNumber":32,"velocity":63,"subtype":"noteOn"},{"deltaTime":233,"channel":0,"type":"channel","noteNumber":37,"velocity":49,"subtype":"noteOn"},{"deltaTime":154,"channel":0,"type":"channel","noteNumber":58,"velocity":48,"subtype":"noteOn"},{"deltaTime":449,"channel":0,"type":"channel","subtype":"noteOff","noteNumber":32,"velocity":0},{"deltaTime":111,"channel":0,"type":"channel","subtype":"noteOff","noteNumber":37,"velocity":0},{"deltaTime":154,"channel":0,"type":"channel","subtype":"noteOff","noteNumber":61,"velocity":0},{"deltaTime":30,"channel":0,"type":"channel","subtype":"noteOff","noteNumber":42,"velocity":0},{"deltaTime":357,"channel":0,"type":"channel","subtype":"noteOff","noteNumber":58,"velocity":0},{"deltaTime":621,"channel":0,"type":"channel","subtype":"noteOff","noteNumber":56,"velocity":0},{"deltaTime":2528,"channel":0,"type":"channel","noteNumber":56,"velocity":21,"subtype":"noteOn"},{"deltaTime":233,"channel":0,"type":"channel","noteNumber":61,"velocity":66,"subtype":"noteOn"},{"deltaTime":246,"channel":0,"type":"channel","noteNumber":37,"velocity":63,"subtype":"noteOn"},{"deltaTime":775,"channel":0,"type":"channel","subtype":"noteOff","noteNumber":63,"velocity":0},{"deltaTime":264,"channel":0,"type":"channel","subtype":"noteOff","noteNumber":30,"velocity":0},{"deltaTime":683,"channel":0,"type":"channel","subtype":"noteOff","noteNumber":56,"velocity":0},{"deltaTime":3149,"channel":0,"type":"channel","subtype":"noteOff","noteNumber":61,"velocity":0},{"deltaTime":1161,"channel":0,"type":"channel","noteNumber":63,"velocity":63,"subtype":"noteOn"},{"deltaTime":142,"channel":0,"type":"channel","noteNumber":42,"velocity":75,"subtype":"noteOn"},{"deltaTime":307,"channel":0,"type":"channel","noteNumber":56,"velocity":75,"subtype":"noteOn"},{"deltaTime":173,"channel":0,"type":"channel","noteNumber":32,"velocity":36,"subtype":"noteOn"},{"deltaTime":1192,"channel":0,"type":"channel","subtype":"noteOff","noteNumber":37,"velocity":0},{"deltaTime":437,"channel":0,"type":"channel","subtype":"noteOff","noteNumber":32,"velocity":0},{"deltaTime":123,"channel":0,"type":"channel","subtype":"noteOff","noteNumber":42,"velocity":0},{"deltaTime":572,"channel":0,"type":"channel","subtype":"noteOff","noteNumber":63,"velocity":0},{"deltaTime":80,"channel":0,"type":"channel","subtype":"noteOff","noteNumber":56,"velocity":0},{"deltaTime":1703,"channel":0,"type":"channel","subtype":"controller","controllerType":64,"value":120},{"deltaTime":173,"channel":0,"type":"channel","subtype":"controller","controllerType":64,"value":56},{"deltaTime":92,"channel":0,"type":"channel","subtype":"controller","controllerType":64,"value":0},{"deltaTime":1457,"channel":0,"type":"channel","noteNumber":41,"velocity":90,"subtype":"noteOn"},{"deltaTime":173,"channel":0,"type":"channel","noteNumber":29,"velocity":87,"subtype":"noteOn"},{"deltaTime":184,"channel":0,"type":"channel","noteNumber":56,"velocity":95,"subtype":"noteOn"},{"deltaTime":203,"channel":0,"type":"channel","noteNumber":68,"velocity":85,"subtype":"noteOn"},{"deltaTime":184,"channel":0,"type":"channel","noteNumber":61,"velocity":71,"subtype":"noteOn"},{"deltaTime":142,"channel":0,"type":"channel","noteNumber":63,"velocity":60,"subtype":"noteOn"},{"deltaTime":264,"channel":0,"type":"channel","subtype":"controller","controllerType":64,"value":56},{"deltaTime":123,"channel":0,"type":"channel","subtype":"controller","controllerType":64,"value":120},{"deltaTime":31,"channel":0,"type":"channel","subtype":"controller","controllerType":64,"value":127},{"deltaTime":184,"channel":0,"type":"channel","subtype":"noteOff","noteNumber":61,"velocity":0},{"deltaTime":203,"channel":0,"type":"channel","subtype":"noteOff","noteNumber":63,"velocity":0},{"deltaTime":1304,"channel":0,"type":"channel","subtype":"noteOff","noteNumber":41,"velocity":0},{"deltaTime":2109,"channel":0,"type":"channel","subtype":"noteOff","noteNumber":56,"velocity":0},{"deltaTime":276,"channel":0,"type":"channel","noteNumber":61,"velocity":37,"subtype":"noteOn"},{"deltaTime":948,"channel":0,"type":"channel","subtype":"noteOff","noteNumber":68,"velocity":0},{"deltaTime":92,"channel":0,"type":"channel","noteNumber":37,"velocity":71,"subtype":"noteOn"},{"deltaTime":1131,"channel":0,"type":"channel","subtype":"noteOff","noteNumber":29,"velocity":0},{"deltaTime":2189,"channel":0,"type":"channel","subtype":"noteOff","noteNumber":37,"velocity":0},{"deltaTime":1581,"channel":0,"type":"channel","noteNumber":56,"velocity":87,"subtype":"noteOn"},{"deltaTime":387,"channel":0,"type":"channel","noteNumber":41,"velocity":70,"subtype":"noteOn"},{"deltaTime":204,"channel":0,"type":"channel","noteNumber":63,"velocity":58,"subtype":"noteOn"},{"deltaTime":245,"channel":0,"type":"channel","noteNumber":40,"velocity":67,"subtype":"noteOn"},{"deltaTime":173,"channel":0,"type":"channel","noteNumber":37,"velocity":31,"subtype":"noteOn"},{"deltaTime":153,"channel":0,"type":"channel","noteNumber":30,"velocity":41,"subtype":"noteOn"},{"deltaTime":560,"channel":0,"type":"channel","subtype":"noteOff","noteNumber":40,"velocity":0},{"deltaTime":215,"channel":0,"type":"channel","subtype":"noteOff","noteNumber":63,"velocity":0},{"deltaTime":203,"channel":0,"type":"channel","subtype":"noteOff","noteNumber":37,"velocity":0},{"deltaTime":61,"channel":0,"type":"channel","subtype":"noteOff","noteNumber":30,"velocity":0},{"deltaTime":326,"channel":0,"type":"channel","subtype":"noteOff","noteNumber":61,"velocity":0},{"deltaTime":265,"channel":0,"type":"channel","subtype":"noteOff","noteNumber":41,"velocity":0},{"deltaTime":775,"channel":0,"type":"channel","subtype":"noteOff","noteNumber":56,"velocity":0},{"deltaTime":2109,"channel":0,"type":"channel","subtype":"controller","controllerType":64,"value":120},{"deltaTime":233,"channel":0,"type":"channel","subtype":"controller","controllerType":64,"value":56},{"deltaTime":62,"channel":0,"type":"channel","subtype":"controller","controllerType":64,"value":0},{"deltaTime":572,"channel":0,"type":"channel","noteNumber":56,"velocity":99,"subtype":"noteOn"},{"deltaTime":172,"channel":0,"type":"channel","noteNumber":46,"velocity":95,"subtype":"noteOn"},{"deltaTime":264,"channel":0,"type":"channel","noteNumber":34,"velocity":84,"subtype":"noteOn"},{"deltaTime":93,"channel":0,"type":"channel","noteNumber":63,"velocity":88,"subtype":"noteOn"},{"deltaTime":215,"channel":0,"type":"channel","noteNumber":61,"velocity":79,"subtype":"noteOn"},{"deltaTime":172,"channel":0,"type":"channel","noteNumber":58,"velocity":70,"subtype":"noteOn"},{"deltaTime":203,"channel":0,"type":"channel","noteNumber":37,"velocity":59,"subtype":"noteOn"},{"deltaTime":387,"channel":0,"type":"channel","subtype":"noteOff","noteNumber":61,"velocity":0},{"deltaTime":154,"channel":0,"type":"channel","subtype":"controller","controllerType":64,"value":56},{"deltaTime":62,"channel":0,"type":"channel","subtype":"noteOff","noteNumber":58,"velocity":0},{"deltaTime":110,"channel":0,"type":"channel","subtype":"controller","controllerType":64,"value":120},{"deltaTime":31,"channel":0,"type":"channel","subtype":"noteOff","noteNumber":37,"velocity":0},{"deltaTime":62,"channel":0,"type":"channel","subtype":"controller","controllerType":64,"value":127},{"deltaTime":3210,"channel":0,"type":"channel","noteNumber":61,"velocity":28,"subtype":"noteOn"},{"deltaTime":928,"channel":0,"type":"channel","noteNumber":37,"velocity":25,"subtype":"noteOn"},{"deltaTime":172,"channel":0,"type":"channel","subtype":"noteOff","noteNumber":63,"velocity":0},{"deltaTime":123,"channel":0,"type":"channel","subtype":"noteOff","noteNumber":46,"velocity":0},{"deltaTime":265,"channel":0,"type":"channel","subtype":"noteOff","noteNumber":34,"velocity":0},{"deltaTime":652,"channel":0,"type":"channel","noteNumber":41,"velocity":48,"subtype":"noteOn"},{"deltaTime":510,"channel":0,"type":"channel","subtype":"noteOff","noteNumber":37,"velocity":0},{"deltaTime":30,"channel":0,"type":"channel","subtype":"noteOff","noteNumber":56,"velocity":0},{"deltaTime":622,"channel":0,"type":"channel","subtype":"noteOff","noteNumber":41,"velocity":0},{"deltaTime":1070,"channel":0,"type":"channel","subtype":"noteOff","noteNumber":61,"velocity":0},{"deltaTime":2312,"channel":0,"type":"channel","subtype":"controller","controllerType":64,"value":120},{"deltaTime":62,"channel":0,"type":"channel","noteNumber":34,"velocity":84,"subtype":"noteOn"},{"deltaTime":325,"channel":0,"type":"channel","noteNumber":56,"velocity":100,"subtype":"noteOn"},{"deltaTime":0,"channel":0,"type":"channel","subtype":"controller","controllerType":64,"value":56},{"deltaTime":185,"channel":0,"type":"channel","noteNumber":63,"velocity":89,"subtype":"noteOn"},{"deltaTime":172,"channel":0,"type":"channel","noteNumber":46,"velocity":82,"subtype":"noteOn"},{"deltaTime":215,"channel":0,"type":"channel","noteNumber":61,"velocity":73,"subtype":"noteOn"},{"deltaTime":203,"channel":0,"type":"channel","noteNumber":58,"velocity":70,"subtype":"noteOn"},{"deltaTime":215,"channel":0,"type":"channel","subtype":"controller","controllerType":64,"value":0},{"deltaTime":234,"channel":0,"type":"channel","subtype":"controller","controllerType":64,"value":56},{"deltaTime":61,"channel":0,"type":"channel","subtype":"controller","controllerType":64,"value":120},{"deltaTime":31,"channel":0,"type":"channel","subtype":"controller","controllerType":64,"value":127},{"deltaTime":61,"channel":0,"type":"channel","subtype":"noteOff","noteNumber":61,"velocity":0},{"deltaTime":204,"channel":0,"type":"channel","subtype":"noteOff","noteNumber":58,"velocity":0},{"deltaTime":2466,"channel":0,"type":"channel","subtype":"noteOff","noteNumber":46,"velocity":0},{"deltaTime":1660,"channel":0,"type":"channel","subtype":"noteOff","noteNumber":34,"velocity":0},{"deltaTime":62,"channel":0,"type":"channel","noteNumber":61,"velocity":66,"subtype":"noteOn"},{"deltaTime":540,"channel":0,"type":"channel","noteNumber":41,"velocity":72,"subtype":"noteOn"},{"deltaTime":794,"channel":0,"type":"channel","subtype":"noteOff","noteNumber":63,"velocity":0},{"deltaTime":694,"channel":0,"type":"channel","subtype":"noteOff","noteNumber":56,"velocity":0},{"deltaTime":1783,"channel":0,"type":"channel","subtype":"noteOff","noteNumber":41,"velocity":0},{"deltaTime":1476,"channel":0,"type":"channel","subtype":"noteOff","noteNumber":61,"velocity":0},{"deltaTime":1396,"channel":0,"type":"channel","noteNumber":34,"velocity":50,"subtype":"noteOn"},{"deltaTime":185,"channel":0,"type":"channel","noteNumber":56,"velocity":85,"subtype":"noteOn"},{"deltaTime":234,"channel":0,"type":"channel","noteNumber":46,"velocity":73,"subtype":"noteOn"},{"deltaTime":1131,"channel":0,"type":"channel","subtype":"noteOff","noteNumber":46,"velocity":0},{"deltaTime":92,"channel":0,"type":"channel","subtype":"noteOff","noteNumber":34,"velocity":0},{"deltaTime":978,"channel":0,"type":"channel","subtype":"noteOff","noteNumber":56,"velocity":0},{"deltaTime":1753,"channel":0,"type":"channel","subtype":"controller","controllerType":64,"value":120},{"deltaTime":153,"channel":0,"type":"channel","subtype":"controller","controllerType":64,"value":56},{"deltaTime":111,"channel":0,"type":"channel","subtype":"controller","controllerType":64,"value":0},{"deltaTime":898,"channel":0,"type":"channel","noteNumber":46,"velocity":92,"subtype":"noteOn"},{"deltaTime":203,"channel":0,"type":"channel","noteNumber":34,"velocity":82,"subtype":"noteOn"},{"deltaTime":215,"channel":0,"type":"channel","noteNumber":63,"velocity":92,"subtype":"noteOn"},{"deltaTime":173,"channel":0,"type":"channel","noteNumber":56,"velocity":98,"subtype":"noteOn"},{"deltaTime":184,"channel":0,"type":"channel","noteNumber":61,"velocity":78,"subtype":"noteOn"},{"deltaTime":498,"channel":0,"type":"channel","subtype":"controller","controllerType":64,"value":56},{"deltaTime":62,"channel":0,"type":"channel","subtype":"controller","controllerType":64,"value":120},{"deltaTime":30,"channel":0,"type":"channel","subtype":"controller","controllerType":64,"value":127},{"deltaTime":357,"channel":0,"type":"channel","subtype":"noteOff","noteNumber":61,"velocity":0},{"deltaTime":3658,"channel":0,"type":"channel","subtype":"noteOff","noteNumber":46,"velocity":0},{"deltaTime":499,"channel":0,"type":"channel","noteNumber":61,"velocity":48,"subtype":"noteOn"},{"deltaTime":479,"channel":0,"type":"channel","subtype":"noteOff","noteNumber":34,"velocity":0},{"deltaTime":510,"channel":0,"type":"channel","subtype":"noteOff","noteNumber":63,"velocity":0},{"deltaTime":437,"channel":0,"type":"channel","noteNumber":41,"velocity":62,"subtype":"noteOn"},{"deltaTime":990,"channel":0,"type":"channel","subtype":"noteOff","noteNumber":56,"velocity":0},{"deltaTime":652,"channel":0,"type":"channel","subtype":"noteOff","noteNumber":41,"velocity":0},{"deltaTime":1101,"channel":0,"type":"channel","subtype":"noteOff","noteNumber":61,"velocity":0},{"deltaTime":1457,"channel":0,"type":"channel","subtype":"controller","controllerType":64,"value":120},{"deltaTime":173,"channel":0,"type":"channel","subtype":"controller","controllerType":64,"value":56},{"deltaTime":92,"channel":0,"type":"channel","subtype":"controller","controllerType":64,"value":0},{"deltaTime":682,"channel":0,"type":"channel","noteNumber":34,"velocity":84,"subtype":"noteOn"},{"deltaTime":184,"channel":0,"type":"channel","noteNumber":63,"velocity":95,"subtype":"noteOn"},{"deltaTime":204,"channel":0,"type":"channel","noteNumber":56,"velocity":100,"subtype":"noteOn"},{"deltaTime":202,"channel":0,"type":"channel","noteNumber":46,"velocity":89,"subtype":"noteOn"},{"deltaTime":185,"channel":0,"type":"channel","noteNumber":61,"velocity":76,"subtype":"noteOn"},{"deltaTime":265,"channel":0,"type":"channel","subtype":"controller","controllerType":64,"value":56},{"deltaTime":122,"channel":0,"type":"channel","subtype":"controller","controllerType":64,"value":120},{"deltaTime":31,"channel":0,"type":"channel","subtype":"controller","controllerType":64,"value":127},{"deltaTime":173,"channel":0,"type":"channel","noteNumber":37,"velocity":31,"subtype":"noteOn"},{"deltaTime":184,"channel":0,"type":"channel","subtype":"noteOff","noteNumber":61,"velocity":0},{"deltaTime":1691,"channel":0,"type":"channel","subtype":"noteOff","noteNumber":34,"velocity":0},{"deltaTime":2761,"channel":0,"type":"channel","subtype":"noteOff","noteNumber":37,"velocity":0},{"deltaTime":31,"channel":0,"type":"channel","noteNumber":61,"velocity":61,"subtype":"noteOn"},{"deltaTime":326,"channel":0,"type":"channel","subtype":"noteOff","noteNumber":46,"velocity":0},{"deltaTime":326,"channel":0,"type":"channel","noteNumber":41,"velocity":53,"subtype":"noteOn"},{"deltaTime":325,"channel":0,"type":"channel","subtype":"noteOff","noteNumber":63,"velocity":0},{"deltaTime":1611,"channel":0,"type":"channel","subtype":"noteOff","noteNumber":56,"velocity":0},{"deltaTime":1335,"channel":0,"type":"channel","subtype":"noteOff","noteNumber":41,"velocity":0},{"deltaTime":590,"channel":0,"type":"channel","subtype":"noteOff","noteNumber":61,"velocity":0},{"deltaTime":1132,"channel":0,"type":"channel","noteNumber":63,"velocity":78,"subtype":"noteOn"},{"deltaTime":123,"channel":0,"type":"channel","noteNumber":56,"velocity":78,"subtype":"noteOn"},{"deltaTime":202,"channel":0,"type":"channel","noteNumber":46,"velocity":82,"subtype":"noteOn"},{"deltaTime":185,"channel":0,"type":"channel","noteNumber":34,"velocity":66,"subtype":"noteOn"},{"deltaTime":2638,"channel":0,"type":"channel","subtype":"noteOff","noteNumber":56,"velocity":0},{"deltaTime":154,"channel":0,"type":"channel","subtype":"noteOff","noteNumber":46,"velocity":0},{"deltaTime":61,"channel":0,"type":"channel","subtype":"noteOff","noteNumber":63,"velocity":0},{"deltaTime":498,"channel":0,"type":"channel","subtype":"noteOff","noteNumber":34,"velocity":0},{"deltaTime":1734,"channel":0,"type":"channel","noteNumber":42,"velocity":78,"subtype":"noteOn"},{"deltaTime":652,"channel":0,"type":"channel","noteNumber":56,"velocity":85,"subtype":"noteOn"},{"deltaTime":204,"channel":0,"type":"channel","noteNumber":63,"velocity":84,"subtype":"noteOn"},{"deltaTime":214,"channel":0,"type":"channel","noteNumber":61,"velocity":75,"subtype":"noteOn"},{"deltaTime":1009,"channel":0,"type":"channel","subtype":"noteOff","noteNumber":61,"velocity":0},{"deltaTime":1070,"channel":0,"type":"channel","subtype":"noteOff","noteNumber":56,"velocity":0},{"deltaTime":387,"channel":0,"type":"channel","subtype":"noteOff","noteNumber":42,"velocity":0},{"deltaTime":560,"channel":0,"type":"channel","subtype":"noteOff","noteNumber":63,"velocity":0},{"deltaTime":2017,"channel":0,"type":"channel","noteNumber":34,"velocity":69,"subtype":"noteOn"},{"deltaTime":276,"channel":0,"type":"channel","noteNumber":46,"velocity":83,"subtype":"noteOn"},{"deltaTime":173,"channel":0,"type":"channel","noteNumber":56,"velocity":84,"subtype":"noteOn"},{"deltaTime":215,"channel":0,"type":"channel","noteNumber":61,"velocity":80,"subtype":"noteOn"},{"deltaTime":2140,"channel":0,"type":"channel","subtype":"noteOff","noteNumber":34,"velocity":0},{"deltaTime":80,"channel":0,"type":"channel","subtype":"noteOff","noteNumber":56,"velocity":0},{"deltaTime":307,"channel":0,"type":"channel","subtype":"noteOff","noteNumber":46,"velocity":0},{"deltaTime":1273,"channel":0,"type":"channel","subtype":"noteOff","noteNumber":61,"velocity":0},{"deltaTime":1550,"channel":0,"type":"channel","subtype":"controller","controllerType":64,"value":120},{"deltaTime":142,"channel":0,"type":"channel","subtype":"controller","controllerType":64,"value":56},{"deltaTime":122,"channel":0,"type":"channel","subtype":"controller","controllerType":64,"value":0},{"deltaTime":265,"channel":0,"type":"channel","noteNumber":37,"velocity":78,"subtype":"noteOn"},{"deltaTime":184,"channel":0,"type":"channel","noteNumber":53,"velocity":81,"subtype":"noteOn"},{"deltaTime":173,"channel":0,"type":"channel","noteNumber":65,"velocity":62,"subtype":"noteOn"},{"deltaTime":214,"channel":0,"type":"channel","noteNumber":49,"velocity":63,"subtype":"noteOn"},{"deltaTime":173,"channel":0,"type":"channel","noteNumber":64,"velocity":75,"subtype":"noteOn"},{"deltaTime":203,"channel":0,"type":"channel","noteNumber":50,"velocity":78,"subtype":"noteOn"},{"deltaTime":123,"channel":0,"type":"channel","noteNumber":55,"velocity":66,"subtype":"noteOn"},{"deltaTime":214,"channel":0,"type":"channel","noteNumber":48,"velocity":75,"subtype":"noteOn"},{"deltaTime":173,"channel":0,"type":"channel","noteNumber":39,"velocity":61,"subtype":"noteOn"},{"deltaTime":123,"channel":0,"type":"channel","subtype":"noteOff","noteNumber":55,"velocity":0},{"deltaTime":173,"channel":0,"type":"channel","subtype":"noteOff","noteNumber":50,"velocity":0},{"deltaTime":153,"channel":0,"type":"channel","subtype":"noteOff","noteNumber":48,"velocity":0},{"deltaTime":92,"channel":0,"type":"channel","subtype":"noteOff","noteNumber":49,"velocity":0},{"deltaTime":234,"channel":0,"type":"channel","subtype":"controller","controllerType":64,"value":56},{"deltaTime":92,"channel":0,"type":"channel","subtype":"controller","controllerType":64,"value":120},{"deltaTime":30,"channel":0,"type":"channel","subtype":"noteOff","noteNumber":39,"velocity":0},{"deltaTime":19,"channel":0,"type":"channel","subtype":"controller","controllerType":64,"value":127},{"deltaTime":357,"channel":0,"type":"channel","subtype":"noteOff","noteNumber":53,"velocity":0},{"deltaTime":480,"channel":0,"type":"channel","subtype":"noteOff","noteNumber":64,"velocity":0},{"deltaTime":479,"channel":0,"type":"channel","subtype":"noteOff","noteNumber":37,"velocity":0},{"deltaTime":560,"channel":0,"type":"channel","subtype":"noteOff","noteNumber":65,"velocity":0},{"deltaTime":1223,"channel":0,"type":"channel","noteNumber":61,"velocity":76,"subtype":"noteOn"},{"deltaTime":204,"channel":0,"type":"channel","noteNumber":44,"velocity":69,"subtype":"noteOn"},{"deltaTime":387,"channel":0,"type":"channel","noteNumber":53,"velocity":64,"subtype":"noteOn"},{"deltaTime":1009,"channel":0,"type":"channel","subtype":"noteOff","noteNumber":53,"velocity":0},{"deltaTime":2465,"channel":0,"type":"channel","subtype":"noteOff","noteNumber":61,"velocity":0},{"deltaTime":154,"channel":0,"type":"channel","subtype":"noteOff","noteNumber":44,"velocity":0},{"deltaTime":2497,"channel":0,"type":"channel","noteNumber":49,"velocity":89,"subtype":"noteOn"},{"deltaTime":202,"channel":0,"type":"channel","noteNumber":37,"velocity":75,"subtype":"noteOn"},{"deltaTime":185,"channel":0,"type":"channel","noteNumber":53,"velocity":93,"subtype":"noteOn"},{"deltaTime":203,"channel":0,"type":"channel","noteNumber":65,"velocity":80,"subtype":"noteOn"},{"deltaTime":184,"channel":0,"type":"channel","noteNumber":64,"velocity":72,"subtype":"noteOn"},{"deltaTime":204,"channel":0,"type":"channel","noteNumber":39,"velocity":46,"subtype":"noteOn"},{"deltaTime":214,"channel":0,"type":"channel","noteNumber":61,"velocity":27,"subtype":"noteOn"},{"deltaTime":530,"channel":0,"type":"channel","subtype":"noteOff","noteNumber":64,"velocity":0},{"deltaTime":682,"channel":0,"type":"channel","subtype":"noteOff","noteNumber":53,"velocity":0},{"deltaTime":62,"channel":0,"type":"channel","subtype":"noteOff","noteNumber":39,"velocity":0},{"deltaTime":326,"channel":0,"type":"channel","subtype":"noteOff","noteNumber":61,"velocity":0},{"deltaTime":652,"channel":0,"type":"channel","subtype":"noteOff","noteNumber":65,"velocity":0},{"deltaTime":387,"channel":0,"type":"channel","subtype":"noteOff","noteNumber":49,"velocity":0},{"deltaTime":1845,"channel":0,"type":"channel","noteNumber":65,"velocity":21,"subtype":"noteOn"},{"deltaTime":183,"channel":0,"type":"channel","noteNumber":44,"velocity":77,"subtype":"noteOn"},{"deltaTime":143,"channel":0,"type":"channel","noteNumber":61,"velocity":77,"subtype":"noteOn"},{"deltaTime":214,"channel":0,"type":"channel","noteNumber":53,"velocity":69,"subtype":"noteOn"},{"deltaTime":204,"channel":0,"type":"channel","subtype":"noteOff","noteNumber":37,"velocity":0},{"deltaTime":916,"channel":0,"type":"channel","subtype":"noteOff","noteNumber":65,"velocity":0},{"deltaTime":307,"channel":0,"type":"channel","subtype":"noteOff","noteNumber":53,"velocity":0},{"deltaTime":1426,"channel":0,"type":"channel","subtype":"noteOff","noteNumber":44,"velocity":0},{"deltaTime":376,"channel":0,"type":"channel","subtype":"noteOff","noteNumber":61,"velocity":0},{"deltaTime":1100,"channel":0,"type":"channel","subtype":"controller","controllerType":64,"value":120},{"deltaTime":185,"channel":0,"type":"channel","subtype":"controller","controllerType":64,"value":56},{"deltaTime":92,"channel":0,"type":"channel","subtype":"controller","controllerType":64,"value":0},{"deltaTime":825,"channel":0,"type":"channel","noteNumber":34,"velocity":84,"subtype":"noteOn"},{"deltaTime":122,"channel":0,"type":"channel","noteNumber":63,"velocity":90,"subtype":"noteOn"},{"deltaTime":203,"channel":0,"type":"channel","noteNumber":53,"velocity":94,"subtype":"noteOn"},{"deltaTime":215,"channel":0,"type":"channel","noteNumber":46,"velocity":92,"subtype":"noteOn"},{"deltaTime":204,"channel":0,"type":"channel","noteNumber":37,"velocity":67,"subtype":"noteOn"},{"deltaTime":184,"channel":0,"type":"channel","noteNumber":61,"velocity":44,"subtype":"noteOn"},{"deltaTime":744,"channel":0,"type":"channel","subtype":"controller","controllerType":64,"value":56},{"deltaTime":111,"channel":0,"type":"channel","subtype":"controller","controllerType":64,"value":120},{"deltaTime":31,"channel":0,"type":"channel","subtype":"controller","controllerType":64,"value":127},{"deltaTime":184,"channel":0,"type":"channel","subtype":"noteOff","noteNumber":37,"velocity":0},{"deltaTime":172,"channel":0,"type":"channel","subtype":"noteOff","noteNumber":61,"velocity":0},{"deltaTime":3812,"channel":0,"type":"channel","noteNumber":61,"velocity":68,"subtype":"noteOn"},{"deltaTime":825,"channel":0,"type":"channel","subtype":"noteOff","noteNumber":34,"velocity":0},{"deltaTime":61,"channel":0,"type":"channel","subtype":"noteOff","noteNumber":46,"velocity":0},{"deltaTime":203,"channel":0,"type":"channel","noteNumber":41,"velocity":59,"subtype":"noteOn"},{"deltaTime":694,"channel":0,"type":"channel","subtype":"noteOff","noteNumber":63,"velocity":0},{"deltaTime":296,"channel":0,"type":"channel","subtype":"noteOff","noteNumber":41,"velocity":0},{"deltaTime":387,"channel":0,"type":"channel","subtype":"noteOff","noteNumber":53,"velocity":0},{"deltaTime":1274,"channel":0,"type":"channel","subtype":"noteOff","noteNumber":61,"velocity":0},{"deltaTime":1131,"channel":0,"type":"channel","subtype":"controller","controllerType":64,"value":120},{"deltaTime":203,"channel":0,"type":"channel","subtype":"controller","controllerType":64,"value":56},{"deltaTime":92,"channel":0,"type":"channel","subtype":"controller","controllerType":64,"value":0},{"deltaTime":1162,"channel":0,"type":"channel","noteNumber":34,"velocity":85,"subtype":"noteOn"},{"deltaTime":203,"channel":0,"type":"channel","noteNumber":63,"velocity":107,"subtype":"noteOn"},{"deltaTime":184,"channel":0,"type":"channel","noteNumber":46,"velocity":92,"subtype":"noteOn"},{"deltaTime":204,"channel":0,"type":"channel","noteNumber":53,"velocity":96,"subtype":"noteOn"},{"deltaTime":184,"channel":0,"type":"channel","noteNumber":61,"velocity":57,"subtype":"noteOn"},{"deltaTime":264,"channel":0,"type":"channel","subtype":"controller","controllerType":64,"value":56},{"deltaTime":142,"channel":0,"type":"channel","subtype":"controller","controllerType":64,"value":120},{"deltaTime":30,"channel":0,"type":"channel","subtype":"controller","controllerType":64,"value":127},{"deltaTime":216,"channel":0,"type":"channel","noteNumber":37,"velocity":31,"subtype":"noteOn"},{"deltaTime":418,"channel":0,"type":"channel","subtype":"noteOff","noteNumber":61,"velocity":0},{"deltaTime":1506,"channel":0,"type":"channel","subtype":"noteOff","noteNumber":37,"velocity":0},{"deltaTime":2264,"channel":0,"type":"channel","noteNumber":61,"velocity":52,"subtype":"noteOn"},{"deltaTime":295,"channel":0,"type":"channel","subtype":"noteOff","noteNumber":46,"velocity":0},{"deltaTime":541,"channel":0,"type":"channel","subtype":"noteOff","noteNumber":34,"velocity":0},{"deltaTime":356,"channel":0,"type":"channel","subtype":"noteOff","noteNumber":53,"velocity":0},{"deltaTime":31,"channel":0,"type":"channel","noteNumber":41,"velocity":59,"subtype":"noteOn"},{"deltaTime":1009,"channel":0,"type":"channel","subtype":"noteOff","noteNumber":63,"velocity":0},{"deltaTime":3087,"channel":0,"type":"channel","subtype":"noteOff","noteNumber":41,"velocity":0},{"deltaTime":1518,"channel":0,"type":"channel","noteNumber":53,"velocity":77,"subtype":"noteOn"},{"deltaTime":388,"channel":0,"type":"channel","noteNumber":46,"velocity":73,"subtype":"noteOn"},{"deltaTime":264,"channel":0,"type":"channel","noteNumber":34,"velocity":42,"subtype":"noteOn"},{"deltaTime":775,"channel":0,"type":"channel","subtype":"noteOff","noteNumber":46,"velocity":0},{"deltaTime":560,"channel":0,"type":"channel","subtype":"noteOff","noteNumber":34,"velocity":0},{"deltaTime":295,"channel":0,"type":"channel","subtype":"noteOff","noteNumber":61,"velocity":0},{"deltaTime":154,"channel":0,"type":"channel","subtype":"noteOff","noteNumber":53,"velocity":0},{"deltaTime":1875,"channel":0,"type":"channel","subtype":"controller","controllerType":64,"value":120},{"deltaTime":173,"channel":0,"type":"channel","subtype":"controller","controllerType":64,"value":56},{"deltaTime":122,"channel":0,"type":"channel","subtype":"controller","controllerType":64,"value":0},{"deltaTime":1519,"channel":0,"type":"channel","noteNumber":63,"velocity":89,"subtype":"noteOn"},{"deltaTime":203,"channel":0,"type":"channel","noteNumber":46,"velocity":88,"subtype":"noteOn"},{"deltaTime":215,"channel":0,"type":"channel","noteNumber":53,"velocity":93,"subtype":"noteOn"},{"deltaTime":173,"channel":0,"type":"channel","noteNumber":34,"velocity":83,"subtype":"noteOn"},{"deltaTime":264,"channel":0,"type":"channel","subtype":"controller","controllerType":64,"value":56},{"deltaTime":123,"channel":0,"type":"channel","subtype":"controller","controllerType":64,"value":120},{"deltaTime":31,"channel":0,"type":"channel","subtype":"controller","controllerType":64,"value":127},{"deltaTime":4962,"channel":0,"type":"channel","subtype":"noteOff","noteNumber":46,"velocity":0},{"deltaTime":357,"channel":0,"type":"channel","noteNumber":61,"velocity":69,"subtype":"noteOn"},{"deltaTime":203,"channel":0,"type":"channel","subtype":"noteOff","noteNumber":34,"velocity":0},{"deltaTime":326,"channel":0,"type":"channel","noteNumber":41,"velocity":60,"subtype":"noteOn"},{"deltaTime":449,"channel":0,"type":"channel","subtype":"noteOff","noteNumber":63,"velocity":0},{"deltaTime":1162,"channel":0,"type":"channel","subtype":"noteOff","noteNumber":53,"velocity":0},{"deltaTime":356,"channel":0,"type":"channel","subtype":"noteOff","noteNumber":41,"velocity":0},{"deltaTime":1224,"channel":0,"type":"channel","subtype":"noteOff","noteNumber":61,"velocity":0},{"deltaTime":1212,"channel":0,"type":"channel","subtype":"controller","controllerType":64,"value":120},{"deltaTime":153,"channel":0,"type":"channel","subtype":"controller","controllerType":64,"value":56},{"deltaTime":111,"channel":0,"type":"channel","subtype":"controller","controllerType":64,"value":0},{"deltaTime":928,"channel":0,"type":"channel","noteNumber":63,"velocity":89,"subtype":"noteOn"},{"deltaTime":173,"channel":0,"type":"channel","noteNumber":34,"velocity":84,"subtype":"noteOn"},{"deltaTime":153,"channel":0,"type":"channel","noteNumber":46,"velocity":90,"subtype":"noteOn"},{"deltaTime":234,"channel":0,"type":"channel","noteNumber":53,"velocity":84,"subtype":"noteOn"},{"deltaTime":184,"channel":0,"type":"channel","noteNumber":52,"velocity":88,"subtype":"noteOn"},{"deltaTime":265,"channel":0,"type":"channel","subtype":"controller","controllerType":64,"value":56},{"deltaTime":123,"channel":0,"type":"channel","subtype":"controller","controllerType":64,"value":120},{"deltaTime":30,"channel":0,"type":"channel","subtype":"controller","controllerType":64,"value":127},{"deltaTime":204,"channel":0,"type":"channel","noteNumber":61,"velocity":27,"subtype":"noteOn"},{"deltaTime":1223,"channel":0,"type":"channel","subtype":"noteOff","noteNumber":52,"velocity":0},{"deltaTime":529,"channel":0,"type":"channel","subtype":"noteOff","noteNumber":61,"velocity":0},{"deltaTime":2405,"channel":0,"type":"channel","noteNumber":61,"velocity":61,"subtype":"noteOn"},{"deltaTime":184,"channel":0,"type":"channel","subtype":"noteOff","noteNumber":46,"velocity":0},{"deltaTime":92,"channel":0,"type":"channel","noteNumber":41,"velocity":69,"subtype":"noteOn"},{"deltaTime":499,"channel":0,"type":"channel","subtype":"noteOff","noteNumber":34,"velocity":0},{"deltaTime":1303,"channel":0,"type":"channel","subtype":"noteOff","noteNumber":63,"velocity":0},{"deltaTime":898,"channel":0,"type":"channel","subtype":"noteOff","noteNumber":53,"velocity":0},{"deltaTime":916,"channel":0,"type":"channel","subtype":"noteOff","noteNumber":41,"velocity":0},{"deltaTime":683,"channel":0,"type":"channel","subtype":"noteOff","noteNumber":61,"velocity":0},{"deltaTime":1549,"channel":0,"type":"channel","noteNumber":46,"velocity":81,"subtype":"noteOn"},{"deltaTime":184,"channel":0,"type":"channel","noteNumber":63,"velocity":84,"subtype":"noteOn"},{"deltaTime":204,"channel":0,"type":"channel","noteNumber":53,"velocity":84,"subtype":"noteOn"},{"deltaTime":203,"channel":0,"type":"channel","noteNumber":34,"velocity":63,"subtype":"noteOn"},{"deltaTime":2029,"channel":0,"type":"channel","subtype":"noteOff","noteNumber":53,"velocity":0},{"deltaTime":356,"channel":0,"type":"channel","subtype":"noteOff","noteNumber":34,"velocity":0},{"deltaTime":357,"channel":0,"type":"channel","subtype":"noteOff","noteNumber":46,"velocity":0},{"deltaTime":173,"channel":0,"type":"channel","subtype":"noteOff","noteNumber":63,"velocity":0},{"deltaTime":2434,"channel":0,"type":"channel","noteNumber":61,"velocity":84,"subtype":"noteOn"},{"deltaTime":185,"channel":0,"type":"channel","noteNumber":41,"velocity":79,"subtype":"noteOn"},{"deltaTime":203,"channel":0,"type":"channel","noteNumber":53,"velocity":73,"subtype":"noteOn"},{"deltaTime":215,"channel":0,"type":"channel","noteNumber":63,"velocity":65,"subtype":"noteOn"},{"deltaTime":173,"channel":0,"type":"channel","noteNumber":42,"velocity":25,"subtype":"noteOn"},{"deltaTime":928,"channel":0,"type":"channel","subtype":"noteOff","noteNumber":63,"velocity":0},{"deltaTime":436,"channel":0,"type":"channel","subtype":"noteOff","noteNumber":42,"velocity":0},{"deltaTime":246,"channel":0,"type":"channel","subtype":"noteOff","noteNumber":53,"velocity":0},{"deltaTime":1568,"channel":0,"type":"channel","subtype":"noteOff","noteNumber":61,"velocity":0},{"deltaTime":714,"channel":0,"type":"channel","subtype":"noteOff","noteNumber":41,"velocity":0},{"deltaTime":572,"channel":0,"type":"channel","noteNumber":46,"velocity":74,"subtype":"noteOn"},{"deltaTime":1008,"channel":0,"type":"channel","subtype":"noteOff","noteNumber":46,"velocity":0},{"deltaTime":61,"channel":0,"type":"channel","noteNumber":63,"velocity":74,"subtype":"noteOn"},{"deltaTime":204,"channel":0,"type":"channel","noteNumber":52,"velocity":68,"subtype":"noteOn"},{"deltaTime":836,"channel":0,"type":"channel","subtype":"noteOff","noteNumber":63,"velocity":0},{"deltaTime":234,"channel":0,"type":"channel","subtype":"noteOff","noteNumber":52,"velocity":0},{"deltaTime":3455,"channel":0,"type":"channel","noteNumber":48,"velocity":87,"subtype":"noteOn"},{"deltaTime":203,"channel":0,"type":"channel","noteNumber":36,"velocity":75,"subtype":"noteOn"},{"deltaTime":510,"channel":0,"type":"channel","noteNumber":53,"velocity":85,"subtype":"noteOn"},{"deltaTime":204,"channel":0,"type":"channel","noteNumber":65,"velocity":79,"subtype":"noteOn"},{"deltaTime":234,"channel":0,"type":"channel","subtype":"noteOff","noteNumber":48,"velocity":0},{"deltaTime":325,"channel":0,"type":"channel","noteNumber":44,"velocity":36,"subtype":"noteOn"},{"deltaTime":185,"channel":0,"type":"channel","noteNumber":64,"velocity":64,"subtype":"noteOn"},{"deltaTime":172,"channel":0,"type":"channel","noteNumber":63,"velocity":45,"subtype":"noteOn"},{"deltaTime":215,"channel":0,"type":"channel","noteNumber":61,"velocity":36,"subtype":"noteOn"},{"deltaTime":449,"channel":0,"type":"channel","subtype":"noteOff","noteNumber":64,"velocity":0},{"deltaTime":468,"channel":0,"type":"channel","subtype":"noteOff","noteNumber":63,"velocity":0},{"deltaTime":30,"channel":0,"type":"channel","subtype":"noteOff","noteNumber":44,"velocity":0},{"deltaTime":215,"channel":0,"type":"channel","subtype":"noteOff","noteNumber":61,"velocity":0},{"deltaTime":406,"channel":0,"type":"channel","subtype":"noteOff","noteNumber":53,"velocity":0},{"deltaTime":246,"channel":0,"type":"channel","subtype":"noteOff","noteNumber":65,"velocity":0},{"deltaTime":1783,"channel":0,"type":"channel","subtype":"noteOff","noteNumber":36,"velocity":0},{"deltaTime":917,"channel":0,"type":"channel","noteNumber":44,"velocity":82,"subtype":"noteOn"},{"deltaTime":215,"channel":0,"type":"channel","noteNumber":51,"velocity":85,"subtype":"noteOn"},{"deltaTime":326,"channel":0,"type":"channel","noteNumber":63,"velocity":59,"subtype":"noteOn"},{"deltaTime":824,"channel":0,"type":"channel","subtype":"noteOff","noteNumber":51,"velocity":0},{"deltaTime":215,"channel":0,"type":"channel","subtype":"noteOff","noteNumber":63,"velocity":0},{"deltaTime":1691,"channel":0,"type":"channel","subtype":"noteOff","noteNumber":44,"velocity":0},{"deltaTime":2976,"channel":0,"type":"channel","noteNumber":48,"velocity":90,"subtype":"noteOn"},{"deltaTime":265,"channel":0,"type":"channel","noteNumber":36,"velocity":77,"subtype":"noteOn"},{"deltaTime":172,"channel":0,"type":"channel","noteNumber":65,"velocity":81,"subtype":"noteOn"},{"deltaTime":184,"channel":0,"type":"channel","noteNumber":53,"velocity":77,"subtype":"noteOn"},{"deltaTime":172,"channel":0,"type":"channel","noteNumber":55,"velocity":81,"subtype":"noteOn"},{"deltaTime":216,"channel":0,"type":"channel","noteNumber":63,"velocity":59,"subtype":"noteOn"},{"deltaTime":203,"channel":0,"type":"channel","noteNumber":39,"velocity":39,"subtype":"noteOn"},{"deltaTime":184,"channel":0,"type":"channel","noteNumber":61,"velocity":40,"subtype":"noteOn"},{"deltaTime":203,"channel":0,"type":"channel","noteNumber":44,"velocity":26,"subtype":"noteOn"},{"deltaTime":184,"channel":0,"type":"channel","noteNumber":64,"velocity":32,"subtype":"noteOn"},{"deltaTime":204,"channel":0,"type":"channel","subtype":"noteOff","noteNumber":55,"velocity":0},{"deltaTime":479,"channel":0,"type":"channel","subtype":"noteOff","noteNumber":53,"velocity":0},{"deltaTime":31,"channel":0,"type":"channel","subtype":"noteOff","noteNumber":63,"velocity":0},{"deltaTime":49,"channel":0,"type":"channel","subtype":"noteOff","noteNumber":61,"velocity":0},{"deltaTime":93,"channel":0,"type":"channel","subtype":"noteOff","noteNumber":39,"velocity":0},{"deltaTime":214,"channel":0,"type":"channel","subtype":"noteOff","noteNumber":44,"velocity":0},{"deltaTime":50,"channel":0,"type":"channel","subtype":"noteOff","noteNumber":48,"velocity":0},{"deltaTime":62,"channel":0,"type":"channel","subtype":"noteOff","noteNumber":64,"velocity":0},{"deltaTime":214,"channel":0,"type":"channel","subtype":"noteOff","noteNumber":65,"velocity":0},{"deltaTime":1753,"channel":0,"type":"channel","subtype":"noteOff","noteNumber":36,"velocity":0},{"deltaTime":1181,"channel":0,"type":"channel","noteNumber":54,"velocity":75,"subtype":"noteOn"},{"deltaTime":184,"channel":0,"type":"channel","noteNumber":66,"velocity":76,"subtype":"noteOn"},{"deltaTime":1876,"channel":0,"type":"channel","subtype":"noteOff","noteNumber":54,"velocity":0},{"deltaTime":529,"channel":0,"type":"channel","subtype":"noteOff","noteNumber":66,"velocity":0},{"deltaTime":2263,"channel":0,"type":"channel","subtype":"controller","controllerType":64,"value":120},{"deltaTime":172,"channel":0,"type":"channel","subtype":"controller","controllerType":64,"value":56},{"deltaTime":123,"channel":0,"type":"channel","subtype":"controller","controllerType":64,"value":0},{"deltaTime":713,"channel":0,"type":"channel","noteNumber":37,"velocity":84,"subtype":"noteOn"},{"deltaTime":234,"channel":0,"type":"channel","noteNumber":27,"velocity":89,"subtype":"noteOn"},{"deltaTime":184,"channel":0,"type":"channel","noteNumber":39,"velocity":84,"subtype":"noteOn"},{"deltaTime":172,"channel":0,"type":"channel","noteNumber":70,"velocity":89,"subtype":"noteOn"},{"deltaTime":185,"channel":0,"type":"channel","noteNumber":58,"velocity":92,"subtype":"noteOn"},{"deltaTime":203,"channel":0,"type":"channel","noteNumber":63,"velocity":73,"subtype":"noteOn"},{"deltaTime":184,"channel":0,"type":"channel","noteNumber":26,"velocity":64,"subtype":"noteOn"},{"deltaTime":142,"channel":0,"type":"channel","noteNumber":68,"velocity":66,"subtype":"noteOn"},{"deltaTime":276,"channel":0,"type":"channel","subtype":"controller","controllerType":64,"value":56},{"deltaTime":80,"channel":0,"type":"channel","subtype":"controller","controllerType":64,"value":120},{"deltaTime":32,"channel":0,"type":"channel","subtype":"controller","controllerType":64,"value":127},{"deltaTime":183,"channel":0,"type":"channel","subtype":"noteOff","noteNumber":63,"velocity":0},{"deltaTime":31,"channel":0,"type":"channel","subtype":"noteOff","noteNumber":26,"velocity":0},{"deltaTime":111,"channel":0,"type":"channel","subtype":"noteOff","noteNumber":68,"velocity":0},{"deltaTime":959,"channel":0,"type":"channel","subtype":"noteOff","noteNumber":39,"velocity":0},{"deltaTime":2140,"channel":0,"type":"channel","subtype":"noteOff","noteNumber":37,"velocity":0},{"deltaTime":947,"channel":0,"type":"channel","noteNumber":34,"velocity":58,"subtype":"noteOn"},{"deltaTime":744,"channel":0,"type":"channel","subtype":"noteOff","noteNumber":27,"velocity":0},{"deltaTime":1519,"channel":0,"type":"channel","subtype":"noteOff","noteNumber":58,"velocity":0},{"deltaTime":357,"channel":0,"type":"channel","subtype":"noteOff","noteNumber":70,"velocity":0},{"deltaTime":1039,"channel":0,"type":"channel","subtype":"noteOff","noteNumber":34,"velocity":0},{"deltaTime":2435,"channel":0,"type":"channel","subtype":"controller","controllerType":64,"value":120},{"deltaTime":153,"channel":0,"type":"channel","subtype":"controller","controllerType":64,"value":56},{"deltaTime":81,"channel":0,"type":"channel","subtype":"controller","controllerType":64,"value":0},{"deltaTime":184,"channel":0,"type":"channel","noteNumber":27,"velocity":84,"subtype":"noteOn"},{"deltaTime":204,"channel":0,"type":"channel","noteNumber":39,"velocity":93,"subtype":"noteOn"},{"deltaTime":122,"channel":0,"type":"channel","noteNumber":70,"velocity":92,"subtype":"noteOn"},{"deltaTime":204,"channel":0,"type":"channel","noteNumber":58,"velocity":95,"subtype":"noteOn"},{"deltaTime":214,"channel":0,"type":"channel","noteNumber":68,"velocity":73,"subtype":"noteOn"},{"deltaTime":111,"channel":0,"type":"channel","noteNumber":30,"velocity":61,"subtype":"noteOn"},{"deltaTime":215,"channel":0,"type":"channel","noteNumber":63,"velocity":75,"subtype":"noteOn"},{"deltaTime":204,"channel":0,"type":"channel","noteNumber":66,"velocity":46,"subtype":"noteOn"},{"deltaTime":214,"channel":0,"type":"channel","subtype":"controller","controllerType":64,"value":56},{"deltaTime":142,"channel":0,"type":"channel","subtype":"controller","controllerType":64,"value":120},{"deltaTime":31,"channel":0,"type":"channel","subtype":"controller","controllerType":64,"value":127},{"deltaTime":61,"channel":0,"type":"channel","subtype":"noteOff","noteNumber":68,"velocity":0},{"deltaTime":0,"channel":0,"type":"channel","subtype":"noteOff","noteNumber":30,"velocity":0},{"deltaTime":61,"channel":0,"type":"channel","subtype":"noteOff","noteNumber":63,"velocity":0},{"deltaTime":499,"channel":0,"type":"channel","subtype":"noteOff","noteNumber":66,"velocity":0},{"deltaTime":1641,"channel":0,"type":"channel","subtype":"noteOff","noteNumber":39,"velocity":0},{"deltaTime":326,"channel":0,"type":"channel","subtype":"noteOff","noteNumber":27,"velocity":0},{"deltaTime":1692,"channel":0,"type":"channel","noteNumber":66,"velocity":52,"subtype":"noteOn"},{"deltaTime":184,"channel":0,"type":"channel","noteNumber":34,"velocity":60,"subtype":"noteOn"},{"deltaTime":590,"channel":0,"type":"channel","subtype":"noteOff","noteNumber":70,"velocity":0},{"deltaTime":1753,"channel":0,"type":"channel","subtype":"noteOff","noteNumber":58,"velocity":0},{"deltaTime":1427,"channel":0,"type":"channel","subtype":"noteOff","noteNumber":34,"velocity":0},{"deltaTime":184,"channel":0,"type":"channel","subtype":"noteOff","noteNumber":66,"velocity":0},{"deltaTime":2282,"channel":0,"type":"channel","noteNumber":58,"velocity":64,"subtype":"noteOn"},{"deltaTime":1814,"channel":0,"type":"channel","noteNumber":39,"velocity":43,"subtype":"noteOn"},{"deltaTime":1272,"channel":0,"type":"channel","subtype":"noteOff","noteNumber":39,"velocity":0},{"deltaTime":959,"channel":0,"type":"channel","subtype":"noteOff","noteNumber":58,"velocity":0},{"deltaTime":1957,"channel":0,"type":"channel","subtype":"controller","controllerType":64,"value":120},{"deltaTime":153,"channel":0,"type":"channel","subtype":"controller","controllerType":64,"value":56},{"deltaTime":141,"channel":0,"type":"channel","subtype":"controller","controllerType":64,"value":0},{"deltaTime":338,"channel":0,"type":"channel","noteNumber":58,"velocity":85,"subtype":"noteOn"},{"deltaTime":111,"channel":0,"type":"channel","noteNumber":39,"velocity":84,"subtype":"noteOn"},{"deltaTime":215,"channel":0,"type":"channel","noteNumber":70,"velocity":84,"subtype":"noteOn"},{"deltaTime":203,"channel":0,"type":"channel","noteNumber":27,"velocity":81,"subtype":"noteOn"},{"deltaTime":184,"channel":0,"type":"channel","noteNumber":63,"velocity":81,"subtype":"noteOn"},{"deltaTime":204,"channel":0,"type":"channel","noteNumber":66,"velocity":52,"subtype":"noteOn"},{"deltaTime":172,"channel":0,"type":"channel","noteNumber":68,"velocity":59,"subtype":"noteOn"},{"deltaTime":246,"channel":0,"type":"channel","subtype":"controller","controllerType":64,"value":56},{"deltaTime":141,"channel":0,"type":"channel","subtype":"controller","controllerType":64,"value":120},{"deltaTime":31,"channel":0,"type":"channel","subtype":"noteOff","noteNumber":63,"velocity":0},{"deltaTime":31,"channel":0,"type":"channel","subtype":"controller","controllerType":64,"value":127},{"deltaTime":295,"channel":0,"type":"channel","subtype":"noteOff","noteNumber":66,"velocity":0},{"deltaTime":123,"channel":0,"type":"channel","subtype":"noteOff","noteNumber":68,"velocity":0},{"deltaTime":3302,"channel":0,"type":"channel","subtype":"noteOff","noteNumber":39,"velocity":0},{"deltaTime":449,"channel":0,"type":"channel","noteNumber":66,"velocity":48,"subtype":"noteOn"},{"deltaTime":111,"channel":0,"type":"channel","noteNumber":34,"velocity":67,"subtype":"noteOn"},{"deltaTime":326,"channel":0,"type":"channel","subtype":"noteOff","noteNumber":70,"velocity":0},{"deltaTime":245,"channel":0,"type":"channel","subtype":"noteOff","noteNumber":27,"velocity":0},{"deltaTime":326,"channel":0,"type":"channel","subtype":"noteOff","noteNumber":58,"velocity":0},{"deltaTime":1814,"channel":0,"type":"channel","subtype":"noteOff","noteNumber":66,"velocity":0},{"deltaTime":763,"channel":0,"type":"channel","subtype":"noteOff","noteNumber":34,"velocity":0},{"deltaTime":990,"channel":0,"type":"channel","subtype":"controller","controllerType":64,"value":120},{"deltaTime":173,"channel":0,"type":"channel","subtype":"controller","controllerType":64,"value":56},{"deltaTime":122,"channel":0,"type":"channel","subtype":"controller","controllerType":64,"value":0},{"deltaTime":622,"channel":0,"type":"channel","noteNumber":70,"velocity":88,"subtype":"noteOn"},{"deltaTime":153,"channel":0,"type":"channel","noteNumber":58,"velocity":87,"subtype":"noteOn"},{"deltaTime":437,"channel":0,"type":"channel","noteNumber":39,"velocity":93,"subtype":"noteOn"},{"deltaTime":184,"channel":0,"type":"channel","noteNumber":27,"velocity":84,"subtype":"noteOn"},{"deltaTime":142,"channel":0,"type":"channel","noteNumber":68,"velocity":62,"subtype":"noteOn"},{"deltaTime":184,"channel":0,"type":"channel","noteNumber":63,"velocity":62,"subtype":"noteOn"},{"deltaTime":234,"channel":0,"type":"channel","noteNumber":30,"velocity":64,"subtype":"noteOn"},{"deltaTime":184,"channel":0,"type":"channel","subtype":"controller","controllerType":64,"value":56},{"deltaTime":172,"channel":0,"type":"channel","subtype":"controller","controllerType":64,"value":120},{"deltaTime":32,"channel":0,"type":"channel","subtype":"noteOff","noteNumber":68,"velocity":0},{"deltaTime":30,"channel":0,"type":"channel","subtype":"noteOff","noteNumber":63,"velocity":0},{"deltaTime":31,"channel":0,"type":"channel","subtype":"controller","controllerType":64,"value":127},{"deltaTime":357,"channel":0,"type":"channel","subtype":"noteOff","noteNumber":30,"velocity":0},{"deltaTime":3781,"channel":0,"type":"channel","noteNumber":66,"velocity":48,"subtype":"noteOn"},{"deltaTime":356,"channel":0,"type":"channel","noteNumber":34,"velocity":63,"subtype":"noteOn"},{"deltaTime":296,"channel":0,"type":"channel","subtype":"noteOff","noteNumber":39,"velocity":0},{"deltaTime":356,"channel":0,"type":"channel","subtype":"noteOff","noteNumber":27,"velocity":0},{"deltaTime":234,"channel":0,"type":"channel","subtype":"noteOff","noteNumber":70,"velocity":0},{"deltaTime":947,"channel":0,"type":"channel","subtype":"noteOff","noteNumber":58,"velocity":0},{"deltaTime":1458,"channel":0,"type":"channel","subtype":"noteOff","noteNumber":66,"velocity":0},{"deltaTime":153,"channel":0,"type":"channel","subtype":"noteOff","noteNumber":34,"velocity":0},{"deltaTime":2312,"channel":0,"type":"channel","noteNumber":70,"velocity":93,"subtype":"noteOn"},{"deltaTime":185,"channel":0,"type":"channel","noteNumber":58,"velocity":85,"subtype":"noteOn"},{"deltaTime":203,"channel":0,"type":"channel","noteNumber":39,"velocity":84,"subtype":"noteOn"},{"deltaTime":184,"channel":0,"type":"channel","noteNumber":27,"velocity":81,"subtype":"noteOn"},{"deltaTime":173,"channel":0,"type":"channel","noteNumber":68,"velocity":48,"subtype":"noteOn"},{"deltaTime":1193,"channel":0,"type":"channel","subtype":"noteOff","noteNumber":68,"velocity":0},{"deltaTime":682,"channel":0,"type":"channel","subtype":"noteOff","noteNumber":58,"velocity":0},{"deltaTime":234,"channel":0,"type":"channel","subtype":"noteOff","noteNumber":70,"velocity":0},{"deltaTime":276,"channel":0,"type":"channel","subtype":"noteOff","noteNumber":39,"velocity":0},{"deltaTime":794,"channel":0,"type":"channel","subtype":"noteOff","noteNumber":27,"velocity":0},{"deltaTime":1703,"channel":0,"type":"channel","noteNumber":34,"velocity":75,"subtype":"noteOn"},{"deltaTime":203,"channel":0,"type":"channel","noteNumber":68,"velocity":60,"subtype":"noteOn"},{"deltaTime":184,"channel":0,"type":"channel","noteNumber":56,"velocity":82,"subtype":"noteOn"},{"deltaTime":173,"channel":0,"type":"channel","noteNumber":66,"velocity":70,"subtype":"noteOn"},{"deltaTime":590,"channel":0,"type":"channel","subtype":"noteOff","noteNumber":68,"velocity":0},{"deltaTime":744,"channel":0,"type":"channel","subtype":"noteOff","noteNumber":56,"velocity":0},{"deltaTime":357,"channel":0,"type":"channel","subtype":"noteOff","noteNumber":66,"velocity":0},{"deltaTime":1101,"channel":0,"type":"channel","subtype":"noteOff","noteNumber":34,"velocity":0},{"deltaTime":2711,"channel":0,"type":"channel","noteNumber":56,"velocity":75,"subtype":"noteOn"},{"deltaTime":173,"channel":0,"type":"channel","noteNumber":68,"velocity":61,"subtype":"noteOn"},{"deltaTime":184,"channel":0,"type":"channel","noteNumber":27,"velocity":76,"subtype":"noteOn"},{"deltaTime":234,"channel":0,"type":"channel","noteNumber":39,"velocity":80,"subtype":"noteOn"},{"deltaTime":387,"channel":0,"type":"channel","subtype":"noteOff","noteNumber":56,"velocity":0},{"deltaTime":92,"channel":0,"type":"channel","subtype":"noteOff","noteNumber":68,"velocity":0},{"deltaTime":1925,"channel":0,"type":"channel","subtype":"noteOff","noteNumber":39,"velocity":0},{"deltaTime":215,"channel":0,"type":"channel","subtype":"noteOff","noteNumber":27,"velocity":0},{"deltaTime":2374,"channel":0,"type":"channel","noteNumber":54,"velocity":89,"subtype":"noteOn"},{"deltaTime":172,"channel":0,"type":"channel","noteNumber":66,"velocity":79,"subtype":"noteOn"},{"deltaTime":215,"channel":0,"type":"channel","noteNumber":34,"velocity":78,"subtype":"noteOn"},{"deltaTime":234,"channel":0,"type":"channel","noteNumber":39,"velocity":69,"subtype":"noteOn"},{"deltaTime":775,"channel":0,"type":"channel","subtype":"noteOff","noteNumber":34,"velocity":0},{"deltaTime":448,"channel":0,"type":"channel","subtype":"noteOff","noteNumber":39,"velocity":0},{"deltaTime":173,"channel":0,"type":"channel","noteNumber":35,"velocity":39,"subtype":"noteOn"},{"deltaTime":184,"channel":0,"type":"channel","subtype":"noteOff","noteNumber":54,"velocity":0},{"deltaTime":295,"channel":0,"type":"channel","subtype":"noteOff","noteNumber":66,"velocity":0},{"deltaTime":714,"channel":0,"type":"channel","subtype":"noteOff","noteNumber":35,"velocity":0},{"deltaTime":2527,"channel":0,"type":"channel","noteNumber":39,"velocity":82,"subtype":"noteOn"},{"deltaTime":234,"channel":0,"type":"channel","noteNumber":68,"velocity":80,"subtype":"noteOn"},{"deltaTime":184,"channel":0,"type":"channel","noteNumber":56,"velocity":70,"subtype":"noteOn"},{"deltaTime":203,"channel":0,"type":"channel","noteNumber":27,"velocity":67,"subtype":"noteOn"},{"deltaTime":184,"channel":0,"type":"channel","noteNumber":58,"velocity":57,"subtype":"noteOn"},{"deltaTime":204,"channel":0,"type":"channel","noteNumber":30,"velocity":38,"subtype":"noteOn"},{"deltaTime":264,"channel":0,"type":"channel","subtype":"noteOff","noteNumber":68,"velocity":0},{"deltaTime":123,"channel":0,"type":"channel","subtype":"noteOff","noteNumber":56,"velocity":0},{"deltaTime":326,"channel":0,"type":"channel","subtype":"noteOff","noteNumber":58,"velocity":0},{"deltaTime":713,"channel":0,"type":"channel","subtype":"noteOff","noteNumber":30,"velocity":0},{"deltaTime":541,"channel":0,"type":"channel","subtype":"noteOff","noteNumber":39,"velocity":0},{"deltaTime":203,"channel":0,"type":"channel","subtype":"noteOff","noteNumber":27,"velocity":0},{"deltaTime":2823,"channel":0,"type":"channel","noteNumber":34,"velocity":79,"subtype":"noteOn"},{"deltaTime":203,"channel":0,"type":"channel","noteNumber":70,"velocity":75,"subtype":"noteOn"},{"deltaTime":123,"channel":0,"type":"channel","noteNumber":58,"velocity":84,"subtype":"noteOn"},{"deltaTime":264,"channel":0,"type":"channel","noteNumber":68,"velocity":72,"subtype":"noteOn"},{"deltaTime":541,"channel":0,"type":"channel","noteNumber":71,"velocity":38,"subtype":"noteOn"},{"deltaTime":234,"channel":0,"type":"channel","noteNumber":30,"velocity":26,"subtype":"noteOn"},{"deltaTime":245,"channel":0,"type":"channel","subtype":"noteOff","noteNumber":68,"velocity":0},{"deltaTime":948,"channel":0,"type":"channel","subtype":"noteOff","noteNumber":71,"velocity":0},{"deltaTime":61,"channel":0,"type":"channel","subtype":"noteOff","noteNumber":58,"velocity":0},{"deltaTime":234,"channel":0,"type":"channel","subtype":"noteOff","noteNumber":30,"velocity":0},{"deltaTime":123,"channel":0,"type":"channel","subtype":"noteOff","noteNumber":70,"velocity":0},{"deltaTime":855,"channel":0,"type":"channel","subtype":"noteOff","noteNumber":34,"velocity":0},{"deltaTime":2109,"channel":0,"type":"channel","noteNumber":39,"velocity":84,"subtype":"noteOn"},{"deltaTime":215,"channel":0,"type":"channel","noteNumber":58,"velocity":58,"subtype":"noteOn"},{"deltaTime":173,"channel":0,"type":"channel","noteNumber":63,"velocity":51,"subtype":"noteOn"},{"deltaTime":184,"channel":0,"type":"channel","noteNumber":34,"velocity":55,"subtype":"noteOn"},{"deltaTime":173,"channel":0,"type":"channel","noteNumber":66,"velocity":25,"subtype":"noteOn"},{"deltaTime":214,"channel":0,"type":"channel","noteNumber":30,"velocity":40,"subtype":"noteOn"},{"deltaTime":142,"channel":0,"type":"channel","noteNumber":27,"velocity":36,"subtype":"noteOn"},{"deltaTime":215,"channel":0,"type":"channel","subtype":"noteOff","noteNumber":58,"velocity":0},{"deltaTime":61,"channel":0,"type":"channel","subtype":"noteOff","noteNumber":63,"velocity":0},{"deltaTime":49,"channel":0,"type":"channel","subtype":"noteOff","noteNumber":34,"velocity":0},{"deltaTime":634,"channel":0,"type":"channel","subtype":"noteOff","noteNumber":30,"velocity":0},{"deltaTime":326,"channel":0,"type":"channel","subtype":"noteOff","noteNumber":66,"velocity":0},{"deltaTime":110,"channel":0,"type":"channel","subtype":"noteOff","noteNumber":27,"velocity":0},{"deltaTime":277,"channel":0,"type":"channel","subtype":"noteOff","noteNumber":39,"velocity":0},{"deltaTime":1243,"channel":0,"type":"channel","subtype":"controller","controllerType":64,"value":120},{"deltaTime":153,"channel":0,"type":"channel","subtype":"controller","controllerType":64,"value":56},{"deltaTime":111,"channel":0,"type":"channel","subtype":"controller","controllerType":64,"value":0},{"deltaTime":1396,"channel":0,"type":"channel","noteNumber":39,"velocity":90,"subtype":"noteOn"},{"deltaTime":184,"channel":0,"type":"channel","noteNumber":70,"velocity":89,"subtype":"noteOn"},{"deltaTime":172,"channel":0,"type":"channel","noteNumber":27,"velocity":84,"subtype":"noteOn"},{"deltaTime":216,"channel":0,"type":"channel","noteNumber":58,"velocity":93,"subtype":"noteOn"},{"deltaTime":172,"channel":0,"type":"channel","noteNumber":68,"velocity":78,"subtype":"noteOn"},{"deltaTime":184,"channel":0,"type":"channel","noteNumber":63,"velocity":85,"subtype":"noteOn"},{"deltaTime":172,"channel":0,"type":"channel","noteNumber":30,"velocity":74,"subtype":"noteOn"},{"deltaTime":154,"channel":0,"type":"channel","noteNumber":66,"velocity":75,"subtype":"noteOn"},{"deltaTime":203,"channel":0,"type":"channel","noteNumber":34,"velocity":71,"subtype":"noteOn"},{"deltaTime":215,"channel":0,"type":"channel","subtype":"noteOff","noteNumber":68,"velocity":0},{"deltaTime":92,"channel":0,"type":"channel","subtype":"noteOff","noteNumber":30,"velocity":0},{"deltaTime":142,"channel":0,"type":"channel","subtype":"noteOff","noteNumber":66,"velocity":0},{"deltaTime":92,"channel":0,"type":"channel","subtype":"noteOff","noteNumber":63,"velocity":0},{"deltaTime":172,"channel":0,"type":"channel","subtype":"noteOff","noteNumber":34,"velocity":0},{"deltaTime":216,"channel":0,"type":"channel","subtype":"controller","controllerType":64,"value":56},{"deltaTime":141,"channel":0,"type":"channel","subtype":"controller","controllerType":64,"value":120},{"deltaTime":31,"channel":0,"type":"channel","subtype":"controller","controllerType":64,"value":127},{"deltaTime":2742,"channel":0,"type":"channel","subtype":"noteOff","noteNumber":39,"velocity":0},{"deltaTime":295,"channel":0,"type":"channel","subtype":"noteOff","noteNumber":27,"velocity":0},{"deltaTime":142,"channel":0,"type":"channel","noteNumber":66,"velocity":59,"subtype":"noteOn"},{"deltaTime":215,"channel":0,"type":"channel","noteNumber":30,"velocity":18,"subtype":"noteOn"},{"deltaTime":142,"channel":0,"type":"channel","noteNumber":34,"velocity":61,"subtype":"noteOn"},{"deltaTime":510,"channel":0,"type":"channel","subtype":"noteOff","noteNumber":70,"velocity":0},{"deltaTime":1039,"channel":0,"type":"channel","subtype":"noteOff","noteNumber":58,"velocity":0},{"deltaTime":327,"channel":0,"type":"channel","subtype":"noteOff","noteNumber":30,"velocity":0},{"deltaTime":805,"channel":0,"type":"channel","subtype":"noteOff","noteNumber":66,"velocity":0},{"deltaTime":326,"channel":0,"type":"channel","subtype":"noteOff","noteNumber":34,"velocity":0},{"deltaTime":1783,"channel":0,"type":"channel","subtype":"controller","controllerType":64,"value":120},{"deltaTime":153,"channel":0,"type":"channel","subtype":"controller","controllerType":64,"value":56},{"deltaTime":81,"channel":0,"type":"channel","subtype":"controller","controllerType":64,"value":0},{"deltaTime":1193,"channel":0,"type":"channel","noteNumber":70,"velocity":85,"subtype":"noteOn"},{"deltaTime":202,"channel":0,"type":"channel","noteNumber":58,"velocity":87,"subtype":"noteOn"},{"deltaTime":185,"channel":0,"type":"channel","noteNumber":27,"velocity":84,"subtype":"noteOn"},{"deltaTime":203,"channel":0,"type":"channel","noteNumber":39,"velocity":90,"subtype":"noteOn"},{"deltaTime":184,"channel":0,"type":"channel","noteNumber":68,"velocity":66,"subtype":"noteOn"},{"deltaTime":173,"channel":0,"type":"channel","noteNumber":66,"velocity":61,"subtype":"noteOn"},{"deltaTime":184,"channel":0,"type":"channel","noteNumber":30,"velocity":76,"subtype":"noteOn"},{"deltaTime":234,"channel":0,"type":"channel","noteNumber":63,"velocity":63,"subtype":"noteOn"},{"deltaTime":184,"channel":0,"type":"channel","noteNumber":65,"velocity":49,"subtype":"noteOn"},{"deltaTime":173,"channel":0,"type":"channel","subtype":"noteOff","noteNumber":66,"velocity":0},{"deltaTime":92,"channel":0,"type":"channel","subtype":"noteOff","noteNumber":68,"velocity":0},{"deltaTime":172,"channel":0,"type":"channel","subtype":"noteOff","noteNumber":63,"velocity":0},{"deltaTime":154,"channel":0,"type":"channel","subtype":"noteOff","noteNumber":30,"velocity":0},{"deltaTime":92,"channel":0,"type":"channel","subtype":"noteOff","noteNumber":65,"velocity":0},{"deltaTime":234,"channel":0,"type":"channel","subtype":"controller","controllerType":64,"value":56},{"deltaTime":122,"channel":0,"type":"channel","subtype":"controller","controllerType":64,"value":120},{"deltaTime":31,"channel":0,"type":"channel","subtype":"controller","controllerType":64,"value":127},{"deltaTime":1304,"channel":0,"type":"channel","subtype":"noteOff","noteNumber":39,"velocity":0},{"deltaTime":31,"channel":0,"type":"channel","noteNumber":68,"velocity":23,"subtype":"noteOn"},{"deltaTime":1396,"channel":0,"type":"channel","noteNumber":66,"velocity":37,"subtype":"noteOn"},{"deltaTime":356,"channel":0,"type":"channel","noteNumber":34,"velocity":57,"subtype":"noteOn"},{"deltaTime":203,"channel":0,"type":"channel","noteNumber":30,"velocity":32,"subtype":"noteOn"},{"deltaTime":683,"channel":0,"type":"channel","subtype":"noteOff","noteNumber":70,"velocity":0},{"deltaTime":30,"channel":0,"type":"channel","subtype":"noteOff","noteNumber":58,"velocity":0},{"deltaTime":62,"channel":0,"type":"channel","subtype":"noteOff","noteNumber":27,"velocity":0},{"deltaTime":123,"channel":0,"type":"channel","subtype":"noteOff","noteNumber":68,"velocity":0},{"deltaTime":529,"channel":0,"type":"channel","subtype":"noteOff","noteNumber":30,"velocity":0},{"deltaTime":1814,"channel":0,"type":"channel","subtype":"noteOff","noteNumber":34,"velocity":0},{"deltaTime":959,"channel":0,"type":"channel","subtype":"noteOff","noteNumber":66,"velocity":0},{"deltaTime":1894,"channel":0,"type":"channel","noteNumber":58,"velocity":80,"subtype":"noteOn"},{"deltaTime":326,"channel":0,"type":"channel","noteNumber":39,"velocity":80,"subtype":"noteOn"},{"deltaTime":356,"channel":0,"type":"channel","noteNumber":27,"velocity":63,"subtype":"noteOn"},{"deltaTime":960,"channel":0,"type":"channel","subtype":"noteOff","noteNumber":39,"velocity":0},{"deltaTime":80,"channel":0,"type":"channel","subtype":"noteOff","noteNumber":27,"velocity":0},{"deltaTime":898,"channel":0,"type":"channel","subtype":"noteOff","noteNumber":58,"velocity":0},{"deltaTime":2668,"channel":0,"type":"channel","subtype":"controller","controllerType":64,"value":120},{"deltaTime":154,"channel":0,"type":"channel","subtype":"controller","controllerType":64,"value":56},{"deltaTime":92,"channel":0,"type":"channel","subtype":"controller","controllerType":64,"value":0},{"deltaTime":498,"channel":0,"type":"channel","noteNumber":39,"velocity":85,"subtype":"noteOn"},{"deltaTime":185,"channel":0,"type":"channel","noteNumber":58,"velocity":90,"subtype":"noteOn"},{"deltaTime":203,"channel":0,"type":"channel","noteNumber":27,"velocity":84,"subtype":"noteOn"},{"deltaTime":215,"channel":0,"type":"channel","noteNumber":70,"velocity":85,"subtype":"noteOn"},{"deltaTime":173,"channel":0,"type":"channel","noteNumber":66,"velocity":69,"subtype":"noteOn"},{"deltaTime":184,"channel":0,"type":"channel","noteNumber":65,"velocity":55,"subtype":"noteOn"},{"deltaTime":110,"channel":0,"type":"channel","noteNumber":63,"velocity":52,"subtype":"noteOn"},{"deltaTime":216,"channel":0,"type":"channel","noteNumber":68,"velocity":47,"subtype":"noteOn"},{"deltaTime":203,"channel":0,"type":"channel","noteNumber":30,"velocity":48,"subtype":"noteOn"},{"deltaTime":153,"channel":0,"type":"channel","subtype":"noteOff","noteNumber":66,"velocity":0},{"deltaTime":204,"channel":0,"type":"channel","subtype":"controller","controllerType":64,"value":56},{"deltaTime":122,"channel":0,"type":"channel","subtype":"controller","controllerType":64,"value":120},{"deltaTime":31,"channel":0,"type":"channel","subtype":"noteOff","noteNumber":65,"velocity":0},{"deltaTime":31,"channel":0,"type":"channel","subtype":"noteOff","noteNumber":63,"velocity":0},{"deltaTime":30,"channel":0,"type":"channel","subtype":"controller","controllerType":64,"value":127},{"deltaTime":112,"channel":0,"type":"channel","subtype":"noteOff","noteNumber":68,"velocity":0},{"deltaTime":92,"channel":0,"type":"channel","subtype":"noteOff","noteNumber":30,"velocity":0},{"deltaTime":1426,"channel":0,"type":"channel","subtype":"noteOff","noteNumber":39,"velocity":0},{"deltaTime":2171,"channel":0,"type":"channel","subtype":"noteOff","noteNumber":58,"velocity":0},{"deltaTime":61,"channel":0,"type":"channel","noteNumber":34,"velocity":49,"subtype":"noteOn"},{"deltaTime":173,"channel":0,"type":"channel","noteNumber":66,"velocity":52,"subtype":"noteOn"},{"deltaTime":540,"channel":0,"type":"channel","subtype":"noteOff","noteNumber":27,"velocity":0},{"deltaTime":31,"channel":0,"type":"channel","subtype":"noteOff","noteNumber":70,"velocity":0},{"deltaTime":886,"channel":0,"type":"channel","noteNumber":33,"velocity":31,"subtype":"noteOn"},{"deltaTime":1008,"channel":0,"type":"channel","subtype":"noteOff","noteNumber":66,"velocity":0},{"deltaTime":388,"channel":0,"type":"channel","subtype":"noteOff","noteNumber":34,"velocity":0},{"deltaTime":123,"channel":0,"type":"channel","subtype":"noteOff","noteNumber":33,"velocity":0},{"deltaTime":2078,"channel":0,"type":"channel","subtype":"controller","controllerType":64,"value":120},{"deltaTime":184,"channel":0,"type":"channel","subtype":"controller","controllerType":64,"value":56},{"deltaTime":112,"channel":0,"type":"channel","subtype":"controller","controllerType":64,"value":0},{"deltaTime":479,"channel":0,"type":"channel","noteNumber":70,"velocity":85,"subtype":"noteOn"},{"deltaTime":172,"channel":0,"type":"channel","noteNumber":27,"velocity":80,"subtype":"noteOn"},{"deltaTime":185,"channel":0,"type":"channel","noteNumber":58,"velocity":93,"subtype":"noteOn"},{"deltaTime":234,"channel":0,"type":"channel","noteNumber":39,"velocity":84,"subtype":"noteOn"},{"deltaTime":184,"channel":0,"type":"channel","noteNumber":68,"velocity":65,"subtype":"noteOn"},{"deltaTime":172,"channel":0,"type":"channel","noteNumber":30,"velocity":60,"subtype":"noteOn"},{"deltaTime":184,"channel":0,"type":"channel","noteNumber":63,"velocity":62,"subtype":"noteOn"},{"deltaTime":204,"channel":0,"type":"channel","noteNumber":66,"velocity":49,"subtype":"noteOn"},{"deltaTime":214,"channel":0,"type":"channel","subtype":"controller","controllerType":64,"value":56},{"deltaTime":142,"channel":0,"type":"channel","subtype":"controller","controllerType":64,"value":120},{"deltaTime":31,"channel":0,"type":"channel","subtype":"noteOff","noteNumber":30,"velocity":0},{"deltaTime":31,"channel":0,"type":"channel","subtype":"noteOff","noteNumber":63,"velocity":0},{"deltaTime":61,"channel":0,"type":"channel","subtype":"controller","controllerType":64,"value":127},{"deltaTime":61,"channel":0,"type":"channel","subtype":"noteOff","noteNumber":66,"velocity":0},{"deltaTime":142,"channel":0,"type":"channel","subtype":"noteOff","noteNumber":68,"velocity":0},{"deltaTime":1316,"channel":0,"type":"channel","subtype":"noteOff","noteNumber":39,"velocity":0},{"deltaTime":947,"channel":0,"type":"channel","subtype":"noteOff","noteNumber":27,"velocity":0},{"deltaTime":559,"channel":0,"type":"channel","subtype":"noteOff","noteNumber":58,"velocity":0},{"deltaTime":960,"channel":0,"type":"channel","noteNumber":66,"velocity":58,"subtype":"noteOn"},{"deltaTime":652,"channel":0,"type":"channel","subtype":"noteOff","noteNumber":70,"velocity":0},{"deltaTime":141,"channel":0,"type":"channel","noteNumber":34,"velocity":65,"subtype":"noteOn"},{"deltaTime":2527,"channel":0,"type":"channel","subtype":"noteOff","noteNumber":66,"velocity":0},{"deltaTime":714,"channel":0,"type":"channel","subtype":"noteOff","noteNumber":34,"velocity":0},{"deltaTime":1814,"channel":0,"type":"channel","noteNumber":58,"velocity":85,"subtype":"noteOn"},{"deltaTime":184,"channel":0,"type":"channel","noteNumber":39,"velocity":84,"subtype":"noteOn"},{"deltaTime":173,"channel":0,"type":"channel","noteNumber":70,"velocity":81,"subtype":"noteOn"},{"deltaTime":184,"channel":0,"type":"channel","noteNumber":34,"velocity":44,"subtype":"noteOn"},{"deltaTime":448,"channel":0,"type":"channel","noteNumber":68,"velocity":41,"subtype":"noteOn"},{"deltaTime":794,"channel":0,"type":"channel","subtype":"noteOff","noteNumber":34,"velocity":0},{"deltaTime":510,"channel":0,"type":"channel","subtype":"noteOff","noteNumber":68,"velocity":0},{"deltaTime":388,"channel":0,"type":"channel","subtype":"noteOff","noteNumber":58,"velocity":0},{"deltaTime":61,"channel":0,"type":"channel","subtype":"noteOff","noteNumber":39,"velocity":0},{"deltaTime":437,"channel":0,"type":"channel","subtype":"noteOff","noteNumber":70,"velocity":0},{"deltaTime":2650,"channel":0,"type":"channel","noteNumber":66,"velocity":66,"subtype":"noteOn"},{"deltaTime":172,"channel":0,"type":"channel","noteNumber":58,"velocity":52,"subtype":"noteOn"},{"deltaTime":1132,"channel":0,"type":"channel","subtype":"noteOff","noteNumber":58,"velocity":0},{"deltaTime":2171,"channel":0,"type":"channel","subtype":"noteOff","noteNumber":66,"velocity":0},{"deltaTime":1967,"channel":0,"type":"channel","noteNumber":59,"velocity":79,"subtype":"noteOn"},{"deltaTime":265,"channel":0,"type":"channel","noteNumber":71,"velocity":63,"subtype":"noteOn"},{"deltaTime":326,"channel":0,"type":"channel","noteNumber":54,"velocity":70,"subtype":"noteOn"},{"deltaTime":1783,"channel":0,"type":"channel","subtype":"noteOff","noteNumber":59,"velocity":0},{"deltaTime":479,"channel":0,"type":"channel","subtype":"noteOff","noteNumber":71,"velocity":0},{"deltaTime":1661,"channel":0,"type":"channel","subtype":"noteOff","noteNumber":54,"velocity":0},{"deltaTime":1986,"channel":0,"type":"channel","noteNumber":61,"velocity":82,"subtype":"noteOn"},{"deltaTime":185,"channel":0,"type":"channel","noteNumber":73,"velocity":81,"subtype":"noteOn"},{"deltaTime":202,"channel":0,"type":"channel","noteNumber":51,"velocity":68,"subtype":"noteOn"},{"deltaTime":1489,"channel":0,"type":"channel","subtype":"noteOff","noteNumber":61,"velocity":0},{"deltaTime":928,"channel":0,"type":"channel","subtype":"noteOff","noteNumber":73,"velocity":0},{"deltaTime":2220,"channel":0,"type":"channel","subtype":"noteOff","noteNumber":51,"velocity":0},{"deltaTime":990,"channel":0,"type":"channel","noteNumber":54,"velocity":66,"subtype":"noteOn"},{"deltaTime":234,"channel":0,"type":"channel","noteNumber":63,"velocity":81,"subtype":"noteOn"},{"deltaTime":418,"channel":0,"type":"channel","noteNumber":73,"velocity":54,"subtype":"noteOn"},{"deltaTime":652,"channel":0,"type":"channel","subtype":"noteOff","noteNumber":63,"velocity":0},{"deltaTime":713,"channel":0,"type":"channel","subtype":"noteOff","noteNumber":73,"velocity":0},{"deltaTime":2343,"channel":0,"type":"channel","subtype":"noteOff","noteNumber":54,"velocity":0},{"deltaTime":1101,"channel":0,"type":"channel","noteNumber":51,"velocity":69,"subtype":"noteOn"},{"deltaTime":449,"channel":0,"type":"channel","noteNumber":71,"velocity":66,"subtype":"noteOn"},{"deltaTime":233,"channel":0,"type":"channel","noteNumber":72,"velocity":70,"subtype":"noteOn"},{"deltaTime":388,"channel":0,"type":"channel","noteNumber":73,"velocity":31,"subtype":"noteOn"},{"deltaTime":1752,"channel":0,"type":"channel","subtype":"noteOff","noteNumber":71,"velocity":0},{"deltaTime":0,"channel":0,"type":"channel","subtype":"noteOff","noteNumber":73,"velocity":0},{"deltaTime":419,"channel":0,"type":"channel","subtype":"noteOff","noteNumber":72,"velocity":0},{"deltaTime":2047,"channel":0,"type":"channel","subtype":"noteOff","noteNumber":51,"velocity":0},{"deltaTime":959,"channel":0,"type":"channel","noteNumber":54,"velocity":81,"subtype":"noteOn"},{"deltaTime":173,"channel":0,"type":"channel","noteNumber":65,"velocity":81,"subtype":"noteOn"},{"deltaTime":245,"channel":0,"type":"channel","noteNumber":75,"velocity":69,"subtype":"noteOn"},{"deltaTime":112,"channel":0,"type":"channel","noteNumber":73,"velocity":66,"subtype":"noteOn"},{"deltaTime":1038,"channel":0,"type":"channel","subtype":"noteOff","noteNumber":73,"velocity":0},{"deltaTime":32,"channel":0,"type":"channel","subtype":"noteOff","noteNumber":75,"velocity":0},{"deltaTime":1457,"channel":0,"type":"channel","subtype":"noteOff","noteNumber":65,"velocity":0},{"deltaTime":1070,"channel":0,"type":"channel","subtype":"noteOff","noteNumber":54,"velocity":0},{"deltaTime":805,"channel":0,"type":"channel","subtype":"controller","controllerType":64,"value":120},{"deltaTime":172,"channel":0,"type":"channel","subtype":"controller","controllerType":64,"value":56},{"deltaTime":93,"channel":0,"type":"channel","subtype":"controller","controllerType":64,"value":0},{"deltaTime":621,"channel":0,"type":"channel","noteNumber":51,"velocity":75,"subtype":"noteOn"},{"deltaTime":184,"channel":0,"type":"channel","noteNumber":75,"velocity":87,"subtype":"noteOn"},{"deltaTime":479,"channel":0,"type":"channel","noteNumber":65,"velocity":85,"subtype":"noteOn"},{"deltaTime":1600,"channel":0,"type":"channel","subtype":"controller","controllerType":64,"value":56},{"deltaTime":122,"channel":0,"type":"channel","subtype":"controller","controllerType":64,"value":120},{"deltaTime":31,"channel":0,"type":"channel","subtype":"controller","controllerType":64,"value":127},{"deltaTime":2761,"channel":0,"type":"channel","subtype":"noteOff","noteNumber":65,"velocity":0},{"deltaTime":480,"channel":0,"type":"channel","noteNumber":73,"velocity":58,"subtype":"noteOn"},{"deltaTime":529,"channel":0,"type":"channel","subtype":"noteOff","noteNumber":75,"velocity":0},{"deltaTime":233,"channel":0,"type":"channel","noteNumber":54,"velocity":75,"subtype":"noteOn"},{"deltaTime":990,"channel":0,"type":"channel","subtype":"noteOff","noteNumber":51,"velocity":0},{"deltaTime":1753,"channel":0,"type":"channel","subtype":"noteOff","noteNumber":54,"velocity":0},{"deltaTime":1753,"channel":0,"type":"channel","subtype":"noteOff","noteNumber":73,"velocity":0},{"deltaTime":1660,"channel":0,"type":"channel","noteNumber":65,"velocity":70,"subtype":"noteOn"},{"deltaTime":2385,"channel":0,"type":"channel","subtype":"noteOff","noteNumber":65,"velocity":0},{"deltaTime":3057,"channel":0,"type":"channel","noteNumber":75,"velocity":69,"subtype":"noteOn"},{"deltaTime":172,"channel":0,"type":"channel","noteNumber":60,"velocity":63,"subtype":"noteOn"},{"deltaTime":1377,"channel":0,"type":"channel","noteNumber":65,"velocity":29,"subtype":"noteOn"},{"deltaTime":1538,"channel":0,"type":"channel","subtype":"noteOff","noteNumber":65,"velocity":0},{"deltaTime":1998,"channel":0,"type":"channel","subtype":"noteOff","noteNumber":75,"velocity":0},{"deltaTime":326,"channel":0,"type":"channel","noteNumber":73,"velocity":57,"subtype":"noteOn"},{"deltaTime":1600,"channel":0,"type":"channel","noteNumber":61,"velocity":36,"subtype":"noteOn"},{"deltaTime":2232,"channel":0,"type":"channel","subtype":"noteOff","noteNumber":60,"velocity":0},{"deltaTime":1100,"channel":0,"type":"channel","subtype":"noteOff","noteNumber":73,"velocity":0},{"deltaTime":123,"channel":0,"type":"channel","subtype":"noteOff","noteNumber":61,"velocity":0},{"deltaTime":1008,"channel":0,"type":"channel","noteNumber":65,"velocity":48,"subtype":"noteOn"},{"deltaTime":714,"channel":0,"type":"channel","noteNumber":63,"velocity":47,"subtype":"noteOn"},{"deltaTime":4126,"channel":0,"type":"channel","subtype":"noteOff","noteNumber":63,"velocity":0},{"deltaTime":572,"channel":0,"type":"channel","subtype":"noteOff","noteNumber":65,"velocity":0},{"deltaTime":406,"channel":0,"type":"channel","noteNumber":73,"velocity":60,"subtype":"noteOn"},{"deltaTime":836,"channel":0,"type":"channel","noteNumber":61,"velocity":46,"subtype":"noteOn"},{"deltaTime":3831,"channel":0,"type":"channel","subtype":"noteOff","noteNumber":73,"velocity":0},{"deltaTime":898,"channel":0,"type":"channel","subtype":"noteOff","noteNumber":61,"velocity":0},{"deltaTime":805,"channel":0,"type":"channel","noteNumber":63,"velocity":48,"subtype":"noteOn"},{"deltaTime":1009,"channel":0,"type":"channel","noteNumber":65,"velocity":21,"subtype":"noteOn"},{"deltaTime":2884,"channel":0,"type":"channel","subtype":"noteOff","noteNumber":65,"velocity":0},{"deltaTime":2140,"channel":0,"type":"channel","noteNumber":68,"velocity":54,"subtype":"noteOn"},{"deltaTime":234,"channel":0,"type":"channel","noteNumber":59,"velocity":50,"subtype":"noteOn"},{"deltaTime":590,"channel":0,"type":"channel","subtype":"noteOff","noteNumber":63,"velocity":0},{"deltaTime":3179,"channel":0,"type":"channel","subtype":"noteOff","noteNumber":68,"velocity":0},{"deltaTime":1316,"channel":0,"type":"channel","subtype":"noteOff","noteNumber":59,"velocity":0},{"deltaTime":744,"channel":0,"type":"channel","noteNumber":65,"velocity":39,"subtype":"noteOn"},{"deltaTime":357,"channel":0,"type":"channel","noteNumber":61,"velocity":48,"subtype":"noteOn"},{"deltaTime":2995,"channel":0,"type":"channel","subtype":"noteOff","noteNumber":65,"velocity":0},{"deltaTime":2742,"channel":0,"type":"channel","noteNumber":70,"velocity":58,"subtype":"noteOn"},{"deltaTime":172,"channel":0,"type":"channel","subtype":"noteOff","noteNumber":61,"velocity":0},{"deltaTime":215,"channel":0,"type":"channel","noteNumber":63,"velocity":48,"subtype":"noteOn"},{"deltaTime":1119,"channel":0,"type":"channel","noteNumber":68,"velocity":25,"subtype":"noteOn"},{"deltaTime":1876,"channel":0,"type":"channel","subtype":"noteOff","noteNumber":70,"velocity":0},{"deltaTime":2171,"channel":0,"type":"channel","noteNumber":61,"velocity":47,"subtype":"noteOn"},{"deltaTime":184,"channel":0,"type":"channel","noteNumber":65,"velocity":48,"subtype":"noteOn"},{"deltaTime":203,"channel":0,"type":"channel","subtype":"noteOff","noteNumber":68,"velocity":0},{"deltaTime":203,"channel":0,"type":"channel","subtype":"noteOff","noteNumber":63,"velocity":0},{"deltaTime":2804,"channel":0,"type":"channel","subtype":"noteOff","noteNumber":65,"velocity":0},{"deltaTime":2822,"channel":0,"type":"channel","noteNumber":68,"velocity":47,"subtype":"noteOn"},{"deltaTime":204,"channel":0,"type":"channel","noteNumber":73,"velocity":39,"subtype":"noteOn"},{"deltaTime":184,"channel":0,"type":"channel","noteNumber":63,"velocity":41,"subtype":"noteOn"},{"deltaTime":1089,"channel":0,"type":"channel","subtype":"noteOff","noteNumber":61,"velocity":0},{"deltaTime":2293,"channel":0,"type":"channel","subtype":"noteOff","noteNumber":68,"velocity":0},{"deltaTime":1876,"channel":0,"type":"channel","noteNumber":65,"velocity":45,"subtype":"noteOn"},{"deltaTime":203,"channel":0,"type":"channel","subtype":"noteOff","noteNumber":73,"velocity":0},{"deltaTime":1008,"channel":0,"type":"channel","subtype":"noteOff","noteNumber":63,"velocity":0},{"deltaTime":93,"channel":0,"type":"channel","noteNumber":59,"velocity":36,"subtype":"noteOn"},{"deltaTime":1396,"channel":0,"type":"channel","subtype":"noteOff","noteNumber":65,"velocity":0},{"deltaTime":3302,"channel":0,"type":"channel","noteNumber":68,"velocity":59,"subtype":"noteOn"},{"deltaTime":774,"channel":0,"type":"channel","subtype":"noteOff","noteNumber":59,"velocity":0},{"deltaTime":61,"channel":0,"type":"channel","noteNumber":61,"velocity":53,"subtype":"noteOn"},{"deltaTime":173,"channel":0,"type":"channel","noteNumber":73,"velocity":37,"subtype":"noteOn"},{"deltaTime":3506,"channel":0,"type":"channel","subtype":"noteOff","noteNumber":68,"velocity":0},{"deltaTime":1579,"channel":0,"type":"channel","noteNumber":65,"velocity":58,"subtype":"noteOn"},{"deltaTime":204,"channel":0,"type":"channel","noteNumber":63,"velocity":57,"subtype":"noteOn"},{"deltaTime":1100,"channel":0,"type":"channel","subtype":"noteOff","noteNumber":73,"velocity":0},{"deltaTime":2792,"channel":0,"type":"channel","subtype":"noteOff","noteNumber":65,"velocity":0},{"deltaTime":1519,"channel":0,"type":"channel","noteNumber":68,"velocity":60,"subtype":"noteOn"},{"deltaTime":541,"channel":0,"type":"channel","noteNumber":75,"velocity":53,"subtype":"noteOn"},{"deltaTime":387,"channel":0,"type":"channel","noteNumber":58,"velocity":47,"subtype":"noteOn"},{"deltaTime":1089,"channel":0,"type":"channel","subtype":"noteOff","noteNumber":61,"velocity":0},{"deltaTime":3240,"channel":0,"type":"channel","subtype":"noteOff","noteNumber":68,"velocity":0},{"deltaTime":633,"channel":0,"type":"channel","noteNumber":61,"velocity":47,"subtype":"noteOn"},{"deltaTime":265,"channel":0,"type":"channel","noteNumber":65,"velocity":52,"subtype":"noteOn"},{"deltaTime":204,"channel":0,"type":"channel","subtype":"noteOff","noteNumber":75,"velocity":0},{"deltaTime":601,"channel":0,"type":"channel","subtype":"noteOff","noteNumber":63,"velocity":0},{"deltaTime":1120,"channel":0,"type":"channel","subtype":"noteOff","noteNumber":58,"velocity":0},{"deltaTime":1906,"channel":0,"type":"channel","subtype":"noteOff","noteNumber":65,"velocity":0},{"deltaTime":2110,"channel":0,"type":"channel","noteNumber":63,"velocity":50,"subtype":"noteOn"},{"deltaTime":184,"channel":0,"type":"channel","noteNumber":68,"velocity":63,"subtype":"noteOn"},{"deltaTime":467,"channel":0,"type":"channel","noteNumber":73,"velocity":51,"subtype":"noteOn"},{"deltaTime":4729,"channel":0,"type":"channel","subtype":"noteOff","noteNumber":68,"velocity":0},{"deltaTime":541,"channel":0,"type":"channel","noteNumber":58,"velocity":45,"subtype":"noteOn"},{"deltaTime":326,"channel":0,"type":"channel","subtype":"noteOff","noteNumber":73,"velocity":0},{"deltaTime":560,"channel":0,"type":"channel","noteNumber":65,"velocity":46,"subtype":"noteOn"},{"deltaTime":540,"channel":0,"type":"channel","subtype":"noteOff","noteNumber":61,"velocity":0},{"deltaTime":3322,"channel":0,"type":"channel","subtype":"noteOff","noteNumber":65,"velocity":0},{"deltaTime":1038,"channel":0,"type":"channel","subtype":"noteOff","noteNumber":63,"velocity":0},{"deltaTime":277,"channel":0,"type":"channel","noteNumber":61,"velocity":55,"subtype":"noteOn"},{"deltaTime":499,"channel":0,"type":"channel","subtype":"noteOff","noteNumber":58,"velocity":0},{"deltaTime":184,"channel":0,"type":"channel","noteNumber":68,"velocity":47,"subtype":"noteOn"},{"deltaTime":172,"channel":0,"type":"channel","noteNumber":73,"velocity":43,"subtype":"noteOn"},{"deltaTime":4311,"channel":0,"type":"channel","subtype":"noteOff","noteNumber":68,"velocity":0},{"deltaTime":744,"channel":0,"type":"channel","noteNumber":63,"velocity":39,"subtype":"noteOn"},{"deltaTime":265,"channel":0,"type":"channel","subtype":"noteOff","noteNumber":73,"velocity":0},{"deltaTime":356,"channel":0,"type":"channel","noteNumber":65,"velocity":40,"subtype":"noteOn"},{"deltaTime":4962,"channel":0,"type":"channel","subtype":"noteOff","noteNumber":65,"velocity":0},{"deltaTime":572,"channel":0,"type":"channel","noteNumber":68,"velocity":57,"subtype":"noteOn"},{"deltaTime":387,"channel":0,"type":"channel","subtype":"noteOff","noteNumber":63,"velocity":0},{"deltaTime":357,"channel":0,"type":"channel","noteNumber":73,"velocity":42,"subtype":"noteOn"},{"deltaTime":1101,"channel":0,"type":"channel","noteNumber":59,"velocity":35,"subtype":"noteOn"},{"deltaTime":142,"channel":0,"type":"channel","subtype":"noteOff","noteNumber":61,"velocity":0},{"deltaTime":1457,"channel":0,"type":"channel","subtype":"noteOff","noteNumber":68,"velocity":0},{"deltaTime":1783,"channel":0,"type":"channel","subtype":"noteOff","noteNumber":73,"velocity":0},{"deltaTime":1162,"channel":0,"type":"channel","noteNumber":61,"velocity":48,"subtype":"noteOn"},{"deltaTime":498,"channel":0,"type":"channel","noteNumber":65,"velocity":46,"subtype":"noteOn"},{"deltaTime":1968,"channel":0,"type":"channel","subtype":"noteOff","noteNumber":59,"velocity":0},{"deltaTime":3088,"channel":0,"type":"channel","subtype":"noteOff","noteNumber":65,"velocity":0},{"deltaTime":92,"channel":0,"type":"channel","noteNumber":73,"velocity":52,"subtype":"noteOn"},{"deltaTime":448,"channel":0,"type":"channel","noteNumber":63,"velocity":55,"subtype":"noteOn"},{"deltaTime":1396,"channel":0,"type":"channel","subtype":"noteOff","noteNumber":61,"velocity":0},{"deltaTime":1242,"channel":0,"type":"channel","subtype":"noteOff","noteNumber":73,"velocity":0},{"deltaTime":1734,"channel":0,"type":"channel","subtype":"noteOff","noteNumber":63,"velocity":0},{"deltaTime":1569,"channel":0,"type":"channel","noteNumber":65,"velocity":40,"subtype":"noteOn"},{"deltaTime":3892,"channel":0,"type":"channel","subtype":"noteOff","noteNumber":65,"velocity":0},{"deltaTime":652,"channel":0,"type":"channel","noteNumber":73,"velocity":42,"subtype":"noteOn"},{"deltaTime":6063,"channel":0,"type":"channel","subtype":"noteOff","noteNumber":73,"velocity":0},{"deltaTime":713,"channel":0,"type":"channel","noteNumber":75,"velocity":43,"subtype":"noteOn"},{"deltaTime":4465,"channel":0,"type":"channel","subtype":"noteOff","noteNumber":75,"velocity":0},{"deltaTime":2914,"channel":0,"type":"channel","noteNumber":73,"velocity":34,"subtype":"noteOn"},{"deltaTime":5319,"channel":0,"type":"channel","subtype":"noteOff","noteNumber":73,"velocity":0},{"deltaTime":917,"channel":0,"type":"channel","noteNumber":75,"velocity":47,"subtype":"noteOn"},{"deltaTime":4729,"channel":0,"type":"channel","noteNumber":73,"velocity":36,"subtype":"noteOn"},{"deltaTime":916,"channel":0,"type":"channel","subtype":"noteOff","noteNumber":75,"velocity":0},{"deltaTime":5208,"channel":0,"type":"channel","subtype":"noteOff","noteNumber":73,"velocity":0},{"deltaTime":142,"channel":0,"type":"channel","noteNumber":70,"velocity":39,"subtype":"noteOn"},{"deltaTime":1285,"channel":0,"type":"channel","noteNumber":59,"velocity":34,"subtype":"noteOn"},{"deltaTime":4218,"channel":0,"type":"channel","subtype":"noteOff","noteNumber":70,"velocity":0},{"deltaTime":203,"channel":0,"type":"channel","noteNumber":80,"velocity":63,"subtype":"noteOn"},{"deltaTime":5178,"channel":0,"type":"channel","noteNumber":67,"velocity":38,"subtype":"noteOn"},{"deltaTime":357,"channel":0,"type":"channel","noteNumber":73,"velocity":40,"subtype":"noteOn"},{"deltaTime":172,"channel":0,"type":"channel","subtype":"noteOff","noteNumber":80,"velocity":0},{"deltaTime":4372,"channel":0,"type":"channel","noteNumber":70,"velocity":45,"subtype":"noteOn"},{"deltaTime":123,"channel":0,"type":"channel","subtype":"noteOff","noteNumber":73,"velocity":0},{"deltaTime":3057,"channel":0,"type":"channel","subtype":"noteOff","noteNumber":59,"velocity":0},{"deltaTime":122,"channel":0,"type":"channel","noteNumber":73,"velocity":32,"subtype":"noteOn"},{"deltaTime":744,"channel":0,"type":"channel","noteNumber":63,"velocity":45,"subtype":"noteOn"},{"deltaTime":2017,"channel":0,"type":"channel","subtype":"noteOff","noteNumber":70,"velocity":0},{"deltaTime":2202,"channel":0,"type":"channel","noteNumber":80,"velocity":48,"subtype":"noteOn"},{"deltaTime":1304,"channel":0,"type":"channel","subtype":"noteOff","noteNumber":73,"velocity":0},{"deltaTime":571,"channel":0,"type":"channel","subtype":"noteOff","noteNumber":67,"velocity":0},{"deltaTime":2823,"channel":0,"type":"channel","noteNumber":73,"velocity":39,"subtype":"noteOn"},{"deltaTime":978,"channel":0,"type":"channel","subtype":"noteOff","noteNumber":80,"velocity":0},{"deltaTime":559,"channel":0,"type":"channel","subtype":"noteOff","noteNumber":63,"velocity":0},{"deltaTime":3751,"channel":0,"type":"channel","noteNumber":67,"velocity":23,"subtype":"noteOn"},{"deltaTime":836,"channel":0,"type":"channel","noteNumber":70,"velocity":53,"subtype":"noteOn"},{"deltaTime":1101,"channel":0,"type":"channel","subtype":"noteOff","noteNumber":73,"velocity":0},{"deltaTime":4391,"channel":0,"type":"channel","noteNumber":73,"velocity":47,"subtype":"noteOn"},{"deltaTime":1365,"channel":0,"type":"channel","subtype":"noteOff","noteNumber":70,"velocity":0},{"deltaTime":5116,"channel":0,"type":"channel","noteNumber":80,"velocity":63,"subtype":"noteOn"},{"deltaTime":510,"channel":0,"type":"channel","noteNumber":59,"velocity":60,"subtype":"noteOn"},{"deltaTime":713,"channel":0,"type":"channel","subtype":"noteOff","noteNumber":73,"velocity":0},{"deltaTime":3290,"channel":0,"type":"channel","subtype":"noteOff","noteNumber":67,"velocity":0},{"deltaTime":1286,"channel":0,"type":"channel","noteNumber":73,"velocity":47,"subtype":"noteOn"},{"deltaTime":418,"channel":0,"type":"channel","subtype":"noteOff","noteNumber":80,"velocity":0},{"deltaTime":4157,"channel":0,"type":"channel","noteNumber":63,"velocity":41,"subtype":"noteOn"},{"deltaTime":2312,"channel":0,"type":"channel","subtype":"noteOff","noteNumber":59,"velocity":0},{"deltaTime":276,"channel":0,"type":"channel","noteNumber":70,"velocity":69,"subtype":"noteOn"},{"deltaTime":468,"channel":0,"type":"channel","subtype":"noteOff","noteNumber":73,"velocity":0},{"deltaTime":154,"channel":0,"type":"channel","noteNumber":67,"velocity":59,"subtype":"noteOn"},{"deltaTime":916,"channel":0,"type":"channel","subtype":"noteOff","noteNumber":63,"velocity":0},{"deltaTime":4311,"channel":0,"type":"channel","noteNumber":73,"velocity":49,"subtype":"noteOn"},{"deltaTime":744,"channel":0,"type":"channel","noteNumber":63,"velocity":55,"subtype":"noteOn"},{"deltaTime":295,"channel":0,"type":"channel","subtype":"noteOff","noteNumber":67,"velocity":0},{"deltaTime":928,"channel":0,"type":"channel","subtype":"noteOff","noteNumber":70,"velocity":0},{"deltaTime":4576,"channel":0,"type":"channel","subtype":"noteOff","noteNumber":73,"velocity":0},{"deltaTime":356,"channel":0,"type":"channel","noteNumber":78,"velocity":66,"subtype":"noteOn"},{"deltaTime":683,"channel":0,"type":"channel","noteNumber":67,"velocity":42,"subtype":"noteOn"},{"deltaTime":590,"channel":0,"type":"channel","subtype":"noteOff","noteNumber":63,"velocity":0},{"deltaTime":3923,"channel":0,"type":"channel","subtype":"noteOff","noteNumber":67,"velocity":0},{"deltaTime":806,"channel":0,"type":"channel","noteNumber":63,"velocity":57,"subtype":"noteOn"},{"deltaTime":1070,"channel":0,"type":"channel","noteNumber":70,"velocity":41,"subtype":"noteOn"},{"deltaTime":1722,"channel":0,"type":"channel","subtype":"noteOff","noteNumber":78,"velocity":0},{"deltaTime":541,"channel":0,"type":"channel","noteNumber":73,"velocity":55,"subtype":"noteOn"},{"deltaTime":2588,"channel":0,"type":"channel","noteNumber":78,"velocity":64,"subtype":"noteOn"},{"deltaTime":173,"channel":0,"type":"channel","noteNumber":59,"velocity":51,"subtype":"noteOn"},{"deltaTime":233,"channel":0,"type":"channel","subtype":"noteOff","noteNumber":70,"velocity":0},{"deltaTime":124,"channel":0,"type":"channel","subtype":"noteOff","noteNumber":63,"velocity":0},{"deltaTime":1131,"channel":0,"type":"channel","subtype":"noteOff","noteNumber":73,"velocity":0},{"deltaTime":4219,"channel":0,"type":"channel","subtype":"noteOff","noteNumber":78,"velocity":0},{"deltaTime":1069,"channel":0,"type":"channel","noteNumber":63,"velocity":55,"subtype":"noteOn"},{"deltaTime":265,"channel":0,"type":"channel","noteNumber":73,"velocity":62,"subtype":"noteOn"},{"deltaTime":682,"channel":0,"type":"channel","subtype":"noteOff","noteNumber":59,"velocity":0},{"deltaTime":4963,"channel":0,"type":"channel","noteNumber":65,"velocity":68,"subtype":"noteOn"},{"deltaTime":898,"channel":0,"type":"channel","noteNumber":70,"velocity":70,"subtype":"noteOn"},{"deltaTime":202,"channel":0,"type":"channel","subtype":"noteOff","noteNumber":73,"velocity":0},{"deltaTime":542,"channel":0,"type":"channel","subtype":"noteOff","noteNumber":63,"velocity":0},{"deltaTime":2914,"channel":0,"type":"channel","subtype":"noteOff","noteNumber":65,"velocity":0},{"deltaTime":1722,"channel":0,"type":"channel","noteNumber":63,"velocity":40,"subtype":"noteOn"},{"deltaTime":652,"channel":0,"type":"channel","noteNumber":73,"velocity":58,"subtype":"noteOn"},{"deltaTime":1009,"channel":0,"type":"channel","subtype":"noteOff","noteNumber":70,"velocity":0},{"deltaTime":3830,"channel":0,"type":"channel","subtype":"noteOff","noteNumber":73,"velocity":0},{"deltaTime":62,"channel":0,"type":"channel","noteNumber":70,"velocity":70,"subtype":"noteOn"},{"deltaTime":326,"channel":0,"type":"channel","noteNumber":66,"velocity":62,"subtype":"noteOn"},{"deltaTime":602,"channel":0,"type":"channel","subtype":"noteOff","noteNumber":63,"velocity":0},{"deltaTime":265,"channel":0,"type":"channel","noteNumber":80,"velocity":78,"subtype":"noteOn"},{"deltaTime":1661,"channel":0,"type":"channel","noteNumber":59,"velocity":38,"subtype":"noteOn"},{"deltaTime":1254,"channel":0,"type":"channel","subtype":"noteOff","noteNumber":70,"velocity":0},{"deltaTime":3474,"channel":0,"type":"channel","noteNumber":73,"velocity":51,"subtype":"noteOn"},{"deltaTime":652,"channel":0,"type":"channel","subtype":"noteOff","noteNumber":80,"velocity":0},{"deltaTime":602,"channel":0,"type":"channel","noteNumber":63,"velocity":51,"subtype":"noteOn"},{"deltaTime":406,"channel":0,"type":"channel","subtype":"noteOff","noteNumber":66,"velocity":0},{"deltaTime":124,"channel":0,"type":"channel","subtype":"noteOff","noteNumber":59,"velocity":0},{"deltaTime":4249,"channel":0,"type":"channel","subtype":"noteOff","noteNumber":73,"velocity":0},{"deltaTime":448,"channel":0,"type":"channel","noteNumber":70,"velocity":53,"subtype":"noteOn"},{"deltaTime":172,"channel":0,"type":"channel","noteNumber":68,"velocity":42,"subtype":"noteOn"},{"deltaTime":1286,"channel":0,"type":"channel","subtype":"noteOff","noteNumber":63,"velocity":0},{"deltaTime":3800,"channel":0,"type":"channel","noteNumber":73,"velocity":49,"subtype":"noteOn"},{"deltaTime":296,"channel":0,"type":"channel","subtype":"noteOff","noteNumber":70,"velocity":0},{"deltaTime":510,"channel":0,"type":"channel","noteNumber":63,"velocity":51,"subtype":"noteOn"},{"deltaTime":387,"channel":0,"type":"channel","subtype":"noteOff","noteNumber":68,"velocity":0},{"deltaTime":5104,"channel":0,"type":"channel","subtype":"noteOff","noteNumber":73,"velocity":0},{"deltaTime":215,"channel":0,"type":"channel","noteNumber":80,"velocity":53,"subtype":"noteOn"},{"deltaTime":1131,"channel":0,"type":"channel","subtype":"noteOff","noteNumber":63,"velocity":0},{"deltaTime":499,"channel":0,"type":"channel","noteNumber":59,"velocity":38,"subtype":"noteOn"},{"deltaTime":3374,"type":"meta","subtype":"endOfTrack"}]]}